<?xml version="1.0" encoding="utf-8"?>
<!-- Generator: Adobe Illustrator 25.0.0, SVG Export Plug-In . SVG Version: 6.00 Build 0)  -->
<svg version="1.1" id="Layer_1" xmlns="http://www.w3.org/2000/svg" xmlns:xlink="http://www.w3.org/1999/xlink" x="0px" y="0px"
	 viewBox="0 0 964.4 968.1" style="enable-background:new 0 0 964.4 968.1;" xml:space="preserve">
<style type="text/css">
	.st0{fill:#FEFEFE;}
	.st1{fill:#B2B4B5;}
	.st2{fill:#040303;}
	.st3{fill:#F9A120;}
	.st4{fill:#E56020;}
	.st5{fill:#B75A32;}
</style>
<g>
	<path class="st0" d="M955.1,23.7c-0.8-8.6-9.7-14.7-18.7-14.7c-0.4,0-0.9,0-1.3,0H360.2h-0.1l-0.1,0c-37.2,0.4-67.8,9.3-90.9,26.6
		c-20.1,14.9-35.3,38.6-42.9,66.7l0,0.1l0,0.1l-32.1,128.3c-52.6,210-107,427.1-160.6,640.7l-18.6,75l-3.7,14.9h15.3h640.3
		c19.9,0,40.1-8.5,56.8-24.1c14.1-13.1,24.7-30.3,28.4-45.9c42.4-180.5,85.9-363.8,128-541.1c24.5-103.4,49.9-210.4,74.8-315.6
		C954.9,34.9,955.4,26.5,955.1,23.7z M943.3,31.7c-67.6,285.8-135.7,571.2-202.9,857.1c-5.9,25.3-35.9,60.7-73.5,60.7
		c-153.8,0-640.3,0-640.3,0l18.6-75c64.3-256.3,128.5-512.7,192.7-769c6.3-23.3,18.9-45.6,38.5-60.2c23.9-17.9,54.5-23.9,83.8-24.2
		c191.7,0,383.6,0,575.4,0c0.3,0,0.6,0,0.8,0c3.2,0,6.3,2.1,7,5.1C943.6,27.5,943.4,31.7,943.3,31.7z M362.9,694.3
		c2.7-2.5,6.4-4.3,8.4-7.5c3.3-13.6,6.7-27.3,9.9-40.9c-2.2-2.2-3.3-6.4-6.9-6.6c-6.9,0.3-13.6,0.1-20.5,0.3
		c-2.7,2.1-5.4,4.3-8.1,6.4c-3.4,13.7-6.7,27.6-10.3,41.5c1.6,2.2,3.3,4.5,4.8,6.7C347.8,694.5,355.4,694.3,362.9,694.3z
		 M357.5,649.3c3.6,0,7.2,0,10.9,0c-3.2,12-5.9,24.1-9.2,36.2c-3.6-0.1-7.2-0.1-10.7-0.1C351.6,673.5,354.2,661.2,357.5,649.3z
		 M141.8,694.1c6.3,0.1,12.5,0.3,18.7-0.1c-1.5-2.1-3-4.2-4.5-6.1c1.3-3.9,2.2-7.9,3-11.9c8.2-2.8,16.4-5.7,24.9-7.9
		c2.8-6.9,3.4-14.5,5.8-21.5c-1.9-2.5-3.1-6.2-6.4-7.4c-8.4,0.3-16.6,0.4-24.9,0.1c-2.7,0.1-5.4,0.1-7.9,0.3
		c0.1,3.3,4.8,5.2,3.1,8.7C149.4,663.5,146.6,679.1,141.8,694.1z M165.9,649.3c3.6,0,7.3,0,10.9,0c-1.4,4.2-2.1,8.5-3.6,12.4
		c-3.7,0.7-7.3,1.9-10.7,3.3C162.9,659.6,164.7,654.5,165.9,649.3z M747.3,639.5c-7.3,9.3-14.5,18.7-21.8,28.1
		c2.2,6.7,4.3,13.6,6.4,20.5c2,2.4,5.6,3,6.9,5.9c-6,0.3-11.9,0.1-17.9,0.1c-1.2-5.2-2.8-10.5-3.7-15.7c-4,5.2-7.9,10.5-11.8,15.7
		c-4.2-0.1-8.5,0.3-12.7-0.4c7.6-7.9,13.7-17.2,20.6-25.7c-0.3-6.6-3.4-12.7-4.8-19.3c-0.4-4.5-5.5-5.7-8.1-8.8
		c6.1-1,12.2-0.3,18.4-0.4c1,5.5,2.7,10.9,4,16.4c3.9-5.2,7.8-10.6,11.8-15.8C738.3,637.9,743.1,640.1,747.3,639.5z M618.5,694.3
		c3-8.2,4.3-17.2,6.6-25.7c1.6-6.6,3.3-13.3,4.9-19.9c1.8-3.7-2.8-5.7-3-9c6-0.2,11.8-0.1,17.8-0.5c-3.9,16.3-7.6,32.5-12.1,48.7
		c1.5,2.1,3,4,4.3,6.3C630.9,694.6,624.8,694.5,618.5,694.3z M430.1,694.1c4.5-16.1,8.1-32.4,11.9-48.7c-1.3-1.6-2.7-3.1-4-4.8
		l1.5-1.2c11.4-0.1,23.2,0.5,34.9-0.2c-0.9,5.1-2.1,10-3.7,14.9c-1.5-1.3-2.7-2.8-3.4-4.5c-4.8-0.7-9.6-0.6-14.2,0
		c-0.7,4.2-1.8,8.4-2.7,12.5c3.9,0,7.8,0,11.6,0c-0.7,3.1-1.5,6.3-2.1,9.4c-3.9,0-7.9,0-11.8,0c-1.2,4.6-2.4,9.1-3.4,13.7
		c4.6,0,9.3,0,13.9,0c2.1-1.9,4-4.2,6.9-5.1c-0.4,4.8-2.1,9.4-3,14C451.8,694.1,441,694.1,430.1,694.1z M278.9,694
		c-6,0.1-11.9,0.1-17.9,0c2.2-7.9,4.3-16,5.7-24c-3.7,0.9-7.5,1.8-11.2,2.7c-0.1,0.9-0.4,2.8-0.6,3.9c-1.8,5.8-3,11.6-4.5,17.5
		c-4.2,0-8.5,0-12.7,0c4.2-16.1,8.2-32.4,11.9-48.5c-1.3-1.6-2.8-3.4-4.2-5.1c5.5-2.8,11.9,0,17.8-1.3c-0.7,7.8-3.7,15.1-5.1,22.8
		c3.6-0.9,7.2-1.8,10.7-2.2c2.8-6.4,3.1-13.6,5.5-20c4-0.1,8.1-0.1,11.9-0.6c-2.4,15.6-6.7,31.2-10.5,46.8c-1.5,2.7,1.3,4.5,2.8,6.1
		C278.6,692.5,278.8,693.6,278.9,694z M521.2,694.3c4.9-18.1,8.8-36.6,13.6-54.6c9.6,0.3,19-0.1,28.5,0.1c2.7,1,3.9,4.2,5.8,6.1
		c-2.7,13.3-6.4,26.4-9.4,39.9c-1.5,2.8,0.9,4.6,2.8,6.4c0,0.4,0.1,1.5,0.1,2.1c-5.8,0-11.6,0-17.6,0c3.9-14.9,7.2-30,11.3-44.8
		c-3.9-0.1-7.9-0.3-11.8,0c-3,15.1-7.6,29.7-10.5,44.8C529.7,694.4,525.5,694.4,521.2,694.3z M647,875.6l22.9,2.3l-18.2,10.2
		c0,0-40.3,0.2-60.5-0.1c-2.9-3.7-8.4-11.3-8.4-11.3l3.3-14.8c0,0-11.3-17.6-17-25.4l41.5,18.5c-0.9,7-4.6,20.6-4.6,20.6H647z
		 M555.6,807.3c-6.4,24.6-12.2,49.4-19.1,73.9c3.7,5.1,7.7,10.2,11.3,15.4c-12-1.9-35.7-8.2-35.7-8.2L549,741.6l-9.4-11.6l-75.4-0.4
		l-19.9-13.3l113.9,1.2c5,6.8,10.1,13.8,14.9,20.8C566.6,761,561.6,784.3,555.6,807.3z M464.1,730.4c6.6,4.3,19.5,13.4,19.5,13.4
		s-26.4,104.6-39.4,156.9c-6.7-4.3-13.4-8.4-20.3-12.4C437.4,835.6,450.4,783,464.1,730.4z M245.6,716.5l16,22L250.2,782l-41.9-18.8
		l24.9-7.4l3.6-14.2l-8.8-11.8l-60.2-0.2L149,739.9l-22.6-1.9l26.8-21.3L245.6,716.5z M629.4,785.3c26.4,11.2,52.9,22.3,79.3,33.3
		c-5.5,20.6-16,62-16,62l-21.8-3.1c0,0,9.1-34.6,13.1-52.1c-26.6-11.2-53.3-22-79.7-33.6c4.5-17.1,13-51.1,13-51.1l22.8,2.1
		C640.1,742.8,632.8,771.1,629.4,785.3z M712.6,716.7l16.2,21.5c-3.8,14.8-11.3,44.5-11.3,44.5l-41.4-19.4l24.9-8.1l3.6-13.4
		l-9.4-11.8l-60.5-0.3L616,739.9l-21.2-2.7c0,0,17.5-14.8,24.8-20.9L712.6,716.7z M375,717.8l47.1-0.2c0,0-30.9,122.9-46,184.1
		l-20.5-13.3l40-158.5L375,717.8z M161.8,785.3l79,33.6l-15.4,61.4l-22.1-2.6l13-52.2l-79.4-33.3l12.5-51.4l22.7,2.4L161.8,785.3z
		 M179.1,875.6l23.3,2.4l-14.3,10h-63.9l-8.9-11.5l3.1-14.9l-17.2-25.1l42.4,19.7l-5.2,19.4H179.1z M335.6,875.1l18.9,13h-74.6
		l-9.3-11.5l36.7-146.9l-36.7-8.5c0,0,2.2-2.5,3.4-3.7c19.9,0,39.7,0,59.6,0l-39.7,157.7L335.6,875.1z"/>
	<path class="st1" d="M943.4,26.2c-0.7-3.3-4.3-5.5-7.8-5.1c-191.8,0-383.7,0-575.4,0c-29.3,0.3-59.9,6.3-83.8,24.2
		c-19.6,14.6-32.2,36.9-38.5,60.2c-64.2,256.3-128.4,512.7-192.7,769l-18.6,75c0,0,486.5,0,640.3,0c37.6,0,67.6-35.4,73.5-60.7
		c67.2-285.9,135.3-571.3,202.9-857.1C943.4,31.7,943.6,27.5,943.4,26.2z M889.6,226.2c-52,219.3-103.8,438.8-155.7,658.2
		c-7.8,33.9-41.2,59.9-76,58.8c-207.4,0-414.9,0.1-622.2,0.1c68.7-275,137.9-550.2,206.7-825.3c3.9-16.9,9.6-33.9,20-47.9
		c10.9-15.2,26.7-26.6,44.3-32.7c21.9-8.1,45.5-8.8,68.7-8.5c186.8-0.1,373.7,0.1,560.4,0C921,94.9,904.9,160.2,889.6,226.2z
		 M322,67.7c-16.1,7.9-28.7,22.1-36,38.4c-5.7,11.8-8.7,24.5-11.8,37.2C235,299.5,195.1,455.7,156,612c179.7,0,359.5,0,539.2,0
		c5.7,0,11.3,0.1,16.9-0.3c30.8-3.3,58.2-28.1,63.3-58.8C813.5,387.6,851.7,222.2,889.9,57c-169.9-0.2-339.8-0.2-509.7-0.2
		C360.5,57.1,340,59,322,67.7z M880.4,64.1c-36.3,160-73.5,319.9-110.4,480c-1.8,7.3-2.8,14.8-6,21.6c-9.6,21.9-32.2,38.2-56.4,38.8
		c-180.9,0-361.7,0.1-542.7-0.1c38.8-153.3,77.5-306.8,116.1-460.1c3.4-14,6.9-28.5,14-41.2c7.2-13.4,19-24.5,33-30.3
		c14.9-6.1,31.2-8.5,47.2-8.7C543.6,64.1,712,64.2,880.4,64.1z M228,729.9l8.8,11.9l-3.6,14l-25,7.7l5.2-20.5l-41.4,0.4l-22.7-2.4
		l-12.5,51.4l79.4,33.3l-13,52.1l22.1,2.5l-25.2,20.8l-93.2,0.6l-16.3-20.9c3.5-14.5,10.5-44.2,10.5-44.2l17.3,25.1l-3.1,14.9
		l9,11.3h63.9l14.3-10l-23.1-2.4c0,0,7.2-28.3,10.9-42.5c-26.5-11.2-79.3-33.4-79.3-33.4l15.5-61.5l22.5,1.8l18.8-10H228z
		 M395.6,729.9c0,0-26.9,105.6-40.2,158.7c5.7,3.7,20.5,13.3,20.5,13.3l-115.6-0.7c0,0-10.1-14.1-14.3-20.8
		c12.4-47.8,24.2-95.5,36.3-143.3c-3.8-5.2-11.6-15.7-11.6-15.7l36.7,8.5l-36.7,146.9l9.3,11.5c0,0,49.8,0.1,74.6,0l-19-13.4
		c0,0,26.5-104.7,39.3-157.1h0.1L395.6,729.9z M695.1,730l9.4,11.8l-3.6,13.4c0,0-16.6,5.5-25.3,8.2c1.5-6.7,3.6-13.4,5.1-20.3
		c-13.6-0.2-40.9-0.1-40.9-0.1l-22.8-2.1c0,0-8.5,34.1-13,51.1c26.3,11.7,53.1,22.4,79.7,33.6c-4,17.5-13.1,52.1-13.1,52.1l21.8,3.1
		l-25.2,20.6l-94.5-0.1c0,0-10.3-13.8-14.9-21c4.2-14.4,7.5-29.1,11.2-43.7l17,25.4l-3.3,14.8c0,0,5.6,7.6,8.4,11.3
		c20.2,0.2,60.5,0.1,60.5,0.1l18.2-10.2l-22.8-2.4c0,0,7.2-28.5,10.6-42.7c-26.4-11.2-53-21.8-79.1-33.4
		c5.8-20.9,10.3-41.5,16.3-62.4l21.2,2.7l18.6-10.1L695.1,730z M548.9,741.6c0,0-24.7,97.8-36.8,146.7c11.8,2.8,23.6,6.3,35.7,8.2
		l-4.8,4.3c-19.1-0.1-38.3,0.2-57.6-0.1c13.4-52.5,25.7-104.3,39.4-156.9l-41.2,0.1c0,0-13-9.1-19.6-13.4
		c-13.8,52.5-26.8,105.3-40.2,157.9c6.9,4,13.7,8.1,20.3,12.4c-15.7,0-31.2,0-46.9,0l47-184.5l19.9,13.3l75.4,0.4L548.9,741.6z"/>
	<path class="st2" d="M375.5,28.9c-23.2-0.3-46.8,0.4-68.7,8.5c-17.6,6.1-33.4,17.6-44.3,32.8c-10.4,14-16.1,31-20,47.9
		c-69,275.2-138,550.2-206.8,825.3c207.4,0,414.7,0,622.1,0c34.8,1.1,68.2-24.9,76-58.8c51.9-219.4,103.7-438.9,155.7-658.2
		c15.2-65.8,31.5-131.5,46.4-197.5C749.2,29,562.3,28.9,375.5,28.9z M150.5,639.6c2.5-0.2,5.2-0.2,7.9-0.3
		c8.3,0.3,16.5,0.2,24.9-0.1c3.3,1.2,4.5,4.9,6.4,7.4c-2.4,7-3,14.6-5.8,21.5c-8.5,2.2-16.7,5.1-24.9,7.9c-0.8,4-1.7,8-3,11.9
		c1.5,1.9,3,4,4.5,6.1c-6.2,0.4-12.4,0.2-18.7,0.1c4.8-15,7.6-30.6,11.8-45.8C155.3,644.8,150.6,642.9,150.5,639.6z M225.4,880.3
		l-0.1,0l-25.2,20.8l-93.2,0.6l-16.3-20.9c3.5-14.5,10.5-44.2,10.5-44.2l2.4,1l40.1,18.6l-5.2,19.4h40.7l11.2-42.6
		c-26.5-11.2-79.3-33.4-79.3-33.4l15.5-61.5l-0.1-0.1l26.8-21.3l92.4-0.2l16,22L250.2,782l-41.5-18.6l-0.5,0.1l5.2-20.5l-41.3,0.4
		l-10.3,41.9l79,33.6L225.4,880.3z M245.4,640.5c5.5-2.8,11.9,0,17.8-1.3c-0.7,7.8-3.7,15.1-5.1,22.8c3.6-0.9,7.2-1.8,10.7-2.2
		c2.8-6.4,3.1-13.6,5.5-20c4-0.1,8.1-0.1,11.9-0.6c-2.4,15.6-6.7,31.2-10.5,46.8c-1.5,2.7,1.3,4.5,2.8,6.1c0.1,0.4,0.3,1.5,0.4,1.9
		c-6,0.1-11.9,0.1-17.9,0c2.2-7.9,4.3-16,5.7-24c-3.7,0.9-7.5,1.8-11.2,2.7c-0.1,0.9-0.4,2.8-0.6,3.9c-1.8,5.8-3,11.6-4.5,17.5
		c-4.2,0-8.5,0-12.7,0c4.2-16.1,8.2-32.4,11.9-48.5C248.3,644,246.8,642.2,245.4,640.5z M375.9,901.9l-115.6-0.7
		c0,0-10.1-14.1-14.3-20.8c11.8-45.3,23-90.6,34.4-135.9l1.9-7.4c-3.8-5.2-11.6-15.7-11.6-15.7l0,0.1l-0.1-0.3c0,0,2.2-2.5,3.4-3.7
		c19.9,0,39.7,0,59.6,0l-39.7,157.7l41.7-0.1v-0.2c0,0,26.5-104.7,39.3-157.1h0.1l47.1-0.2c0,0-30.9,122.9-46,184.1l-0.5-0.4
		C375.8,901.7,375.9,901.9,375.9,901.9z M335.4,687.5c3.6-13.9,6.9-27.8,10.3-41.5c2.7-2.1,5.4-4.3,8.1-6.4c6.9-0.2,13.6,0,20.5-0.3
		c3.6,0.2,4.7,4.4,6.9,6.6c-3.2,13.6-6.6,27.3-9.9,40.9c-2,3.2-5.7,5-8.4,7.5c-7.5,0-15.1,0.2-22.7-0.1
		C338.7,692,337,689.7,335.4,687.5z M547.7,896.5L547.7,896.5L547.7,896.5l-4.7,4.3c-19.1-0.1-38.3,0.2-57.6-0.1
		c13.4-52.5,25.7-104.3,39.4-156.9l-41.2,0.1c0,0,0,0,0,0c-0.8,3.3-26.6,105.4-39.4,156.8l-0.1,0.1c-15.7,0-31.2,0-46.9,0l47-184.5
		h0.1l113.9,1.2c5,6.8,10.1,13.8,14.9,20.8c-6.5,22.7-11.5,46-17.5,69c-6.4,24.6-12.2,49.4-19.1,73.9
		C540.2,886.3,544.1,891.3,547.7,896.5z M438,640.6l1.5-1.2c11.4-0.1,23.2,0.5,34.9-0.2c-0.9,5.1-2.1,10-3.7,14.9
		c-1.5-1.3-2.7-2.8-3.4-4.5c-4.8-0.7-9.6-0.6-14.2,0c-0.7,4.2-1.8,8.4-2.7,12.5c3.9,0,7.8,0,11.6,0c-0.7,3.1-1.5,6.3-2.1,9.4
		c-3.9,0-7.9,0-11.8,0c-1.2,4.6-2.4,9.1-3.4,13.7c4.6,0,9.3,0,13.9,0c2.1-1.9,4-4.2,6.9-5.1c-0.4,4.8-2.1,9.4-3,14
		c-10.7,0-21.5,0-32.4,0c4.5-16.1,8.1-32.4,11.9-48.7C440.7,643.8,439.3,642.3,438,640.6z M562.5,692.2c0,0.4,0.1,1.5,0.1,2.1
		c-5.8,0-11.6,0-17.6,0c3.9-14.9,7.2-30,11.3-44.8c-3.9-0.1-7.9-0.3-11.8,0c-3,15.1-7.6,29.7-10.5,44.8c-4.3,0.1-8.5,0.1-12.8,0
		c4.9-18.1,8.8-36.6,13.6-54.6c9.6,0.3,19-0.1,28.5,0.1c2.7,1,3.9,4.2,5.8,6.1c-2.7,13.3-6.4,26.4-9.4,39.9
		C558.2,688.6,560.6,690.4,562.5,692.2z M717.5,782.7l-41.4-19.4l-0.5,0.1c1.5-6.7,3.6-13.4,5.1-20.3c-12.9-0.2-38-0.1-40.7-0.1
		c-0.6,2.4-7.4,28.8-10.6,42.3c26.4,11.2,52.9,22.3,79.3,33.3c-5.5,20.6-16.3,62.2-16.3,62.2l-25.2,20.6l-94.5-0.1
		c0,0-10.3-13.8-14.9-21c4.2-14.4,7.5-29.1,11.2-43.7l41.6,18.4c-0.9,7-4.6,20.6-4.6,20.6h41c0,0,7.2-28.5,10.6-42.7
		c-26.4-11.2-53-21.8-79.1-33.4c5.8-20.9,10.3-41.5,16.3-62.4l0.1,0c1.4-1.2,17.7-15,24.7-20.8l93,0.4l16.2,21.5
		C725,753,717.5,782.7,717.5,782.7z M627,639.7c6-0.2,11.8-0.1,17.8-0.5c-3.9,16.3-7.6,32.5-12.1,48.7c1.5,2.1,3,4,4.3,6.3
		c-6.1,0.4-12.2,0.3-18.5,0.1c3-8.2,4.3-17.2,6.6-25.7c1.6-6.6,3.3-13.3,4.9-19.9C631.8,645,627.2,643,627,639.7z M731.9,688.1
		c2,2.4,5.6,3,6.9,5.9c-6,0.3-11.9,0.1-17.9,0.1c-1.2-5.2-2.8-10.5-3.7-15.7c-4,5.2-7.9,10.5-11.8,15.7c-4.2-0.1-8.5,0.3-12.7-0.4
		c7.6-7.9,13.7-17.2,20.6-25.7c-0.3-6.6-3.4-12.7-4.8-19.3c-0.4-4.5-5.5-5.7-8.1-8.8c6.1-1,12.2-0.3,18.4-0.4c1,5.5,2.7,10.9,4,16.4
		c3.9-5.2,7.8-10.6,11.8-15.8c3.7-2.2,8.5,0,12.7-0.6c-7.3,9.3-14.5,18.7-21.8,28.1C727.7,674.3,729.8,681.2,731.9,688.1z
		 M775.4,552.9c-5.1,30.7-32.5,55.5-63.3,58.8c-5.6,0.4-11.2,0.3-16.9,0.3c-179.7,0-359.5,0-539.2,0
		c39.1-156.3,79-312.5,118.2-468.7c3.1-12.7,6.1-25.4,11.8-37.2c7.3-16.3,19.9-30.5,36-38.4c18-8.7,38.5-10.6,58.2-10.9
		c169.9,0,339.8,0,509.7,0.2C851.7,222.2,813.5,387.6,775.4,552.9z M173.2,661.7c-3.7,0.7-7.3,1.9-10.7,3.3
		c0.4-5.4,2.2-10.5,3.4-15.7c3.6,0,7.3,0,10.9,0C175.4,653.5,174.7,657.8,173.2,661.7z M359.2,685.5c-3.6-0.1-7.2-0.1-10.7-0.1
		c3.1-11.9,5.7-24.2,9-36.1c3.6,0,7.2,0,10.9,0C365.2,661.3,362.5,673.4,359.2,685.5z M375.2,64.1c-16,0.2-32.3,2.6-47.2,8.7
		c-14,5.8-25.8,16.9-33,30.3c-7.1,12.7-10.6,27.2-14,41.2c-38.6,153.3-77.3,306.8-116.1,460.1c181,0.2,361.8,0.1,542.7,0.1
		c24.2-0.6,46.8-16.9,56.4-38.8c3.2-6.8,4.2-14.3,6-21.6c36.9-160.1,74.1-320,110.4-480C712,64.2,543.6,64.1,375.2,64.1z
		 M719.9,392.7c-16.7,51.1-34.3,102-50.8,153.2c-2.1-0.7-3.6-2.4-5.2-3.7c-30.3-29-60.9-57.6-91.4-86.4
		c-14.2,7.9-28.5,15.7-42.5,23.7c0.7-9.9,3.1-19.4,3.6-29.3c-51.2,29.3-102.3,58.8-153.5,88.1c-33.6,19.6-67.6,38.5-100.9,58.4
		c3.7-4.5,8.5-7.8,13-11.3c47.8-38.5,95.5-77.2,143.2-115.7c16.7-13.9,34-27,50.6-41.2c-98.5,54-197.1,107.9-295.6,162
		c-3.7,1.9-7.2,4.8-11.5,5.1c1.3-0.7,2.7-1.3,4-2.1c84.5-61.2,168.8-122.3,253.3-183.5c6.3-4.6,12.8-8.8,18.7-13.9
		c-87.5,46.6-174.8,93.3-262.3,139.7c1-1,2.2-2.1,3.4-3.1c78.5-59,156.9-118.2,235.6-177.1c-33,16.6-65.4,34-98.1,50.9
		c-41.8,21.9-83.9,43.3-125.4,65.7c3.4-4,8.1-6.9,12.2-10c46.3-35.4,92.7-70.6,139-105.8c19.6-15.1,39.4-29.7,58.7-44.9
		c-64.8,34.9-130.2,69-194.8,103.9c-0.1-0.1-0.3-0.6-0.3-0.7c65.4-50.8,130.8-101.5,196-152.6c-15.4-1.2-30.8-3.1-46.1-3.6
		c0.1-0.4,0.6-1.5,0.9-1.9c18.1-8.5,35.5-17.9,53.4-26.6c-0.9-1.2-2.1-2.1-3.3-2.7c-17.5-10.3-34.8-20.9-52.1-31.4
		c31.5-7,63.3-13.6,94.8-20.8c5.1-31.6,9.9-63.3,14.6-95.1c34,15.5,68.5,30.6,102.6,46.3c1.4,0.1,3.5,1.8,4.8,0.2
		c19.6-19.1,38.5-39.1,58.4-57.9c12.1,26.9,25.4,53.1,37.6,80c24.8-10.9,49.3-22.5,73.9-33.6c-7.2,31.2-14.6,62.3-21.8,93.5
		c29,11.2,57.8,22.2,86.7,33.7c-22.4,17.6-44.8,35.1-67.2,52.7c13,30.9,24.9,62.1,37.8,93C769.3,389.7,744.5,390.9,719.9,392.7z
		 M745.9,273.2c0.2,5.7,0.3,11.2,0.3,16.9c-10-10-23.3-16.4-37.7-17.3c2.7,35.8-3.9,72.6-20.6,104.5c-10.8,20.6-24.8,40.4-42.4,55.8
		c-11.9,5.5-25.7,8.1-38.8,8.5c35.2-17.6,62.3-50.8,76.6-87.2c10-26,14.6-54.5,11.3-82.3c-14.5,1-28.7,5-41.2,12.2
		c-15.2,8.4-28.2,19.9-41.2,31.2c-27.3,24.6-54.2,50.3-86.1,69.1c-11.5,6.7-23.3,13.9-36.3,17.3c-5.3-5.6-11-10.9-15.5-17.2
		c24.2-7.2,47.7-17.3,69-30.9c19-11.8,36.1-26.2,52.7-41.1c17.7-15.8,35.8-32.2,57.6-42.4c12.5-6,26.3-9.3,40-10
		c-1.6-10-4.5-19.7-7.3-29.4c-10.7-1-21.5-0.5-32.2-0.1c-50.7,2.1-101.7,12.7-146.8,36.3c-21.5,11.4-41.5,25.8-56.9,44.8
		c-2.2,3-4.6,5.9-7.3,8.4c-1.5-9.2-2.8-18.6-2.8-28.2c30.2-28.8,68.7-47.5,108.4-59c36.7-10.6,74.9-14.8,113-15.2
		c6.6-0.2,13,0.1,19.6,0.7c-3.7-9.1-8.8-17.6-14-26c-26.1-1.1-51.1-9.4-76-16.6c-31.2-9.7-65.6-8.5-96.4,2.8
		c-4.1,1.5-8.8,3.7-13.1,4c10.3-11.2,22.9-21.5,36.3-28.7c16.7-0.9,33.9,0.9,50.3,4.2c30.2,5.5,58.7,18.2,89.3,21.9
		C642,160,620.1,145,597.1,134.5l-0.4-0.3c13.1,0.9,24.8,0.9,37.3,4.8c1.1,0.4,4.1,3.1,5.1,4c13.9,10.6,25.8,23.3,36.3,37.2
		c6.5-1.3,14.4-4.9,19.3-9.4c3.6,2.4,6.8,5.7,9.6,9c-5.7,5.2-14.5,9.4-21.8,11.5c5.5,8.6,9.9,18,13.9,27.6
		c12.1,1.4,25.3,2.4,37.2,4.8c1.6,3.8,3,7.7,4.3,11.6c-12.1-1.7-25-3.5-37.2-4.2c2.8,9.6,5.2,19.4,6.7,29.3
		c13.4,0.6,26.6,5.2,37.9,12.5L745.9,273.2z"/>
	<path class="st3" d="M823.3,242.2c-28.9-11.5-57.7-22.5-86.7-33.7c7.2-31.2,14.6-62.3,21.8-93.5c-24.6,11.1-49.1,22.7-73.9,33.6
		c-12.2-26.9-25.5-53.1-37.6-80c-19.9,18.8-38.8,38.8-58.4,57.9c-1.3,1.6-3.4-0.1-4.8-0.2c-34.1-15.7-68.6-30.8-102.6-46.3
		c-4.7,31.8-9.5,63.5-14.6,95.1c-31.5,7.2-63.3,13.8-94.8,20.8c17.3,10.5,34.6,21.1,52.1,31.4c1.2,0.6,2.4,1.5,3.3,2.7
		c-17.9,8.7-35.3,18.1-53.4,26.6c-0.3,0.4-0.8,1.5-0.9,1.9c15.3,0.5,30.7,2.4,46.1,3.6c-65.2,51.1-130.6,101.8-196,152.6
		c0,0.1,0.2,0.6,0.3,0.7c64.6-34.9,130-69,194.8-103.9c-19.3,15.2-39.1,29.8-58.7,44.9c-46.3,35.2-92.7,70.4-139,105.8
		c-4.1,3.1-8.8,6-12.2,10c41.5-22.4,83.6-43.8,125.4-65.7c32.7-16.9,65.1-34.3,98.1-50.9C352.9,414.5,274.5,473.7,196,532.7
		c-1.2,1-2.4,2.1-3.4,3.1c87.5-46.4,174.8-93.1,262.3-139.7c-5.9,5.1-12.4,9.3-18.7,13.9c-84.5,61.2-168.8,122.3-253.3,183.5
		c-1.3,0.8-2.7,1.4-4,2.1c4.3-0.3,7.8-3.2,11.5-5.1c98.5-54.1,197.1-108,295.6-162c-16.6,14.2-33.9,27.3-50.6,41.2
		c-47.7,38.5-95.4,77.2-143.2,115.7c-4.5,3.5-9.3,6.8-13,11.3c33.3-19.9,67.3-38.8,100.9-58.4c51.2-29.3,102.3-58.8,153.5-88.1
		c-0.5,9.9-2.9,19.4-3.6,29.3c14-8,28.3-15.8,42.5-23.7c30.5,28.8,61.1,57.4,91.4,86.4c1.6,1.3,3.1,3,5.2,3.7
		c16.5-51.2,34.1-102.1,50.8-153.2c24.6-1.8,49.4-3,74-4.8c-12.9-30.9-24.8-62.1-37.8-93C778.5,277.3,800.9,259.8,823.3,242.2z
		 M593.3,442c-84.5,0-153-68.9-153-153.8s68.5-153.8,153-153.8s153,68.9,153,153.8S677.8,442,593.3,442z"/>
	<path class="st4" d="M639.1,143c-0.7-0.6-2.4-2.2-3.7-3.1c22.2,6,42.3,16.9,59,31.2c-4.9,4.4-12.6,7.9-19,9.1
		C664.9,166.3,653,153.6,639.1,143z M707.4,260.4c13.1,0.6,26.1,5,37.2,12.1c-0.6-12.9-3-25.4-6.9-37.2c-12.1-1.7-24.9-3.5-37-4.2
		C703.5,240.7,705.9,250.5,707.4,260.4z M568.4,158.3c30.2,5.5,58.7,18.2,89.3,21.9C642,160,620.1,145,597.1,134.5l-0.1-0.1
		c-0.9,0-1.8,0-2.7,0c-27.6,0-53.5,7.2-75.8,19.7C535.1,153.2,552.1,155,568.4,158.3z M696.4,218.9c12,1.4,25.1,2.4,36.9,4.7
		c-7-16.2-17-31-29.3-43.6c-5.7,5.1-14.3,9.2-21.5,11.2C688,199.9,692.4,209.3,696.4,218.9z M687.9,377.3
		c-4.6,8.9-9.9,17.6-15.7,25.8c41-23.9,69.1-66,72.3-114.7c-9.8-9.1-22.4-14.8-36-15.7C711.2,308.6,704.6,345.4,687.9,377.3z
		 M596,312.7c17.7-15.8,35.8-32.2,57.6-42.4c12.5-6,26.3-9.3,40-10c-1.6-10-4.5-19.7-7.3-29.4c-10.7-1-21.5-0.5-32.2-0.1
		c-50.7,2.1-101.7,12.7-146.8,36.3c-21.5,11.4-41.5,25.8-56.9,44.8c-0.7,0.9-1.4,1.8-2.1,2.7c6.6,25.3,20.2,48,38.6,66.1
		c19.7-6.8,38.8-15.6,56.4-26.8C562.3,342,579.4,327.6,596,312.7z M694.6,272.1c-14.5,1-28.7,5-41.2,12.2
		c-15.2,8.4-28.2,19.9-41.2,31.2c-27.3,24.6-54.2,50.3-86.1,69.1c-6.7,3.9-13.6,8-20.7,11.4c24.9,17.6,55.7,28,88.9,28
		c16.6,0,32.6-2.6,47.5-7.4c18.2-17.3,32.4-39.1,41.5-62.2C693.3,328.4,697.9,299.9,694.6,272.1z M661.7,217.9
		c6.6-0.2,13,0.1,19.6,0.7c-3.7-9.1-8.8-17.6-14-26c-26.1-1.1-51.1-9.4-76-16.6c-31.2-9.7-65.6-8.5-96.4,2.8c-4,1.5-8.6,3.6-12.9,4
		c0,0-0.1,0-0.1,0c-25.8,27.5-41.6,64.6-41.6,105.4c0,1.3,0,2.6,0,3.9c1.2-1.2,2.5-2.3,3.8-3.5c29.6-26.8,66.5-44.4,104.6-55.5
		C585.4,222.5,623.6,218.3,661.7,217.9z"/>
	<path class="st5" d="M486.9,380.6c-4.2,1.4-8.4,2.8-12.6,4.1c0.5,0.7,1,1.4,1.5,2c-15.8-19-27-41.8-32.3-66.9
		c1.7-1.6,3.3-3.4,4.8-5.3C454.9,339.9,468.5,362.6,486.9,380.6z M505.4,396c-4.9,2.3-10,4.4-15.2,5.8c27.2,25,63.4,40.2,103.1,40.2
		c4.7,0,9.3-0.2,13.9-0.6c12.7-6.4,24.3-14.9,34.7-24.7c-14.9,4.8-30.9,7.4-47.5,7.4C561,424,530.3,413.6,505.4,396z M746.1,280.4
		c0.1,3.2,0.1,6.4,0.1,9.7c-0.6-0.6-1.1-1.1-1.7-1.6c-3.2,48.7-31.4,90.8-72.3,114.7c-7.6,10.8-16.3,20.8-26.1,29.5
		c58.5-21.6,100.3-78.1,100.3-144.4C746.3,285.6,746.2,283,746.1,280.4z"/>
</g>
</svg>
