<?xml version="1.0" encoding="utf-8"?>
<!-- Generator: Adobe Illustrator 25.0.0, SVG Export Plug-In . SVG Version: 6.00 Build 0)  -->
<svg version="1.1" id="Layer_1" xmlns="http://www.w3.org/2000/svg" xmlns:xlink="http://www.w3.org/1999/xlink" x="0px" y="0px"
	 viewBox="0 0 823.7 823.5" style="enable-background:new 0 0 823.7 823.5;" xml:space="preserve">
<style type="text/css">
	.st0{fill:#FFFFFF;}
	.st1{fill:#C8102E;}
	.st2{fill:#A0A0A3;}
</style>
<g>
	<path class="st0" d="M791.4,251.5c-20.7-49.1-50.4-93.2-88.2-131c-37.6-37.7-81.6-67.4-130.8-88.3l0,0l0,0
		C521.2,10.9,467.3,0,412,0h-0.5c-54.9,0-108.3,10.7-158.7,31.7c-48.8,20.3-92.7,49.6-130.6,87c-38.1,37.7-68,81.4-88.8,130.1
		C11.5,299.7,0.3,353.8,0,409.6c-0.3,56,10.3,110.2,31.7,161.1c20.6,49.4,50.2,93.6,88,131.6c37.9,38.1,82,67.9,131.3,88.7
		c51,21.5,105.3,32.5,161.4,32.5h0.9c55.9-0.1,110.1-11.2,161.1-33c48.8-20.9,92.7-50.8,130.4-88.9c37.4-37.8,66.7-81.8,87.2-130.8
		c21.1-50.5,31.9-103.9,31.9-158.8C823.7,356.2,812.8,302.2,791.4,251.5z M773.4,563c-19.5,46.6-47.4,88.5-83,124.5
		c-35.8,36.2-77.5,64.7-124,84.6c-48.4,20.7-99.9,31.3-153.2,31.4h-0.9c-53.4,0-105.1-10.4-153.6-30.9
		c-46.9-19.8-88.9-48.2-124.9-84.4S69.7,609.9,50.1,563C29.8,514.5,19.7,462.9,20,409.7s11-104.7,31.7-153
		c19.9-46.4,48.4-88,84.5-123.7c36-35.5,77.8-63.4,124.3-82.8c47.9-20,98.7-30.2,151-30.2h0.5c52.8,0,104.1,10.4,152.6,30.7
		c46.7,19.8,88.6,48,124.5,84c36,36,64.2,77.9,83.9,124.6c20.4,48.3,30.7,99.7,30.7,152.6C803.7,464.2,793.5,515,773.4,563z
		 M172,572.5c9.7-5.1,19.3-10.2,29-15.2c1.4-0.7,2.1-1.7,2.6-3.1c1.4-4.5,2.8-9,4.4-13.5c0.6-1.8,0.3-3.1-0.5-4.7
		c-6.4-11.9-12.7-23.9-19-35.8c-0.4-0.7-0.6-1.5-1.6-2.2c-28.7,15-57.4,29.9-86.2,45c2.5,5,5,9.8,7.4,14.5c1.1,2.2,1.2,2.2,3.4,1.1
		c7.8-4,15.6-8,23.4-12c1-0.5,2-1.3,3.2-1.3c0.2,0.2,0.4,0.4,0.5,0.6c0.9,1.7,1.7,3.4,2.6,5.1c1.8,3.5,1.9,2.7-0.5,5.5
		c-4.9,5.8-9.8,11.6-14.7,17.4c-1.9,2.3-3.7,4.6-5.6,6.9c0.9,3,2.7,5.5,4.1,8.2c1.6,3.3,3.4,6.6,5.3,10.1c0.9-1,1.5-1.6,2-2.2
		c6.9-8.1,13.8-16.1,20.5-24.2c1.6-2,3.2-2.4,5.5-1.8c3.3,0.9,6.8,1.3,10.1,2.1C169.5,573.4,170.7,573.1,172,572.5z M165.3,547.1
		c-2-3.7-4-7.6-6-11.3c-0.7-1.1-0.7-1.8,0.6-2.5c5.7-2.9,11.4-5.9,17.2-8.9c2.5,4.6,4.9,9.1,7.2,13.6c1.1,2.2-0.5,6.4-2.8,7.6
		c-2.5,1.4-5,2.7-7.5,4C170.7,551.3,167,550.2,165.3,547.1z M113.4,307.9c-6.2-2.8-12.2-5.6-18.2-8.3c-1.4-0.6-0.8-1.5-0.4-2.3
		c3.2-6.9,6.3-13.8,9.5-20.7c3.9-8.6,7.8-17.1,11.7-25.6c1.4-3,1.4-3,4.6-1.6c4.7,2.1,9.3,4.2,14,6.2c1.6,0.7,1.8,1.5,1.1,3
		c-1.8,3.6-3.4,7.3-5,11c-0.5,1.1-1.2,2.1-1.2,3.5c23.2,10.3,46.3,20.6,69.8,31c-1.8,4-3.4,7.8-5.1,11.7c-0.7,1.6-1.3,3.1-2,4.6
		c-1.1,2.4-1.1,2.4-3.6,1.3c-16.7-7.4-33.3-14.8-50-22.2c-5.2-2.3-10.4-4.6-15.6-7c-1.5-0.7-2.2-0.7-2.9,1
		c-1.8,4.3-3.8,8.5-5.7,12.7C114.2,306.7,113.8,307.2,113.4,307.9z M162.6,206.9c16.2,15.7,32.4,31.4,48.6,47.1
		c1.1,1.1,2.3,1.4,3.8,1.4c4.4-0.1,8.8-0.1,13.2,0c1.9,0,3.3-0.6,4.6-2c5.7-6,11.4-12.1,17.4-17.8c4.5-4.2,7.8-8.5,5.7-14.4
		c0-3.2-0.1-5.7,0-8.2c0.1-1.6-0.5-2.6-1.6-3.7c-4.1-4-8.3-8.1-12.4-12.2c-11.7-11.5-23.3-23-35-34.5c-1.1-1-2.1-2.1-3.9-2
		c-5,0.2-10,0.3-15,0.3c-1.4,0.1-2.4,0.6-3.4,1.6c-7.4,7.7-14.8,15.4-22.3,23c-1.1,1.1-1.5,2.3-1.5,3.8c0.2,4.6,0.2,9.3,0.2,13.9
		C161,204.7,161.5,205.8,162.6,206.9z M185.3,192.5c2.1-2.2,4.1-4.3,6.2-6.4c2.7-2.8,6.9-2.9,9.6-0.3c3.3,3.1,6.5,6.3,9.7,9.4
		c6.7,6.5,13.3,13.1,20.1,19.6c1.6,1.5,2.8,2.9,2.2,5.2c0.5,2.1-0.4,3.6-1.9,5c-2.1,1.9-4,4-6.1,6c-2,2-6,2.1-8,0.1
		c-10.6-10.2-21.2-20.4-31.7-30.6C183.5,198.6,183.5,194.6,185.3,192.5z M630.6,174.1c-4.1-4.3-8.1-8.5-12.3-13
		c4.6-4.8,9.5-9.7,14.5-14.9c13.4,13.3,26.7,26.4,39.7,39.3c-4.9,4.9-9.7,9.7-14.8,14.8c-3.7-3.6-7.9-7.6-12.4-11.9
		c-17.9,18.2-35.8,36.3-53.8,54.5c-4.9-4.7-9.5-9.3-14.4-14C595,210.5,612.8,192.3,630.6,174.1z M485.9,175
		c4-9.2,7.9-18.5,11.8-27.8c8.1-18.9,16.1-37.7,24.1-56.6c0.3-0.8,0.6-1.5,0.9-2.3c0.4-0.9,1.1-1.1,2-0.7c6.1,2.6,12.2,5.2,18.3,7.8
		c1.1,0.4,1.5,1.1,1.4,2.2c0,0.7,0,1.4,0,2.1c0.1,15.6,0.2,31.3,0.3,47c0,1.1,0,2.3,0.3,3.6c3.7-7.3,6.6-15,9.8-22.5
		c3.2-7.6,6.4-15.3,9.7-23.1c2.5,0.5,4.7,1.8,6.9,2.7c2.8,1.1,5.6,2.4,8.5,3.5c1.6,0.6,2.1,1.3,1.3,3.1c-1.9,4-3.6,8.2-5.3,12.4
		c-10.1,24-20.2,48.1-30.3,72.1c-0.2,0.7-0.6,1.3-0.8,2c-0.3,1-1,1.2-1.9,0.8c-4.5-1.9-9-3.8-13.5-5.6c-1.3-0.5-1.2-1.5-1.3-2.6
		c-0.7-10.7-1.3-21.3-2-32l-3-26.7c0,0-11.4,26.8-17.1,40.2c-1.1,2.5-2.2,5-3.2,7.5c-0.5,1.3-1,1.7-2.4,1.1
		c-4.5-1.9-9.2-3.8-13.8-5.6C485,176.9,485.2,176.1,485.9,175z M714.5,246.9c-0.7-1.5-1.7-2.2-3.1-2.7c-4.4-1.5-8.8-2.9-13.1-4.5
		c-1.4-0.5-2.4-0.4-3.7,0.2c-20.3,9.7-40.7,19.4-61,29c-1.4,0.7-2.2,1.6-2.7,3c-1.4,4.4-3,8.8-4.6,13.1c-0.7,1.7-0.6,3.1,0.2,4.7
		c4.5,9.3,9,18.6,13.4,27.9c0.7,1.5,1.6,2.5,3.2,3c4.4,1.4,8.7,3.1,13,4.7c0.7,0.2,1.4,0.4,2.1,0.6c0.6-0.3,1.3-0.6,1.9-0.9
		c20.4-9.6,40.7-19.2,61.1-28.8c1.3-0.7,2.2-1.5,2.7-3c1.4-4.5,2.9-9,4.5-13.5c0.5-1.5,0.4-2.7-0.1-3.9
		C723.6,266.2,719,256.6,714.5,246.9z M700.1,282.7c-12.4,6.1-24.9,12.1-37.4,18.1c-1,0.5-1.8,1.1-3.2,1.1c-1.9-1-4.7-0.9-5.7-3.9
		c-0.8-2.3-2-4.4-3-6.5c-2-4.3-0.9-7.5,3.3-9.5c12.4-6,24.7-12,37.1-18c4.1-2,7.2-0.9,9.2,3.2c1,2.1,2.1,4.3,3.1,6.4
		C705.4,277.6,704.2,280.8,700.1,282.7z M446.2,656c-0.1,6.1,0,12.1,0,18.5c-5,0.2-9.9,0.3-14.7,0.5c-3,0.1-3,0.1-3,3.2
		c0.2,22.9,0.5,45.8,0.7,68.7c0,5.3,0.7,4.5-4.5,4.6c-4.5,0.1-9,0.2-13.5,0.2c-2.5,0-2.6,0-2.6-2.5c0-4.5-0.1-9-0.1-13.5
		c-0.2-19-0.4-38-0.6-57c0-0.5-0.1-0.9,0-1.4c0.2-1.7-0.4-2.3-2.2-2.2c-4.4,0.2-8.8,0.2-13.2,0.3c-1.4,0.1-2.2-0.1-2.2-1.8
		c0-5.8-0.2-11.6-0.4-17.4c-0.1-1.8,0.5-2.2,2.2-2.2c17.2-0.1,34.4-0.1,51.6-0.3C445.6,653.7,446.2,654.3,446.2,656z M259.9,597.3
		c-3.5-3.3-7-6.5-10.5-9.7c-2.6-2.4-1.7-2.4-4.7-0.6c-27.8,16.7-55.7,33.4-83.6,50.1c-0.8,0.4-1.8,0.6-2,1.8
		c4.4,4.2,8.8,8.3,13.1,12.6c1.3,1.3,2.3,1.2,3.7,0.3c3.3-2.1,6.7-4.1,10-6.2c1.4-0.9,2.4-1,3.7,0.3c5.9,5.6,11.8,11.1,17.8,16.5
		c1.3,1.2,1.5,2.1,0.7,3.6c-1.9,3.4-3.5,7-5.2,10.5c-0.5,1-0.9,1.8,0.2,2.8c4.6,4.2,9.2,8.5,13.8,12.7c1.3-0.9,1.5-2.2,2-3.2
		c7.8-16,15.6-32,23.4-48c6.2-12.8,12.5-25.6,18.7-38.4C262.6,599.1,262.9,600,259.9,597.3z M230.1,621.2
		c-4.1,8.1-8.2,16.2-12.5,24.7c-4.2-3.8-8.2-7.4-12.5-11.3c8.3-4.9,16.2-9.6,24.1-14.3C229.9,620.2,230.3,620.4,230.1,621.2z
		 M447.9,87.4c0-2-0.5-3.4-1.9-4.7c-3.2-3-6.3-6.1-9.3-9.3c-1.1-1.2-2.3-1.7-4-1.7c-10.6,0.1-21.1,0.1-31.7,0
		c-1.5,0-2.6,0.5-3.7,1.6c-3.2,3.3-6.4,6.6-9.8,9.8c-1.1,1.1-1.4,2.3-1.4,3.8c0,22.6,0,45.1,0,67.7c0,1.6,0.4,2.7,1.5,3.8
		c3.3,3.2,6.6,6.5,9.8,9.8c1.1,1.1,2.3,1.5,3.8,1.5c10.6-0.1,21.1-0.1,31.7,0c1.7,0,2.8-0.6,4-1.8c3-3,6-6,9.2-8.9
		c1.5-1.3,2-2.6,2-4.6c-0.1-11.1-0.1-22.1-0.2-33.2C447.9,110,447.8,98.7,447.9,87.4z M427.4,141.7c0,3.6-2.8,6.4-6.2,6.6
		c-2.5,0-5-0.2-7.5,0c-2.3,0.2-3.8-0.6-5.3-2.2c-1.2-1.2-1.6-2.5-1.6-4.1c0-7.2,0-14.3,0-21.4c0-7.2,0-14.3,0-21.4
		c0-3.6,2.6-6.3,6.1-6.3c2.7,0,5.5,0,8.2,0c3.6,0,6.3,2.7,6.3,6.4C427.4,113.4,427.4,127.6,427.4,141.7z M634.1,629.3
		c-1.6-0.8-2.3-1.7-2.3-3.5c0-3.9-0.2-7.8-0.3-11.7c-0.1-1.3-0.3-2.3-1.1-3.3c-7.1-8.3-14.2-16.6-21.2-25c-0.8-1-1.7-1.5-3-1.6
		c-5-0.4-9.9-0.8-14.9-1.3c-1.7-0.2-2.9,0.3-4.2,1.4c-7.3,6.2-14.6,12.4-22,18.6c-3.6,3-7.1,6-10.9,9.2
		c12.5,14.7,24.7,29.1,36.9,43.5c8.3,9.8,16.6,19.5,24.9,29.3c1.7,2,1.8,2,3.8,0.2c3.4-3,6.7-6,10.1-9c1.9-1.7,1.9-1.7,0.3-3.6
		c-5.2-6.3-10.5-12.5-15.8-18.8c-1-1.3-2-2.6-3.1-3.9c1.2-1.1,2.1-2,3.1-2.8c1.5-1.2,2.6-3.4,4.4-3.4c1.7,0,3.4,1.4,5.1,2.3
		c8,4.1,16,8.2,24,12.3c0.9,0.4,1.7,1.2,2.9,0.2c4.9-4.2,9.9-8.2,15-12.5c-1.4-0.8-2.5-1.4-3.6-2C652.9,639,643.6,634,634.1,629.3z
		 M607.7,622.2c-3.7,3.3-7.5,6.6-11.6,10.2c-4.4-5.6-8.8-10.9-13.2-16.4c4.1-3.5,8-6.9,12-10.2c1.6-1.3,5.5-0.9,6.8,0.7
		c2.3,2.8,4.7,5.6,6.9,8.5C610,616.8,609.4,620.5,607.7,622.2z M726.7,547.4c0.5,1.5,0.3,2.7-0.4,4.1c-5,9.4-9.9,18.9-14.7,28.4
		c-0.7,1.4-1.6,2.2-3.1,2.6c-4.4,1.3-8.8,2.7-13.2,4.1c-1.1,0.4-2.2,0.7-3.4,0.1c-4.5-2.4-9-4.7-13.6-7.2c3.3-6.2,6.4-12.2,9.7-18.3
		c2.2,1.1,4.2,2.1,6.1,3.2c0.9,0.5,1.5,0.4,2-0.5c2.3-4.3,4.7-8.6,6.9-12.9c0.9-1.7-0.7-6.1-2.5-7.1c-1.7-0.9-3.4-1.7-5.1-2.6
		c-1.1-0.6-2.2-0.5-3.4-0.3c-2.7,0.5-4.2,1.9-5.4,4.4c-2.5,5.4-5.4,10.6-8,15.9c-0.8,1.7-1.8,2.5-3.6,3c-4.7,1.3-9.4,2.7-14,4.2
		c-1.4,0.5-2.5,0.3-3.7-0.3c-8.6-4.5-17.2-8.9-25.9-13.3c-1.3-0.7-2.1-1.6-2.6-3.1c-1.4-4.7-2.9-9.3-4.5-13.9
		c-0.6-1.5-0.3-2.7,0.4-4c4.9-9.4,9.9-18.9,14.7-28.4c0.8-1.4,1.8-2.1,3.2-2.5c4.6-1.3,9.3-2.6,14-3.9c0.9-0.3,1.7-0.6,2.7-0.1
		c4.3,2.3,8.6,4.5,13.1,6.9c-3.3,6.2-6.4,12.1-9.7,18.3c-1.9-0.9-3.7-1.8-5.4-2.7c-1.2-0.7-1.9-0.4-2.5,0.8
		c-2.1,4.2-4.3,8.4-6.4,12.7c-0.9,1.9,0.6,5.7,2.4,6.8s3.5,2,5.3,3c2.6,1.4,6.5,0.3,7.9-2.3c3-5.7,6.2-11.3,9-17
		c1.2-2.3,2.7-3.6,5.2-4.2c4.3-1.1,8.4-2.4,12.6-3.8c1.3-0.5,2.4-0.4,3.7,0.3c8.8,4.6,17.5,9,26.3,13.5c1.2,0.6,1.8,1.3,2.1,2.6
		C724.2,538.4,725.5,543,726.7,547.4z M328,151.3c-2-1.8-2.3-3.4-1.5-5.8c1.1-3.3,1.9-6.6,2.9-9.9c0.4-1.2,0.4-2.2-0.1-3.4
		c-4.2-10.1-8.4-20.1-12.6-30.2c-0.5-1.3-1.3-2.1-2.6-2.6c-4.7-1.9-9.4-3.7-14.1-5.8c-1.5-0.7-2.6-0.5-4,0.1
		c-2.6,1.3-5.4,2.4-8.1,3.6c-10.6,4.6-21.1,9.2-31.8,13.9c0.3,0.8,0.4,1.3,0.6,1.7c12.3,28.4,24.7,56.9,37.1,85.4
		c0.2,0.4,0.4,0.9,0.6,1.3c0.3,0.8,0.8,1.2,1.6,0.8c5.4-2.3,10.9-4.6,16.4-7c-4.4-10.1-8.6-19.8-12.8-29.6c2.2-1,4-2,5.8-2.8
		c3.4-1.5,2.5-2.1,5.7,1c6.7,6.4,13.3,12.9,20,19.3c3.3,3.2,2,3,6.2,1.2c4.1-1.7,8.2-3.6,12.3-5.5c1-0.5,2.2-0.6,3.1-2
		c-0.8-0.7-1.6-1.4-2.4-2.1C342.8,165.7,335.5,158.4,328,151.3z M303.8,136.4c-4.3,2.1-8.7,4.1-13.6,6.3c-2.8-6.1-5.4-11.9-8-17.7
		c-0.4-0.9-0.4-1.5,0.6-2c4.4-2,8.7-4.1,13.2-6c1.9-0.8,6.1,1.2,6.9,3c1.3,3.1,2.6,6.1,3.8,9.2C307.6,131.7,306.2,135.3,303.8,136.4
		z M535.2,641.5c-0.5-1.4-1.3-2.4-2.7-3c-4.3-1.8-8.7-3.8-13-5.7c-0.6-0.3-1.3-0.6-1.9-0.8c-0.5,0.2-1,0.4-1.4,0.6
		c-10.2,3.8-20.4,7.7-30.6,11.5c-1.4,0.5-2.2,1.3-2.7,2.6c-1.8,4.3-3.6,8.5-5.6,12.7c-0.7,1.5-0.7,2.8-0.1,4.4
		c8.1,21,16.1,42,24.1,63.1c0.6,1.4,1.3,2.3,2.8,2.9c4.3,1.8,8.5,3.6,12.7,5.6c1.5,0.7,2.8,0.7,4.4,0.1c9.9-3.8,19.7-7.5,29.6-11.2
		c1.4-0.6,2.3-1.4,2.9-2.8c1.7-4.3,3.4-8.6,5.3-12.8c0.7-1.5,0.6-2.7,0.1-4.1C551.1,683.5,543.2,662.5,535.2,641.5z M532,708.1
		c-2.7,1-5.3,2-8,3c-3.8,1.4-7.1-0.1-8.5-3.8c-4.8-12.9-9.7-25.9-14.6-38.9c-1.6-4,0-7.2,4.1-8.8c2.7-1,5.5-2.1,8.3-3.1
		c2.4-0.8,6.1,0.9,7,3.2c5.2,13.6,10.3,27.3,15.5,40.9c0.2,0.6,0.4,1.1,0.5,1.6C536.3,704.3,534,707.5,532,708.1z M346.1,646.9
		c-0.5-1.3-1.4-2.1-2.7-2.6c-12.5-5.2-24.9-10.3-37.4-15.5c-0.4-0.2-0.8-0.4-1.3-0.6c-1.4,0.2-1.4,1.5-1.8,2.4
		c-5.2,12.4-10.3,24.9-15.5,37.4c-6.6,15.9-13.1,31.7-19.7,47.6c-1.1,2.7-1.1,2.7,1.6,3.8c4.1,1.7,8.1,3.4,12.2,5
		c2.3,0.9,2.3,0.9,3.3-1.4c4-9.6,8-19.3,12-28.9c1.1-2.7,1.1-2.7,3.7-1.6c7.4,3.1,14.9,6.1,22.3,9.3c1.7,0.7,3.1,0.7,4.7-0.2
		c3-1.6,6.1-3.2,9.2-4.7c1.5-0.7,2.5-1.7,3.1-3.2c3.9-9.6,7.9-19.3,11.9-28.9c0.5-1.4,0.7-2.7,0.1-4.1
		C349.9,656.1,348,651.5,346.1,646.9z M328.7,667.4c-1.2,2.7-2.4,5.4-3.6,8.1c-1.6,3.6-5,5-8.6,3.5c-3.1-1.3-6.1-2.6-9.2-3.9
		c-1.3-0.5-2-1-1.3-2.6c2.4-5.4,4.6-10.9,6.8-16.4c0.6-1.5,1.3-1.5,2.7-0.9c3.3,1.5,6.7,2.9,10.1,4.3c1.9,0.8,3.8,3.9,3.7,6.2
		C329.1,666.1,328.9,666.8,328.7,667.4z"/>
	<path class="st1" d="M773,259.3c-19.7-46.7-47.9-88.6-83.9-124.6c-35.9-36-77.8-64.2-124.5-84C516.1,30.4,464.8,20,412,20h-0.5
		c-52.3,0-103.1,10.2-151,30.2C214,69.6,172.2,97.5,136.2,133c-36.1,35.7-64.6,77.3-84.5,123.7C31,305,20.3,356.5,20,409.7
		S29.8,514.5,50.1,563c19.6,46.9,47.7,89,83.7,125.2s78,64.6,124.9,84.4c48.5,20.5,100.2,30.9,153.6,30.9h0.9
		c53.3-0.1,104.8-10.7,153.2-31.4c46.5-19.9,88.2-48.4,124-84.6c35.6-36,63.5-77.9,83-124.5c20.1-48,30.3-98.8,30.3-151.1
		C803.7,359,793.4,307.6,773,259.3z M413.1,783.5c-0.3,0-0.6,0-0.8,0C205,783.5,38.9,616.4,40,409.8C41.1,202.7,209,40,411.5,40
		c0.2,0,0.3,0,0.5,0c205.3,0,371.6,166.4,371.6,371.9C783.6,614.3,620.5,783,413.1,783.5z"/>
	<path class="st2" d="M622.6,455.7c0.4,0.8,0,1.5-0.2,2.2c-5,21.7-13.1,42.1-24.2,61.3c-6,10.3-13.3,19.7-20.9,28.8
		c-6.9,8.2-14.3,15.8-22.1,23.2c-1.3,1.2-2.7,2.3-4.1,3.4c-11,7.9-21.8,16.1-33.6,22.6c-7.6,4.2-15.6,7.5-23.5,10.9
		c-1.7,0.7-3.5,1.5-5.5,0.4c5.7-2.8,10.1-7.2,14.8-11.2c8.7-7.5,17-15.5,24.3-24.4c6.9-8.4,12.1-17.8,18-26.9
		c4.3-6.6,7.4-13.8,10.7-20.9c3.3-7.1,6.4-14.3,8.7-21.7c2-6.6,3.9-13.2,5.9-19.8c1.9-6,2.4-12.3,3.7-18.5c2.6-11.9,2.9-24,4.3-36
		c0.1-0.6,0-1.2,0.1-1.8c0.3-2,0.9-2.5,2.9-2.1c2.3,0.5,4.6,1.3,6.8,2c11.2,3.9,20.7,10.4,28.5,19.3
		C619.6,449.2,620.5,452.8,622.6,455.7z M389.6,515.8c0.5-3.7,1.5-7.5,2.6-11.2c0.2-0.8,1-0.9,1.7-1.1c1.4-0.4,2.8-0.8,4.1-1.2
		c1-0.3,1.8-0.8,2.4-1.9c3.1-6.2,7.8-11.5,10.8-17.9c0.6-1.2,1.7-1.6,2.7-2.2c4-2.4,8.6-3.8,12.7-6.2c6.3-3.7,13-6.4,19.6-9.3
		c2.3-1,3.6-2.3,4.1-4.7c0.2-0.9,0.5-1.8,0.8-2.7c0.2-0.8,0.6-1.4,1.5-1.8c2.5-1,4.9-2.6,7.7-2.4c3.1,0.2,5.6-1,7.7-3
		c1.6-1.5,3.4-2,5.5-1.6c5.2,1,10,0.2,14.6-2.5c0.3-0.2,0.7-0.3,1-0.4c2.7-0.9,5.2-2,5.5-5.5c0-0.9,0.8-1.7,1.1-2.6
		c0.5-1.4,1.6-2,2.9-2.3c3.2-0.8,6.4-1.8,9.6-2.5c2.2-0.5,4-1.4,5.3-3.2c2.3-3.1,5.4-3.9,9-2.7c0.3,0.1,0.7,0.3,1,0.4
		c3.1,0.7,5.9,0.6,8.9-0.9c10.9-5.3,22.1-9.3,34.3-10c2.6-0.1,3.2-1.1,2.9-3.8c-0.2-2.4-0.5-4.7-0.8-7.1c-0.8-7.4-0.8-14.9-1.9-22.3
		c-1.1-6.9-2.2-13.8-3.6-20.7c-0.8-3.8-1.7-4.3-5.5-3.4c-1.3,0.3-2.6,0.4-3.9,0.5c-9.1,0.9-18.3,1.1-26.8,5.1
		c-5.4,2.5-11.1,3.2-17,2.8c-6.1-0.5-12.3,0-18.4-1.3c-0.5-0.1-0.9,0-1.3,0.3c-3,2.5-6.8,4-9.5,6.7c-3.7,3.8-7.7,6.1-13,6
		c-1.3-0.1-2.6,0.3-3.9,0.4c-2.2,0.2-4,1-5.8,2.4c-4.9,4-9.7,8.1-15.6,10.9c-3.3,1.6-7,2.3-9.9,4.7c-0.7,0.6-1.4,0.1-2.1,0
		c-3.7-0.3-7.3-0.5-11-0.9c-1.7-0.1-2.8,0.5-3.9,1.8c-8.7,11-18.5,21-27.7,31.6c-0.8,0.9-1.6,1.5-3,1.6c-5.2,0.3-10.3,1.8-15.4,2.6
		c-0.6,0.1-1.2,0.2-1.7,0.5c-4.9,3.3-10.3,5.5-15.2,8.6c-4,2.5-7.9,4.1-12.7,2.6c-1-0.3-2.3-0.4-3.2-0.1c-1.9,0.7-3.7,0.2-5.6,0.1
		c-5.6-0.4-5.6-0.4-9.4,3.8c-0.8,0.8-1.8,1.6-2.4,2.6c-2.2,3.3-5.4,4.1-8.9,4.4c-0.7,0-1.4,0-2.1,0.1c-2.3,0.5-4.8,0.6-6.7,2
		c-4.7,3.4-9.2,7-14.1,10.2c-5.2,3.3-9.8,7.5-14.7,11.3c-1,0.7-1.7,1.5-2.2,2.7c-1.5,3.9-3.1,7.7-4.7,11.5c-2,4.8-4.2,9.5-5.8,14.5
		c-0.6,1.8-1.3,2.1-2.8,2.2c-4,0.3-8.1,0.7-12.1,0.9c-2.4,0.1-4.4,0.7-6,2.6c-0.8,0.9-1.8,1.6-2.6,2.5c-1.8,1.9-1.8,2.4-0.2,4.5
		c3.8,5,7.7,9.9,10.9,15.4c2.8,4.8,6.2,9,10,13c2.2,2.4,4.2,5.4,6.9,7.1c2.7,1.7,6.2,2.2,9.4,3.2c1.6,0.5,3.2,1.1,4.7,1.7
		c4.2,1.6,8.5,3.1,12.5,5c1.4,0.7,2.3,1,3.5,0.1c3.5-2.7,7.3-2.8,11.3-1.2c0.7,0.3,1.5,0.2,2.1,0.5c4.9,2,9.5,1.6,14-1.5
		c3.2-2.3,7.1-2.9,11.1-3.1c5.6-0.3,11.1-1,16.7-1.4c2.2-0.2,3.5-1.1,4.5-2.9c2.2-3.9,4.7-7.7,7-11.6c1.4-2.4,3-4.7,5.2-6.3
		c4.1-3,7.1-6.9,11.2-10.3c3.9-3.5,7.6-7.2,11.4-10.8C389.7,518,390.5,517.3,389.6,515.8z M624,369.9c-0.7-3.8-2.9-5.6-6.1-6.6
		c-7-2.3-14.2-4.3-21.7-5c-6.6-0.6-13.3-1-19.9-0.8c-3,0.1-3.5,0.8-3.4,3.7c0.1,2,0.7,3.9,1.1,5.9c1.5,6.8,2.5,13.7,3.3,20.7
		c0.9,8.1,1.1,16.1,1.3,24.2c0.1,3,0.3,3.3,3.3,4c3.7,0.8,7.3,2.1,10.9,3.3c12.7,4.1,22.8,11.8,30.5,22.7c0.5,0.7,0.8,1.5,2.2,1.6
		c1.1-8.4,2-16.6,2.4-24.9C628.7,402.3,627,386.1,624,369.9z M250.9,399.9c1.3-0.5,2.6-1.1,4.1-0.9c5.9,0.9,10-1.7,13-6.5
		c0.1-0.1,0.1-0.2,0.2-0.3c0.5-1.1,1.5-1.5,2.6-1.6c5.5-0.6,11-1.4,16.6-1.7c2.9-0.2,5.9,0.1,7.8-2.8c0.3-0.5,1-0.7,1.5-1
		c3.4-2.2,6.9-4.2,10.2-6.5c1.8-1.2,3.6-1.6,5.7-1.6c7.9,0.1,15.9-0.1,23.8,1c4.6,0.7,8.9-0.5,12.4-4.4c4.9-5.4,10.4-10.3,15.7-15.5
		c1.1-1,2.1-1.8,3.7-1.9c3.9-0.4,7.8-0.9,11.7-1.4c0.9-0.2,1.7-0.1,2.4,0.4c3.9,2.5,8.2,2.8,12.6,1.7c1.4-0.4,3-0.4,4.5-0.8
		c1.9-0.6,3.4-0.2,4.8,1.2c0.9,0.9,2,1.7,3,2.5c0.5,0.5,1,1,1.8,1c4.1-0.2,8.3,0.1,12.4-0.6c4.5-0.8,8.7-0.5,13.1-0.2
		c0.6,0.1,1.1,0.2,1.7-0.1c5.1-2.4,10.4-4.5,15.5-7c5.8-2.9,11.8-4.8,17.8-7.1c0.6-0.3,1.3-0.7,2-0.2c2.3,1.6,5.3,1.6,7.5,3.1
		c2.5,1.8,4.5,1.4,6.7-0.1s4.6-1.6,7.1-0.9c2,0.6,3.9,1.3,5.9,1.5c4.9,0.7,9.8,1.4,14.4,3.3c1.3,0.5,2.6,0.7,4.1,0.8
		c3.4,0.2,6.6-0.3,9.9-0.6c10.2-1.1,20.3-2,30.5-3c2.6-0.3,2.6-0.3,1.9-3.1c-2.3-9.7-6.4-18.9-9.6-28.3c-1.6-4.8-4-9.3-6.5-13.8
		c-1.2-2.1-2.4-2.5-4.6-2.3c-5.7,0.6-11.5,1.3-17.1,0.7c-10.1-1.1-20.2-2.4-29.8-6.3c-3.9-1.6-7.9-2.6-12.1-2.6
		c-2.4,0-4.9-0.4-7.4-0.6c-0.6,0-1.1-0.1-1.6-0.5c-2.7-2-5.6-3.7-8-5.9c-2.4-2.2-4.7-4.3-8.3-3.7c-0.6,0-1.2-0.3-1.7-0.6
		c-1.7-0.9-3.6-1.1-5.5-0.8c-3.8,0.6-7.5,0.1-11-1.7c-1.9-1-3.8-1-5.9-0.9c-8.7,0.5-17.3,1.5-26,1.2c-1.2,0-2.5-0.2-3.5,0.3
		c-2.5,1.2-5.1,0.9-7.7,1.1c-2.3,0.2-4.5,0.3-6.8,0.3c-0.7,0-1.4,0.1-2,0.5c-6.2,3.8-12.7,6.9-18.6,11.2c-0.6,0.5-1.2,0.6-1.9,0.5
		c-8.7-1-17.3-0.8-26-0.8c-1.9,0-4,0.2-5.7-0.4c-2.3-0.8-3.6,0.2-5.1,1.4c-6.5,5.2-13.2,10.1-19.3,15.7c-1.6,1.5-3,1.5-4.7,0.4
		c-4-2.6-8.3-2.9-12.9-1.4c-4.4,1.4-8.9,2.3-13.6,1c-1.8-0.5-3.7-0.7-5.6-1c-0.7-0.2-1.4-0.5-2,0.1c-3.2,3.1-7.2,4.8-10.7,7.5
		c-12.4,9.5-25.2,18.6-37.8,27.9c-2.5,1.8-5.3,3.2-5.2,7c0,0.7-0.5,1.4-0.8,2c-1.6,3.4-2.2,7-2.9,10.6c-0.4,2.5-0.7,5-1.2,7.4
		c-2,10.5-3.7,21-4.2,31.7c-0.5,11.5-1,23.1,0.8,35c1.2-0.5,1.8-1.3,2.7-1.7c8.7-8.9,17.6-17.6,26.1-26.8
		C240.1,405.3,245,402,250.9,399.9z M284.7,252.2c8.7-3.2,17.4-6.3,26-9.6c6.1-2.3,12.5-3.8,18.5-6.4c0.7-0.3,1.4-0.3,2.1-0.3
		c13.4,0.5,26.7,2.5,40.1,2.7c1,0,2,0.1,2.9,0.9c3,2.8,6.7,4.9,9.4,8.1c1.1,1.3,2.3,1.7,4,1.7c7.3,0.2,14.7,0.5,22,0.8
		c1.9,0.1,3.8-0.1,5.5,1.1c6.5,4.4,13.9,7.1,20.7,10.9c3.4,1.9,6.1,1.9,9.2,0.2c2.2-1.2,4.4-1.3,6.8-0.3c2.3,0.9,4.7,1.6,7.1,2.3
		c1.7,0.5,3.3,1.3,4,3.1c0.6,1.4,1.6,2,3.1,1.7c2-0.3,3.3,0.6,4.5,2.1c0.5,0.6,1.2,1.2,1.7,1.8c3.4,3.8,7.2,7.2,12.7,7.4
		c2.4,0.1,3.8,1.4,5,3.4c0.8,1.4,1.5,2.9,3.2,3.6c13.2,5.3,26.9,7.6,41.1,6c1.6-0.2,2.1-0.9,1.6-2.4c-0.4-1.1-1.1-2.1-1.7-3.1
		c-8.4-13.4-17.5-26.2-28.7-37.5c-10.5-10.6-21.2-20.7-34.4-27.9c-8.9-4.9-17.6-9.6-27.1-13.3c-10.2-3.9-20.7-5.5-31.4-7
		c-3-0.4-6-0.8-8.9-0.6c-8.6,0.5-17.3,1-25.9,1.9c-4.2,0.5-8.3,2-12.5,2.7c-6.5,1.1-12.3,4-18.3,6.5c-4.6,1.8-9,4.3-13.6,6.1
		c-4.5,1.8-9.1,3.5-13.2,6.1c-5.2,3.3-10.6,6.3-16.1,9.1c-7.3,3.7-13.6,8.9-20.2,13.8c-2.4,1.7-4.8,3.5-6.5,5.9
		c0.1,0.2,0.2,0.5,0.3,0.7C280,253.7,282.4,253,284.7,252.2z M512.7,573.5c2.9-3.8,6.7-6.7,9.5-10.6c8.2-11.4,15.2-23.6,21.5-36.1
		c10.3-20.5,16.4-42.2,20.5-64.6c0.6-2.9,0.8-5.9,1.3-8.8c1.4-7.4,2.4-14.8,2.4-22.3c0-0.7-0.1-1.6,0.3-2.1c0.9-1.1,0.9-2.1,0.1-3.2
		c-0.9-1.2-2.1-0.9-3.3-0.8c-6.3,0.6-12.4,2.1-18.3,4.3c-5.3,1.9-10.1,4.7-15.2,7c-4.1,1.9-7.9,4.4-10.8,7.9
		c-0.4,0.5-0.7,1.3-1.6,1.2c-2.5-0.2-4.6,1.3-6.9,1.7c-4,0.6-6.5,2.9-7.9,6.6c-0.6,1.4-1.5,2.7-2.3,4c-2.3,3.8-5,7.1-9,9.3
		c-5.3,2.9-10.5,6.5-15.7,9.7c-2.2,1.4-3.9,3-4.2,5.8c-0.3,2.7-0.8,5.3-2.9,7.4c-0.5,0.5-0.6,1.5-0.8,2.3
		c-2.2,7.8-4.3,15.5-6.5,23.3c-0.6,2.1-1.3,4.1-0.3,6.2c0.4,0.8,0.1,1.3-0.7,1.7c-3.5,1.7-7,3.5-10.7,4.8c-1.5,0.5-2,1.1-2.3,2.5
		c-0.7,3.9-1.8,7.6-3.2,11.3c-1,2.8-1.9,5.6-2,8.6c-0.2,5.2-1.8,9.9-5.1,14.1c-2.3,3-4.1,6.4-6.3,9.5c-1.3,2-3,3.6-4.2,5.7
		c-4.5,7.9-9,16-17.9,20c-0.4,0.2-0.8,0.5-1.2,0.8c-0.5,0.4-0.8,0.8-0.8,1.5c0,1.3-0.6,2.8-0.2,3.9c0.7,2-0.6,2.4-1.8,3.1
		c-5.2,2.8-10.4,5.6-15.6,8.5c-1.2,0.7-2.7,1.2-2.9,3.2c3.7,1.3,7.5,0.9,11.1,1.2c13.4,1.2,26.6,0.4,39.7-2.4c12-2.6,24-5.6,34.4-12
		c10.8-6.5,20.8-13.9,29.5-22.9C506,581.2,509.6,577.6,512.7,573.5z M553.6,297.8c-2.5,1.2-2.7,1.6-1.7,4.1c0.9,2.3,1.9,4.6,3.1,6.8
		c3.5,6.5,6.1,13.4,8.5,20.3c1.9,5.5,3.5,11.1,5,16.7c0.7,2.8,0.8,2.8,3.6,2.7c2.7,0,5.5-0.1,8.2-0.2c5.8-0.2,11.6,0.3,17.3,1.3
		c6.3,1.2,12.6,2.2,18.6,4.7c0.5,0.1,0.9,0.3,1.4,0.4c2.1,0.5,2.4,0.2,1.8-1.8c-2.6-7.9-4.8-15.9-8.6-23.3
		c-2.2-4.3-4.1-8.8-5.7-13.4c-0.5-1.5-1.2-2.9-2.1-4.1c-1.7-2.3-3.1-4.8-4.4-7.3c-0.9-1.7-1.8-3.6-3-5.2c-4.8-6.2-9.2-12.7-13.8-19
		c-1.2-1.6-2.6-3.1-4.1-4.4c-1,0.3-1.2,0.9-1.4,1.2c-2.6,4.3-5.5,8.3-9.4,11.6C562.8,292.4,558.5,295.5,553.6,297.8z M457.5,207.6
		c4.1,1.7,8.5,2.9,12.5,5c8.5,4.5,16.8,9.3,24.1,15.7c3.5,3.1,7.7,5.6,10.9,9.1c5.8,6.3,11.9,12.2,17.4,18.8c4.3,5.2,9,10.1,12.4,16
		c3.2,5.6,7.9,10.1,10.7,16c1.1,2.3,2.2,2.4,4.7,1.4c8.7-3.4,14.5-9.8,18.8-17.7c0.7-1.2,0.9-2.5,0.1-3.7c-2.5-3.6-4.6-7.4-8.3-10.1
		c-5.7-4.2-11.2-8.7-16.6-13.4c-2.9-2.5-5.8-4.8-9.1-6.7c-6.6-3.8-12.9-8.1-19.7-11.5c-13.8-7-28.2-12.5-42.9-17.3
		c-5.3-1.8-10.8-3-16.3-3.9c-0.8-0.2-1.6-0.6-2.3,0.6C454.9,207.1,456.3,207.1,457.5,207.6z"/>
	<path d="M703.5,273.6c1.9,4,0.7,7.2-3.4,9.1c-12.4,6.1-24.9,12.1-37.4,18.1c-1,0.5-1.8,1.1-3.2,1.1c-1.9-1-4.7-0.9-5.7-3.9
		c-0.8-2.3-2-4.4-3-6.5c-2-4.3-0.9-7.5,3.3-9.5c12.4-6,24.7-12,37.1-18c4.1-2,7.2-0.9,9.2,3.2C701.4,269.3,702.5,271.5,703.5,273.6z
		 M229.2,620.3c-7.9,4.7-15.8,9.4-24.1,14.3c4.3,3.9,8.3,7.5,12.5,11.3c4.3-8.5,8.4-16.6,12.5-24.7
		C230.3,620.4,229.9,620.2,229.2,620.3z M413.7,148.3c2.5-0.2,5,0,7.5,0c3.4-0.2,6.2-3,6.2-6.6c0-14.1,0-28.3,0-42.4
		c0-3.7-2.7-6.4-6.3-6.4c-2.7,0-5.5,0-8.2,0c-3.5,0-6.1,2.7-6.1,6.3c0,7.1,0,14.2,0,21.4c0,7.1,0,14.2,0,21.4c0,1.6,0.4,2.9,1.6,4.1
		C409.9,147.7,411.4,148.5,413.7,148.3z M520.3,659.7c-0.9-2.3-4.6-4-7-3.2c-2.8,1-5.6,2.1-8.3,3.1c-4.1,1.6-5.7,4.8-4.1,8.8
		c4.9,13,9.8,26,14.6,38.9c1.4,3.7,4.7,5.2,8.5,3.8c2.7-1,5.3-2,8-3c2-0.6,4.3-3.8,4.3-5.9c-0.1-0.5-0.3-1-0.5-1.6
		C530.6,687,525.5,673.3,520.3,659.7z M174,549.6c2.5-1.3,5-2.6,7.5-4c2.3-1.2,3.9-5.4,2.8-7.6c-2.3-4.5-4.7-9-7.2-13.6
		c-5.8,3-11.5,6-17.2,8.9c-1.3,0.7-1.3,1.4-0.6,2.5c2,3.7,4,7.6,6,11.3C167,550.2,170.7,551.3,174,549.6z M601.7,606.5
		c-1.3-1.6-5.2-2-6.8-0.7c-4,3.3-7.9,6.7-12,10.2c4.4,5.5,8.8,10.8,13.2,16.4c4.1-3.6,7.9-6.9,11.6-10.2c1.7-1.7,2.3-5.4,0.9-7.2
		C606.4,612.1,604,609.3,601.7,606.5z M290.2,142.7c4.9-2.2,9.3-4.2,13.6-6.3c2.4-1.1,3.8-4.7,2.9-7.2c-1.2-3.1-2.5-6.1-3.8-9.2
		c-0.8-1.8-5-3.8-6.9-3c-4.5,1.9-8.8,4-13.2,6c-1,0.5-1,1.1-0.6,2C284.8,130.8,287.4,136.6,290.2,142.7z M217.1,231.1
		c2,2,6,1.9,8-0.1c2.1-2,4-4.1,6.1-6c1.5-1.4,2.4-2.9,1.9-5c0.6-2.3-0.6-3.7-2.2-5.2c-6.8-6.5-13.4-13.1-20.1-19.6
		c-3.2-3.1-6.4-6.3-9.7-9.4c-2.7-2.6-6.9-2.5-9.6,0.3c-2.1,2.1-4.1,4.2-6.2,6.4c-1.8,2.1-1.8,6.1,0.1,8
		C195.9,210.7,206.5,220.9,217.1,231.1z M325.6,659.5c-3.4-1.4-6.8-2.8-10.1-4.3c-1.4-0.6-2.1-0.6-2.7,0.9c-2.2,5.5-4.4,11-6.8,16.4
		c-0.7,1.6,0,2.1,1.3,2.6c3.1,1.3,6.1,2.6,9.2,3.9c3.6,1.5,7,0.1,8.6-3.5c1.2-2.7,2.4-5.4,3.6-8.1c0.2-0.6,0.4-1.3,0.6-1.7
		C329.4,663.4,327.5,660.3,325.6,659.5z M783.5,411.9c0,202.4-163.1,371.2-370.5,371.6C205.4,784,38.9,616.7,40,409.8
		C41.1,202.5,209.3,39.8,411.9,40C617.3,40.1,783.6,206.4,783.5,411.9z M618.3,161.1c4.2,4.5,8.2,8.7,12.3,13
		c-17.8,18.2-35.6,36.4-53.5,54.8c4.9,4.7,9.5,9.3,14.4,14c18-18.2,35.9-36.3,53.8-54.5c4.5,4.3,8.7,8.3,12.4,11.9
		c5.1-5.1,9.9-9.9,14.8-14.8c-13-12.9-26.3-26-39.7-39.3C627.8,151.4,622.9,156.3,618.3,161.1z M563.5,329c1.9,5.5,3.5,11.1,5,16.7
		c0.7,2.8,0.8,2.8,3.6,2.7c2.7,0,5.5-0.1,8.2-0.2c5.8-0.2,11.6,0.3,17.3,1.3c6.3,1.2,12.6,2.2,18.6,4.7c0.5,0.1,0.9,0.3,1.4,0.4
		c2.1,0.5,2.4,0.2,1.8-1.8c-2.6-7.9-4.8-15.9-8.6-23.3c-2.2-4.3-4.1-8.8-5.7-13.4c-0.5-1.5-1.2-2.9-2.1-4.1
		c-1.7-2.3-3.1-4.8-4.4-7.3c-0.9-1.7-1.8-3.6-3-5.2c-4.8-6.2-9.2-12.7-13.8-19c-1.2-1.6-2.6-3.1-4.1-4.4c-1,0.3-1.2,0.9-1.4,1.2
		c-2.6,4.3-5.5,8.3-9.4,11.6c-4.1,3.5-8.4,6.6-13.3,8.9c-2.5,1.2-2.7,1.6-1.7,4.1c0.9,2.3,1.9,4.6,3.1,6.8
		C558.5,315.2,561.1,322.1,563.5,329z M559.5,346.6c-2.3-9.7-6.4-18.9-9.6-28.3c-1.6-4.8-4-9.3-6.5-13.8c-1.2-2.1-2.4-2.5-4.6-2.3
		c-5.7,0.6-11.5,1.3-17.1,0.7c-10.1-1.1-20.2-2.4-29.8-6.3c-3.9-1.6-7.9-2.6-12.1-2.6c-2.4,0-4.9-0.4-7.4-0.6
		c-0.6,0-1.1-0.1-1.6-0.5c-2.7-2-5.6-3.7-8-5.9c-2.4-2.2-4.7-4.3-8.3-3.7c-0.6,0-1.2-0.3-1.7-0.6c-1.7-0.9-3.6-1.1-5.5-0.8
		c-3.8,0.6-7.5,0.1-11-1.7c-1.9-1-3.8-1-5.9-0.9c-8.7,0.5-17.3,1.5-26,1.2c-1.2,0-2.5-0.2-3.5,0.3c-2.5,1.2-5.1,0.9-7.7,1.1
		c-2.3,0.2-4.5,0.3-6.8,0.3c-0.7,0-1.4,0.1-2,0.5c-6.2,3.8-12.7,6.9-18.6,11.2c-0.6,0.5-1.2,0.6-1.9,0.5c-8.7-1-17.3-0.8-26-0.8
		c-1.9,0-4,0.2-5.7-0.4c-2.3-0.8-3.6,0.2-5.1,1.4c-6.5,5.2-13.2,10.1-19.3,15.7c-1.6,1.5-3,1.5-4.7,0.4c-4-2.6-8.3-2.9-12.9-1.4
		c-4.4,1.4-8.9,2.3-13.6,1c-1.8-0.5-3.7-0.7-5.6-1c-0.7-0.2-1.4-0.5-2,0.1c-3.2,3.1-7.2,4.8-10.7,7.5c-12.4,9.5-25.2,18.6-37.8,27.9
		c-2.5,1.8-5.3,3.2-5.2,7c0,0.7-0.5,1.4-0.8,2c-1.6,3.4-2.2,7-2.9,10.6c-0.4,2.5-0.7,5-1.2,7.4c-2,10.5-3.7,21-4.2,31.7
		c-0.5,11.5-1,23.1,0.8,35c1.2-0.5,1.8-1.3,2.7-1.7c8.7-8.9,17.6-17.6,26.1-26.8c4.3-4.7,9.2-8,15.1-10.1c1.3-0.5,2.6-1.1,4.1-0.9
		c5.9,0.9,10-1.7,13-6.5c0.1-0.1,0.1-0.2,0.2-0.3c0.5-1.1,1.5-1.5,2.6-1.6c5.5-0.6,11-1.4,16.6-1.7c2.9-0.2,5.9,0.1,7.8-2.8
		c0.3-0.5,1-0.7,1.5-1c3.4-2.2,6.9-4.2,10.2-6.5c1.8-1.2,3.6-1.6,5.7-1.6c7.9,0.1,15.9-0.1,23.8,1c4.6,0.7,8.9-0.5,12.4-4.4
		c4.9-5.4,10.4-10.3,15.7-15.5c1.1-1,2.1-1.8,3.7-1.9c3.9-0.4,7.8-0.9,11.7-1.4c0.9-0.2,1.7-0.1,2.4,0.4c3.9,2.5,8.2,2.8,12.6,1.7
		c1.4-0.4,3-0.4,4.5-0.8c1.9-0.6,3.4-0.2,4.8,1.2c0.9,0.9,2,1.7,3,2.5c0.5,0.5,1,1,1.8,1c4.1-0.2,8.3,0.1,12.4-0.6
		c4.5-0.8,8.7-0.5,13.1-0.2c0.6,0.1,1.1,0.2,1.7-0.1c5.1-2.4,10.4-4.5,15.5-7c5.8-2.9,11.8-4.8,17.8-7.1c0.6-0.3,1.3-0.7,2-0.2
		c2.3,1.6,5.3,1.6,7.5,3.1c2.5,1.8,4.5,1.4,6.7-0.1s4.6-1.6,7.1-0.9c2,0.6,3.9,1.3,5.9,1.5c4.9,0.7,9.8,1.4,14.4,3.3
		c1.3,0.5,2.6,0.7,4.1,0.8c3.4,0.2,6.6-0.3,9.9-0.6c10.2-1.1,20.3-2,30.5-3C560.2,349.4,560.2,349.4,559.5,346.6z M565,503.4
		c-2.3,7.4-5.4,14.6-8.7,21.7c-3.3,7.1-6.4,14.3-10.7,20.9c-5.9,9.1-11.1,18.5-18,26.9c-7.3,8.9-15.6,16.9-24.3,24.4
		c-4.7,4-9.1,8.4-14.8,11.2c2,1.1,3.8,0.3,5.5-0.4c7.9-3.4,15.9-6.7,23.5-10.9c11.8-6.5,22.6-14.7,33.6-22.6
		c1.4-1.1,2.8-2.2,4.1-3.4c7.8-7.4,15.2-15,22.1-23.2c7.6-9.1,14.9-18.5,20.9-28.8c11.1-19.2,19.2-39.6,24.2-61.3
		c0.2-0.7,0.6-1.4,0.2-2.2c-2.1-2.9-3-6.5-5.4-9.2c-7.8-8.9-17.3-15.4-28.5-19.3c-2.2-0.7-4.5-1.5-6.8-2c-2-0.4-2.6,0.1-2.9,2.1
		c-0.1,0.6,0,1.2-0.1,1.8c-1.4,12-1.7,24.1-4.3,36c-1.3,6.2-1.8,12.5-3.7,18.5C568.9,490.2,567,496.8,565,503.4z M623.3,442
		c0.5,0.7,0.8,1.5,2.2,1.6c1.1-8.4,2-16.6,2.4-24.9c0.8-16.4-0.9-32.6-3.9-48.8c-0.7-3.8-2.9-5.6-6.1-6.6c-7-2.3-14.2-4.3-21.7-5
		c-6.6-0.6-13.3-1-19.9-0.8c-3,0.1-3.5,0.8-3.4,3.7c0.1,2,0.7,3.9,1.1,5.9c1.5,6.8,2.5,13.7,3.3,20.7c0.9,8.1,1.1,16.1,1.3,24.2
		c0.1,3,0.3,3.3,3.3,4c3.7,0.8,7.3,2.1,10.9,3.3C605.5,423.4,615.6,431.1,623.3,442z M486.6,177.6c4.6,1.8,9.3,3.7,13.8,5.6
		c1.4,0.6,1.9,0.2,2.4-1.1c1-2.5,2.1-5,3.2-7.5c5.7-13.4,17.1-40.2,17.1-40.2l3,26.7c0.7,10.7,1.3,21.3,2,32c0.1,1.1,0,2.1,1.3,2.6
		c4.5,1.8,9,3.7,13.5,5.6c0.9,0.4,1.6,0.2,1.9-0.8c0.2-0.7,0.6-1.3,0.8-2c10.1-24,20.2-48.1,30.3-72.1c1.7-4.2,3.4-8.4,5.3-12.4
		c0.8-1.8,0.3-2.5-1.3-3.1c-2.9-1.1-5.7-2.4-8.5-3.5c-2.2-0.9-4.4-2.2-6.9-2.7c-3.3,7.8-6.5,15.5-9.7,23.1
		c-3.2,7.5-6.1,15.2-9.8,22.5c-0.3-1.3-0.3-2.5-0.3-3.6c-0.1-15.7-0.2-31.4-0.3-47c0-0.7,0-1.4,0-2.1c0.1-1.1-0.3-1.8-1.4-2.2
		c-6.1-2.6-12.2-5.2-18.3-7.8c-0.9-0.4-1.6-0.2-2,0.7c-0.3,0.8-0.6,1.5-0.9,2.3c-8,18.9-16,37.7-24.1,56.6
		c-3.9,9.3-7.8,18.6-11.8,27.8C485.2,176.1,485,176.9,486.6,177.6z M453.9,205.9c1,1.2,2.4,1.2,3.6,1.7c4.1,1.7,8.5,2.9,12.5,5
		c8.5,4.5,16.8,9.3,24.1,15.7c3.5,3.1,7.7,5.6,10.9,9.1c5.8,6.3,11.9,12.2,17.4,18.8c4.3,5.2,9,10.1,12.4,16
		c3.2,5.6,7.9,10.1,10.7,16c1.1,2.3,2.2,2.4,4.7,1.4c8.7-3.4,14.5-9.8,18.8-17.7c0.7-1.2,0.9-2.5,0.1-3.7c-2.5-3.6-4.6-7.4-8.3-10.1
		c-5.7-4.2-11.2-8.7-16.6-13.4c-2.9-2.5-5.8-4.8-9.1-6.7c-6.6-3.8-12.9-8.1-19.7-11.5c-13.8-7-28.2-12.5-42.9-17.3
		c-5.3-1.8-10.8-3-16.3-3.9C455.4,205.1,454.6,204.7,453.9,205.9z M386.1,154.6c0,1.6,0.4,2.7,1.5,3.8c3.3,3.2,6.6,6.5,9.8,9.8
		c1.1,1.1,2.3,1.5,3.8,1.5c10.6-0.1,21.1-0.1,31.7,0c1.7,0,2.8-0.6,4-1.8c3-3,6-6,9.2-8.9c1.5-1.3,2-2.6,2-4.6
		c-0.1-11.1-0.1-22.1-0.2-33.2c0-11.2-0.1-22.5,0-33.8c0-2-0.5-3.4-1.9-4.7c-3.2-3-6.3-6.1-9.3-9.3c-1.1-1.2-2.3-1.7-4-1.7
		c-10.6,0.1-21.1,0.1-31.7,0c-1.5,0-2.6,0.5-3.7,1.6c-3.2,3.3-6.4,6.6-9.8,9.8c-1.1,1.1-1.4,2.3-1.4,3.8
		C386.1,109.5,386.1,132,386.1,154.6z M365.3,206.2c-6.5,1.1-12.3,4-18.3,6.5c-4.6,1.8-9,4.3-13.6,6.1c-4.5,1.8-9.1,3.5-13.2,6.1
		c-5.2,3.3-10.6,6.3-16.1,9.1c-7.3,3.7-13.6,8.9-20.2,13.8c-2.4,1.7-4.8,3.5-6.5,5.9c0.1,0.2,0.2,0.5,0.3,0.7c2.3-0.7,4.7-1.4,7-2.2
		c8.7-3.2,17.4-6.3,26-9.6c6.1-2.3,12.5-3.8,18.5-6.4c0.7-0.3,1.4-0.3,2.1-0.3c13.4,0.5,26.7,2.5,40.1,2.7c1,0,2,0.1,2.9,0.9
		c3,2.8,6.7,4.9,9.4,8.1c1.1,1.3,2.3,1.7,4,1.7c7.3,0.2,14.7,0.5,22,0.8c1.9,0.1,3.8-0.1,5.5,1.1c6.5,4.4,13.9,7.1,20.7,10.9
		c3.4,1.9,6.1,1.9,9.2,0.2c2.2-1.2,4.4-1.3,6.8-0.3c2.3,0.9,4.7,1.6,7.1,2.3c1.7,0.5,3.3,1.3,4,3.1c0.6,1.4,1.6,2,3.1,1.7
		c2-0.3,3.3,0.6,4.5,2.1c0.5,0.6,1.2,1.2,1.7,1.8c3.4,3.8,7.2,7.2,12.7,7.4c2.4,0.1,3.8,1.4,5,3.4c0.8,1.4,1.5,2.9,3.2,3.6
		c13.2,5.3,26.9,7.6,41.1,6c1.6-0.2,2.1-0.9,1.6-2.4c-0.4-1.1-1.1-2.1-1.7-3.1c-8.4-13.4-17.5-26.2-28.7-37.5
		c-10.5-10.6-21.2-20.7-34.4-27.9c-8.9-4.9-17.6-9.6-27.1-13.3c-10.2-3.9-20.7-5.5-31.4-7c-3-0.4-6-0.8-8.9-0.6
		c-8.6,0.5-17.3,1-25.9,1.9C373.6,204,369.5,205.5,365.3,206.2z M256.1,111.2c0.3,0.8,0.4,1.3,0.6,1.7
		c12.3,28.4,24.7,56.9,37.1,85.4c0.2,0.4,0.4,0.9,0.6,1.3c0.3,0.8,0.8,1.2,1.6,0.8c5.4-2.3,10.9-4.6,16.4-7
		c-4.4-10.1-8.6-19.8-12.8-29.6c2.2-1,4-2,5.8-2.8c3.4-1.5,2.5-2.1,5.7,1c6.7,6.4,13.3,12.9,20,19.3c3.3,3.2,2,3,6.2,1.2
		c4.1-1.7,8.2-3.6,12.3-5.5c1-0.5,2.2-0.6,3.1-2c-0.8-0.7-1.6-1.4-2.4-2.1c-7.5-7.2-14.8-14.5-22.3-21.6c-2-1.8-2.3-3.4-1.5-5.8
		c1.1-3.3,1.9-6.6,2.9-9.9c0.4-1.2,0.4-2.2-0.1-3.4c-4.2-10.1-8.4-20.1-12.6-30.2c-0.5-1.3-1.3-2.1-2.6-2.6
		c-4.7-1.9-9.4-3.7-14.1-5.8c-1.5-0.7-2.6-0.5-4,0.1c-2.6,1.3-5.4,2.4-8.1,3.6C277.3,101.9,266.8,106.5,256.1,111.2z M160.8,189.3
		c0.2,4.6,0.2,9.3,0.2,13.9c0,1.5,0.5,2.6,1.6,3.7c16.2,15.7,32.4,31.4,48.6,47.1c1.1,1.1,2.3,1.4,3.8,1.4c4.4-0.1,8.8-0.1,13.2,0
		c1.9,0,3.3-0.6,4.6-2c5.7-6,11.4-12.1,17.4-17.8c4.5-4.2,7.8-8.5,5.7-14.4c0-3.2-0.1-5.7,0-8.2c0.1-1.6-0.5-2.6-1.6-3.7
		c-4.1-4-8.3-8.1-12.4-12.2c-11.7-11.5-23.3-23-35-34.5c-1.1-1-2.1-2.1-3.9-2c-5,0.2-10,0.3-15,0.3c-1.4,0.1-2.4,0.6-3.4,1.6
		c-7.4,7.7-14.8,15.4-22.3,23C161.2,186.6,160.8,187.8,160.8,189.3z M95.2,299.6c6,2.7,12,5.5,18.2,8.3c0.4-0.7,0.8-1.2,1-1.7
		c1.9-4.2,3.9-8.4,5.7-12.7c0.7-1.7,1.4-1.7,2.9-1c5.2,2.4,10.4,4.7,15.6,7c16.7,7.4,33.3,14.8,50,22.2c2.5,1.1,2.5,1.1,3.6-1.3
		c0.7-1.5,1.3-3,2-4.6c1.7-3.9,3.3-7.7,5.1-11.7c-23.5-10.4-46.6-20.7-69.8-31c0-1.4,0.7-2.4,1.2-3.5c1.6-3.7,3.2-7.4,5-11
		c0.7-1.5,0.5-2.3-1.1-3c-4.7-2-9.3-4.1-14-6.2c-3.2-1.4-3.2-1.4-4.6,1.6c-3.9,8.5-7.8,17-11.7,25.6c-3.2,6.9-6.3,13.8-9.5,20.7
		C94.4,298.1,93.8,299,95.2,299.6z M157.8,570.9c3.3,0.9,6.8,1.3,10.1,2.1c1.6,0.4,2.8,0.1,4.1-0.5c9.7-5.1,19.3-10.2,29-15.2
		c1.4-0.7,2.1-1.7,2.6-3.1c1.4-4.5,2.8-9,4.4-13.5c0.6-1.8,0.3-3.1-0.5-4.7c-6.4-11.9-12.7-23.9-19-35.8c-0.4-0.7-0.6-1.5-1.6-2.2
		c-28.7,15-57.4,29.9-86.2,45c2.5,5,5,9.8,7.4,14.5c1.1,2.2,1.2,2.2,3.4,1.1c7.8-4,15.6-8,23.4-12c1-0.5,2-1.3,3.2-1.3
		c0.2,0.2,0.4,0.4,0.5,0.6c0.9,1.7,1.7,3.4,2.6,5.1c1.8,3.5,1.9,2.7-0.5,5.5c-4.9,5.8-9.8,11.6-14.7,17.4c-1.9,2.3-3.7,4.6-5.6,6.9
		c0.9,3,2.7,5.5,4.1,8.2c1.6,3.3,3.4,6.6,5.3,10.1c0.9-1,1.5-1.6,2-2.2c6.9-8.1,13.8-16.1,20.5-24.2
		C153.9,570.7,155.5,570.3,157.8,570.9z M259.9,597.3c-3.5-3.3-7-6.5-10.5-9.7c-2.6-2.4-1.7-2.4-4.7-0.6
		c-27.8,16.7-55.7,33.4-83.6,50.1c-0.8,0.4-1.8,0.6-2,1.8c4.4,4.2,8.8,8.3,13.1,12.6c1.3,1.3,2.3,1.2,3.7,0.3
		c3.3-2.1,6.7-4.1,10-6.2c1.4-0.9,2.4-1,3.7,0.3c5.9,5.6,11.8,11.1,17.8,16.5c1.3,1.2,1.5,2.1,0.7,3.6c-1.9,3.4-3.5,7-5.2,10.5
		c-0.5,1-0.9,1.8,0.2,2.8c4.6,4.2,9.2,8.5,13.8,12.7c1.3-0.9,1.5-2.2,2-3.2c7.8-16,15.6-32,23.4-48c6.2-12.8,12.5-25.6,18.7-38.4
		C262.6,599.1,262.9,600,259.9,597.3z M351.8,660.7c-1.9-4.6-3.8-9.2-5.7-13.8c-0.5-1.3-1.4-2.1-2.7-2.6
		c-12.5-5.2-24.9-10.3-37.4-15.5c-0.4-0.2-0.8-0.4-1.3-0.6c-1.4,0.2-1.4,1.5-1.8,2.4c-5.2,12.4-10.3,24.9-15.5,37.4
		c-6.6,15.9-13.1,31.7-19.7,47.6c-1.1,2.7-1.1,2.7,1.6,3.8c4.1,1.7,8.1,3.4,12.2,5c2.3,0.9,2.3,0.9,3.3-1.4c4-9.6,8-19.3,12-28.9
		c1.1-2.7,1.1-2.7,3.7-1.6c7.4,3.1,14.9,6.1,22.3,9.3c1.7,0.7,3.1,0.7,4.7-0.2c3-1.6,6.1-3.2,9.2-4.7c1.5-0.7,2.5-1.7,3.1-3.2
		c3.9-9.6,7.9-19.3,11.9-28.9C352.2,663.4,352.4,662.1,351.8,660.7z M377.5,529.5c3.9-3.5,7.6-7.2,11.4-10.8
		c0.8-0.7,1.6-1.4,0.7-2.9c0.5-3.7,1.5-7.5,2.6-11.2c0.2-0.8,1-0.9,1.7-1.1c1.4-0.4,2.8-0.8,4.1-1.2c1-0.3,1.8-0.8,2.4-1.9
		c3.1-6.2,7.8-11.5,10.8-17.9c0.6-1.2,1.7-1.6,2.7-2.2c4-2.4,8.6-3.8,12.7-6.2c6.3-3.7,13-6.4,19.6-9.3c2.3-1,3.6-2.3,4.1-4.7
		c0.2-0.9,0.5-1.8,0.8-2.7c0.2-0.8,0.6-1.4,1.5-1.8c2.5-1,4.9-2.6,7.7-2.4c3.1,0.2,5.6-1,7.7-3c1.6-1.5,3.4-2,5.5-1.6
		c5.2,1,10,0.2,14.6-2.5c0.3-0.2,0.7-0.3,1-0.4c2.7-0.9,5.2-2,5.5-5.5c0-0.9,0.8-1.7,1.1-2.6c0.5-1.4,1.6-2,2.9-2.3
		c3.2-0.8,6.4-1.8,9.6-2.5c2.2-0.5,4-1.4,5.3-3.2c2.3-3.1,5.4-3.9,9-2.7c0.3,0.1,0.7,0.3,1,0.4c3.1,0.7,5.9,0.6,8.9-0.9
		c10.9-5.3,22.1-9.3,34.3-10c2.6-0.1,3.2-1.1,2.9-3.8c-0.2-2.4-0.5-4.7-0.8-7.1c-0.8-7.4-0.8-14.9-1.9-22.3
		c-1.1-6.9-2.2-13.8-3.6-20.7c-0.8-3.8-1.7-4.3-5.5-3.4c-1.3,0.3-2.6,0.4-3.9,0.5c-9.1,0.9-18.3,1.1-26.8,5.1
		c-5.4,2.5-11.1,3.2-17,2.8c-6.1-0.5-12.3,0-18.4-1.3c-0.5-0.1-0.9,0-1.3,0.3c-3,2.5-6.8,4-9.5,6.7c-3.7,3.8-7.7,6.1-13,6
		c-1.3-0.1-2.6,0.3-3.9,0.4c-2.2,0.2-4,1-5.8,2.4c-4.9,4-9.7,8.1-15.6,10.9c-3.3,1.6-7,2.3-9.9,4.7c-0.7,0.6-1.4,0.1-2.1,0
		c-3.7-0.3-7.3-0.5-11-0.9c-1.7-0.1-2.8,0.5-3.9,1.8c-8.7,11-18.5,21-27.7,31.6c-0.8,0.9-1.6,1.5-3,1.6c-5.2,0.3-10.3,1.8-15.4,2.6
		c-0.6,0.1-1.2,0.2-1.7,0.5c-4.9,3.3-10.3,5.5-15.2,8.6c-4,2.5-7.9,4.1-12.7,2.6c-1-0.3-2.3-0.4-3.2-0.1c-1.9,0.7-3.7,0.2-5.6,0.1
		c-5.6-0.4-5.6-0.4-9.4,3.8c-0.8,0.8-1.8,1.6-2.4,2.6c-2.2,3.3-5.4,4.1-8.9,4.4c-0.7,0-1.4,0-2.1,0.1c-2.3,0.5-4.8,0.6-6.7,2
		c-4.7,3.4-9.2,7-14.1,10.2c-5.2,3.3-9.8,7.5-14.7,11.3c-1,0.7-1.7,1.5-2.2,2.7c-1.5,3.9-3.1,7.7-4.7,11.5c-2,4.8-4.2,9.5-5.8,14.5
		c-0.6,1.8-1.3,2.1-2.8,2.2c-4,0.3-8.1,0.7-12.1,0.9c-2.4,0.1-4.4,0.7-6,2.6c-0.8,0.9-1.8,1.6-2.6,2.5c-1.8,1.9-1.8,2.4-0.2,4.5
		c3.8,5,7.7,9.9,10.9,15.4c2.8,4.8,6.2,9,10,13c2.2,2.4,4.2,5.4,6.9,7.1c2.7,1.7,6.2,2.2,9.4,3.2c1.6,0.5,3.2,1.1,4.7,1.7
		c4.2,1.6,8.5,3.1,12.5,5c1.4,0.7,2.3,1,3.5,0.1c3.5-2.7,7.3-2.8,11.3-1.2c0.7,0.3,1.5,0.2,2.1,0.5c4.9,2,9.5,1.6,14-1.5
		c3.2-2.3,7.1-2.9,11.1-3.1c5.6-0.3,11.1-1,16.7-1.4c2.2-0.2,3.5-1.1,4.5-2.9c2.2-3.9,4.7-7.7,7-11.6c1.4-2.4,3-4.7,5.2-6.3
		C370.4,536.8,373.4,532.9,377.5,529.5z M446.2,656c0-1.7-0.6-2.3-2.5-2.3c-17.2,0.2-34.4,0.2-51.6,0.3c-1.7,0-2.3,0.4-2.2,2.2
		c0.2,5.8,0.4,11.6,0.4,17.4c0,1.7,0.8,1.9,2.2,1.8c4.4-0.1,8.8-0.1,13.2-0.3c1.8-0.1,2.4,0.5,2.2,2.2c-0.1,0.5,0,0.9,0,1.4
		c0.2,19,0.4,38,0.6,57c0,4.5,0.1,9,0.1,13.5c0,2.5,0.1,2.5,2.6,2.5c4.5,0,9-0.1,13.5-0.2c5.2-0.1,4.5,0.7,4.5-4.6
		c-0.2-22.9-0.5-45.8-0.7-68.7c0-3.1,0-3.1,3-3.2c4.8-0.2,9.7-0.3,14.7-0.5C446.2,668.1,446.1,662.1,446.2,656z M472.9,607.7
		c10.8-6.5,20.8-13.9,29.5-22.9c3.6-3.6,7.2-7.2,10.3-11.3c2.9-3.8,6.7-6.7,9.5-10.6c8.2-11.4,15.2-23.6,21.5-36.1
		c10.3-20.5,16.4-42.2,20.5-64.6c0.6-2.9,0.8-5.9,1.3-8.8c1.4-7.4,2.4-14.8,2.4-22.3c0-0.7-0.1-1.6,0.3-2.1c0.9-1.1,0.9-2.1,0.1-3.2
		c-0.9-1.2-2.1-0.9-3.3-0.8c-6.3,0.6-12.4,2.1-18.3,4.3c-5.3,1.9-10.1,4.7-15.2,7c-4.1,1.9-7.9,4.4-10.8,7.9
		c-0.4,0.5-0.7,1.3-1.6,1.2c-2.5-0.2-4.6,1.3-6.9,1.7c-4,0.6-6.5,2.9-7.9,6.6c-0.6,1.4-1.5,2.7-2.3,4c-2.3,3.8-5,7.1-9,9.3
		c-5.3,2.9-10.5,6.5-15.7,9.7c-2.2,1.4-3.9,3-4.2,5.8c-0.3,2.7-0.8,5.3-2.9,7.4c-0.5,0.5-0.6,1.5-0.8,2.3
		c-2.2,7.8-4.3,15.5-6.5,23.3c-0.6,2.1-1.3,4.1-0.3,6.2c0.4,0.8,0.1,1.3-0.7,1.7c-3.5,1.7-7,3.5-10.7,4.8c-1.5,0.5-2,1.1-2.3,2.5
		c-0.7,3.9-1.8,7.6-3.2,11.3c-1,2.8-1.9,5.6-2,8.6c-0.2,5.2-1.8,9.9-5.1,14.1c-2.3,3-4.1,6.4-6.3,9.5c-1.3,2-3,3.6-4.2,5.7
		c-4.5,7.9-9,16-17.9,20c-0.4,0.2-0.8,0.5-1.2,0.8c-0.5,0.4-0.8,0.8-0.8,1.5c0,1.3-0.6,2.8-0.2,3.9c0.7,2-0.6,2.4-1.8,3.1
		c-5.2,2.8-10.4,5.6-15.6,8.5c-1.2,0.7-2.7,1.2-2.9,3.2c3.7,1.3,7.5,0.9,11.1,1.2c13.4,1.2,26.6,0.4,39.7-2.4
		C450.5,617.1,462.5,614.1,472.9,607.7z M559.1,704.6c-8-21.1-15.9-42.1-23.9-63.1c-0.5-1.4-1.3-2.4-2.7-3c-4.3-1.8-8.7-3.8-13-5.7
		c-0.6-0.3-1.3-0.6-1.9-0.8c-0.5,0.2-1,0.4-1.4,0.6c-10.2,3.8-20.4,7.7-30.6,11.5c-1.4,0.5-2.2,1.3-2.7,2.6
		c-1.8,4.3-3.6,8.5-5.6,12.7c-0.7,1.5-0.7,2.8-0.1,4.4c8.1,21,16.1,42,24.1,63.1c0.6,1.4,1.3,2.3,2.8,2.9c4.3,1.8,8.5,3.6,12.7,5.6
		c1.5,0.7,2.8,0.7,4.4,0.1c9.9-3.8,19.7-7.5,29.6-11.2c1.4-0.6,2.3-1.4,2.9-2.8c1.7-4.3,3.4-8.6,5.3-12.8
		C559.7,707.2,559.6,706,559.1,704.6z M665.8,645.9c-1.4-0.8-2.5-1.4-3.6-2c-9.3-4.9-18.6-9.9-28.1-14.6c-1.6-0.8-2.3-1.7-2.3-3.5
		c0-3.9-0.2-7.8-0.3-11.7c-0.1-1.3-0.3-2.3-1.1-3.3c-7.1-8.3-14.2-16.6-21.2-25c-0.8-1-1.7-1.5-3-1.6c-5-0.4-9.9-0.8-14.9-1.3
		c-1.7-0.2-2.9,0.3-4.2,1.4c-7.3,6.2-14.6,12.4-22,18.6c-3.6,3-7.1,6-10.9,9.2c12.5,14.7,24.7,29.1,36.9,43.5
		c8.3,9.8,16.6,19.5,24.9,29.3c1.7,2,1.8,2,3.8,0.2c3.4-3,6.7-6,10.1-9c1.9-1.7,1.9-1.7,0.3-3.6c-5.2-6.3-10.5-12.5-15.8-18.8
		c-1-1.3-2-2.6-3.1-3.9c1.2-1.1,2.1-2,3.1-2.8c1.5-1.2,2.6-3.4,4.4-3.4c1.7,0,3.4,1.4,5.1,2.3c8,4.1,16,8.2,24,12.3
		c0.9,0.4,1.7,1.2,2.9,0.2C655.7,654.2,660.7,650.2,665.8,645.9z M726.7,547.4c-1.2-4.4-2.5-9-3.8-13.5c-0.3-1.3-0.9-2-2.1-2.6
		c-8.8-4.5-17.5-8.9-26.3-13.5c-1.3-0.7-2.4-0.8-3.7-0.3c-4.2,1.4-8.3,2.7-12.6,3.8c-2.5,0.6-4,1.9-5.2,4.2c-2.8,5.7-6,11.3-9,17
		c-1.4,2.6-5.3,3.7-7.9,2.3c-1.8-1-3.5-1.9-5.3-3s-3.3-4.9-2.4-6.8c2.1-4.3,4.3-8.5,6.4-12.7c0.6-1.2,1.3-1.5,2.5-0.8
		c1.7,0.9,3.5,1.8,5.4,2.7c3.3-6.2,6.4-12.1,9.7-18.3c-4.5-2.4-8.8-4.6-13.1-6.9c-1-0.5-1.8-0.2-2.7,0.1c-4.7,1.3-9.4,2.6-14,3.9
		c-1.4,0.4-2.4,1.1-3.2,2.5c-4.8,9.5-9.8,19-14.7,28.4c-0.7,1.3-1,2.5-0.4,4c1.6,4.6,3.1,9.2,4.5,13.9c0.5,1.5,1.3,2.4,2.6,3.1
		c8.7,4.4,17.3,8.8,25.9,13.3c1.2,0.6,2.3,0.8,3.7,0.3c4.6-1.5,9.3-2.9,14-4.2c1.8-0.5,2.8-1.3,3.6-3c2.6-5.3,5.5-10.5,8-15.9
		c1.2-2.5,2.7-3.9,5.4-4.4c1.2-0.2,2.3-0.3,3.4,0.3c1.7,0.9,3.4,1.7,5.1,2.6c1.8,1,3.4,5.4,2.5,7.1c-2.2,4.3-4.6,8.6-6.9,12.9
		c-0.5,0.9-1.1,1-2,0.5c-1.9-1.1-3.9-2.1-6.1-3.2c-3.3,6.1-6.4,12.1-9.7,18.3c4.6,2.5,9.1,4.8,13.6,7.2c1.2,0.6,2.3,0.3,3.4-0.1
		c4.4-1.4,8.8-2.8,13.2-4.1c1.5-0.4,2.4-1.2,3.1-2.6c4.8-9.5,9.7-19,14.7-28.4C727,550.1,727.2,548.9,726.7,547.4z M728.4,279.7
		c0.5-1.5,0.4-2.7-0.1-3.9c-4.7-9.6-9.3-19.2-13.8-28.9c-0.7-1.5-1.7-2.2-3.1-2.7c-4.4-1.5-8.8-2.9-13.1-4.5
		c-1.4-0.5-2.4-0.4-3.7,0.2c-20.3,9.7-40.7,19.4-61,29c-1.4,0.7-2.2,1.6-2.7,3c-1.4,4.4-3,8.8-4.6,13.1c-0.7,1.7-0.6,3.1,0.2,4.7
		c4.5,9.3,9,18.6,13.4,27.9c0.7,1.5,1.6,2.5,3.2,3c4.4,1.4,8.7,3.1,13,4.7c0.7,0.2,1.4,0.4,2.1,0.6c0.6-0.3,1.3-0.6,1.9-0.9
		c20.4-9.6,40.7-19.2,61.1-28.8c1.3-0.7,2.2-1.5,2.7-3C725.3,288.7,726.8,284.2,728.4,279.7z"/>
</g>
</svg>
