<?xml version="1.0" encoding="utf-8"?>
<!-- Generator: Adobe Illustrator 25.0.0, SVG Export Plug-In . SVG Version: 6.00 Build 0)  -->
<svg version="1.1" id="Layer_1" xmlns="http://www.w3.org/2000/svg" xmlns:xlink="http://www.w3.org/1999/xlink" x="0px" y="0px"
	 viewBox="0 0 935.5 717" style="enable-background:new 0 0 935.5 717;" xml:space="preserve">
<style type="text/css">
	.st0{fill:#FFFFFF;}
	.st1{fill:#AD854A;}
	.st2{fill:#162047;}
	.st3{fill:#D61F33;}
</style>
<g id="XMLID_64_">
	<path class="st0" d="M928.3,288.6v-4.4v-54.6c0-25.1-16.3-61.9-62.1-83C821.4,125.9,715.7,90.9,631,77.9
		c-7.8-8.4-28.6-27.1-58.8-27.1c-9.9,0-17.4,1.1-23.3,2.8c0.3-1.7,0.4-3.5,0.4-5.4c0-17.6-15.7-31.9-35-31.9
		c-11.1,0-20.8,5.4-27.5,13l-10.3-10.9l-8.7-9.2l-8.7,9.1l-10.8,11.3c-7.3-8.6-17.3-13.4-28.4-13.4c-18.1,0-34,15-34,32.1
		c0,2.1,0.2,4.1,0.6,6.1c-6.3-1.9-14.1-3.4-24.1-3.4c-29.2,0-50.9,19.1-58.8,27.1c-53.5,9-106.1,22.3-156.4,39.4
		C101.5,133,56,152.3,12,174.9l-6.5,3.3v7.3v32.7c0,8.9,2.8,15.1,5.5,19v21.9c-2.3,4.6-5.8,13.3-5.8,23.7c0,10,3.1,17.5,5.5,21.8v60
		c0,10,11.8,24.7,14.2,27.5c6.6,7.9,16.9,17.8,30.5,22.8c4.3,7.1,14,19.7,32.2,28.6l1.1,1.6c0.8,1.2,17.8,25.4,45.3,35.9l3,3
		c1,1,22.6,22.7,55.9,30c7.5,21.8,18.6,43.9,32.4,64.4c16.4,24.2,36.2,45.9,59,64.4c52.1,42.4,115.6,64.8,183.6,64.8
		c65.5,0,126.7-20.6,177.2-59.4c23.3-18,43.8-39.5,60.9-63.9c15.3-21.9,27.6-45.5,36.5-70.5c11.3-2.4,32.7-9.4,55.3-29.4l4.1-3.6
		c12.1-4.8,29.1-14.7,44.3-35.5l0.8-1c9.3-4.6,21.8-13.4,33.9-30.4c32.5-15.2,49.5-48.6,49.5-74.5V304
		C930.3,297.8,929.4,292.6,928.3,288.6z M918.3,339.7c0,22.4-15.4,52.4-45.4,64.9c-20.1,29.8-41.7,32.9-41.7,32.9l5.3,1
		c-23.9,32.6-52,34.9-52,34.9l5.3,2.3c-29.6,26.3-56.3,27.7-56.3,27.7C699,608.2,601.2,695.9,467.9,695.9
		c-142.8,0-238.1-101.7-265.8-192.1c-33.9-4.9-56.5-27.9-56.5-27.9l3.7-2.7c-30.6-5.7-50.7-34.7-50.7-34.7l5.1-1.2
		c-30.9-10-40.1-32.2-40.1-32.2c-24.1-6.2-40.9-35-40.9-40.3c0-5.4,0-63.5,0-63.5s-5.5-6.8-5.5-18.3s5.8-20.7,5.8-20.7v-29.4
		c0,0-5.5-4.1-5.5-14.6s0-32.7,0-32.7c81.4-41.7,177.3-77.4,292.1-96.3c0,0,21.8-26.3,52.8-26.3c28.9,0,34.7,13.4,50.5,13.4
		c9.7,0,22.8-2.9,22.8-18.1c0-11.5-7.8-18.9-15-18.9s-12.1,6.3-12.1,9.2c0,2.9,2.9,7.2,6.2,7.2c3.3,0,4.5-3.1,7.2-3.1
		c2.6,0,5.5,2.4,5.5,5.3s-3.7,8.4-13.4,8.4c-9.6,0-16.2-8.3-16.2-18.1s9.7-20.1,22-20.1c20.2,0,25.9,21.4,25.9,21.4l22-23l21.6,22.9
		c1.9-8.9,11.3-21.2,24.9-21.2c13.6,0,23,9.8,23,19.9c0,10.1-6.9,18.1-17,18.1c-10,0-12.9-6.7-12.9-8.8c0-2,1.2-5.1,4.9-5.1
		c3.7,0,4.1,3.1,8.4,3.1s5.7-4.1,5.7-7.2c0-3-3.1-8.8-11.5-8.8c-8.4,0-15.6,9.5-15.6,17.5s3.6,18.9,22,18.9
		c18.4,0,18.4-13.1,50.9-13.1s52.6,26.3,52.6,26.3c86.6,12.7,193.7,48.7,236.4,68.4c42.8,19.7,55.1,53,55.1,72.1
		c0,19.1,0,54.6,0,54.6h-2.9c0,0,4.9,6.5,4.9,19.8S918.3,339.7,918.3,339.7z M388.5,79.6c-27.3,1.8-59.8,6.4-59.8,6.4
		c10-7.7,21.4-12,34-12C370.8,74,379.5,75.8,388.5,79.6z M606.3,85.8c-18.3-4.1-59.4-6.2-59.4-6.2c8.2-4.1,16.6-6.1,24.9-6.1
		C583.9,73.5,595.8,77.7,606.3,85.8z M124,180.1c0,0-2.1-12.6,8.6-17.4s146.6-55.2,300.4-59.1c4,6.9,10.3,10.7,10.3,10.7v2.4
		C314,119.8,201,150.5,124,180.1z M90.9,337.6l-25.7-83.3h-0.1v96L49.8,358v-75.8c0,0-5.7,1.2-5.7-5.3c0-5.7,5.6-9.2,5.6-9.2v-53.3
		c0,0-5.4,0.5-5.4-4.4c0-2.8,0-8.7,0-8.7l22.6-10.6l26,83.9v-95.5l21.2-9.2c0,0,0,4.4,0,8.3c0,3.9-5.7,9.7-5.7,9.7V242
		c0,0,5.2-0.3,5.2,5c0,5.3-5.1,8.5-5.1,8.5s0,66.5,0,70.1c0,3.6-0.1,5.9-7.1,8.9C91.5,339.3,90.9,337.6,90.9,337.6z M311.4,158.7
		L307,201c0,0,4.4,0.4,4.4,6.1c0,5.6-6.5,7.9-6.5,7.9s-5.7,50.9-6.4,56.6c-0.6,5.7-2.3,6.1-14.4,8.2c-12.1,2.2-14.8,2.5-15.3-0.7
		c-0.5-3.2-14.6-82.7-14.6-82.7s-13.5,77.4-15.2,87c-1.6,8.6-3.8,7.2-15.8,10.4s-13.1,2.4-13.3,1.2s-7-56.6-7-56.6s-6.7,0.4-6.7-5.5
		c0-5,4.7-7.5,4.7-7.5s-3.3-29.3-4.2-36.6c-0.9-7.4-6.9-5.6-6.9-9.9s0-8.6,0-8.6l22-6.4l13.6,111.6c0,0,17.4-107.2,18.6-114.6
		c1.2-7.4,18.4-10.6,19.7-2.4c1.3,7.2,18.7,104.1,18.7,104.1l12.9-116.8L318,141c0,0,0,6.5,0,9S311.4,158.7,311.4,158.7z
		 M820.7,183.9c-77-29.6-190.4-63.1-328.5-67.2h0v-2.4c0,0,6.3-3.8,10.3-10.7c153.8,3.9,298.9,58.1,309.6,62.8
		C822.8,171.2,820.7,183.9,820.7,183.9z M126,249.2v-41.6c-3.7-0.8-5.3-2.8-5.3-2.8v-10.6c0,0,44.2-16.3,50.6-18.5
		c6.4-2.2,9.5-1.5,9.5,1.3s0,38.3,0,38.3c-12.1,4.9-17,4.8-17,0.9c0-3.9,0-22.2,0-22.2l-20.2,7.5v40.9l26.1-9.2v15.1l-26.1,9.9v45.1
		l20.2-7.3v-23.1c1.1-6.4,17.1-9.6,17.1-9.6s0,32.9,0,35.5c0,2.6,0.7,6.6-5,8.5c-5.7,1.9-49.8,17.6-49.8,17.6v-61.3
		c0,0-5.4,0.7-5.4-5.2C120.7,252.5,126,249.2,126,249.2z M401.2,266.1c18.7,0,35.1-10.1,35.1-27.4s0-37.4,0-37.4s6.8-0.7,6.8-7.2
		s-6.6-6.8-6.6-6.8s0-23.1,0-35.1s-10.8-22.1-28.8-22.1c-21.9,0-35.6,12.9-35.6,26.6s0,35.1,0,35.1s-6.2,1-6.2,7.2
		c-0.2,6.3,6,6.8,6,6.8s0,25.6,0,38.1C371.9,256.5,382.5,266.1,401.2,266.1z M390.2,158.7c0-7.1,4.7-13.3,14.9-13.3
		c4.8,0,13.1,2,13.1,11.2s0,75.2,0,81.3s-6.1,12.9-15.1,12.9s-12.9-6.5-12.9-11.7S390.2,165.8,390.2,158.7z M686.5,287.7l5.6-32.9
		c0,0,18.3,3.1,25.9,7.4l4.5,34.4l18.5,5.7L729.9,237c0,0,4.3-1.4,4.3-5.8c0-4.4-3.6-7-6.5-8.9c0,0-6.6-38.1-8.2-49.5
		c-1.6-11.4-8.6-11.9-15.2-13.7c-6.6-1.8-19-4.6-19-4.6s0,3.6,0,6.8s0.3,4.8,5.4,9.5l-7.6,40.5c0,0-7.3,0.1-7.3,5
		c-0.1,4.8,4.6,8.4,4.6,8.4l-11.8,58.7L686.5,287.7z M694.4,238.9l10.6-60.2l10.3,66.3C694.1,240.9,694.4,238.9,694.4,238.9z
		 M815.4,209.8v42.5c0,0,4.8,2.7,4.9,8.4c0,4.8-5,4.6-5,4.6s0,52,0,58s-17.1-2.5-17.4-3.7s-26.7-93.2-26.7-93.2v84.8l-15.9-4.7
		v-62.1c0,0-6-2.4-6-8.3c0-4.9,5.9-5.2,5.9-5.2v-42c0,0-5.8-2.4-5.8-9.3c0-5.8,0-8.5,0-8.5s5.1,2.2,11.7,4.3
		c6.6,2.2,11.9,2.8,13.4,8.6c1.5,5.8,25.2,92.2,25.2,92.2v-87.8l21.2,8.2c0,0,0,5.3,0,7.7C820.9,206.7,815.4,209.8,815.4,209.8z
		 M531.4,264.6V203c0,0-6-1.2-6-7.2s6.1-6.6,6.1-6.6v-42.1c0,0-6.1-3.9-6.1-8.5c0-3.9,0-7.3,0-7.3l30.4,2c0,0,0,2.8,0,7.1
		s-5.9,7.9-5.9,7.9v101.5c5.8,3.2,20.3,3,20.3,3s0-27,0-33.7c0-6.7,17.7-3.5,17.7-2.2s0,42.5,0,46.3s0.3,7.1-8.1,5.6
		C564.7,266.4,531.4,264.6,531.4,264.6z M639.6,180.6c0-6.2,0-20.3,0-20.3s-8.2-1.6-13.7-2.5c-5.3-1-7-0.2-7,2.1s0,38.4,0,38.4
		c25.6,3.3,26.9,5.5,26.9,5.5v14.9c-13.8-3.8-26.6-4.9-26.6-4.9v45.7l20.2,3.4c0,0,0-17.1,0-23.1c0-5.9,18-1.6,18-0.7
		c0,0.9,0,29.7,0,34.3c0,4.6-0.3,8.3-6.6,6.6c-6.3-1.7-49.7-8.4-49.7-8.4V210c0,0-6.1-1.6-6.1-7.7c0-5.4,6.2-6.1,6.2-6.1v-41.7
		c0,0-6.3-2.8-6.3-9.8c0-5.1,0-7,0-7s40.3,6.6,51.5,8.7c11.2,2.1,11.2,3.2,11.2,5.3c0,2.2,0,38.9,0,38.9
		C645,189.5,639.6,186.8,639.6,180.6z M452.7,145.6v41.7c0,0-5.8,1.8-5.8,6.9c0,6,5.8,7,5.8,7v61.9h18c0,0,0-57.3,0-58.7
		c0-1.4,0.6-2.8,9.1-2.8s15.8,1.9,15.8,9.9s0,35.4,0,42.3c0,6.9,3.2,9.5,11.3,9.4c8.2-0.1,13.6,0.7,13.6,0.7s0-5.3,0-9.1
		c0-3.8-6.4-6.6-6.4-6.6s0-22.2,0-35.3c0-13-10.1-19.2-10.1-19.2s10.1-7.1,10.1-16.1s0-5.9,0-22c0-16.1-14.5-25.8-26.9-25.8
		c-12.4,0-40.6,0-40.6,0s0,5,0,7C446.6,141.7,452.7,145.6,452.7,145.6z M470.7,148.9c0-2.5,1.2-3.9,3.1-3.9c1.9,0,12.3,0,12.3,0
		c5.5,0,9.5,6.2,9.5,9.8c0,3.6,0,13.7,0,20.7c0,6.9-4.5,11.5-9.4,11.5s-8.8,0-11.2,0c-2.4,0-4.2-0.9-4.3-2.9
		C470.7,182,470.7,151.4,470.7,148.9z M523.3,482.2c2.5-8.1,4.1-17.7,3.6-30.8c14.6,19.6,16.5,29.8,16.5,35.8c0,3.2-2.8,12.6-9.9,23
		C532.2,499.9,528.6,490.4,523.3,482.2z M514.8,471.5c-6.7-6.8-14.9-12.2-24-15.6c1.9-8.8,3.8-17.7,5.4-26.2
		C512,433.5,519,451.9,514.8,471.5z M457.6,364.7c-9.5-17.4-17.3-22.6-24.7-20.4c2.1,2.6,2,5,2.5,12s7.8,11.1,12.8,11.1
		c5.1,0,8.3,7.2,3.9,13.4c-6.8-8.9-13.9-14.1-20.9-13.3c0,0-3.9-7.5-3.9-19.4c0-23.7,12.5-34.5,12.5-34.5l1.5,2.3
		c7.6-3.5,14.6-9.6,26.2-9.6h0.3c11.6,0,18.6,6.1,26.2,9.6l1.6-2.3c0,0,12.5,10.9,12.5,34.5c0,11.9-3.9,19.4-3.9,19.4
		c-7-0.8-14.1,4.4-20.9,13.3c-4.4-6.2-1.1-13.4,3.9-13.4c5.1,0,12.3-4.1,12.8-11.1c0.6-7,0.4-9.4,2.5-12c-7.4-2.2-15.3,3-24.7,20.4
		c-2.4,4.2-5.7,4.8-7-2.3c-1.3-7.1-0.8-23.2-3.1-23.2s-1.8,16.1-3.1,23.2C463.3,369.5,459.9,368.9,457.6,364.7z M540.4,282.3
		c50.1,0,202.5,28.9,319,87c0,0-2.1,4.3-16.4,4.3c-9.4,0-13.8-3.3-34.9-11.6s-135.7-52.7-249.9-61.5c0,0,11.1,22.5,11.1,50.3
		c0,50.7-38.8,75-46,80.4l-4-4.1c25.3-23.1,35.5-45.3,35.5-69c0-30.8-19.4-58.9-24.3-65.2C525.7,286.7,526.5,282.3,540.4,282.3z
		 M439.7,429.6c1.6,8.5,3.5,17.5,5.4,26.3c-9.1,3.4-17.3,8.7-24,15.5C416.8,451.8,423.8,433.4,439.7,429.6z M525.4,551.7
		c4.2-7.4,7-15.7,8.1-24.5c3.4-3.8,6.8-8,10.3-12.5C540.6,527.7,535.9,540.2,525.4,551.7z M871.7,264.8c6.5,6.5,19.7,22.7,19.7,35.3
		c0,12.5,0,28.2-0.3,35c0,7-1.8,16-14.4,16c-17.4,0-47.6-17.5-47.6-43.2c0-8.2,0-14.2,0-14.2c8.6,2,17.7,8.5,17.7,12.1
		c0,3.6,0,5.4,0,10c0,4.5,3,10.6,11.3,15.6s15.3,1.5,15.3-2.7c0-4.1,0-27.3,0-35.5s-9.7-18.5-9.7-18.5c-9.8,0.2-13.3-5-12.1-13.7
		c-16-16.3-20.9-24.4-20.9-35.1s0-16.1,0-27.1s6-16.5,14.5-16.5c19.1,0,44.5,20.8,44.5,41.6c0,9.6,0,16.6,0,16.6
		c-13-4.3-18.3-12.6-18.3-18c0-5.4,0-10.2,0-10.2s-4.1-7.1-11.9-10.3c-7.8-3.1-11.5-0.4-11.5,4.4s0,20.8,0,26.7
		c0,5.9,12.7,19,12.7,19C869.1,252,872.7,258.2,871.7,264.8z M412.5,482.2c-5.3,8.2-8.8,17.7-10.1,27.9c-7.1-10.4-10-19.8-10-23
		c0-5.9,1.9-16.2,16.5-35.8C408.4,464.5,410,474,412.5,482.2z M415.8,427.1l-4,4.1c-7.3-5.4-46-29.8-46-80.4
		c0-27.8,11.1-50.3,11.1-50.3c-114.2,8.8-228.8,53.2-250,61.4c-21.1,8.3-25.5,11.6-34.9,11.6c-14.2,0-16.3-4.2-16.3-4.2
		c116.4-58,268.9-87,319-87c14,0,14.8,4.3,9.9,10.6c-4.9,6.3-24.3,34.4-24.3,65.2C380.3,381.8,390.5,404,415.8,427.1z M402.4,527.2
		c1.1,8.9,4,17.3,8.2,24.8c-10.7-11.6-15.4-24.1-18.7-37.3C395.4,519.2,398.9,523.4,402.4,527.2z M627.4,577.9
		c-8.5,9.5-17.4,6.1-17.4,6.1l2.8-6.4c10.4,1.1,15.4-8.6,13.1-11c-2.3-2.4-5.3,0.9-13.3,6.4s-15.8-4.6-11.6-11c1.7-3,3.6-6,9.2-9.6
		c5.6-3.6,11.3-0.9,11.3-0.9l-3.7,5.6c-4.8-1.6-14.4,6-11,10s10.6-8.5,18.4-8.4C634.8,559.5,635.9,568.4,627.4,577.9z M581.6,577.9
		l15.3,25l-5.9,3.9l-26.1-8.1l11,16.5l-5.9,4.4l-15.1-25.2l6.1-3.9l25.4,8.1l-10.7-16.3L581.6,577.9z M356.1,579.6l22.7,13.8
		l-2.8,4.5l-16.7-10l-3.1,5.1l15.9,9.5l-2.9,5l-15.9-9.7L350,603l17.4,10.7l-3,4.8l-23.6-14.3L356.1,579.6z M321.8,550.7l-19.7,20.2
		l5.5,5.3l7.6-8c0,0,3.9,4,10.2,9.9c6.3,5.9,19.6-5.5,11-14C327.8,555.6,321.8,550.7,321.8,550.7z M326.4,572
		c-2.6-2.4-7.9-7.6-7.9-7.6l4.9-5.2l7.8,7.2C334.8,569.9,329,574.4,326.4,572z M486.8,631.8h8.3c-2.6,8-7.7,11.7-17.8,11.8
		c-10.1,0-17.1-5.4-17.1-15c0-9.7,6.2-15.9,18-15.9c12.7,0,16.3,8.2,16.3,8.2l-7.8,2.4c0,0-2.2-5.1-8.9-5.1
		c-6.8,0-10.1,6.1-10.1,9.5s2.8,9.9,10.1,9.9C485,637.6,486.8,631.8,486.8,631.8z M395.1,624.5l15.3,5.5l-2.1,5.9l-22.7-8.7
		l9.9-26.6l7.6,2.7L395.1,624.5z M434.3,611.3l7.7,0.2l-4.6,29.2l-7.8-1L434.3,611.3z M519.3,607.3l-4.1,31.1l7.8-2.1l0.4-6.3
		l13.3-3.9l4.9,5.3l7-3.5l-21.5-23.3L519.3,607.3z M524.4,624.9l1.2-11.6l0.3,0l7.7,8.9L524.4,624.9z"/>
	<path class="st1" d="M621.8,463.4c4.5,2.2,8.3,4.1,11,5.6c-0.5,0.4-7.4,5.1-27.5,5.1c-18.3,0-40.3-10.1-67-30.2
		c0,0,8.6-4.7,16.1-11C577.9,443.3,605.1,455.4,621.8,463.4z M533.5,510.2c-1.3-10.2-4.8-19.7-10.1-28
		c-5.4,17.5-15.4,28.4-19.9,54.5C517.5,529.5,527.1,519.4,533.5,510.2z M551.2,465.5c3.4,10,5.9,23.3,5.9,23.3
		c2.7,0.3,5.2,0.5,7.6,0.6c0.2,0,0.4,0,0.6,0c12.7,0.5,18.7-1.5,18.7-1.5c-8.6-6.7-27.8-19.2-32-21.9
		C551.5,465.7,551.2,465.5,551.2,465.5z M491.7,541.4c1.2-23.2,12.2-39.8,20.7-62c1-2.6,1.8-5.3,2.4-7.9c-6.7-6.8-14.9-12.2-24-15.6
		c-5.8,27-11.9,52.7-11.9,62.5c0,12.8,3.5,25.1,3.5,25.1C490.6,542.2,491.7,541.4,491.7,541.4z M582.9,396.7
		c10.6,2.9,19.9,5.6,28.2,8.1c17,5,29.5,9,39.1,12.1c19.4,6.2,27.6,8.8,39.1,8.8c26.8,0,39-14.3,39-14.3
		c-29.1-11.8-88.9-29.7-137.9-39.1C587.2,385.3,582.9,396.7,582.9,396.7z M444.1,541.3c0,0,1.2,0.9,9.4,2.1c0,0,3.5-12.3,3.5-25.1
		c0-9.8-6.1-35.5-11.9-62.4c-9.1,3.4-17.3,8.7-24,15.5c0.6,2.6,1.4,5.3,2.4,7.9C431.9,501.5,442.9,518.2,444.1,541.3z M358.5,407.5
		c-39.1,12.9-88.1,29.6-106.9,36.7c0,0,8.3,11.1,29,11.1c14,0,30.7-5.8,91.1-30.7C371.7,424.6,362.5,415.5,358.5,407.5z
		 M592.2,357.5c104.6,22.9,112.5,32,136,32c28.8,0,35.3-16.2,35.6-17.3c-56-19.5-110-32.5-172.6-41.7
		C592.5,342.8,592.2,356.4,592.2,357.5z M324.2,404.7c8.2-2.4,17.6-5.1,28.2-8.1c0,0-4.3-11.4-7.5-24.4
		c-49,9.4-108.8,27.3-137.9,39.1c0,0,12.3,14.3,39,14.3c11.6,0,19.8-2.6,39.2-8.8C294.8,413.7,307.2,409.7,324.2,404.7z
		 M343.9,330.5c-62.5,9.2-116.5,22.2-172.4,41.7c0,0,4.1,12.3,23.3,16.2c3.5,0.7,7.5,1.1,12,1.1c23.5,0,31.4-9.1,136.1-32
		C342.9,357.5,342.5,343.4,343.9,330.5z M443.9,553.2c-1.3,4.3-1.7,8.1-10.1,16.1c0,0,11,6.6,28.1,7.5c0.7-11.7-0.6-12.7-5.2-21.3
		C456.7,555.5,450,554.5,443.9,553.2z M502.6,549.1c1.7,10,9.2,14.5,9.2,14.5c5.4-3.8,9.9-7.8,13.6-11.9c4.2-7.4,7-15.7,8.1-24.5
		C524.2,537.4,514.7,545,502.6,549.1z M563.7,424.6c55.6,23,74.1,29.7,87.6,30.6c1.1,0.1,2.3,0.1,3.4,0.1c20.7,0,29-11.1,29-11.1
		c-18.7-7.1-67.7-23.8-106.8-36.7C572.8,415.5,563.7,424.6,563.7,424.6z M918.3,304c0,13.3,0,35.7,0,35.7
		c0,22.4-15.4,52.4-45.4,64.9c-20.1,29.8-41.7,32.9-41.7,32.9l5.3,1c-23.9,32.6-52,34.9-52,34.9l5.3,2.3
		c-29.6,26.3-56.3,27.7-56.3,27.7C699,608.2,601.2,695.9,467.9,695.9c-142.8,0-238.1-101.7-265.8-192.1
		c-33.9-4.9-56.5-27.9-56.5-27.9l3.7-2.7c-30.6-5.7-50.7-34.7-50.7-34.7l5.1-1.2c-30.9-10-40.1-32.2-40.1-32.2
		c-24.1-6.2-40.9-35-40.9-40.3c0-5.4,0-63.5,0-63.5s-5.5-6.8-5.5-18.3s5.8-20.7,5.8-20.7v-29.4c0,0-5.5-4.1-5.5-14.6s0-32.7,0-32.7
		c81.4-41.7,177.3-77.4,292.1-96.3c0,0,21.8-26.3,52.8-26.3c28.9,0,34.7,13.4,50.5,13.4c9.7,0,22.8-2.9,22.8-18.1
		c0-11.5-7.8-18.9-15-18.9s-12.1,6.3-12.1,9.2s2.9,7.2,6.2,7.2s4.5-3.1,7.2-3.1c2.6,0,5.5,2.4,5.5,5.3c0,2.9-3.7,8.4-13.4,8.4
		c-9.6,0-16.2-8.3-16.2-18.1s9.7-20.1,22-20.1c20.2,0,25.9,21.4,25.9,21.4l22-23l21.6,22.9c1.9-8.9,11.3-21.2,24.9-21.2
		c13.6,0,23,9.8,23,19.9c0,10.1-6.9,18.1-17,18.1c-10,0-12.9-6.7-12.9-8.8c0-2,1.2-5.1,4.9-5.1s4.1,3.1,8.4,3.1s5.7-4.1,5.7-7.2
		c0-3-3.1-8.8-11.5-8.8c-8.4,0-15.6,9.5-15.6,17.5c0,8,3.6,18.9,22,18.9c18.4,0,18.4-13.1,50.9-13.1s52.6,26.3,52.6,26.3
		c86.6,12.7,193.7,48.7,236.4,68.4c42.8,19.7,55.1,53,55.1,72.1c0,19.1,0,54.6,0,54.6h-2.9C913.4,284.2,918.3,290.7,918.3,304z
		 M546.9,79.6c0,0,41.1,2.1,59.4,6.2C588.6,72.2,567,69.5,546.9,79.6z M328.7,86c0,0,32.5-4.6,59.8-6.4
		C365.5,70,345.1,73.3,328.7,86z M907,305.3c0-8.5-2.9-17.4-6.3-25c-4.6-10.3-10.1-18.3-10.9-19.4l15,6.6c0,0,0,0,0-0.1h0
		c0,0,0-17.1,0-38.8s-18.9-46.3-43.9-58S690.7,94,502.8,88.6c0,0-1.5-9-14.7-13.1C487,60.1,476.4,52,467.5,43
		c-13.3,12.4-19.5,21.9-19.9,32.6c0,0-12.2,2.1-14.7,13.3C310.6,92.5,189.6,121,77.5,169.7v0.1h0v6.5c0,0-7.9-3.2-12.1-1.4
		c-4.2,1.8-36.4,17.6-36.4,17.6s0,0,0,0.1l0,0c0,0,0,12,0,21.7c0,11.3,5.4,13.7,5.4,13.7v38.6c0,0-5.4,7.7-5.4,16.5c0,0,0,0,0,0
		c0,0,0,0,0,0.1c0,9.6,5.4,12.7,5.4,12.7v66.6c7.8,17.1,24.4,36.5,59.5,36c-0.9,0.6-6.7,4.7-16.3,8.7c0,0,0,0,0,0.1c0,0,0,0,0,0
		c0,0,14.4,24.7,55.1,23.9l-18.2,9.5c0,0,0,0,0.1,0.1l-0.1,0c0,0,19.1,26.2,60.9,25.6l-15,8.2c0,0,0,0,0.1,0.1l-0.1,0
		c0,0,22.4,20.3,51.7,19.8c12.1,54.2,87.4,189.8,256.5,189.8c119.7,0,220.7-77.5,255.3-188.9c0,0,31.1-2.4,51-20.7l-0.2-0.1
		c0,0,0.1-0.1,0.1-0.1l-15-7.8c3.5,0.2,38.6,1,60.6-26.1l-0.2-0.1c0,0,0.1-0.1,0.1-0.1l-18.8-9.3c3.8,0.3,38.1,1.9,55.9-23.6
		l-0.2-0.1c0,0,0.1-0.1,0.1-0.1l-15.7-8.3c44,0.5,65.4-36.8,65.4-59C907,317.8,907,324,907,305.3z M402.4,527.2
		c1.1,8.9,4,17.3,8.2,24.8c3.7,4,8.1,7.9,13.3,11.6c0,0,7.5-4.5,9.2-14.5C421.1,545,411.6,537.4,402.4,527.2z M432.4,536.6
		c-4.6-26-14.5-36.9-19.9-54.4c-5.3,8.2-8.8,17.7-10.1,27.9C408.7,519.3,418.4,529.4,432.4,536.6z M351.3,487.9c0,0,0,0,0.1,0
		c0.1,0,0.4,0.1,0.8,0.2c0.5,0.1,1.2,0.3,2.2,0.5c1.1,0.2,2.6,0.4,4.4,0.6c0.9,0.1,1.9,0.2,2.9,0.2c4.2,0.2,9.7,0.2,16.6-0.6
		c0,0,2.5-13.2,5.9-23.2c-1.7,1.1-22.1,14.2-31.8,21.6C351.9,487.4,351.6,487.6,351.3,487.9z M302.5,469c1,0.7,8.1,5,27.5,5
		c18.4,0,40.4-10.1,67-30.3c-1.1-0.6-9-5.1-16-10.9C351,446.2,315.1,462,302.5,469z M491.9,553.2c-6.1,1.3-12.8,2.3-12.8,2.3
		c-4.6,8.7-5.9,9.6-5.2,21.3c17.1-0.9,28.1-7.5,28.1-7.5C493.5,561.2,493.2,557.5,491.9,553.2z"/>
	<path class="st2" d="M390.2,239.1c0-5.2,0-73.3,0-80.4c0-7.1,4.7-13.3,14.9-13.3c4.8,0,13.1,2,13.1,11.2s0,75.2,0,81.3
		s-6.1,12.9-15.1,12.9S390.2,244.3,390.2,239.1z M906.9,305.1c0,18.8,0,12.6,0,34.7c0,22.2-21.5,59.7-65.7,59l16.1,8.5
		c-18.9,27.1-56.3,23.6-56.3,23.6l19.3,9.5c-23.2,28.7-60.9,26.1-60.9,26.1l15.4,8c-19.9,18.4-51,20.7-51,20.7
		c-34.5,111.4-135.4,189-255.2,189c-169.1,0-244.4-135.5-256.5-189.8c-29.2,0.6-51.7-19.8-51.7-19.8l15.2-8.3
		c-41.9,0.7-61.1-25.6-61.1-25.6l18.4-9.6c-40.9,1-55.3-23.9-55.3-23.9c10.4-4.4,16.4-8.8,16.4-8.8c-35.2,0.6-51.8-18.9-59.6-36
		v-66.6c0,0-5.4-3.1-5.4-12.7c0-8.8,5.4-16.5,5.4-16.5v-38.7c0,0-5.4-2.4-5.4-13.7c0-9.7,0-21.7,0-21.7s32.2-15.8,36.4-17.6
		s12.1,1.4,12.1,1.4v-6.6C189.6,121,310.6,92.5,432.9,88.9c2.5-11.2,14.7-13.3,14.7-13.3c0.4-10.7,6.6-20.2,19.9-32.6
		c8.9,9,19.5,17.1,20.6,32.5c13.2,4.1,14.7,13.1,14.7,13.1C690.7,94,836,158.9,861,170.6s43.9,36.3,43.9,58s0,38.8,0,38.8l-15.1-6.6
		C889.8,260.9,906.9,284.5,906.9,305.1z M815.4,252.3v-42.5c0,0,5.5-3.1,5.5-5.5c0-2.4,0-7.7,0-7.7l-21.2-8.2v87.8
		c0,0-23.7-86.4-25.2-92.2c-1.5-5.8-6.8-6.4-13.4-8.6c-6.6-2.1-11.7-4.3-11.7-4.3s0,2.7,0,8.5c0,6.9,5.8,9.3,5.8,9.3v42
		c0,0-5.9,0.3-5.9,5.2c0,5.9,6,8.3,6,8.3v62.1l15.9,4.7v-84.8c0,0,26.4,92,26.7,93.2s17.4,9.7,17.4,3.7s0-58,0-58s5,0.2,5-4.6
		C820.2,255,815.4,252.3,815.4,252.3z M492.2,116.7c138.1,4.1,251.5,37.6,328.5,67.2c0,0,2.1-12.7-8.6-17.5
		c-10.7-4.7-155.8-58.9-309.6-62.8c-4,6.9-10.3,10.7-10.3,10.7L492.2,116.7L492.2,116.7z M680.4,224.7l-11.8,58.7l17.9,4.3l5.6-32.9
		c0,0,18.3,3.1,25.9,7.4l4.5,34.4l18.5,5.7L729.9,237c0,0,4.3-1.4,4.3-5.8c0-4.4-3.6-7-6.5-8.9c0,0-6.6-38.1-8.2-49.5
		c-1.6-11.4-8.6-11.9-15.2-13.7c-6.6-1.8-19-4.6-19-4.6s0,3.6,0,6.8s0.3,4.8,5.4,9.5l-7.6,40.5c0,0-7.3,0.1-7.3,5
		C675.7,221.1,680.4,224.7,680.4,224.7z M639.6,160.3c0,0,0,14.1,0,20.3s5.4,8.9,18,10c0,0,0-36.7,0-38.9c0-2.1,0-3.2-11.2-5.3
		c-11.2-2.1-51.5-8.7-51.5-8.7s0,1.9,0,7c0,7,6.3,9.8,6.3,9.8v41.7c0,0-6.2,0.7-6.2,6.1c0,6.1,6.1,7.7,6.1,7.7v61.6
		c0,0,43.4,6.7,49.7,8.4c6.3,1.7,6.6-2,6.6-6.6c0-4.6,0-33.4,0-34.3c0-0.9-18-5.2-18,0.7c0,6,0,23.1,0,23.1l-20.2-3.4v-45.7
		c0,0,12.8,1.1,26.6,4.9v-14.9c0,0-1.3-2.2-26.9-5.5c0,0,0-36.1,0-38.4s1.7-3.1,7-2.1C631.4,158.7,639.6,160.3,639.6,160.3z
		 M531.4,203v61.6c0,0,33.3,1.8,48.4,4.2c8.4,1.5,8.1-1.8,8.1-5.6s0-45,0-46.3s-17.7-4.5-17.7,2.2c0,6.7,0,33.7,0,33.7
		s-14.5,0.2-20.3-3V148.3c0,0,5.9-3.6,5.9-7.9s0-7.1,0-7.1l-30.4-2c0,0,0,3.4,0,7.3c0,4.6,6.1,8.5,6.1,8.5v42.1c0,0-6.1,0.6-6.1,6.6
		S531.4,203,531.4,203z M503.4,536.7c29.9-15.3,40-43.5,40-49.5s-1.9-16.2-16.5-35.8C528.4,492.8,510,498.5,503.4,536.7z
		 M554.3,432.9c-7.5,6.3-16.1,11-16.1,11c26.7,20.1,48.7,30.2,67,30.2c21,0,27.6-5.1,27.6-5.1C620.2,462.1,584.3,446.2,554.3,432.9z
		 M654.7,455.3c20.7,0,29-11.1,29-11.1c-18.7-7.1-67.8-23.8-106.9-36.7c-4,8-13.2,17.1-13.2,17.1C624,449.5,640.7,455.3,654.7,455.3
		z M551.2,465.5c3.4,10,5.9,23.3,5.9,23.3c18.3,2,26.9-0.9,26.9-0.9C574.3,480.4,551.2,465.5,551.2,465.5z M502.6,549.1
		c1.7,10,9.2,14.5,9.2,14.5c20.6-14.6,27.6-31.2,32-48.9C530.9,531.3,519.2,543.5,502.6,549.1z M496.1,429.7
		c-6.6,34.7-17.3,75.7-17.3,88.7c0,12.8,3.5,25.1,3.5,25.1c8.3-1.3,9.4-2.1,9.4-2.1c1.2-23.2,12.2-39.8,20.7-62
		C520.8,457.2,514.1,434,496.1,429.7z M397.1,443.9c0,0-8.6-4.7-16.1-11c-30,13.3-65.9,29.2-78.5,36.2c0,0,6.6,5.1,27.6,5.1
		C348.4,474.1,370.4,464,397.1,443.9z M351.3,487.9c0,0,8.6,2.9,26.9,0.9c0,0,2.5-13.3,5.9-23.3C384.2,465.5,361,480.4,351.3,487.9z
		 M371.7,424.6c0,0-9.1-9.1-13.2-17.1c-39.1,12.9-88.1,29.6-106.9,36.7c0,0,8.2,11.1,29,11.1C294.6,455.3,311.3,449.5,371.7,424.6z
		 M408.9,451.3c-14.6,19.6-16.5,29.9-16.5,35.8c0,6,10.1,34.2,40,49.5C425.7,498.5,407.4,492.8,408.9,451.3z M391.9,514.7
		c4.4,17.7,11.4,34.3,32,48.9c0,0,7.5-4.5,9.2-14.5C416.6,543.5,404.9,531.3,391.9,514.7z M444.1,541.3c0,0,1.2,0.9,9.4,2.1
		c0,0,3.5-12.3,3.5-25.1c0-13-10.7-54-17.3-88.7c-18,4.3-24.7,27.5-16.2,49.7C431.9,501.5,442.9,518.2,444.1,541.3z M371.9,205.8
		c0,0,0,25.6,0,38.1c0,12.6,10.6,22.2,29.3,22.2c18.7,0,35.1-10.1,35.1-27.4s0-37.4,0-37.4s6.8-0.7,6.8-7.2s-6.6-6.8-6.6-6.8
		s0-23.1,0-35.1s-10.8-22.1-28.8-22.1c-21.9,0-35.6,12.9-35.6,26.6s0,35.1,0,35.1s-6.2,1-6.2,7.2
		C365.7,205.3,371.9,205.8,371.9,205.8z M504.2,367.5c0,0,3.9-7.5,3.9-19.4c0-23.6-12.5-34.5-12.5-34.5l-1.6,2.3
		c-7.6-3.5-14.6-9.6-26.2-9.6h-0.3c-11.6,0-18.6,6.1-26.2,9.6l-1.5-2.3c0,0-12.5,10.8-12.5,34.5c0,11.9,3.9,19.4,3.9,19.4
		c7-0.8,14.1,4.4,20.9,13.3c4.4-6.2,1.2-13.4-3.9-13.4c-5,0-12.3-4.1-12.8-11.1s-0.4-9.4-2.5-12c7.4-2.2,15.2,3,24.7,20.4
		c2.3,4.2,5.7,4.8,7-2.3c1.3-7.1,0.8-23.2,3.1-23.2s1.8,16.1,3.1,23.2c1.3,7.1,4.6,6.5,7,2.3c9.4-17.4,17.3-22.6,24.7-20.4
		c-2.1,2.6-1.9,5-2.5,12c-0.5,7-7.7,11.1-12.8,11.1c-5,0-8.3,7.2-3.9,13.4C490.1,371.9,497.2,366.7,504.2,367.5z M494.6,389.2
		c-5.1,0.1-9.3,5.6-9.9,13c-0.5,7.4-4.9,70.9-4.9,70.9s9.7-49.7,13.2-64.1C496.5,394.7,496.7,390.5,494.6,389.2z M486.7,360.6v1.8
		c0,0,1.3,0.5,4.7-0.3c3.4-0.8,3.5-7,3.5-7l-2.8-1C492.9,361.8,486.7,360.6,486.7,360.6z M443.2,354.1l-2.7,1c0,0,0.1,6.2,3.5,7
		s4.7,0.3,4.7,0.3v-1.8C448.7,360.6,442.5,361.9,443.2,354.1z M450.6,402.2c-0.5-7.4-4.8-12.9-9.9-13c-2.1,1.3-1.9,5.5,1.6,19.8
		c3.5,14.4,13.2,64.1,13.2,64.1S451.1,409.6,450.6,402.2z M433.8,569.3c0,0,11,6.6,28.1,7.5c0.7-11.7-0.6-12.7-5.2-21.3
		c0,0-6.7-1-12.8-2.3C442.6,557.5,442.2,561.3,433.8,569.3z M468,561.6l0.2-0.1c4.9-10.6,7.9-14.5,7.9-14.5s-4.3-7.7-4.3-39.1
		c0-31.4,3.5-66.1,5.8-93c2.3-26.9,1.3-28,1.3-28h-0.8c-0.5,3-3.4,9.2-3.4,9.2s0-9.6,0-13.9c0-4.4-4-7.7-6.2-7.7h-1.2
		c-2.2,0-6.2,3.4-6.2,7.7c0,4.4,0,13.9,0,13.9s-2.8-6.2-3.4-9.2h-0.8c0,0-1,1.2,1.3,28c2.3,26.9,5.8,61.6,5.8,93
		c0,31.4-4.3,39.1-4.3,39.1S463.1,551,468,561.6z M473.9,576.8c17.1-0.9,28.1-7.5,28.1-7.5c-8.5-8.1-8.8-11.8-10.1-16.1
		c-6.1,1.3-12.8,2.3-12.8,2.3C474.5,564.2,473.2,565.1,473.9,576.8z M520.5,263.9c0,0,0-5.3,0-9.1c0-3.8-6.4-6.6-6.4-6.6
		s0-22.2,0-35.3c0-13-10.1-19.2-10.1-19.2s10.1-7.1,10.1-16.1s0-5.9,0-22c0-16.1-14.5-25.8-26.9-25.8c-12.4,0-40.6,0-40.6,0s0,5,0,7
		c0,4.9,6.1,8.8,6.1,8.8v41.7c0,0-5.8,1.8-5.8,6.9c0,6,5.8,7,5.8,7v61.9h18c0,0,0-57.3,0-58.7c0-1.4,0.6-2.8,9.1-2.8
		s15.8,1.9,15.8,9.9s0,35.4,0,42.3c0,6.9,3.2,9.5,11.3,9.4C515.1,263.1,520.5,263.9,520.5,263.9z M443.1,95.7c0,3.5,1.2,7.5,7.6,8.3
		c-1.8-3.7,0-6.2,3.7-6.2s5,3.8,4.4,6.8h-4.1v5.1h10.2c-1.1,4.1-4.9,3.4-4.9,6.9c0,1.9,4.7,2.3,4.7,2.3s-0.8,4.6,2.9,5.8
		c3.7-1.2,2.9-5.8,2.9-5.8s4.7-0.5,4.7-2.3c0-3.5-3.8-2.8-4.9-6.9h10.2v-5.1h-4.1c-0.5-3,0.7-6.8,4.4-6.8s5.5,2.5,3.7,6.2
		c6.3-0.8,7.6-4.8,7.6-8.3s-2.1-8.9-9.2-8.9c-6.8,0-10.7,7.7-11,18.1h-1.8c-0.9-15.7,6.2-18.8,6.2-27s-8.8-17.5-8.8-17.5h-0.1
		c0,0-8.8,9.3-8.8,17.5s7,11.3,6.2,27H463c-0.3-10.5-4.2-18.1-11-18.1S443.1,92.2,443.1,95.7z M124,180.1
		c77-29.6,190-60.3,319.3-63.4v-2.4c0,0-6.3-3.8-10.3-10.7c-153.8,3.9-289.7,54.3-300.4,59.1S124,180.1,124,180.1z M307,201
		l4.4-42.3c0,0,6.6-6.2,6.6-8.7s0-9,0-9l-22.7,4.8l-12.9,116.8c0,0-17.4-96.9-18.7-104.1c-1.3-8.2-18.5-5-19.7,2.4
		c-1.2,7.4-18.6,114.6-18.6,114.6l-13.6-111.6l-22,6.4c0,0,0,4.3,0,8.6s6,2.5,6.9,9.9c0.9,7.3,4.2,36.6,4.2,36.6s-4.7,2.5-4.7,7.5
		c0,5.9,6.7,5.5,6.7,5.5s6.8,55.4,7,56.6s1.3,2,13.3-1.2s14.2-1.8,15.8-10.4c1.7-9.6,15.2-87,15.2-87s14.1,79.5,14.6,82.7
		c0.5,3.2,3.2,2.9,15.3,0.7c12.1-2.1,13.8-2.5,14.4-8.2c0.7-5.7,6.4-56.6,6.4-56.6s6.5-2.3,6.5-7.9C311.4,201.4,307,201,307,201z
		 M126,207.6v41.6c0,0-5.3,3.3-5.3,9.2c0,5.9,5.4,5.2,5.4,5.2v61.3c0,0,44.1-15.7,49.8-17.6c5.7-1.9,5-5.9,5-8.5
		c0-2.6,0-35.5,0-35.5s-16,3.2-17.1,9.6V296l-20.2,7.3v-45.1l26.1-9.9v-15.1l-26.1,9.2v-40.9l20.2-7.5c0,0,0,18.3,0,22.2
		c0,3.9,4.9,4,17-0.9c0,0,0-35.5,0-38.3s-3.1-3.5-9.5-1.3c-6.4,2.2-50.6,18.5-50.6,18.5v10.6C120.7,204.8,122.3,206.8,126,207.6z
		 M65.2,254.3l25.7,83.3c0,0,0.6,1.7,10.5-3.1c7-3,7.1-5.3,7.1-8.9c0-3.6,0-70.1,0-70.1s5.1-3.2,5.1-8.5c0-5.3-5.2-5-5.2-5v-54.1
		c0,0,5.7-5.8,5.7-9.7c0-3.9,0-8.3,0-8.3l-21.2,9.2v95.5l-26-83.9l-22.6,10.6c0,0,0,5.9,0,8.7c0,4.9,5.4,4.4,5.4,4.4v53.3
		c0,0-5.6,3.5-5.6,9.2c0,6.5,5.7,5.3,5.7,5.3V358l15.3-7.7L65.2,254.3L65.2,254.3z M376.9,300.5c0,0-11.1,22.5-11.1,50.3
		c0,50.6,38.7,75,46,80.4l4-4.1c-25.3-23.1-35.5-45.3-35.5-69c0-30.8,19.4-58.9,24.3-65.2c4.9-6.3,4.1-10.6-9.9-10.6
		c-50.1,0-202.6,29-319,87c0,0,2.1,4.2,16.3,4.2c9.4,0,13.8-3.3,34.9-11.6C148.1,353.7,262.7,309.3,376.9,300.5z M206.8,389.5
		c23.5,0,31.4-9.1,136.1-32c0,0-0.4-14.2,1-27.1c-62.6,9.2-116.7,22.3-172.7,41.7C171.1,372.2,176.9,389.5,206.8,389.5z
		 M245.9,425.7c20.2,0,30-7.8,106.5-29c0,0-4.3-11.4-7.5-24.4c-48.9,9.4-108.9,27.3-138,39.1C207,411.4,219.3,425.7,245.9,425.7z
		 M698.6,512.6c0,0-11.3,7.7-52.9,5.2l0.3,0.2c-0.1,0-0.3,0-0.4,0l15.3,11.9c-2.2,0.6-19.3,4.8-52.6,4.8c-35.9,0-42-5.9-53.2-10.1
		c0,0.1,0,0.1-0.1,0.2c0,0,0,0,0,0c-0.9,2.8-1.8,5.6-2.9,8.2c-16.1,39.8-53.7,57.5-84.9,57.5c-41.1,0-78.6-30.5-85.3-65.9
		c0,0-24.4,11-54.2,11c-28.6,0-50.9-6.1-52.7-6.6l15.4-11c0,0-0.1,0-0.2,0l0.3-0.2c0,0-32,2.6-53.9-5.2c0,0.1,0.1,0.2,0.1,0.3
		c-0.1,0-0.1,0-0.2-0.1c22,57.1,96.8,154.2,229.7,154.2c65.7,0,155.6-25.5,212.4-116.3c1.4-2.3,2.9-4.6,4.3-7
		c1.5-2.5,2.9-5.1,4.3-7.7c0.7-1.3,1.4-2.7,2.1-4c1.4-2.7,2.8-5.4,4.1-8.2C695.2,520.1,696.9,516.4,698.6,512.6z M728.3,411.4
		c-29.1-11.8-89-29.7-138-39.1c-3.2,13-7.5,24.4-7.5,24.4c76.5,21.1,86.2,29,106.5,29C716.1,425.7,728.3,411.4,728.3,411.4z
		 M763.9,372.2c-56-19.5-110.1-32.5-172.7-41.7c1.4,12.9,1,27.1,1,27.1c104.7,22.9,112.6,32,136.1,32
		C758,389.5,763.9,372.2,763.9,372.2z M859.4,369.3c-116.5-58.1-268.9-87-319-87c-13.9,0-14.7,4.4-9.9,10.6
		c4.9,6.3,24.3,34.4,24.3,65.2c0,23.7-10.2,45.9-35.5,69l4,4.1c7.2-5.4,46-29.7,46-80.4c0-27.8-11.1-50.3-11.1-50.3
		c114.2,8.8,228.8,53.2,249.9,61.5s25.5,11.6,34.9,11.6C857.3,373.6,859.4,369.3,859.4,369.3z M891.4,300.1
		c0-12.6-13.2-28.8-19.7-35.3c1-6.6-2.6-12.8-11-12.7c0,0-12.7-13.1-12.7-19c0-5.9,0-21.9,0-26.7s3.7-7.5,11.5-4.4
		c7.8,3.2,11.9,10.3,11.9,10.3s0,4.8,0,10.2c0,5.4,5.3,13.7,18.3,18c0,0,0-7,0-16.6c0-20.8-25.4-41.6-44.5-41.6
		c-8.5,0-14.5,5.5-14.5,16.5s0,16.4,0,27.1s4.9,18.8,20.9,35.1c-1.2,8.7,2.3,13.9,12.1,13.7c0,0,9.7,10.3,9.7,18.5s0,31.4,0,35.5
		c0,4.2-7,7.7-15.3,2.7s-11.3-11.1-11.3-15.6c0-4.6,0-6.4,0-10c0-3.6-9.1-10.1-17.7-12.1c0,0,0,6,0,14.2c0,25.7,30.2,43.2,47.6,43.2
		c12.6,0,14.4-9,14.4-16C891.4,328.3,891.4,312.6,891.4,300.1z M486.1,145c0,0-10.4,0-12.3,0c-1.9,0-3.1,1.4-3.1,3.9s0,33.1,0,35.2
		c0.1,2,1.9,2.9,4.3,2.9c2.4,0,6.3,0,11.2,0s9.4-4.6,9.4-11.5c0-7,0-17.1,0-20.7C495.6,151.2,491.6,145,486.1,145z M715.3,245
		L705,178.7l-10.6,60.2C694.4,238.9,694.1,240.9,715.3,245z"/>
	<path class="st3" d="M443.1,95.7c0-3.5,2.1-8.9,8.9-8.9s10.7,7.6,11,18.1h1.8c0.8-15.7-6.2-18.8-6.2-27s8.8-17.5,8.8-17.5h0.1
		c0,0,8.8,9.3,8.8,17.5s-7.1,11.3-6.2,27h1.8c0.3-10.4,4.2-18.1,11-18.1c7.1,0,9.2,5.4,9.2,8.9s-1.3,7.5-7.6,8.3
		c1.8-3.7,0-6.2-3.7-6.2s-4.9,3.8-4.4,6.8h4.1v5.1h-10.2c1.1,4.1,4.9,3.4,4.9,6.9c0,1.8-4.7,2.3-4.7,2.3s0.8,4.6-2.9,5.8
		c-3.7-1.2-2.9-5.8-2.9-5.8s-4.7-0.4-4.7-2.3c0-3.5,3.8-2.8,4.9-6.9h-10.2v-5.1h4.1c0.6-3-0.7-6.8-4.4-6.8s-5.5,2.5-3.7,6.2
		C444.3,103.2,443.1,99.2,443.1,95.7z M323.4,559.2l-4.9,5.2c0,0,5.3,5.2,7.9,7.6c2.6,2.4,8.4-2.1,4.8-5.6L323.4,559.2z
		 M484.7,402.2c-0.5,7.4-4.9,70.9-4.9,70.9s9.7-49.7,13.2-64.1c3.5-14.3,3.7-18.5,1.6-19.8C489.5,389.3,485.3,394.8,484.7,402.2z
		 M455.5,473.1c0,0-4.4-63.5-4.9-70.9c-0.5-7.4-4.8-12.9-9.9-13c-2.1,1.3-1.9,5.5,1.6,19.8C445.8,423.4,455.5,473.1,455.5,473.1z
		 M698.6,512.6C645.1,634.6,540.3,667,466.2,667c-132.9,0-207.7-97.1-229.7-154.2c21.8,7.7,53.9,5.2,53.9,5.2l-15.6,11.2
		c0,0,23,6.6,52.8,6.6s54.2-11,54.2-11c6.7,35.3,44.3,65.9,85.3,65.9c33.3,0,74.1-20.2,87.9-65.9c11.2,4.2,17.3,10.1,53.2,10.1
		s52.9-4.9,52.9-4.9l-15.5-12C687.4,520.4,698.6,512.6,698.6,512.6z M336.4,564.1c-8.6-8.5-14.6-13.4-14.6-13.4l-19.7,20.2l5.5,5.3
		l7.6-8c0,0,3.9,4,10.2,9.9C331.7,584,345,572.6,336.4,564.1z M378.8,593.4l-22.7-13.8l-15.3,24.6l23.6,14.3l3-4.8L350,603l3.3-5.2
		l15.9,9.7l2.9-5l-15.9-9.5l3.1-5.1l16.7,10L378.8,593.4z M410.4,630l-15.3-5.5l8-21.2l-7.6-2.7l-9.9,26.6l22.7,8.7L410.4,630z
		 M442,611.5l-7.7-0.2l-4.7,28.4l7.8,1L442,611.5z M495.1,631.8h-8.3c0,0-1.8,5.8-9,5.8c-7.3,0-10.1-6.5-10.1-9.9s3.3-9.5,10.1-9.5
		c6.7,0,8.9,5.1,8.9,5.1l7.8-2.4c0,0-3.6-8.2-16.3-8.2c-11.8,0-18,6.2-18,15.9c0,9.6,7,15,17.1,15
		C487.4,643.5,492.5,639.8,495.1,631.8z M548.6,627.9l-21.5-23.3l-7.8,2.7l-4.1,31.1l7.8-2.1l0.4-6.3l13.3-3.9l4.9,5.3L548.6,627.9z
		 M596.9,602.9l-15.3-25l-5.9,4.4l10.7,16.3l-25.4-8.1l-6.1,3.9l15.1,25.2l5.9-4.4l-11-16.5l26.1,8.1L596.9,602.9z M625.2,558.7
		c-7.8-0.1-15,12.4-18.4,8.4s6.2-11.6,11-10l3.7-5.6c0,0-5.7-2.7-11.3,0.9c-5.6,3.6-7.5,6.6-9.2,9.6c-4.2,6.4,3.6,16.5,11.6,11
		s11-8.8,13.3-6.4c2.3,2.4-2.7,12.1-13.1,11L610,584c0,0,8.9,3.4,17.4-6.1C635.9,568.4,634.8,559.5,625.2,558.7z M525.6,613.3
		l-1.2,11.6l9.2-2.7l-7.7-8.9L525.6,613.3z M486.7,360.6v1.8c0,0,1.3,0.5,4.7-0.3c3.4-0.8,3.5-7,3.5-7l-2.8-1
		C492.9,361.8,486.7,360.6,486.7,360.6z M444,362.1c3.4,0.8,4.7,0.3,4.7,0.3v-1.8c0,0-6.2,1.3-5.5-6.5l-2.7,1
		C440.5,355.1,440.6,361.3,444,362.1z M478.9,386.9h-0.8c-0.5,3-3.4,9.2-3.4,9.2s0-9.6,0-13.9c0-4.4-4-7.7-6.2-7.7h-1.2
		c-2.2,0-6.2,3.4-6.2,7.7c0,4.4,0,13.9,0,13.9s-2.8-6.2-3.4-9.2h-0.8c0,0-1,1.2,1.3,28c2.3,26.9,5.8,61.6,5.8,93
		c0,31.4-4.3,39.1-4.3,39.1s3.4,4,8.3,14.6l0.2-0.1c4.9-10.6,7.9-14.5,7.9-14.5s-4.3-7.7-4.3-39.1c0-31.4,3.5-66.1,5.8-93
		C479.9,388,478.9,386.9,478.9,386.9z"/>
</g>
</svg>
