<?xml version="1.0" encoding="utf-8"?>
<!-- Generator: Adobe Illustrator 25.0.1, SVG Export Plug-In . SVG Version: 6.00 Build 0)  -->
<svg version="1.1" id="Layer_1" xmlns:svg="http://www.w3.org/2000/svg"
	 xmlns="http://www.w3.org/2000/svg" xmlns:xlink="http://www.w3.org/1999/xlink" x="0px" y="0px" viewBox="0 0 783 783"
	 style="enable-background:new 0 0 783 783;" xml:space="preserve">
<style type="text/css">
	.st0{fill:#FFFFFF;}
	.st1{fill:#FBBF15;}
	.st2{fill:#BFBEBF;}
	.st3{fill:#0E2B58;}
</style>
<g id="Group" transform="translate(-342.13625,-499.49781)">
	<path class="st0" d="M733.6,507c-212.1,0-384,171.9-384,384s171.9,384,384,384s384-171.9,384-384S945.7,507,733.6,507z
		 M733.6,1260.3c-204,0-369.3-165.4-369.3-369.4c0-203.9,165.3-369.3,369.3-369.3S1103,687,1103,890.9
		C1103,1094.9,937.6,1260.3,733.6,1260.3z M733.6,673c-117.4,0-212.5,97.1-212.5,217s95.2,217,212.5,217
		c117.4,0,212.6-97.1,212.6-217C946.2,770.1,851,673,733.6,673z M872.8,927.5c-20.4,24-50.7,36.6-87.6,36.3c0,0-44.5,0-49.4,0
		c-1.2,4.8-13.8,56.6-13.8,56.6l-114-0.1l57.5-261l0.6-2.7l128,0.1c32.3,0.1,61.3,13.4,81.3,37.6C903.4,828,910,887.1,872.8,927.5z"
		/>
	<path class="st1" d="M984.6,810.5l-3.3-9.9l27-3.7l0.4,0.7L984.6,810.5z M836.4,615.1l-0.4-0.4l-14.2,23.4l9.5,3.7L836.4,615.1z
		 M485.8,1020.7l5.1,9.5l24.8-12.8l-5.1-9.5L485.8,1020.7z M1065.3,891.1c0,183.3-148.3,331.5-331.5,331.5s-331.9-148.2-331.9-331.5
		s148.7-331.9,331.9-331.9C917.1,559.2,1065.3,707.9,1065.3,891.1z M1027.7,786.3l-70.5,9.5l2.9,8.4l13.5-2.2l4,12l-12.4,6.2
		l2.9,8.8l62.4-34L1027.7,786.3z M897.7,709.3l5.8,6.2l27-25.6l-16.1,37.2l3.3,3.3l50.8-47.8l-5.5-6.2l-28,26.3l16.8-38l-2.9-3.3
		L897.7,709.3z M802.4,653.8l8.4,3.3l6.9-12l11.7,4.7l-2.9,13.1l8.8,3.3l13.1-69.7l-8.8-3.3L802.4,653.8z M712.2,574.9l3.7,70.1
		l9.1-0.7l-3.7-69.7L712.2,574.9z M581.1,614.3l32.1,62.1l13.9-6.9c5.7-2.9,9.7-9.2,6.2-16.1c-8.7-17.1-12.4-24.5-21.2-41.6
		c-2.8-5.4-7.7-7-12.4-6.2c-1.6,0.3-3.3,1.1-4.7,1.8L581.1,614.3z M478.5,708.2l55.5,42.7l5.1-6.6l-29.2-22.6l39.1,9.9l2.9-4
		l-55.5-42.4l-5.1,6.6l30.3,23.4l-40.2-10.6L478.5,708.2z M430.3,817.7l67.9,16.8l2.2-8.4L432.5,809L430.3,817.7z M523.5,1016
		l-10.2-19.7l-62.1,32.5l4.4,8l23.7-12.4l6.2,12c1.8,3.4,4.8,4.3,8,2.6c11-5.8,16.7-8.5,27.8-14.2
		C524.3,1023.1,525.5,1019.9,523.5,1016z M588.8,1090.9l-7.3-5.5l-53.7,46.4l6.9,5.5l10.2-9.1l9.9,8l-6.9,11.7l7.3,5.8L588.8,1090.9
		z M686.3,1135.8c-6.3-1.5-10.8-2.8-17.2-4.4c-0.7-0.2-1.5-0.1-2.2,0c-2.1,0.4-3.8,2-4.4,4.4c-5.5,22.3-8.7,34.3-14.2,56.6
		c-0.8,3.3,1.2,6.2,4.4,6.9c6.3,1.6,10.5,2.8,16.8,4.4c3,0.7,5.8-1.1,6.6-4.4l4.7-17.9l-8.8-2.2l-4,16.1l-10.6-2.6l13.1-52.9
		l10.6,2.6l-3.3,12.4l8.8,2.2l3.7-14.2C691.1,1139.6,689.3,1136.5,686.3,1135.8z M960.8,891c0-128.1-101.7-231.9-227.2-231.9
		c-125.4,0-227.1,103.8-227.1,231.9s101.7,231.9,227.1,231.9C859.1,1122.9,960.8,1019.1,960.8,891z M800.2,1203.3l-1.1-7.7
		l-13.5,2.6l-4.4-24.1l12.4-2.2l-1.5-7.7l-12.4,2.2l-4-22.3l13.5-2.2l-1.5-7.7l-22.3,4l12.4,69L800.2,1203.3z M921.5,1146.7
		l-25.6-21.9l1.1-0.4c2.7-1.9,3.8-5.1,1.5-8.4c-5.4-8-8.8-13.2-14.2-21.2c-0.9-1.3-2.2-2.6-3.7-2.9s-3,0.3-4.7,1.5l-19.4,12.8
		l39.4,58.1l7.7-5.1l-35.4-51.5l9.5-6.6l12.8,18.6l-6.2,4l0.4,3.3l28.5,25.6L921.5,1146.7z M998.9,1049.2c-6.6-4.1-9.2-5.3-15.7-9.5
		c-1.7-1.1-3.8-1.1-6.2-1.1l-24.5,1.1l-10.6-6.6l4.4-6.2l10.6,6.6l4.7-7.7l-12-7.7c-1.4-0.9-3-1.3-4.4-1.1s-2.7,1.1-3.7,2.6
		c-2.9,4.6-4.8,8.2-7.7,12.8c-1.7,2.7-0.6,6.1,1.8,7.7c5.3,3.3,7.4,4.9,12.4,8c1.4,0.9,2.9,0.7,4.7,0.7l26.3-1.1l13.1,8.4l-4,6.6
		l-13.9-8.8l-4.7,7.7l15.3,9.5c3.1,1.9,6.5,0.9,8-1.5c2.8-4.6,4.8-8.2,7.7-12.8C1002.5,1054,1001.6,1050.9,998.9,1049.2z
		 M621.7,663.6c3.7-1.9,4-5.2,2.6-8c-7.2-14.2-12.1-24.1-19.4-38.3c-1.2-2.3-3.6-3.5-5.8-3.3c-0.8,0.1-1.4,0.3-2.2,0.7l-4,2.2
		l24.8,48.9L621.7,663.6z M550.9,1123l7.7,6.2l13.1-24.1l-0.4-0.4L550.9,1123z M794.2,767.2L674.6,767l-28.1,128.6l-25.1,114.2h92.8
		l13.8-56.6h57.6c31.6,0.2,60.2-9.8,79.6-32.6c31.5-34.4,28.9-87.6,2.4-119.6C849.5,779.3,824,767.2,794.2,767.2z"/>
	<path class="st2" d="M733.6,521.6c-204,0-369.3,165.4-369.3,369.3c0,204,165.3,369.4,369.3,369.4S1103,1094.9,1103,890.9
		C1103,687,937.6,521.6,733.6,521.6z M733.6,1238.3c-192.3,0-348.2-156-348.2-348.3s155.9-348.2,348.2-348.2
		c192.4,0,348.2,155.9,348.2,348.2C1081.8,1082.4,925.9,1238.3,733.6,1238.3z M794.2,756.7l-128-0.1l-0.6,2.7l-57.5,261l114,0.1
		c0,0,12.6-51.8,13.8-56.6c4.9,0,49.4,0,49.4,0c36.9,0.3,67.1-12.3,87.6-36.3c37.1-40.4,30.5-99.5,2.6-133.2
		C855.5,770.1,826.6,756.7,794.2,756.7z M865.2,920.6c-19.4,22.8-48,32.8-79.6,32.6H728l-13.8,56.6h-92.8l25.1-114.2L674.6,767
		l119.6,0.2c29.8,0,55.3,12.1,73.4,33.8C894.1,833,896.7,886.2,865.2,920.6z"/>
	<path class="st3" d="M534,751l-55.5-42.7l2.9-3.7l40.2,10.6l-30.3-23.4l5.1-6.6l55.5,42.5l-2.9,4l-39.1-9.9l29.2,22.6L534,751z
		 M810.9,657.1l-8.4-3.3l37.2-60.6l8.8,3.3l-13.1,69.7l-8.8-3.3l2.9-13.1l-11.7-4.7L810.9,657.1z M821.8,638.1l9.5,3.7l5.1-26.7
		l-0.4-0.4L821.8,638.1z M613.3,676.4l-32.1-62.1l13.9-6.9c1.4-0.7,3.1-1.5,4.7-1.8c4.7-0.8,9.6,0.8,12.4,6.2
		c8.8,17.1,12.5,24.5,21.2,41.6c3.5,6.9-0.5,13.2-6.2,16.1L613.3,676.4z M592.8,616.9l24.8,48.9l4-2.2c3.7-1.8,4.1-5.1,2.6-8
		c-7.3-14.1-12.2-24.1-19.4-38.3c-1.1-2.3-3.5-3.6-5.8-3.3c-0.7,0.1-1.4,0.3-2.2,0.7L592.8,616.9z M930.5,689.9l-16.1,37.2l3.3,3.3
		l50.8-47.8l-5.5-6.2l-28,26.3l16.8-38l-3-3.2l-51.1,47.8l5.8,6.2L930.5,689.9z M725.1,644.3l-3.7-69.8l-9.1,0.4L716,645
		L725.1,644.3z M957.2,795.8l70.5-9.5l2.8,8.7l-62.4,34l-2.9-8.8l12.4-6.2l-4-12l-13.5,2.2L957.2,795.8z M981.4,800.5l3.3,9.9
		l24.1-12.8l-0.4-0.7L981.4,800.5z M897.1,1124.5c2.7-1.9,3.8-5.1,1.5-8.4c-5.4-8-8.8-13.2-14.2-21.2c-1.1-1.4-2.4-2.6-3.8-3
		c-1.4-0.3-3,0.3-4.7,1.5l-19.4,12.8l39.4,58.1l7.7-5.1l-35.4-51.5l9.5-6.6l12.8,18.6l-6.2,4l0.4,3.3l28.5,25.6l8.4-5.8l-25.6-21.9
		L897.1,1124.5z M998.7,1049.2c-6.6-4.1-9.2-5.3-15.7-9.5c-1.7-1.1-3.8-1.1-6.2-1.1l-24.5,1.1l-10.6-6.6l4.4-6.2l10.6,6.6l4.7-7.7
		l-12-7.7c-1.3-0.8-2.8-1.2-4.2-1s-2.7,1.1-3.7,2.6c-2.9,4.6-4.8,8.2-7.7,12.8c-1.7,2.7-0.6,6.1,1.8,7.7c5.3,3.3,7.4,4.9,12.4,8
		c1.4,0.9,2.9,0.7,4.7,0.7l26.3-1.1l13.1,8.4l-4,6.6l-13.9-8.8l-4.7,7.7l15.3,9.5c3.1,1.9,6.5,0.9,8-1.5c2.8-4.6,4.8-8.2,7.7-12.8
		C1002.3,1054,1001.4,1050.9,998.7,1049.2z M733.6,1121.9c-125.4,0-227.1-103.8-227.1-231.9s101.7-231.9,227.1-231.9
		c125.5,0,227.2,103.8,227.2,231.9S859.1,1121.9,733.6,1121.9z M946.2,890c0-119.9-95.2-217-212.6-217s-212.5,97.1-212.5,217
		s95.2,217,212.5,217C851,1107,946.2,1009.9,946.2,890z M500.4,826.2L432.5,809l-2.2,8.8l67.9,16.8L500.4,826.2z M1081.8,890
		c0,192.4-155.9,348.3-348.2,348.3s-348.2-156-348.2-348.3s155.9-348.2,348.2-348.2C926,541.8,1081.8,697.7,1081.8,890z
		 M1065.3,891.1c0-183.2-148.2-331.9-331.5-331.9c-183.2,0-331.9,148.6-331.9,331.9s148.7,331.5,331.9,331.5
		S1065.3,1074.4,1065.3,891.1z M785.6,1198.2l-4.4-24.1l12.4-2.2l-1.5-7.7l-12.4,2.2l-4-22.3l13.5-2.2l-1.4-7.6l-22.3,4l12.4,69
		l22.3-4l-1.1-7.7L785.6,1198.2z M581.5,1085.4l7.3,5.5l-33.6,62.8l-7.3-5.8l6.9-11.7l-9.9-8l-10.2,9.1l-6.9-5.5L581.5,1085.4z
		 M571.7,1105.1l-0.4-0.4l-20.4,18.3l7.7,6.2L571.7,1105.1z M523.4,1016c2,4,0.8,7.2-2.2,8.8c-11.1,5.7-16.8,8.4-27.8,14.2
		c-3.2,1.7-6.2,0.8-8-2.6l-6.2-12l-23.7,12.4l-4.4-8l62.1-32.5L523.4,1016z M515.8,1017.5l-5.1-9.5l-24.8,12.8l5.1,9.5L515.8,1017.5
		z M686.4,1135.9c-6.3-1.5-10.8-2.8-17.2-4.4c-0.8-0.3-1.5-0.2-2.2-0.1c-2.1,0.4-3.8,2-4.4,4.4c-5.5,22.3-8.7,34.3-14.2,56.6
		c-0.8,3.3,1.2,6.2,4.4,6.9c6.3,1.6,10.5,2.8,16.8,4.4c3,0.7,5.8-1.1,6.6-4.4l4.7-17.9l-8.8-2.2l-4,16.1l-10.6-2.6l13.1-52.9
		l10.6,2.6l-3.3,12.4l8.8,2.2l3.7-14.2C691.2,1139.7,689.4,1136.6,686.4,1135.9z M865.2,920.6c-19.4,22.8-48,32.8-79.6,32.6H728
		l-13.8,56.6h-92.8l21-95.5l94.9,0.4c4.3,0,8.2,1,11,3.3c8.1,6.6,18.1,11.4,29.2,14.6c5,1.5,13.6-0.3,21.2-4.7
		c19-10.7,31.4-31.3,35.4-44.5c1-3.4-1-3.1-3.7-2.9c-8.1,0.6-16.3,7.9-27.4,15S769.3,909,747.9,909H643.6l8.8-40.2h56
		c8,0.1,12.9,4.3,14.2,9.9c1,4.3,2.8,9.1,4.7,13.1c10.9,19.9,46.6,9.3,56.2,6.2c9.1-2.9,25.3-12.9,32.9-18.6
		c4.4-3.3,12-4.3,16.1-4.4c1.7,0,3.7,0.4,4-1.8c0.2-2.1,0.6-6,0.7-8c0.1-2.1,0.7-2.6-1.1-2.6l-182.4-0.4l8.8-39.8l52.4,0.4
		c6,0,12.3,4.8,9.5,12.4c-1.8,4.7-3.1,10.1-3.7,15.3c-0.4,4,4.1,6.6,6.6,6.6l107,0.4c2,0,2.9-0.8,2.9-1.8c0-0.9,0-4.4-0.4-6.9
		c-0.4-2.4-0.7-2.6-2.6-2.6c-13.4,0-19-6-32.9-15c-14-8.9-34.2-14.2-51.8-14.2h-85.8l-0.5,1.8l11.4-51.8l119.6,0.2
		c29.8,0,55.3,12.1,73.4,33.8C894.1,833,896.7,886.2,865.2,920.6z M858,830.5c-2.5,4.9-8.1,10.4-13.9,12.8c-2.4,1-1.6,2.9-1.5,4.7
		s0.3,5.1,0.4,6.6c0,1.5,0.2,2.9,2.9,2.9h20.8c1,0,1.8-1,1.8-1.8c-0.6-9.8-2.4-19.5-7.3-27.4c-0.3-0.5-0.4-0.7-0.7-0.7
		C859.5,827.5,858.5,829.3,858,830.5z M832.9,833.7c-7.2-20-24.3-38.9-42.4-46c-2.7-1-7.5-0.9-8.8-0.7
		c-15.4,2.8-29.6,10.6-40.2,21.2c-1.3,1.3-1.8,2.5,1.1,2.6c2.8,0.1,25,0.5,37.2,4.4c12.3,3.9,21.3,8.7,31,15.3s13.7,10.4,21.9,9.5
		C834.5,839.8,834.1,837.7,832.9,833.7z M839.2,835.2c0.8,2.8,1.8,3.5,5.5,1.5c3.5-1.9,14-13.4,8.4-21.9
		c-9.8-14.8-29.5-25.5-49.3-28.1c-1.1-0.1-1.2,0.5,0.4,1.5C812.5,793.4,832.4,811.2,839.2,835.2z M851,891.1c-2.9-4-6.7-7.3-9.1-8
		c-0.5-0.1-0.8,0-1.1,0c-0.9,0.1-1.1,0.9-2.2,4.4c-3.7,12.4-17.8,33.9-33.6,43.1c-5.3,3.1-2,3.5-0.4,3.3
		c19.6-2.9,37.6-13.3,48.9-28.5C855.2,903.1,853.9,895.1,851,891.1z M868.3,863.7c0-0.6-1-1.1-1.8-1.1H845c-1.2,0-2.1,1-2.2,2.6
		c-0.1,2-0.5,6.9-0.7,8.4c-0.1,1.5,0,2.5,1.5,3.3c5,2.7,12,8.3,15,16.4c0.5,1.1,1.8,0.7,2.2,0C865.2,884.5,868.5,874.1,868.3,863.7z
		"/>
</g>
</svg>
