<?xml version="1.0" encoding="utf-8"?>
<!-- Generator: Adobe Illustrator 25.0.0, SVG Export Plug-In . SVG Version: 6.00 Build 0)  -->
<svg version="1.1" id="Layer_1" xmlns="http://www.w3.org/2000/svg" xmlns:xlink="http://www.w3.org/1999/xlink" x="0px" y="0px"
	 viewBox="0 0 749.8 750.1" style="enable-background:new 0 0 749.8 750.1;" xml:space="preserve">
<style type="text/css">
	.st0{fill:#FFFFFF;}
	.st1{fill:#002A5C;}
	.st2{fill:#005084;}
	.st3{fill:#7AC143;}
	.st4{fill:#C6CFD4;}
</style>
<g>
	<path class="st0" d="M733.4,264.9c-0.1-0.3-0.1-0.5-0.2-0.8c-0.3-1.2-0.7-2.8-1.3-4.4c-2.5-7.4-5.2-15-8.2-22.5
		c-7.3-18.5-16.1-36.5-26.2-53.4c-23.5-39.7-53.8-74.3-90.1-103c-40-31.6-87.1-55.2-136.2-68.3C442.6,4.9,412.8,0.7,382.5,0h-0.1
		h-0.1h-14.5h-0.1h-0.1c-18.9,0.5-37.6,2.2-55.3,5.3C261,14,211.4,33.6,168.5,62c-40.9,26.9-77,62.8-104.5,103.7
		c-29,43.1-49.2,92.9-58.3,144.1C2.4,328.5,0.5,348.1,0,368v0.1v0.1v14.4v0.1v0.1c0.6,26.4,3.9,52.5,9.8,77.5
		c11.9,50.8,34.7,99.5,66.1,140.9c26.8,35.5,59.4,65.6,97,89.6c30.3,19.4,63.1,34.3,97.6,44.4c31.2,9.1,63.8,14.1,96.9,14.8h0.1h0.1
		h14.5h0.3h0.3c0.9-0.1,1.9-0.1,3-0.1c1,0,2,0,3.1-0.1c56.2-2.1,112.3-17.2,162.3-43.7c44.2-23.4,84.1-56.5,115.5-95.5
		c31.4-38.9,55.2-84.9,68.9-133c8.4-29.3,13.2-59.8,14.3-90.8v-0.2v-0.2V363v-0.2v-0.2C748.7,329.3,743.2,296.4,733.4,264.9z
		 M738.9,386.5c-1,29.8-5.6,59.5-13.8,88.1c-13.4,46.9-36.3,91.2-66.9,129.2c-30.6,38.1-69,69.8-112.1,92.7
		c-48.4,25.7-102.7,40.5-157.6,42.4c-2.1,0.1-4.2,0.1-6.2,0.2h-14.5c-31.8-0.7-63.5-5.5-94.1-14.4c-33.4-9.7-65.5-24.3-94.8-43.1
		c-36.2-23.2-68.2-52.7-94.1-87C54,554.2,32,507.3,20.5,457.9c-5.8-24.6-8.9-49.9-9.5-75.2v-14.4c0.4-19,2.3-37.9,5.6-56.6
		c8.9-49.9,28.3-97.8,56.6-139.9C99.9,132,134.5,97.5,174.6,71.1c42-27.7,89.9-46.5,139.4-55c17.8-3,35.7-4.7,53.7-5.1h14.5
		c29.1,0.6,58.1,4.7,86.2,12.2c48,12.7,93.3,35.5,132.2,66.3c35,27.6,64.8,61.7,87.5,100c9.8,16.6,18.3,34,25.4,51.9
		c2.9,7.3,5.5,14.8,8.1,22.3c0.6,1.4,0.9,2.9,1.3,4.4c9.5,30.8,14.9,62.8,16,95V386.5z M317.2,51.7c9.2,13.7,18.5,27.3,27.7,40.9
		c-3.7,0.6-7.3,1.2-11,1.9c-4.6-6.6-9.1-13.3-13.6-19.9c-2.1,7.8-4.1,15.5-6.2,23.3c-3.6,0.6-7.3,1.3-10.9,1.9
		c4.1-16,8.3-31.9,12.5-47.9C316.2,51.9,316.7,51.8,317.2,51.7z M647.7,297.1c13.2-8.8,26.5-17.7,39.8-26.5
		c0.8,3.5,1.7,6.9,2.5,10.4c-6.4,4.2-12.7,8.4-19.1,12.6c8,1.8,15.9,3.7,23.9,5.6c0.1,0.6,0.3,1.1,0.4,1.6
		c-6.2,5.2-12.5,10.4-18.7,15.7c7.6,0.9,15.2,1.8,22.8,2.7c0.8,3.4,1.6,6.9,2.5,10.3c-15.9-1.8-31.7-3.6-47.6-5.4
		c-0.2-0.5-0.3-1.1-0.4-1.6c7-5.9,14-11.7,21-17.6c-8.9-2-17.8-4.1-26.7-6.2C647.9,298.2,647.8,297.6,647.7,297.1z M219.2,97.1
		c-4.3-2.1-9.4-2.7-14.1-1.9c-6.9,1.2-13,5.8-16.2,12c-2.8,5.5-3.3,12-1.4,17.8c2.7,8.5,10.7,14.9,19.6,15.6
		c5.8,0.6,11.9-1.2,16.4-4.8c4-3.1,6.9-7.6,8.1-12.6c1.2-4.9,0.7-10.2-1.4-14.9C228,103.4,224.1,99.4,219.2,97.1z M219.4,125
		c-1.9,2.7-4.9,4.5-8.1,5.1c-5.2,0.9-10.7-1.9-13.1-6.5c-1.8-3.3-1.9-7.4-0.3-10.9c1.6-3.6,5.1-6.4,9-7.1c3-0.6,6.1,0,8.7,1.5
		c2.8,1.7,4.9,4.5,5.7,7.7C222.2,118.3,221.5,122.1,219.4,125z M264.5,75.9c4.3,10.7,8.7,21.5,13,32.2c-3.1,1.3-6.2,2.5-9.3,3.8
		c-4.4-10.7-8.7-21.5-13.1-32.2c-3.8,1.5-7.7,3.1-11.5,4.6c-1.2-3-2.5-6-3.7-9.1c10.8-4.4,21.6-8.7,32.4-13c1.2,3,2.6,6,3.7,9.1
		C272.1,72.8,268.3,74.3,264.5,75.9z M76.8,235.8c13.9,5.7,27.7,11.3,41.6,17c-0.2,0.5-0.5,1-0.7,1.7c-10.5,4.7-21,9.6-31.5,14.3
		c7.2,2.9,14.4,5.9,21.6,8.8c-1.3,3.1-2.5,6.2-3.8,9.3c-13.9-5.7-27.8-11.3-41.7-17c0.3-0.6,0.5-1.1,0.7-1.6
		c10.5-4.8,20.9-9.5,31.3-14.3c-7.1-3-14.3-5.9-21.4-8.8C74.2,242.1,75.4,238.9,76.8,235.8z M90.6,387.4
		c-14.8,0.4-29.7,0.7-44.5,1.1c-0.2-3.4-0.2-6.7-0.2-10.1c14.8-0.4,29.7-0.7,44.5-1.1C90.5,380.7,90.5,384,90.6,387.4z M46.5,343.3
		c0.1-0.6,0.2-1.1,0.1-1.7c9.1-7.1,18.1-14,27.1-21.1c-7.6-1.2-15.2-2.4-22.8-3.6c0.5-3.3,1.1-6.7,1.6-10c14.8,2.4,29.6,4.7,44.4,7
		c0,0.6-0.1,1.1-0.2,1.7c-9,7.1-18.2,14.1-27.2,21.2c7.7,1.2,15.4,2.4,23,3.6c-0.6,3.3-1,6.6-1.6,9.9
		C76.1,347.9,61.3,345.6,46.5,343.3z M99.6,448.3c0.7,3.3,1.5,6.5,2.1,9.8c-14.7,3.1-29.4,6.2-44.3,9.5c-0.1-0.5-0.2-1-0.3-1.5
		c6.1-8.4,12.1-16.9,18.2-25.3c-8.8-5.2-17.7-10.4-26.5-15.6c-0.6-0.4-0.4-1.2-0.6-1.8c14.7-3.1,29.4-6.2,44.1-9.3
		c0.7,3.3,1.4,6.6,2.1,9.9c-6.7,1.5-13.4,2.7-20.1,4.3c5,2.9,10,5.9,15,8.8c0.1,0.4,0.2,0.9,0.3,1.3c-3.4,4.7-6.8,9.5-10.2,14.2
		C86.1,451.1,92.9,449.7,99.6,448.3z M627,244.8c6.1-3,12.2-6,18.3-9c-4.2,6.9-8.4,13.9-12.5,20.8c1.8,3.6,3.5,7.2,5.3,10.8
		c3.2-5.5,6.5-10.9,9.7-16.4c1.7,1.7,3.9,2.9,6.3,3.3c5.3,0.9,10.9-1.4,14.5-5.2c2.2-2.4,3.5-5.7,3.5-9c0.1-3.5-1.1-7-2.8-10.1
		c-2.2-4.7-4.5-9.3-6.8-14c-13.3,6.6-26.7,13.1-40,19.7C624,238.7,625.4,241.8,627,244.8z M658.1,229.5c1,1.9,1.8,3.8,2.8,5.7
		c0.9,1.7,1.5,3.7,0.7,5.6c-0.8,1.7-2.5,2.7-4.2,3.4s-3.9,0.7-5.3-0.6c-1.6-1.2-2.3-3.2-3.2-5c-0.6-1.2-1.2-2.5-1.8-3.7
		C650.7,233.1,654.4,231.3,658.1,229.5z M139.9,197.4c2.7,1.9,5.5,3.7,8.3,5.6c-5.6,8.5-11.2,16.9-16.8,25.3
		c-12.4-8.3-24.8-16.5-37-24.8c5.6-8.5,11.2-16.9,16.8-25.3c2.8,1.8,5.5,3.7,8.3,5.5c-3.8,5.6-7.5,11.3-11.3,16.9c2,1.3,4,2.7,6,4
		c3.2-4.8,6.5-9.7,9.7-14.5c2.8,1.9,5.6,3.7,8.4,5.6c-3.2,4.8-6.5,9.6-9.7,14.5c2,1.4,4.1,2.7,6.1,4.1
		C132.4,208.6,136.2,203,139.9,197.4z M180.7,160.1c0.6,3.7-0.7,7.4-2.7,10.5c-2.4,3.5-5.4,6.6-9.1,8.8c-3.8,2.3-8.3,3.4-12.7,3
		c0.4-3.7,0.7-7.4,1.1-11.1c2.8,0.1,5.7-0.2,8-1.9c1.7-1.3,3.3-2.9,3.9-5c0.5-1.5-0.5-3-1.9-3.4c-0.9-0.1-1.8,0.2-2.6,0.5
		c-3.9,1.9-7.4,4.6-11.6,5.7c-3.1,0.9-6.6,0.7-9.5-0.9c-3.3-1.8-6-4.8-6.9-8.5c-0.9-3.8,0.1-7.8,2.3-11.1c1.9-3,4.5-5.5,7.5-7.4
		c2.8-1.9,6.2-2.9,9.6-2.8c0.1,3.4,0.4,6.9,0.6,10.3c-2.4,0-4.7,0.8-6.5,2.4c-1.2,1.1-2.4,2.3-2.6,4c0,1.8,2.2,3.2,3.8,2.3
		c4.7-2.3,9-5.7,14.3-6.6c3-0.5,6.2,0.2,8.7,2C177.5,153.1,180.1,156.3,180.7,160.1z M590.9,191c11.6-9.3,23.3-18.5,35.1-27.6
		c6.2,7.9,12.5,15.9,18.8,23.8c-2.6,2.1-5.2,4.1-7.8,6.2c-4.2-5.3-8.4-10.6-12.6-15.9c-1.9,1.5-3.8,3-5.7,4.5
		c3.6,4.6,7.2,9.1,10.8,13.7c-2.7,2-5.3,4.1-7.9,6.2c-3.6-4.6-7.2-9.1-10.8-13.7c-2,1.5-3.9,3-5.8,4.5c4.2,5.3,8.4,10.6,12.6,15.9
		c-2.7,2.1-5.3,4.1-7.9,6.2C603.4,206.9,597.2,198.9,590.9,191z M621.7,516.2c12.6,8,25.1,15.9,37.7,23.9
		c-5.4,8.6-10.8,17.1-16.2,25.6c-2.8-1.8-5.6-3.5-8.4-5.3c3.6-5.7,7.2-11.4,10.8-17.1c-2-1.2-4.1-2.5-6.1-3.8
		c-3.1,4.9-6.2,9.8-9.3,14.7c-2.9-1.8-5.7-3.6-8.5-5.4c3.1-4.9,6.2-9.8,9.3-14.7c-2-1.3-4.1-2.6-6.2-3.9
		c-3.6,5.7-7.2,11.4-10.8,17.1c-2.9-1.8-5.7-3.6-8.5-5.4C610.9,533.3,616.3,524.8,621.7,516.2z M586.6,152.7
		c4.3-1.2,7.8-4.6,9.3-8.7c1.2-3.3,1-7-0.6-10.1c-1-2.1-2.5-3.9-4.3-5.4c-4.3-3.7-8.6-7.5-13-11.3c-9.7,11.2-19.5,22.5-29.2,33.7
		c4.8,4.2,9.5,8.3,14.3,12.5c3.9,3.3,9.5,4.7,14.3,3C583.1,164.5,587.1,158.6,586.6,152.7z M579.1,131.4c1.9,1.6,3.8,3.3,5.7,4.9
		c1,0.8,1.9,2,1.9,3.4c-0.2,1.4-1.2,2.7-2.6,3.2c-1.5,0.4-3-0.4-4.1-1.2c-1.9-1.5-3.7-3.2-5.6-4.8C576,135,577.6,133.2,579.1,131.4z
		 M572.8,157.1c-1.3-0.1-2.5-0.7-3.4-1.6c-2.2-1.8-4.3-3.7-6.5-5.6c1.7-2,3.5-4,5.2-6c2,1.8,4.1,3.5,6.1,5.3
		c1.2,1.1,2.3,2.4,2.4,4.1C576.7,155.3,574.8,157.2,572.8,157.1z M614.3,583c2.5,2.8,4,6.6,3.7,10.1c-0.5,4.6-3.2,8.7-6.8,11.4
		c-3.8,3-8.6,4.4-13.3,5c-0.3-3.4-0.8-6.7-1.2-10.1c2.2-0.3,4.3-1,6.4-1.8c2-0.8,3.8-2.3,4.5-4.3c0.4-1.2,0.4-2.8-0.7-3.6
		c-1-0.8-2.5-0.5-3.6-0.1c-3.6,1.4-7,3.5-10.6,4.9c-3.5,1.4-7.5,1.4-10.8-0.3c-3.4-1.7-5.9-5-6.8-8.7c-0.7-3.1-0.4-6.4,0.9-9.2
		c1.8-4,5-7.2,8.8-9.4c4.3-2.7,9.6-3.3,14.6-3.4c0,3.4,0,6.8,0,10.2c-3.4,0.2-7.1,0.4-10,2.4c-2.1,1.4-4.1,3.3-4.5,5.8
		c-0.4,1.9,1.2,4,3.2,3.5c2.3-0.7,4.4-2,6.6-3c3.3-1.6,6.7-3.2,10.4-3.3C608.5,579.1,611.9,580.5,614.3,583z M655.7,423
		c14.4,3.4,28.9,6.7,43.4,10.1c-0.7,3.3-1.5,6.6-2.2,9.9c-11.2-2.6-22.3-5.3-33.5-7.8c-1.5,6.3-3,12.7-4.5,19.1
		c-3.4-0.7-6.7-1.5-10-2.3C651.2,442.3,653.5,432.7,655.7,423z M678,354c-5.4,0.7-10.4,3.4-14,7.5c-3.2,3.6-5.2,8.1-5.6,12.9
		c-0.6,5.8,1.1,11.9,4.8,16.5c3.1,3.9,7.4,6.7,12.2,8c5.3,1.4,11.2,0.8,16.1-1.7c3.9-1.9,7.2-5,9.4-8.8c4.4-7.3,4.2-17.2-0.6-24.3
		C695.6,356.8,686.6,352.7,678,354z M693,380.5c-1.5,4.8-6.2,8.4-11.3,8.6c-3.9,0.3-7.8-1.5-10.2-4.5c-2.6-3.2-3.5-7.8-2.2-11.7
		c1.3-4.1,4.8-7.3,9-8.3c4.7-1.2,10,0.8,12.8,4.7C693.5,372.5,694.2,376.8,693,380.5z M638.7,480.9c16.4-0.7,32.9-1.5,49.3-2.2
		c-1.4,3.4-2.8,6.9-4.2,10.5c-8,0.3-16.1,0.7-24.1,1.1c5.6,5.9,11.1,11.7,16.7,17.5c-1.3,3.4-2.7,6.9-4.1,10.3
		C663.7,509,655,500,646.4,491c-2.8-2.9-5.5-5.8-8.3-8.6C638.3,481.9,638.5,481.4,638.7,480.9z M465.2,59.7c3.2,1,6.5,1.9,9.7,2.9
		c-4.3,14.2-8.5,28.5-12.7,42.7c-3.3-0.9-6.5-1.9-9.7-2.8C456.7,88.3,460.9,74,465.2,59.7z M547,94.3c0.5,0.2,1,0.5,1.5,0.7
		c-6.9,13.4-13.9,26.7-20.8,40c-3-1.6-6-3.2-9-4.7c3.1-6.1,6.4-12.2,9.5-18.3c-5.4,1.9-10.7,3.9-16,5.8c-0.6,0.4-1.2-0.2-1.7-0.4
		c-1.5-5.6-3-11.3-4.5-16.9c-3.3,6.1-6.4,12.2-9.6,18.3c-3-1.6-6-3.1-8.9-4.7c7-13.3,13.9-26.6,21-40c0.4,0.4,1.3,0.4,1.4,1.1
		c2.7,10,5.3,19.9,7.9,29.8C527.5,101.4,537.3,97.9,547,94.3z M402.5,47.7c11.5,1.6,23.1,3,34.6,4.6c-0.4,3.2-0.9,6.5-1.3,9.7
		c-4.1-0.5-8.2-1.1-12.3-1.6c-1.6,11.5-3,23-4.6,34.5c-3.3-0.4-6.7-0.8-10-1.3c1.6-11.4,3.1-22.9,4.6-34.4
		c-4.1-0.5-8.2-1.1-12.3-1.6C401.6,54.3,402,51.1,402.5,47.7z M501.9,336.8c2.3,2.2,3.5,5.2,4.8,8c-3.3,1.9-6.4,3.9-9.5,6
		c0.9-6.2,0.6-12.7-1.4-18.8C497.9,333.4,500.1,335,501.9,336.8z M528,338c-2.3-0.1-4.7,0.2-6.9,0.8c0.2-3.9-0.1-7.9-2.1-11.3
		C522.9,330,526.4,333.5,528,338z"/>
	<path class="st1" d="M716.6,294.3c-7.5-32-19.6-62.9-35.7-91.6c-22-39.1-51.6-74-86.7-102c-39.3-31.5-85.5-54.4-134.3-66.6
		c-29.5-7.4-60-10.9-90.4-10.4c-52.7,0.7-105,13.7-152.1,37.2c-43.6,21.8-82.5,52.9-113.4,90.5c-31.3,38-54.5,82.7-67.6,130.1
		c-10.2,37-14.4,75.6-12.2,113.8c3.1,52.9,18.3,105,44.2,151.2c22.9,41,54.2,77.3,91.3,106c29.8,23.2,63.4,41.5,99,54
		c30.9,10.8,63.3,17.3,96,19.2c31.7,1.9,63.6-0.6,94.6-7.4c49.6-10.9,97-32.4,137.5-63.2c36.8-27.8,68-63.1,91.2-103
		c27.5-47.1,43.9-100.5,47.4-154.9C727.6,362.8,724.7,328.1,716.6,294.3z M687.5,270.6c0.8,3.5,1.7,6.9,2.5,10.4
		c-6.4,4.2-12.7,8.4-19.1,12.6c8,1.8,15.9,3.7,23.9,5.6c0.1,0.6,0.3,1.1,0.4,1.6c-6.2,5.2-12.5,10.4-18.7,15.7
		c7.6,0.9,15.2,1.8,22.8,2.7c0.8,3.4,1.6,6.9,2.5,10.3c-15.9-1.8-31.7-3.6-47.6-5.4c-0.2-0.5-0.3-1.1-0.4-1.6c7-5.9,14-11.7,21-17.6
		c-8.9-2-17.8-4.1-26.7-6.2c-0.2-0.5-0.3-1.1-0.4-1.6C660.9,288.3,674.2,279.4,687.5,270.6z M669.3,230c1.7,3.1,2.9,6.6,2.8,10.1
		c0,3.3-1.3,6.6-3.5,9c-3.6,3.8-9.2,6.1-14.5,5.2c-2.4-0.4-4.6-1.6-6.3-3.3c-3.2,5.5-6.5,10.9-9.7,16.4c-1.8-3.6-3.5-7.2-5.3-10.8
		c4.1-6.9,8.3-13.9,12.5-20.8c-6.1,3-12.2,6-18.3,9c-1.6-3-3-6.1-4.5-9.1c13.3-6.6,26.7-13.1,40-19.7
		C664.8,220.7,667.1,225.3,669.3,230z M626,163.4c6.2,7.9,12.5,15.9,18.8,23.8c-2.6,2.1-5.2,4.1-7.8,6.2
		c-4.2-5.3-8.4-10.6-12.6-15.9c-1.9,1.5-3.8,3-5.7,4.5c3.6,4.6,7.2,9.1,10.8,13.7c-2.7,2-5.3,4.1-7.9,6.2
		c-3.6-4.6-7.2-9.1-10.8-13.7c-2,1.5-3.9,3-5.8,4.5c4.2,5.3,8.4,10.6,12.6,15.9c-2.7,2.1-5.3,4.1-7.9,6.2
		c-6.3-7.9-12.5-15.9-18.8-23.8C602.5,181.7,614.2,172.5,626,163.4z M578,117.2c4.4,3.8,8.7,7.6,13,11.3c1.8,1.5,3.3,3.3,4.3,5.4
		c1.6,3.1,1.8,6.8,0.6,10.1c-1.5,4.1-5,7.5-9.3,8.7c0.5,5.9-3.5,11.8-9.2,13.7c-4.8,1.7-10.4,0.3-14.3-3c-4.8-4.2-9.5-8.3-14.3-12.5
		C558.5,139.7,568.3,128.4,578,117.2z M508.5,74.1c0.4,0.4,1.3,0.4,1.4,1.1c2.7,10,5.3,19.9,7.9,29.8c9.7-3.6,19.5-7.1,29.2-10.7
		c0.5,0.2,1,0.5,1.5,0.7c-6.9,13.4-13.9,26.7-20.8,40c-3-1.6-6-3.2-9-4.7c3.1-6.1,6.4-12.2,9.5-18.3c-5.4,1.9-10.7,3.9-16,5.8
		c-0.6,0.4-1.2-0.2-1.7-0.4c-1.5-5.6-3-11.3-4.5-16.9c-3.3,6.1-6.4,12.2-9.6,18.3c-3-1.6-6-3.1-8.9-4.7
		C494.5,100.8,501.4,87.5,508.5,74.1z M465.2,59.7c3.2,1,6.5,1.9,9.7,2.9c-4.3,14.2-8.5,28.5-12.7,42.7c-3.3-0.9-6.5-1.9-9.7-2.8
		C456.7,88.3,460.9,74,465.2,59.7z M402.5,47.7c11.5,1.6,23.1,3,34.6,4.6c-0.4,3.2-0.9,6.5-1.3,9.7c-4.1-0.5-8.2-1.1-12.3-1.6
		c-1.6,11.5-3,23-4.6,34.5c-3.3-0.4-6.7-0.8-10-1.3c1.6-11.4,3.1-22.9,4.6-34.4c-4.1-0.5-8.2-1.1-12.3-1.6
		C401.6,54.3,402,51.1,402.5,47.7z M315.7,51.9c0.5,0,1-0.1,1.5-0.2c9.2,13.7,18.5,27.3,27.7,40.9c-3.7,0.6-7.3,1.2-11,1.9
		c-4.6-6.6-9.1-13.3-13.6-19.9c-2.1,7.8-4.1,15.5-6.2,23.3c-3.6,0.6-7.3,1.3-10.9,1.9C307.3,83.8,311.5,67.9,315.7,51.9z
		 M272.3,62.2c1.2,3,2.6,6,3.7,9.1c-3.9,1.5-7.7,3-11.5,4.6c4.3,10.7,8.7,21.5,13,32.2c-3.1,1.3-6.2,2.5-9.3,3.8
		c-4.4-10.7-8.7-21.5-13.1-32.2c-3.8,1.5-7.7,3.1-11.5,4.6c-1.2-3-2.5-6-3.7-9.1C250.7,70.8,261.5,66.5,272.3,62.2z M188.9,107.2
		c3.2-6.2,9.3-10.8,16.2-12c4.7-0.8,9.8-0.2,14.1,1.9c4.9,2.3,8.8,6.3,11,11.2c2.1,4.7,2.6,10,1.4,14.9c-1.2,5-4.1,9.5-8.1,12.6
		c-4.5,3.6-10.6,5.4-16.4,4.8c-8.9-0.7-16.9-7.1-19.6-15.6C185.6,119.2,186.1,112.7,188.9,107.2z M139,146.7c1.9-3,4.5-5.5,7.5-7.4
		c2.8-1.9,6.2-2.9,9.6-2.8c0.1,3.4,0.4,6.9,0.6,10.3c-2.4,0-4.7,0.8-6.5,2.4c-1.2,1.1-2.4,2.3-2.6,4c0,1.8,2.2,3.2,3.8,2.3
		c4.7-2.3,9-5.7,14.3-6.6c3-0.5,6.2,0.2,8.7,2c3.1,2.2,5.7,5.4,6.3,9.2c0.6,3.7-0.7,7.4-2.7,10.5c-2.4,3.5-5.4,6.6-9.1,8.8
		c-3.8,2.3-8.3,3.4-12.7,3c0.4-3.7,0.7-7.4,1.1-11.1c2.8,0.1,5.7-0.2,8-1.9c1.7-1.3,3.3-2.9,3.9-5c0.5-1.5-0.5-3-1.9-3.4
		c-0.9-0.1-1.8,0.2-2.6,0.5c-3.9,1.9-7.4,4.6-11.6,5.7c-3.1,0.9-6.6,0.7-9.5-0.9c-3.3-1.8-6-4.8-6.9-8.5
		C135.8,154,136.8,150,139,146.7z M111.2,178.2c2.8,1.8,5.5,3.7,8.3,5.5c-3.8,5.6-7.5,11.3-11.3,16.9c2,1.3,4,2.7,6,4
		c3.2-4.8,6.5-9.7,9.7-14.5c2.8,1.9,5.6,3.7,8.4,5.6c-3.2,4.8-6.5,9.6-9.7,14.5c2,1.4,4.1,2.7,6.1,4.1c3.7-5.7,7.5-11.3,11.2-16.9
		c2.7,1.9,5.5,3.7,8.3,5.6c-5.6,8.5-11.2,16.9-16.8,25.3c-12.4-8.3-24.8-16.5-37-24.8C100,195,105.6,186.6,111.2,178.2z M46.6,341.6
		c9.1-7.1,18.1-14,27.1-21.1c-7.6-1.2-15.2-2.4-22.8-3.6c0.5-3.3,1.1-6.7,1.6-10c14.8,2.4,29.6,4.7,44.4,7c0,0.6-0.1,1.1-0.2,1.7
		c-9,7.1-18.2,14.1-27.2,21.2c7.7,1.2,15.4,2.4,23,3.6c-0.6,3.3-1,6.6-1.6,9.9c-14.8-2.4-29.6-4.7-44.4-7
		C46.6,342.7,46.7,342.2,46.6,341.6z M45.9,378.4c14.8-0.4,29.7-0.7,44.5-1.1c0.1,3.4,0.1,6.7,0.2,10.1c-14.8,0.4-29.7,0.7-44.5,1.1
		C45.9,385.1,45.9,381.8,45.9,378.4z M57.4,467.6c-0.1-0.5-0.2-1-0.3-1.5c6.1-8.4,12.1-16.9,18.2-25.3c-8.8-5.2-17.7-10.4-26.5-15.6
		c-0.6-0.4-0.4-1.2-0.6-1.8c14.7-3.1,29.4-6.2,44.1-9.3c0.7,3.3,1.4,6.6,2.1,9.9c-6.7,1.5-13.4,2.7-20.1,4.3c5,2.9,10,5.9,15,8.8
		c0.1,0.4,0.2,0.9,0.3,1.3c-3.4,4.7-6.8,9.5-10.2,14.2c6.7-1.5,13.5-2.9,20.2-4.3c0.7,3.3,1.5,6.5,2.1,9.8
		C87,461.2,72.3,464.3,57.4,467.6z M104,286.9c-13.9-5.7-27.8-11.3-41.7-17c0.3-0.6,0.5-1.1,0.7-1.6c10.5-4.8,20.9-9.5,31.3-14.3
		c-7.1-3-14.3-5.9-21.4-8.8c1.3-3.1,2.5-6.3,3.9-9.4c13.9,5.7,27.7,11.3,41.6,17c-0.2,0.5-0.5,1-0.7,1.7c-10.5,4.7-21,9.6-31.5,14.3
		c7.2,2.9,14.4,5.9,21.6,8.8C106.5,280.7,105.3,283.8,104,286.9z M222.9,509.4c-5.3,4.9-10.9,9.6-16.9,13.7c2,2.5,4.4,4.7,7,6.5
		c-6.1,2.4-12.6,3-19.1,3.3c-13.7,0.4-27.4-1.3-40.9-3.5c-5.4-1-10.7-2-16-3.2c12.8-0.8,25.5-3.4,37.8-7.3s24.3-9,35.9-14.8
		c11.5-5.8,22.5-12.3,33-19.6C237.9,493.7,230.7,501.9,222.9,509.4z M310.9,179.7c1.7,3.5,3.9,6.8,6.5,9.6c0.8,0.9,1.7,1.6,2.4,2.6
		c-8.8,3.8-17.6,7.6-26.3,11.5c-0.9,0.4-1.9,0.2-2.8,0.2c-9.2-0.4-18.4-0.6-27.6-0.8c-12.9-0.2-25.7-0.2-38.6,0.4
		c-2.2,0.2-4.3,0.2-6.5,0.1c3.2-3.1,6.7-5.9,10.1-8.8c23.4-19.1,50.6-33.5,79.5-42.2C306.2,161.5,306.8,171.2,310.9,179.7z
		 M548.2,355.6c-1-3.7-2.7-7.3-5.1-10.3c-1.1-1.6-2.5-2.8-4.1-3.8c-2.7-12-11.1-22.2-21.3-28.8c2.7-14,4.1-28.2,3.8-42.4
		c-0.2-8.4-1.1-16.9-2.9-25.2c19.2,9.7,36.8,22.7,51.2,38.7c17.8,19.6,30.5,43.8,36.6,69.6c0.8,2.9,0.8,5.9,1,8.9
		c2.3,41-6.6,82.7-25.4,119.2c-2.6,5.1-5.5,10-8.4,14.9c-1.3-3.6-2.2-7.3-3.4-11.1c-6.3-18.8-14.9-36.8-24.9-54
		c-6.9-11.8-14.4-23.2-22.5-34.3c1.6-2.4,3.1-4.8,5.2-6.6c2-1.8,4.3-3.5,7-4c2.1-0.5,4.4,0,6.1,1.3c1.3,0.9,2.3,2.3,3.2,3.6
		c2.2-6.1,4-12.5,4.8-19C549.7,366.7,549.6,361,548.2,355.6z M519,327.5c3.9,2.5,7.4,6,9,10.5c-2.3-0.1-4.7,0.2-6.9,0.8
		C521.3,334.9,521,330.9,519,327.5z M584.4,277.9c-14.4-16.5-32.1-30.1-51.2-40.7c-6.6-3.7-13.5-7-20.5-10.1
		c-0.6-0.2-0.8-0.9-1.1-1.4c-4.4-8.5-11-15.9-19.4-20.6c-1.5-0.8-3.1-1.6-4.7-2.3c-0.6-0.2-0.7-1-1-1.6c-2.2-4.9-5.9-9.2-10.6-11.8
		c-1.6-0.8-3.2-1.8-5-2.2c-4.3,1-8.2,3.1-11.8,5.5c-5.7,3.8-10.8,8.5-15.1,13.8c-7.2-1.1-14.4-2.3-21.6-3.1
		c-12.9-1.5-26-1.7-38.9-3.7c-8-1.3-16-2.9-23.7-5.3c1.6-1.2,3.4-2.2,5.2-3c22.5-10.7,46.2-18.7,70.7-23.3
		c12.5-2.3,25.1-3.9,37.8-3.9c37.3,17.2,69.7,44.8,93,78.7c6.6,9.5,12.4,19.5,17.5,29.9c1.5,3.1,3.1,6.1,4.2,9.3
		C586.7,280.9,585.7,279.3,584.4,277.9z M481.5,208.4c-4.4-3.1-10.2-4.2-15.5-2.7c-5.1,1.3-9.4,4.7-13,8.5c2.4-4.3,5-8.6,8.4-12.2
		c2-2.1,4.5-4,7.4-4.6c2.3-0.5,4.7,0.3,6.5,1.8C478.2,201.6,480,205,481.5,208.4z M326.2,319.2c-4.4-9.8-9.2-19.4-15.2-28.4
		c-6.2-9.2-13.4-17.9-22.1-24.9c-2.1-1.7-4.4-3.1-6.5-4.8c6.3-3.7,12.8-7,19.4-10.2c0.7-0.4,1.5-0.2,2.2-0.1
		c13.1,1.9,26.2,3.8,39.1,7c2.7,0.8,5.6,1.3,8,2.9c9.7,6,19.4,12.2,28.7,18.8c-7.6,9-15.2,18.1-22.5,27.4c-1.9,2.3-3.6,4.7-5.6,6.9
		C343,314.4,334.4,316.3,326.2,319.2z M342.6,339.7c-2.5,7.4-4.3,15-4.8,22.7c-10.8,1.9-21.7,4.3-31.9,8.7c-2.5,1.1-5,2.5-7.4,4
		c3.9-4.1,8.2-7.9,12.4-11.7c7.8-6.9,15.7-13.6,24.4-19.3C337.6,342.5,340.1,341,342.6,339.7z M359.1,248.1
		c-8.1-8.7-16.1-17.3-24.4-25.8c3.3-5.5,7.2-10.6,11.4-15.5c0.4-0.5,0.9-1.1,1.6-0.7c11.8,4,23.9,6.9,36.2,8.6
		c11.9,1.7,23.9,2,35.8,3.3c5,0.6,10.1,1.1,15.1,1.9c-3.4,3.8-7,7.4-10.4,11c-11.6,12.1-23,24.2-34.1,36.7c-0.3,0.6-0.9,0.3-1.2,0
		C379.3,260.8,369.3,254.3,359.1,248.1z M437.9,152.6c-18.1,3-35.9,8-53.1,14.3c-16.5,5.5-32.7,11.8-48.8,18.3
		c-5.3-3-9.9-7.4-12.2-13.1c-2.4-5.9-2.4-12.6-1.2-18.8c0.4-1.8,0.6-3.7,1.4-5.3c38.4-8.8,79.2-7.4,117.1,3.9
		C440,152.3,439,152.4,437.9,152.6z M329.8,200.4c-5.3,7.8-10.7,15.6-16.1,23.4c8,5.9,15.6,12.5,22.2,20
		c-12.2-2.4-24.5-4.7-36.8-6.8c-10.2,5.5-20.4,11.1-30.6,16.6c4.7-8,9.6-15.9,14.3-23.8c-6.6-5.5-13.5-10.7-20.7-15.4
		c11.8,0.4,23.5,1.4,35.3,2.2c4.2-2,8.3-4.3,12.5-6.3C316.5,207.1,323.1,203.7,329.8,200.4z M220,218.1c4.6,0,9.1,0.6,13.5,1.4
		c5.3,1,10.6,2.6,15.5,4.9c5.7,2.7,10.9,6.3,16,9.6c-3,5.3-6.1,10.7-9.1,16.1c-10-1.9-20.5-1.8-30.5,0.4
		c-16.6,3.6-31.9,12-45.4,22.2c-7.2,5.5-13.9,11.5-20.2,17.8c-0.8,0.8-1.6,1.7-2.5,2.4c0.9-3,2.2-5.9,3.4-8.8
		c9.8-23.2,23.4-44.8,40.1-63.6c0.8-0.8,1.4-2,2.6-2C208.9,218.1,214.5,218.1,220,218.1z M174.3,297.3
		c11.4-10.8,24.1-20.5,38.6-26.9c11-4.9,23.2-7.5,35.3-6.2c-1.7,3.2-3.5,6.4-5.2,9.6c-1.2,2.1-2.2,4.4-3.5,6.5
		c-12.6,19.7-22.7,41-29.9,63.2c-9.2,28.2-13.9,58-14.1,87.7c-0.2,3.3,0.1,6.6,0,10.1c0,0.4-0.4,0.7-0.6,1
		c-3.7,3.8-7.4,7.7-11.1,11.4c-4.1,4.4-8.5,8.5-12.8,12.7c-2.3,2.2-4.7,4.5-7.1,6.7c-9.9-21.2-16.5-43.8-19.6-67
		c-3.3-24.9-2.6-50.3,2.2-75c0.2-1.1,0.2-2.4,1-3.3C155.6,317,164.5,306.7,174.3,297.3z M218.3,416.8c-2.5,2.8-5,5.7-7.6,8.4
		c0.8-25.7,4.9-51.4,12.7-75.9c7.9-24.8,19.4-48.5,34.4-69.9c1.4-2.1,3.4-3.7,5.3-5.3c1.7-1.4,3.4-2.8,5.2-4
		c1.6,0.4,2.9,1.4,4.3,2.2c8.9,5.4,16.2,12.9,22.4,21.1c6.9,9.3,12.4,19.6,17.1,30.2c0.2,0.4,0.4,0.9,0.5,1.3
		c-9,4.4-17.4,9.9-25.1,16.3c-8.6,7.2-16.2,15.4-23.7,23.7C248.5,382.1,233.6,399.7,218.3,416.8z M483.2,580.1
		c6.1,16.9,10,34.7,10.1,52.7c0.1,8.8-0.8,17.7-2.9,26.3c-1,3.9-2.1,7.8-3.8,11.4c-1.9-7.5-4.5-14.8-7.9-21.7
		c-6.1-12.6-15-23.6-24.4-33.9c-10.3-11.3-21-22.3-29.9-34.7c-5.9-8.2-11-17-15.3-26.2c-6.6-14.2-11-29.2-14.1-44.5
		c-8.9,4-16.1,11-22,18.6c-7,9.2-12.5,19.4-17,30c-2.9,6.9-5.5,13.9-7.6,21c-10.4-25.4-18.3-52-21.5-79.3c-1.7-14.8-2-29.7-0.2-44.5
		c0.8-6.1,1.9-12.2,3.9-18.1c-11.1,4.1-21.4,10.1-31,16.8c-9.9,6.9-19.1,14.7-27.7,23.2c1.6-11.9,4.7-23.6,9.2-34.7
		c4.2-10.2,9.9-19.8,16.8-28.3c10.7-13,24.5-23.6,40.2-29.9c0.5,7,1.8,14,3.9,20.7c1.7-12.7,5.7-24.9,10.3-36.8
		c3.4-8.7,7.2-17.3,11.3-25.7c1.2-2.5,2.7-4.8,4.1-7.1c13-21.2,27.1-41.8,42.1-61.6c11.8-15.6,24.2-30.7,37.5-45
		c2.7,1.3,5.7,2.1,8.6,2.8c6.2,1.3,12.5,2.1,18.8,2.4c4.6,0.2,9.2,0.2,13.8-0.5c0.4-4.1,1.1-8.1,0.7-12c4,2.2,7.3,5.5,9.8,9.4
		c3.5,5.5,5.6,11.9,6.9,18.3c2,10.1,2.5,20.5,1.7,30.8c-1.2-7-3-14-5.5-20.6c-2.3-6-5.1-11.8-9.3-16.7c1.6,7.4,1.4,15.1,0.6,22.7
		c-1.5,13.3-5.1,26.2-9.3,38.8c-3.9,12.2-10.5,23.3-14.6,35.4c-1.8,5.3-3.2,10.8-3.2,16.4c0.1,3,0.6,6.1,1.9,8.9
		c1.2,2.7,3.1,5.3,5.8,6.6c2.8,1.3,6,1.1,8.8,0.2c4.7-1.4,8.8-4.1,13-6.6c1.9-1.2,3.9-2.2,5.8-3.4c5.8-3.6,11.2-7.6,17.3-10.6
		c2.5-1.2,5.1-2.3,7.9-2.6c2.1-0.3,4.4,0,6.1,1.3c1.6,1,3.1,2.3,3.5,4.2c0.6,2.8-0.5,5.6-1.7,8.1c-2.4-1.1-5.2-0.7-7.5,0.3
		c-4.2,1.8-7.7,4.8-11.1,7.7c-8.9,7.9-17.1,16.7-24.8,25.9c-14.3,17.4-26.7,36.6-34.5,57.9c-4.9,13.4-7.8,27.7-7.6,42
		c0.2,10.7,2.1,21.5,5.8,31.5c0.6-6.4,1.7-12.7,3.3-19c1.3-4.7,2.8-9.4,5.3-13.5c0.8-1.2,1.7-2.5,2.9-3.4c1.5,10.2,3.8,20.3,7,30.1
		c1.8,5.2,3.9,10.3,6.4,15.2c4,9.2,7.6,18.6,10.7,28.1c2.5,8,4.8,16,5.7,24.4C492.8,585.2,488.3,581.9,483.2,580.1z M495.8,332
		c2.1,1.4,4.3,3,6.1,4.8c2.3,2.2,3.5,5.2,4.8,8c-3.3,1.9-6.4,3.9-9.5,6C498.1,344.6,497.8,338.1,495.8,332z M505.1,553.4
		c-3.4-9.4-7.3-18.6-10.4-28.1c-1.9-5.9-3.4-11.9-4-18.1c-0.6-5.6-0.2-11.1,0-16.7c0.6-12.8,2-25.7,5.1-38.2
		c3.6-14.8,10-28.9,18.1-41.8c11.4,16.1,21.7,33,30.3,50.8c7.8,16.4,14.2,33.5,17.9,51.3c0.2,0.4,0,0.9-0.3,1.1
		c-14.7,19.7-32.5,37.2-52.7,51.3C507.7,561.1,506.5,557.2,505.1,553.4z M515.8,595.9c-0.5-4.1-1.2-8.3-2.1-12.4
		c23.5-15.7,44.3-35.4,61.4-57.9c18.8-24.9,33-53.2,41.3-83.3c11.6-41.4,12.4-85.7,2-127.4c-5.8-23.6-15.2-46.4-27.7-67.3
		c-11.9-20-26.6-38.5-43.4-54.5c-17-16.2-36.3-30-57.2-40.8c-49.9-25.9-108.6-34.2-163.7-23.2c-40.5,8-78.8,26.4-110.6,52.7
		c-19.1,15.8-36,34.4-49.7,55c-20.9,31.3-34.6,67.5-39.5,104.9c-3.9,28.6-2.8,57.9,3.2,86.1c4.3,20.1,11.1,39.6,20.2,57.9
		c-3,2.6-6,5.2-9,7.7c-11.7-23.1-20-48-24.4-73.5c-8.4-48.8-2.7-99.9,16.4-145.6c9.2-21.9,21.4-42.6,36.1-61.3
		c28.5-36.1,66.6-64.6,109.4-81.7c32.5-13,67.6-19.3,102.6-18.4c28.1,0.7,56.1,5.9,82.6,15.3c23.6,8.4,45.9,20.3,66,35.1
		c36.5,26.8,65.8,63.1,84.4,104.3c9.1,20.1,15.6,41.4,19.3,63.1c6.9,40.5,4.1,82.5-8,121.7c-8.6,27.7-21.9,54-39.1,77.4
		C567.1,555.9,543.1,578.4,515.8,595.9z M618,593.1c-0.5,4.6-3.2,8.7-6.8,11.4c-3.8,3-8.6,4.4-13.3,5c-0.3-3.4-0.8-6.7-1.2-10.1
		c2.2-0.3,4.3-1,6.4-1.8c2-0.8,3.8-2.3,4.5-4.3c0.4-1.2,0.4-2.8-0.7-3.6c-1-0.8-2.5-0.5-3.6-0.1c-3.6,1.4-7,3.5-10.6,4.9
		c-3.5,1.4-7.5,1.4-10.8-0.3c-3.4-1.7-5.9-5-6.8-8.7c-0.7-3.1-0.4-6.4,0.9-9.2c1.8-4,5-7.2,8.8-9.4c4.3-2.7,9.6-3.3,14.6-3.4
		c0,3.4,0,6.8,0,10.2c-3.4,0.2-7.1,0.4-10,2.4c-2.1,1.4-4.1,3.3-4.5,5.8c-0.4,1.9,1.2,4,3.2,3.5c2.3-0.7,4.4-2,6.6-3
		c3.3-1.6,6.7-3.2,10.4-3.3c3.4,0,6.8,1.4,9.2,3.9C616.8,585.8,618.3,589.6,618,593.1z M643.2,565.7c-2.8-1.8-5.6-3.5-8.4-5.3
		c3.6-5.7,7.2-11.4,10.8-17.1c-2-1.2-4.1-2.5-6.1-3.8c-3.1,4.9-6.2,9.8-9.3,14.7c-2.9-1.8-5.7-3.6-8.5-5.4c3.1-4.9,6.2-9.8,9.3-14.7
		c-2-1.3-4.1-2.6-6.2-3.9c-3.6,5.7-7.2,11.4-10.8,17.1c-2.9-1.8-5.7-3.6-8.5-5.4c5.4-8.6,10.8-17.1,16.2-25.7
		c12.6,8,25.1,15.9,37.7,23.9C654,548.7,648.6,557.2,643.2,565.7z M683.8,489.2c-8,0.3-16.1,0.7-24.1,1.1
		c5.6,5.9,11.1,11.7,16.7,17.5c-1.3,3.4-2.7,6.9-4.1,10.3C663.7,509,655,500,646.4,491c-2.8-2.9-5.5-5.8-8.3-8.6
		c0.2-0.5,0.4-1,0.6-1.5c16.4-0.7,32.9-1.5,49.3-2.2C686.6,482.1,685.2,485.6,683.8,489.2z M696.9,443c-11.2-2.6-22.3-5.3-33.5-7.8
		c-1.5,6.3-3,12.7-4.5,19.1c-3.4-0.7-6.7-1.5-10-2.3c2.3-9.7,4.6-19.3,6.8-29c14.4,3.4,28.9,6.7,43.4,10.1
		C698.4,436.4,697.6,439.7,696.9,443z M700.9,388.4c-2.2,3.8-5.5,6.9-9.4,8.8c-4.9,2.5-10.8,3.1-16.1,1.7c-4.8-1.3-9.1-4.1-12.2-8
		c-3.7-4.6-5.4-10.7-4.8-16.5c0.4-4.8,2.4-9.3,5.6-12.9c3.6-4.1,8.6-6.8,14-7.5c8.6-1.3,17.6,2.8,22.3,10.1
		C705.1,371.2,705.3,381.1,700.9,388.4z M648.9,238.6c-0.6-1.2-1.2-2.5-1.8-3.7c3.6-1.8,7.3-3.6,11-5.4c1,1.9,1.8,3.8,2.8,5.7
		c0.9,1.7,1.5,3.7,0.7,5.6c-0.8,1.7-2.5,2.7-4.2,3.4s-3.9,0.7-5.3-0.6C650.5,242.4,649.8,240.4,648.9,238.6z M580,141.7
		c-1.9-1.5-3.7-3.2-5.6-4.8c1.6-1.9,3.2-3.7,4.7-5.5c1.9,1.6,3.8,3.3,5.7,4.9c1,0.8,1.9,2,1.9,3.4c-0.2,1.4-1.2,2.7-2.6,3.2
		C582.6,143.3,581.1,142.5,580,141.7z M569.4,155.5c-2.2-1.8-4.3-3.7-6.5-5.6c1.7-2,3.5-4,5.2-6c2,1.8,4.1,3.5,6.1,5.3
		c1.2,1.1,2.3,2.4,2.4,4.1c0.1,2-1.8,3.9-3.8,3.8C571.5,157,570.3,156.4,569.4,155.5z M198.2,123.6c-1.8-3.3-1.9-7.4-0.3-10.9
		c1.6-3.6,5.1-6.4,9-7.1c3-0.6,6.1,0,8.7,1.5c2.8,1.7,4.9,4.5,5.7,7.7c0.9,3.5,0.2,7.3-1.9,10.2c-1.9,2.7-4.9,4.5-8.1,5.1
		C206.1,131,200.6,128.2,198.2,123.6z M691.1,369.3c2.4,3.2,3.1,7.5,1.9,11.2c-1.5,4.8-6.2,8.4-11.3,8.6c-3.9,0.3-7.8-1.5-10.2-4.5
		c-2.6-3.2-3.5-7.8-2.2-11.7c1.3-4.1,4.8-7.3,9-8.3C683,363.4,688.3,365.4,691.1,369.3z"/>
	<path class="st2" d="M312.1,323.6c0.2,0.4,0.4,0.9,0.5,1.3c-9,4.4-17.4,9.9-25.1,16.3c-8.6,7.2-16.2,15.4-23.7,23.7
		c-15.3,17.2-30.2,34.8-45.5,51.9c-2.5,2.8-5,5.7-7.6,8.4c0.8-25.7,4.9-51.4,12.7-75.9c7.9-24.8,19.4-48.5,34.4-69.9
		c1.4-2.1,3.4-3.7,5.3-5.3c1.7-1.4,3.4-2.8,5.2-4c1.6,0.4,2.9,1.4,4.3,2.2c8.9,5.4,16.2,12.9,22.4,21.1
		C301.9,302.7,307.4,313,312.1,323.6z M159.8,290.5c6.3-6.3,13-12.3,20.2-17.8c13.5-10.2,28.8-18.6,45.4-22.2
		c10-2.2,20.5-2.3,30.5-0.4c3-5.4,6.1-10.8,9.1-16.1c-5.1-3.3-10.3-6.9-16-9.6c-4.9-2.3-10.2-3.9-15.5-4.9
		c-4.4-0.8-8.9-1.4-13.5-1.4c-5.5,0-11.1,0-16.6,0.4c-1.2,0-1.8,1.2-2.6,2c-16.7,18.8-30.3,40.4-40.1,63.6c-1.2,2.9-2.5,5.8-3.4,8.8
		C158.2,292.2,159,291.3,159.8,290.5z M209.6,343.5c7.2-22.2,17.3-43.5,29.9-63.2c1.3-2.1,2.3-4.4,3.5-6.5c1.7-3.2,3.5-6.4,5.2-9.6
		c-12.1-1.3-24.3,1.3-35.3,6.2c-14.5,6.4-27.2,16.1-38.6,26.9c-9.8,9.4-18.7,19.7-26.8,30.5c-0.8,0.9-0.8,2.2-1,3.3
		c-4.8,24.7-5.5,50.1-2.2,75c3.1,23.2,9.7,45.8,19.6,67c2.4-2.2,4.8-4.5,7.1-6.7c4.3-4.2,8.7-8.3,12.8-12.7
		c3.7-3.7,7.4-7.6,11.1-11.4c0.2-0.3,0.6-0.6,0.6-1c0.1-3.5-0.2-6.8,0-10.1C195.7,401.5,200.4,371.7,209.6,343.5z M224.5,203.2
		c12.9-0.6,25.7-0.6,38.6-0.4c9.2,0.2,18.4,0.4,27.6,0.8c0.9,0,1.9,0.2,2.8-0.2c8.7-3.9,17.5-7.7,26.3-11.5c-0.7-1-1.6-1.7-2.4-2.6
		c-2.6-2.8-4.8-6.1-6.5-9.6c-4.1-8.5-4.7-18.2-3.3-27.4c-28.9,8.7-56.1,23.1-79.5,42.2c-3.4,2.9-6.9,5.7-10.1,8.8
		C220.2,203.4,222.3,203.4,224.5,203.2z M343.1,257.8c-12.9-3.2-26-5.1-39.1-7c-0.7-0.1-1.5-0.3-2.2,0.1
		c-6.6,3.2-13.1,6.5-19.4,10.2c2.1,1.7,4.4,3.1,6.5,4.8c8.7,7,15.9,15.7,22.1,24.9c6,9,10.8,18.6,15.2,28.4
		c8.2-2.9,16.8-4.8,25.5-5.4c2-2.2,3.7-4.6,5.6-6.9c7.3-9.3,14.9-18.4,22.5-27.4c-9.3-6.6-19-12.8-28.7-18.8
		C348.7,259.1,345.8,258.6,343.1,257.8z M607.4,362.3c-0.2-3-0.2-6-1-8.9c-6.1-25.8-18.8-50-36.6-69.6c-14.4-16-32-29-51.2-38.7
		c1.8,8.3,2.7,16.8,2.9,25.2c0.3,14.2-1.1,28.4-3.8,42.4c10.2,6.6,18.6,16.8,21.3,28.8c1.6,1,3,2.2,4.1,3.8c2.4,3,4.1,6.6,5.1,10.3
		c1.4,5.4,1.5,11.1,0.9,16.7c-0.8,6.5-2.6,12.9-4.8,19c-0.9-1.3-1.9-2.7-3.2-3.6c-1.7-1.3-4-1.8-6.1-1.3c-2.7,0.5-5,2.2-7,4
		c-2.1,1.8-3.6,4.2-5.2,6.6c8.1,11.1,15.6,22.5,22.5,34.3c10,17.2,18.6,35.2,24.9,54c1.2,3.8,2.1,7.5,3.4,11.1
		c2.9-4.9,5.8-9.8,8.4-14.9C600.8,445,609.7,403.3,607.4,362.3z M511.6,225.7c0.3,0.5,0.5,1.2,1.1,1.4c7,3.1,13.9,6.4,20.5,10.1
		c19.1,10.6,36.8,24.2,51.2,40.7c1.3,1.4,2.3,3,3.8,4.2c-1.1-3.2-2.7-6.2-4.2-9.3c-5.1-10.4-10.9-20.4-17.5-29.9
		c-23.3-33.9-55.7-61.5-93-78.7c-12.7,0-25.3,1.6-37.8,3.9c-24.5,4.6-48.2,12.6-70.7,23.3c-1.8,0.8-3.6,1.8-5.2,3
		c7.7,2.4,15.7,4,23.7,5.3c12.9,2,26,2.2,38.9,3.7c7.2,0.8,14.4,2,21.6,3.1c4.3-5.3,9.4-10,15.1-13.8c3.6-2.4,7.5-4.5,11.8-5.5
		c1.8,0.4,3.4,1.4,5,2.2c4.7,2.6,8.4,6.9,10.6,11.8c0.3,0.6,0.4,1.4,1,1.6c1.6,0.7,3.2,1.5,4.7,2.3
		C500.6,209.8,507.2,217.2,511.6,225.7z M544.2,461.3c-8.6-17.8-18.9-34.7-30.3-50.8c-8.1,12.9-14.5,27-18.1,41.8
		c-3.1,12.5-4.5,25.4-5.1,38.2c-0.2,5.6-0.6,11.1,0,16.7c0.6,6.2,2.1,12.2,4,18.1c3.1,9.5,7,18.7,10.4,28.1c1.4,3.8,2.6,7.7,4,11.6
		c20.2-14.1,38-31.6,52.7-51.3c0.3-0.2,0.5-0.7,0.3-1.1C558.4,494.8,552,477.7,544.2,461.3z M336,185.2
		c16.1-6.5,32.3-12.8,48.8-18.3c17.2-6.3,35-11.3,53.1-14.3c1.1-0.2,2.1-0.3,3.2-0.7c-37.9-11.3-78.7-12.7-117.1-3.9
		c-0.8,1.6-1,3.5-1.4,5.3c-1.2,6.2-1.2,12.9,1.2,18.8C326.1,177.8,330.7,182.2,336,185.2z M383.9,214.7c-12.3-1.7-24.4-4.6-36.2-8.6
		c-0.7-0.4-1.2,0.2-1.6,0.7c-4.2,4.9-8.1,10-11.4,15.5c8.3,8.5,16.3,17.1,24.4,25.8c10.2,6.2,20.2,12.7,30,19.5
		c0.3,0.3,0.9,0.6,1.2,0c11.1-12.5,22.5-24.6,34.1-36.7c3.4-3.6,7-7.2,10.4-11c-5-0.8-10.1-1.3-15.1-1.9
		C407.8,216.7,395.8,216.4,383.9,214.7z"/>
	<path class="st3" d="M461.4,202c2-2.1,4.5-4,7.4-4.6c2.3-0.5,4.7,0.3,6.5,1.8c2.9,2.4,4.7,5.8,6.2,9.2c-4.4-3.1-10.2-4.2-15.5-2.7
		c-5.1,1.3-9.4,4.7-13,8.5C455.4,209.9,458,205.6,461.4,202L461.4,202z M309.9,210.3c-4.2,2-8.3,4.3-12.5,6.3
		c-11.8-0.8-23.5-1.8-35.3-2.2c7.2,4.7,14.1,9.9,20.7,15.4c-4.7,7.9-9.6,15.8-14.3,23.8c10.2-5.5,20.4-11.1,30.6-16.6
		c12.3,2.1,24.6,4.4,36.8,6.8c-6.6-7.5-14.2-14.1-22.2-20c5.4-7.8,10.8-15.6,16.1-23.4C323.1,203.7,316.5,207.1,309.9,210.3
		L309.9,210.3z M335.3,344.1c-8.7,5.7-16.6,12.4-24.4,19.3c-4.2,3.8-8.5,7.6-12.4,11.7c2.4-1.5,4.9-2.9,7.4-4
		c10.2-4.4,21.1-6.8,31.9-8.7c0.5-7.7,2.3-15.3,4.8-22.7C340.1,341,337.6,342.5,335.3,344.1L335.3,344.1z"/>
	<path class="st4" d="M633.4,330.7c6.9,40.5,4.1,82.5-8,121.7c-8.6,27.7-21.9,54-39.1,77.4c-19.2,26.1-43.2,48.6-70.5,66.1
		c-0.5-4.1-1.2-8.3-2.1-12.4c23.5-15.7,44.3-35.4,61.4-57.9c18.8-24.9,33-53.2,41.3-83.3c11.6-41.4,12.4-85.7,2-127.4
		c-5.8-23.6-15.2-46.4-27.7-67.3c-11.9-20-26.6-38.5-43.4-54.5c-17-16.2-36.3-30-57.2-40.8c-49.9-25.9-108.6-34.2-163.7-23.2
		c-40.5,8-78.8,26.4-110.6,52.7c-19.1,15.8-36,34.4-49.7,55c-20.9,31.3-34.6,67.5-39.5,104.9c-3.9,28.6-2.8,57.9,3.2,86.1
		c4.3,20.1,11.1,39.6,20.2,57.9c-3,2.6-6,5.2-9,7.7c-11.7-23.1-20-48-24.4-73.5c-8.4-48.8-2.7-99.9,16.4-145.6
		c9.2-21.9,21.4-42.6,36.1-61.3c28.5-36.1,66.6-64.6,109.4-81.7c32.5-13,67.6-19.3,102.6-18.4c28.1,0.7,56.1,5.9,82.6,15.3
		c23.6,8.4,45.9,20.3,66,35.1c36.5,26.8,65.8,63.1,84.4,104.3C623.2,287.7,629.7,309,633.4,330.7z M738.9,363.1v23.4
		c-1,29.8-5.6,59.5-13.8,88.1c-13.4,46.9-36.3,91.2-66.9,129.2c-30.6,38.1-69,69.8-112.1,92.7c-48.4,25.7-102.7,40.5-157.6,42.4
		c-2.1,0.1-4.2,0.1-6.2,0.2h-14.5c-31.8-0.7-63.5-5.5-94.1-14.4c-33.4-9.7-65.5-24.3-94.8-43.1c-36.2-23.2-68.2-52.7-94.1-87
		C54,554.2,32,507.3,20.5,457.9c-5.8-24.6-8.9-49.9-9.5-75.2v-14.4c0.4-19,2.3-37.9,5.6-56.6c8.9-49.9,28.3-97.8,56.6-139.9
		C99.9,132,134.5,97.5,174.6,71.1c42-27.7,89.9-46.5,139.4-55c17.8-3,35.7-4.7,53.7-5.1h14.5c29.1,0.6,58.1,4.7,86.2,12.2
		c48,12.7,93.3,35.5,132.2,66.3c35,27.6,64.8,61.7,87.5,100c9.8,16.6,18.3,34,25.4,51.9c2.9,7.3,5.5,14.8,8.1,22.3
		c0.6,1.4,0.9,2.9,1.3,4.4C732.4,298.9,737.8,330.9,738.9,363.1z M716.9,294.6c-7.6-32-19.6-63-35.7-91.6c-22-39.1-51.6-74-86.7-102
		C555,69.4,508.9,46.5,460.1,34.3c-29.5-7.4-60-10.9-90.4-10.4c-52.6,0.7-105,13.7-152.1,37.2c-43.6,21.8-82.5,52.8-113.4,90.5
		c-31.3,38-54.5,82.6-67.6,130.1c-10.3,36.9-14.4,75.5-12.2,113.8c3,52.9,18.3,105,44.2,151.2c22.9,41,54.2,77.2,91.3,106
		c29.8,23.1,63.4,41.4,99,54c30.9,10.9,63.3,17.4,96,19.2c31.7,1.8,63.6-0.7,94.6-7.4c49.7-10.8,97-32.4,137.5-63.2
		c36.8-27.9,67.9-63.1,91.2-103c27.5-47,43.9-100.5,47.4-154.9C727.8,363,724.9,328.2,716.9,294.6z M491.3,396
		c7.7-9.2,15.9-18,24.8-25.9c3.4-2.9,6.9-5.9,11.1-7.7c2.3-1,5.1-1.4,7.5-0.3c1.2-2.5,2.3-5.3,1.7-8.1c-0.4-1.9-1.9-3.2-3.5-4.2
		c-1.7-1.3-4-1.6-6.1-1.3c-2.8,0.3-5.4,1.4-7.9,2.6c-6.1,3-11.5,7-17.3,10.6c-1.9,1.2-3.9,2.2-5.8,3.4c-4.2,2.5-8.3,5.2-13,6.6
		c-2.8,0.9-6,1.1-8.8-0.2c-2.7-1.3-4.6-3.9-5.8-6.6c-1.3-2.8-1.8-5.9-1.9-8.9c0-5.6,1.4-11.1,3.2-16.4c4.1-12.1,10.7-23.2,14.6-35.4
		c4.2-12.6,7.8-25.5,9.3-38.8c0.8-7.6,1-15.3-0.6-22.7c4.2,4.9,7,10.7,9.3,16.7c2.5,6.6,4.3,13.6,5.5,20.6
		c0.8-10.3,0.3-20.7-1.7-30.8c-1.3-6.4-3.4-12.8-6.9-18.3c-2.5-3.9-5.8-7.2-9.8-9.4c0.4,3.9-0.3,7.9-0.7,12
		c-4.6,0.7-9.2,0.7-13.8,0.5c-6.3-0.3-12.6-1.1-18.8-2.4c-2.9-0.7-5.9-1.5-8.6-2.8c-13.3,14.3-25.7,29.4-37.5,45
		c-15,19.8-29.1,40.4-42.1,61.6c-1.4,2.3-2.9,4.6-4.1,7.1c-4.1,8.4-7.9,17-11.3,25.7c-4.6,11.9-8.6,24.1-10.3,36.8
		c-2.1-6.7-3.4-13.7-3.9-20.7c-15.7,6.3-29.5,16.9-40.2,29.9c-6.9,8.5-12.6,18.1-16.8,28.3c-4.5,11.1-7.6,22.8-9.2,34.7
		c8.6-8.5,17.8-16.3,27.7-23.2c9.6-6.7,19.9-12.7,31-16.8c-2,5.9-3.1,12-3.9,18.1c-1.8,14.8-1.5,29.7,0.2,44.5
		c3.2,27.3,11.1,53.9,21.5,79.3c2.1-7.1,4.7-14.1,7.6-21c4.5-10.6,10-20.8,17-30c5.9-7.6,13.1-14.6,22-18.6
		c3.1,15.3,7.5,30.3,14.1,44.5c4.3,9.2,9.4,18,15.3,26.2c8.9,12.4,19.6,23.4,29.9,34.7c9.4,10.3,18.3,21.3,24.4,33.9
		c3.4,6.9,6,14.2,7.9,21.7c1.7-3.6,2.8-7.5,3.8-11.4c2.1-8.6,3-17.5,2.9-26.3c-0.1-18-4-35.8-10.1-52.7c5.1,1.8,9.6,5.1,13.1,9.2
		c-0.9-8.4-3.2-16.4-5.7-24.4c-3.1-9.5-6.7-18.9-10.7-28.1c-2.5-4.9-4.6-10-6.4-15.2c-3.2-9.8-5.5-19.9-7-30.1
		c-1.2,0.9-2.1,2.2-2.9,3.4c-2.5,4.1-4,8.8-5.3,13.5c-1.6,6.3-2.7,12.6-3.3,19c-3.7-10-5.6-20.8-5.8-31.5c-0.2-14.3,2.7-28.6,7.6-42
		C464.6,432.6,477,413.4,491.3,396z M174.8,518.9c-12.3,3.9-25,6.5-37.8,7.3c5.3,1.2,10.6,2.2,16,3.2c13.5,2.2,27.2,3.9,40.9,3.5
		c6.5-0.3,13-0.9,19.1-3.3c-2.6-1.8-5-4-7-6.5c6-4.1,11.6-8.8,16.9-13.7c7.8-7.5,15-15.7,20.8-24.9c-10.5,7.3-21.5,13.8-33,19.6
		C199.1,509.9,187.1,515,174.8,518.9z"/>
</g>
</svg>
