<?xml version="1.0" encoding="utf-8"?>
<!-- Generator: Adobe Illustrator 25.0.0, SVG Export Plug-In . SVG Version: 6.00 Build 0)  -->
<svg version="1.1" id="Layer_1" xmlns="http://www.w3.org/2000/svg" xmlns:xlink="http://www.w3.org/1999/xlink" x="0px" y="0px"
	 viewBox="0 0 651.3 895" style="enable-background:new 0 0 651.3 895;" xml:space="preserve">
<style type="text/css">
	.st0{fill-rule:evenodd;clip-rule:evenodd;fill:#FFFFFF;}
	.st1{fill-rule:evenodd;clip-rule:evenodd;fill:#991A2E;}
	.st2{fill-rule:evenodd;clip-rule:evenodd;fill:#F8992D;}
	.st3{fill-rule:evenodd;clip-rule:evenodd;}
</style>
<g>
	<path class="st0" d="M81.8,262.8c-0.7,6.2,6.9,14.4,20.6,22c24.7,13.1,68,24.1,118.9,30.2c14.4-7.6,28.2-18.6,33-30.9
		c2.7-6.2,3.4-11.7,4.1-17.9l1.4-9.6c3.4-24.7,17.9-39.9,29.6-48.8C162.2,212.6,83.8,240.8,81.8,262.8z M145.8,239.3
		c22.8-6.3,60.2-14.1,114.5-17.9c-6.5,10.1-10.7,21.3-12.4,33.6l-1.4,9.6l0,0.2l0,0.2c-0.7,6-1.2,9.9-3.2,14.3l-0.1,0.3l-0.1,0.3
		c-2.9,7.5-11.8,15.9-24.2,22.9c-47.7-6.1-88-16.4-110.8-28.4c-8.8-4.8-12.7-8.9-14-10.8C96.6,259.6,109.3,249.4,145.8,239.3z
		 M633.7,214.9L633.7,214.9l-0.1-0.2c-13-14.2-33.2-27-59.9-38.1c-20.5-8.5-44.5-15.9-71.3-22c1.3-1.1,2.8-2.3,4.4-3.5
		c2.9-2.3,6.2-4.8,9.8-8l0.2-0.2l0.2-0.2c7.8-7.6,12-17.3,12.1-28.2c0.2-19.2-12.8-37.2-16.8-41.8L498.7,56l-28.2-35.2l7,44.6
		l3.4,21.9c0.6,4.1,0.9,6.5-1.7,9.6c-0.5-4.1-1.2-8.4-2.3-12.9c-4.2-17.5-12.8-25.1-14.5-26.4l-13.1-10.5c0-7.3,1.5-11.9,2.4-13.6
		l0.7-0.7c4.3-4.3,11.1-11.8,11.4-12.1l12.4-13.6l-17.5-5.8c-1.4-0.5-4.5-1.2-9.9-1.2h0c-3,0-6.3,0.2-9.9,0.7l-0.1,0l-0.1,0
		c-5.8,0.9-17,3.4-26.8,9.5c-11.8,7.3-18.1,18-17.7,30.1c0,8.8,2.5,16.8,4.5,23.1c0.3,0.9,0.6,1.9,0.9,2.8l0.2,0.5l0.2,0.5
		c1.1,2.7,1.8,4.7,2.1,6.1c-1.1,0.3-2.6,0.6-4.7,1l-0.1,0l-0.1,0c-34.1,6.1-61.4,23.2-74.9,47c-3.2,5.3-5.6,10.6-7.3,16.1
		c-75.2,0.8-146.2,10.6-201,28c-32.8,10-58.6,22.1-76.9,36c-19.8,15.1-30.7,32.3-32.5,51.1c-1.5,12.4,1.6,25,8.9,36.6
		c3.3,5.2,7.2,10.6,12.5,15.2c7.3,6.4,23.1,17.9,31.4,22.9c2.7,1.6,11.3,5.3,11.3,5.3l5.8,3.2L75,336l0.5,0.2
		c12,5.3,25.9,10.3,42,15.1c-1.3,1.1-2.5,2.2-3.8,3.3c-41.9,34.7-66,86.1-66,141c0,48.9,18.8,94.6,53,128.7
		c17.2,17.2,37.2,30.6,59.5,39.8c22.2,9.2,45.8,13.9,70,13.9c41.7,0,82.5-14.6,115-41.1c32.4-26.4,54.9-63.2,63.6-103.8
		c14.6-44.2,12.7-90.7,12.1-106c-1-28.4,10.8-46,22-56.1c54.4-7.1,101.8-19.2,137.2-34.8l0.3-0.1l0.3-0.1l5.5-2.7l12.4-6.2l0.3-0.1
		l0.3-0.1c32.4-18.2,50.4-40.4,52.1-64.4C652.7,246,646.7,229.6,633.7,214.9z M639.1,261.4c-1.4,19.9-17.9,39.2-46,55l-12.4,6.2
		l-5.5,2.7c-35.7,15.8-83.2,27.5-137.4,34.4c-11.7,9.6-30.2,30.2-28.9,68c0.7,17.2,2.1,61.2-11.7,102.4
		c-16.5,79-86.6,136.1-167,136.1c-45.4,0-88.7-17.9-120.9-50.2C77,583.7,59.8,541.1,59.8,495.7c0-51.5,22.7-99.6,61.8-131.9
		c7.6-6.9,15.1-12.4,24.1-17.2c-24.7-6.2-46.7-13.1-65.3-21.3l-6.2-3.4l-11.7-5.5h0.7c-41.2-22.7-48.8-46-46.7-62.5
		c2.7-30.9,37.8-57.7,101-77c56.4-17.9,129.9-27.5,206.9-27.5c1.4-8.2,4.1-15.1,8.2-22c11.7-20.6,35.7-35.7,66.7-41.2
		c8.2-1.4,13.1-3.4,14.4-6.2c2.1-3.4,0-10.3-2.7-17.2c-2.1-6.9-4.8-14.4-4.8-22.7c-0.7-17.9,21.3-25.4,34.4-27.5
		c3.4-0.5,6.2-0.6,8.3-0.6c4.3,0,6.1,0.6,6.1,0.6s-6.9,7.6-11,11.7c-3.4,2.1-8.9,15.1-5.5,35.7l0.7,4.1c4.1,19.9,6.9,37.1-3.4,52.2
		c-1.4,2.1-3.4,4.1-5.5,6.2c21.3-19.2,22.7-35,23.4-35l1.4-20.6c0,0,6.9,5.5,10.3,19.9c3.4,13.7,2.7,25.4,2.1,35
		c2.1-1.4,3.4-2.7,5.5-4.8c16.5-11,22-16.5,19.9-31.6l-3.4-22L503,80.6c1.4,1.4,26.8,33,5.5,53.6c-5.5,4.8-10.3,8.2-14.4,11.7
		c-8.9,5.5-13.7,8.9-13.7,16.5c68,13.1,120.3,34.4,144.3,60.5C635.7,235.3,640.5,248.3,639.1,261.4z M469.4,251.1
		c-2.1,4.8-2.1,17.2-2.7,21.3c-0.7,26.8-18.6,33.7-34.4,40.5h-1.4c-2.7,1.4-5.5,2.7-7.6,4.1c55-5.5,101.7-16.5,129.2-30.2
		c13.1-6.9,20.6-14.4,21.3-20.6c0-1.4,0-4.8-4.8-9.6c-11-13.1-41.9-25.4-86.6-35c-2.1,3.4-4.8,6.9-8.2,9.6c0,0,0.7,0,1.4,0
		c0,0,11.7,2.1,11,2.1C480.4,236,472.8,244.9,469.4,251.1z M489.8,245.2h7.8l0.7-7.6c45.9,11.7,58.6,23.2,61.6,26.7l0.3,0.4l0.4,0.4
		c0.3,0.3,0.5,0.5,0.6,0.7c-1.6,2.1-5.7,5.9-14.1,10.4c-17.6,8.8-43.8,16.4-75.1,22.1c4.1-7,6.3-15.3,6.7-24.8
		c0.2-1.7,0.4-3.8,0.5-6.4c0.2-2.9,0.6-8.7,1.2-11C482.8,251.9,487,247.3,489.8,245.2z M630.2,260.7c-2.1,19.9-21.3,37.8-53.6,53.6
		c-26.8,12.4-62.5,23.4-104.5,30.9c-1.4-1.4-4.1-2.1-4.1-2.1s-33-16.5-61.8-5.5c2.1-3.4,4.1-6.9,6.2-9.6
		c63.2-5.5,114.8-17.9,144.3-33c15.8-8.2,25.4-17.9,26.1-28.2c3.4-36.4-108.6-67.3-249.5-68.7C192.4,196.8,75.6,225,72.8,262.1
		c-1.4,11,8.2,21.3,25.4,30.9c23.4,12.4,61.2,22.7,107.9,29.6c-11.7,4.8-22,8.2-27.5,10.3c-6.9,2.1-13.1,4.1-19.9,6.9
		c-31.6-6.9-59.1-15.8-80.4-26.1c-35-16.5-55-37.1-52.9-59.1c4.8-54.3,144.3-97.6,311.3-96.2C503,160.4,635,205.7,630.2,260.7z"/>
	<path class="st1" d="M358,598.8l0.7-0.7c-17.9,22-41.2,39.9-68.7,50.2c-39.9-2.7-69.4-15.8-92.1-40.5c9.6-0.7,19.2-2.1,29.6-4.8
		l0.7,0.7c23.4,18.6,49.5,23.4,71.5,19.9C310.6,622.2,335.4,618,358,598.8z M301,422.2l-20.6,16.5c-45.4,36.4-71.5,59.1-69.4,108.6
		c0.7,16.5,7.6,30.9,19.2,41.9c12.4-3.4,24.7-8.9,37.1-15.8c59.1-33.7,96.2-83.8,110.6-148.4c8.9-40.5,8.9-73.5,8.2-100.3
		c0-13.1,2.1-39.9,2.1-39.9c2.1-16.5,4.8-39.9,24.1-70.1c0.7-1.4,0.7-2.1,1.4-3.4c-11.7-0.7-24.7-2.1-38.5-2.7
		c-2.7,12.4-3.4,25.4-4.1,38.5C367.7,300.6,369,361.7,301,422.2z M395.2,381c-2.1,10.3-2.1,20.6-3.4,31.6c-0.7,4.1-1.4,8.2-1.4,11.7
		c-0.7,1.4-0.7,2.7-0.7,3.4c-15.1,68-53.6,120.3-116.1,156c-10.3,6.2-21.3,11-32.3,14.4c18.6,12.4,39.9,15.8,54.3,13.7
		c55.7-8.2,83.2-44.7,96.2-83.8c13.1-39.9,11.7-82.5,11-99.6c-2.1-59.1,43.3-81.1,43.3-81.1C411,345.2,399.3,361,395.2,381z
		 M455.6,252.4c-4.1,12.4-16.5,11-20.6,4.1c-5.5-11-3.4-19.2,2.7-25.4c6.2-5.5,15.8-8.9,25.4-13.1c-11-2.1-22.7-3.4-35-4.8
		c-0.7,0-0.7,0-0.7,0c-1.4,1.4-2.1,2.7-3.4,4.1c-19.9,29.6-22,52.2-24.1,68.7l-0.7,5.5c-1.4,8.9-1.4,19.9-0.7,33c0,2.1,0,4.1,0,5.5
		c-0.7,4.8-0.7,8.9-0.7,13.7c0-2.1,0.7-2.8,0.7-1.4c5.5-17.9,15.8-28.9,30.2-35c15.8-6.2,30.9-12.4,31.6-35
		c0.7-9.6,1.4-19.2,3.4-24.1c4.1-8.9,11-11,11-11C467.3,236.6,459.1,240.1,455.6,252.4z M206.2,630.4c-8.2-6.2-16.5-13.7-23.4-22
		c-8.9,0-17.9-0.7-26.8-2.7c4.8,13.1,7.6,26.1,5.5,39.2c21.3,9.6,44,15.1,68.7,15.1c11.7,0,23.4-1.4,34.4-3.4c0,0,0,0-0.7,0
		C241.9,651,222.7,643.5,206.2,630.4z M125.1,552.8c9.6,13.7,18.6,26.8,24.7,39.9c7.6,2.1,15.8,3.4,23.4,3.4
		c-8.2-11.7-15.1-24.7-21.3-39.9c-23.4-59.1-19.9-131.9,8.9-173.9c15.1-22,33.7-36.4,57-49.5c19.9-11,32.3-13.7,45.4-21.3
		c13.7-8.9,21.3-22.7,12.4-53.6c-2.7-8.9-3.4-16.5-2.7-22c-3.4,6.2-5.5,13.7-6.9,22c-1.4,8.2-2.1,17.9-5.5,28.2
		c-12.4,32.3-72.2,50.2-79.7,52.2c-22.7,6.9-40.5,17.2-55,29.6c-40.5,36.4-48.1,90.7-32.3,130.6C101,517,113.4,535.6,125.1,552.8z
		 M108.6,574.8c8.2,5.5,16.5,9.6,25.4,13.1c-5.5-8.9-11.7-18.6-18.6-28.2c-12.4-17.9-24.7-37.1-33-57c-8.2-20.6-10.3-41.9-6.9-63.9
		c-6.2,17.9-10.3,36.4-10.3,57c0,3.4,0.7,7.6,0.7,11.7C70.8,530.1,83.2,556.9,108.6,574.8z M261.1,321.9
		c-35.7,15.8-58.4,24.7-89.3,63.2c-14.4,17.9-22.7,48.1-23.4,79c-1.4,29.6,4.8,61.2,15.1,87.3c6.9,17.2,15.1,32.3,24.7,45.4
		c9.6-0.7,19.2-2.1,28.9-4.1c-11-12.4-17.2-27.5-17.9-44.7c-3.4-56.4,26.8-79.7,73.5-117.5l20.6-17.9
		c83.8-70.8,59.1-142.9,68.7-204.8c-6.9,0-13.7,0-20.6-0.7c0.7,2.1,1.4,4.1,1.4,6.2c2.1,11-1.4,20.6-15.1,22.7
		c-14.4,2.1-19.2-10.3-20.6-19.9c0-4.1,0.7-6.9,0.7-8.9c-2.1,0-4.8,0.7-6.9,0.7c-4.8,2.1-11,6.2-16.5,12.4
		c-2.7,6.2-6.2,14.4-0.7,34.4C292.8,288.9,288.6,310.2,261.1,321.9z M101.7,585.1c-7.6-4.8-13.7-11.7-19.2-17.9
		c14.4,30.9,38.5,55.7,68,72.2c0-12.4-3.4-24.7-8.9-37.1C127.8,598.8,114.8,592.6,101.7,585.1z"/>
	<path class="st2" d="M459.1,87.5c6.2,33.7,1.4,52.9-8.2,70.1c-14.4-2.1-30.2-3.4-46-4.8c2.7-2.7,5.5-5.5,8.2-8.2
		c3.4-2.8,7.6-6.2,11.7-9.6C457.7,110.2,459.1,87.5,459.1,87.5z M430.2,112.9c9.6-14.4,6.2-31.6,2.7-52.2
		c-6.2-35.7,8.9-41.9,8.9-41.9s-30.2,4.1-29.6,21.3c0.7,23.4,24.7,45.4-11.7,52.2c-39.9,6.9-64.6,28.9-70.1,57c2.1,0,4.1,0,6.2,0
		c17.9,0,35.7,0.7,52.9,2.1c0.7-0.7,1.4-1.4,2.1-2.1C402.7,137,421.3,126.7,430.2,112.9z M498.9,84.8c2.7,19.2-6.2,26.1-22.7,37.8
		c-4.8,3.4-8.9,8.2-8.9,14.4c-0.7,7.6-1.4,15.1-2.7,22.7c3.4,0.7,6.9,1.4,9.6,2.1c1.4-15.1,15.8-18.6,29.6-31.6
		C522.3,112.9,498.9,84.8,498.9,84.8z"/>
	<path class="st3" d="M624.7,222.9c-24.1-26.1-76.3-47.4-144.3-60.5c0-7.6,4.8-11,13.7-16.5c4.1-3.4,8.9-6.9,14.4-11.7
		c21.3-20.6-4.1-52.2-5.5-53.6l-13.7-17.2l3.4,22c2.1,15.1-3.4,20.6-19.9,31.6c-2.1,2.1-3.4,3.4-5.5,4.8c0.7-9.6,1.4-21.3-2.1-35
		c-3.4-14.4-10.3-19.9-10.3-19.9l-1.4,20.6c-0.7,0-2.1,15.8-23.4,35c2.1-2.1,4.1-4.1,5.5-6.2c10.3-15.1,7.6-32.3,3.4-52.2l-0.7-4.1
		c-3.4-20.6,2.1-33.7,5.5-35.7c4.1-4.1,11-11.7,11-11.7s-4.1-1.4-14.4,0c-13.1,2.1-35,9.6-34.4,27.5c0,8.2,2.7,15.8,4.8,22.7
		c2.7,6.9,4.8,13.7,2.7,17.2c-1.4,2.7-6.2,4.8-14.4,6.2c-30.9,5.5-55,20.6-66.7,41.2c-4.1,6.9-6.9,13.7-8.2,22
		c-77,0-150.5,9.6-206.9,27.5c-63.2,19.2-98.3,46-101,77c-2.1,16.5,5.5,39.9,46.7,62.5h-0.7l11.7,5.5l6.2,3.4
		c18.6,8.2,40.5,15.1,65.3,21.3c-8.9,4.8-16.5,10.3-24.1,17.2c-39.2,32.3-61.8,80.4-61.8,131.9c0,45.4,17.2,88,49.5,120.3
		c32.3,32.3,75.6,50.2,120.9,50.2c80.4,0,150.5-57,167-136.1c13.7-41.2,12.4-85.2,11.7-102.4c-1.4-37.8,17.2-58.4,28.9-68
		c54.3-6.9,101.7-18.6,137.4-34.4l5.5-2.7l12.4-6.2c28.2-15.8,44.7-35,46-55C640.5,248.3,635.7,235.3,624.7,222.9z M467.3,137
		c0-6.2,4.1-11,8.9-14.4c16.5-11.7,25.4-18.6,22.7-37.8c0,0,23.4,28.2,4.8,45.4c-13.7,13.1-28.2,16.5-29.6,31.6
		c-2.7-0.7-6.2-1.4-9.6-2.1C465.9,152.1,466.6,144.6,467.3,137z M459.1,87.5c6.2,33.7,1.4,52.9-8.2,70.1c-14.4-2.1-30.2-3.4-46-4.8
		c2.7-2.7,5.5-5.5,8.2-8.2c3.4-2.8,7.6-6.2,11.7-9.6C457.7,110.2,459.1,87.5,459.1,87.5z M400.7,92.3c36.4-6.9,12.4-28.9,11.7-52.2
		c-0.7-17.2,29.6-21.3,29.6-21.3s-15.1,6.2-8.9,41.9c3.4,20.6,6.9,37.8-2.7,52.2c-8.9,13.7-27.5,24.1-38.5,36.4
		c-0.7,0.7-1.4,1.4-2.1,2.1c-17.2-1.4-35-2.1-52.9-2.1c-2.1,0-4.1,0-6.2,0C336.1,121.2,360.8,99.2,400.7,92.3z M125.8,367.9
		c14.4-12.4,32.3-22.7,55-29.6c7.6-2.1,67.3-19.9,79.7-52.2c3.4-10.3,4.1-19.9,5.5-28.2c1.4-8.2,3.4-15.8,6.9-22
		c-0.7,5.5,0,13.1,2.7,22c8.9,30.9,1.4,44.7-12.4,53.6c-13.1,7.6-25.4,10.3-45.4,21.3c-23.4,13.1-41.9,27.5-57,49.5
		c-28.9,41.9-32.3,114.8-8.9,173.9c6.2,15.1,13.1,28.2,21.3,39.9c-7.6,0-15.8-1.4-23.4-3.4c-6.2-13.1-15.1-26.1-24.7-39.9
		c-11.7-17.2-24.1-35.7-31.6-54.3C77.7,458.6,85.2,404.3,125.8,367.9z M327.8,236c13.7-2.1,17.2-11.7,15.1-22.7
		c0-2.1-0.7-4.1-1.4-6.2c6.9,0.7,13.7,0.7,20.6,0.7c-9.6,61.8,15.1,134-68.7,204.8l-20.6,17.9c-46.7,37.8-77,61.2-73.5,117.5
		c0.7,17.2,6.9,32.3,17.9,44.7c-9.6,2.1-19.2,3.4-28.9,4.1c-9.6-13.1-17.9-28.2-24.7-45.4c-10.3-26.1-16.5-57.7-15.1-87.3
		c0.7-30.9,8.9-61.2,23.4-79c30.9-38.5,53.6-47.4,89.3-63.2c27.5-11.7,31.6-33,22.7-67.3c-5.5-19.9-2.1-28.2,0.7-34.4
		c5.5-6.2,11.7-10.3,16.5-12.4c2.1,0,4.8-0.7,6.9-0.7c0,2.1-0.7,4.8-0.7,8.9C308.6,225.6,313.4,238,327.8,236z M435,256.6
		c4.1,6.9,16.5,8.2,20.6-4.1c3.4-12.4,11.7-15.8,19.2-15.1c0,0-6.9,2.1-11,11c-2.1,4.8-2.7,14.4-3.4,24.1
		c-0.7,22.7-15.8,28.9-31.6,35c-14.4,6.2-24.7,17.2-30.2,35c0-1.4-0.7-0.7-0.7,1.4c0-4.8,0-8.9,0.7-13.7c0-1.4,0-3.4,0-5.5
		c-0.7-13.1-0.7-24.1,0.7-33l0.7-5.5c2.1-16.5,4.1-39.2,24.1-68.7c1.4-1.4,2.1-2.7,3.4-4.1c0,0,0,0,0.7,0c12.4,1.4,24.1,2.7,35,4.8
		c-9.6,4.1-19.2,7.6-25.4,13.1C431.6,237.3,429.5,245.6,435,256.6z M475.6,231.1c-0.7,0-1.4,0-1.4,0c3.4-2.7,6.2-6.2,8.2-9.6
		c44.7,9.6,75.6,22,86.6,35c4.8,4.8,4.8,8.2,4.8,9.6c-0.7,6.2-8.2,13.7-21.3,20.6c-27.5,13.7-74.2,24.7-129.2,30.2
		c2.1-1.4,4.8-2.8,7.6-4.1h1.4c15.8-6.9,33.7-13.7,34.4-40.5c0.7-4.1,0.7-16.5,2.7-21.3c3.4-6.2,11-15.1,17.2-17.9
		C487.2,233.2,475.6,231.1,475.6,231.1z M412.3,214.7c-19.2,30.2-22,53.6-24.1,70.1c0,0-2.1,26.8-2.1,39.9
		c0.7,26.8,0.7,59.8-8.2,100.3c-14.4,64.6-51.5,114.8-110.6,148.4c-12.4,6.9-24.7,12.4-37.1,15.8c-11.7-11-18.6-25.4-19.2-41.9
		c-2.1-49.5,24.1-72.2,69.4-108.6l20.6-16.5c68-60.5,66.7-121.6,70.1-175.2c0.7-13.1,1.4-26.1,4.1-38.5c13.7,0.7,26.8,2.1,38.5,2.7
		C413,212.6,413,213.3,412.3,214.7z M259.8,256.6l-1.4,9.6c-0.7,6.2-1.4,11.7-4.1,17.9c-4.8,12.4-18.6,23.4-33,30.9
		c-50.9-6.2-94.1-17.2-118.9-30.2c-13.7-7.6-21.3-15.8-20.6-22c2.1-22,80.4-50.2,207.5-55C277.6,216.7,263.2,231.8,259.8,256.6z
		 M65.3,495.7c0-20.6,4.1-39.2,10.3-57c-3.4,22-1.4,43.3,6.9,63.9c8.2,19.9,20.6,39.2,33,57c6.9,9.6,13.1,19.2,18.6,28.2
		c-8.9-3.4-17.2-7.6-25.4-13.1c-25.4-17.9-37.8-44.7-42.6-67.3C66,503.3,65.3,499.2,65.3,495.7z M82.5,567.2
		c5.5,6.2,11.7,13.1,19.2,17.9c13.1,7.6,26.1,13.7,39.9,17.2c5.5,12.4,8.9,24.7,8.9,37.1C120.9,622.9,96.9,598.1,82.5,567.2z
		 M230.2,660c-24.7,0-47.4-5.5-68.7-15.1c2.1-13.1-0.7-26.1-5.5-39.2c8.9,2.1,17.9,2.7,26.8,2.7c6.9,8.2,15.1,15.8,23.4,22
		c16.5,13.1,35.7,20.6,57.7,26.1c0.7,0,0.7,0,0.7,0C253.6,658.6,241.9,660,230.2,660z M290,648.3c-39.9-2.7-69.4-15.8-92.1-40.5
		c9.6-0.7,19.2-2.1,29.6-4.8l0.7,0.7c23.4,18.6,49.5,23.4,71.5,19.9c11-1.4,35.7-5.5,58.4-24.7l0.7-0.7
		C340.9,620.1,317.5,638,290,648.3z M402.7,428.4c0.7,17.2,2.1,59.8-11,99.6c-13.1,39.2-40.5,75.6-96.2,83.8
		c-14.4,2.1-35.7-1.4-54.3-13.7c11-3.4,22-8.2,32.3-14.4c62.5-35.7,101-88,116.1-156c0-0.7,0-2.1,0.7-3.4c0-3.4,0.7-7.6,1.4-11.7
		c1.4-11,1.4-21.3,3.4-31.6c4.1-19.9,15.8-35.7,50.9-33.7C446,347.3,400.7,369.3,402.7,428.4z M630.2,260.7
		c-2.1,19.9-21.3,37.8-53.6,53.6c-26.8,12.4-62.5,23.4-104.5,30.9c-1.4-1.4-4.1-2.1-4.1-2.1s-33-16.5-61.8-5.5
		c2.1-3.4,4.1-6.9,6.2-9.6c63.2-5.5,114.8-17.9,144.3-33c15.8-8.2,25.4-17.9,26.1-28.2c3.4-36.4-108.6-67.3-249.5-68.7
		C192.4,196.8,75.6,225,72.8,262.1c-1.4,11,8.2,21.3,25.4,30.9c23.4,12.4,61.2,22.7,107.9,29.6c-11.7,4.8-22,8.2-27.5,10.3
		c-6.9,2.1-13.1,4.1-19.9,6.9c-31.6-6.9-59.1-15.8-80.4-26.1c-35-16.5-55-37.1-52.9-59.1c4.8-54.3,144.3-97.6,311.3-96.2
		C503,160.4,635,205.7,630.2,260.7z"/>
</g>
<g>
	<path d="M180.7,783l44-89.3H279l4.8,89.3h-32.3l-19.2-30.9h18.6l-2.1-36.4L215.1,783H180.7z M338.1,736.3h0.7L345,783h19.2
		l26.8-46.7h0.7l-11,46.7h30.9l22-89.3H391l-25.4,46l-6.2-46h-44l-22,89.3h33L338.1,736.3z M463.2,783l22-89.3h-36.4l-22,89.3H463.2
		z M170.4,783l21.3-89.3H156L134,783H170.4z M336.1,806.3c0,0-44.7,88.7-44,88.7h34.4l33.7-67.3l2.1,36.4h-18.6l18.6,30.9h33
		l-4.8-88.7C390.3,806.3,335.4,806.3,336.1,806.3z M290,862.7l5.5-19.2h-41.9l2.7-13.1h41.9l6.9-24.1h-76.3l-22,88.7h75.6l5.5-19.9
		H246l2.7-12.4H290z M118.2,783l22-89.3H97.6l-25.4,46l-6.2-46H22L0,783h33l11.7-46.7h0.7l6.2,46.7h19.2l26.8-46.7h0.7l-11,46.7
		H118.2z M523,762.4c-1.4,9.6-9.6,12.4-22.7,14.4c-18.6,3.4,7.6,29.6-29.6,29.6h-62.5l-7.6,27.5h24.1L410.3,895H446l14.4-61.2h15.1
		c35,0,8.9-29.6,35-41.2C532.6,782.3,527.8,769.2,523,762.4z M180.1,806.3l-8.2,34.4h-25.4l8.2-34.4h-33.7L99,895h33.7l7.6-30.2
		h25.4l-7.6,30.2h33.7l22-88.7H180.1z"/>
</g>
</svg>
