<?xml version="1.0" encoding="utf-8"?>
<!-- Generator: Adobe Illustrator 25.0.0, SVG Export Plug-In . SVG Version: 6.00 Build 0)  -->
<svg version="1.1" id="Layer_1" xmlns="http://www.w3.org/2000/svg" xmlns:xlink="http://www.w3.org/1999/xlink" x="0px" y="0px"
	 viewBox="0 0 595 751" style="enable-background:new 0 0 595 751;" xml:space="preserve">
<style type="text/css">
	.st0{fill:#FFFFFF;}
	.st1{fill:#22375B;}
	.st2{fill:#6189B9;}
	.st3{fill:#BED0E1;}
	.st4{fill:#F9B625;}
</style>
<g>
	<path class="st0" d="M516.2,111.8c7.5-14.9,10.3-28.8,10.3-37.5c0-44.5-40.6-74.3-78.6-74.3c-31.8,0-48.6,17.6-55.8,28.1
		c-6.3-1-15.6-2.1-24.9-2.1c-30.4,0-57.8,9.8-68.6,14.3c-10-4.6-34.1-13.8-67.3-13.8c-8.5,0-17.1,0.6-25.6,1.8
		c-7.8-9.9-26.1-28.1-55.3-28.1c-46.5,0-78.9,39.5-78.9,74.9c0,15.7,5.6,28.6,9.8,36.2c-11.4,15.6-38.6,58.2-38.6,109.5
		c0,43.7,19.1,69.5,19.9,70.6c1.9,2.5,4.8,4.1,8,4.3c0.2,0,0.4,0,0.6,0c1.6,0,3.2-0.4,4.7-1.1c9.5,24.5,33.2,69.4,87.6,103
		c1.7,1.1,3.7,1.6,5.6,1.6c1.5,0,3-0.3,4.4-0.9c1.9-0.8,3.4-2.2,4.6-3.9c9.1,8.3,22.5,18.8,40,28.1l5.9,3.2
		c29.8,15.8,47.9,25.4,67.4,47.3c2,2.3,4.9,3.6,8,3.6c0.1,0,0.2,0,0.4,0c3.2-0.1,6.1-1.6,8.1-4.1c12.3-15.7,38.9-29.8,62.3-42.2
		c12.9-6.8,25.1-13.3,33.8-19.5c7-5,12.8-9.8,17.4-14.2c0.8,1.2,1.9,2.2,3.2,2.9c1.7,1,3.6,1.5,5.5,1.5c1.7,0,3.5-0.4,5-1.3
		c57.1-30.4,77.3-75.9,84.3-103.7c0.3,0,0.6,0.1,1,0.1c0.1,0,0.2,0,0.4,0c3.5,0,6.8-1.7,8.8-4.6c0.9-1.3,22.3-32.8,22.3-75.8
		C551.9,165.7,526.9,126.3,516.2,111.8z M520.8,285.3l-8.2-13.8c0,0-1.8,75.7-82.5,118.7V369c0,0-7.2,15-32.4,33
		c-23.5,16.7-77.3,36.9-98.3,63.7c-22.1-24.8-42.5-34.8-76.3-52.8c-33.8-18-51.2-40.6-51.2-40.6l-2.8,16
		c-73.9-45.6-88.3-113.7-88.3-113.7l-9.6,10.2c0,0-17.8-23.5-17.8-64.1c0-60.3,41-108.9,41-108.9S82.2,96.4,82.2,75
		c0-30.1,28.1-64.1,68.1-64.1c33.6,0,50.4,29,50.4,29c58.1-10.4,97.5,12.2,97.5,12.2s32.3-15.4,68.9-15.4c15,0,30.4,3.2,30.4,3.2
		s12.6-29.2,50.4-29.2c30.3,0,67.9,24.1,67.9,63.3c0,8.8-3.6,23.8-12.4,38.6c0,0,37.8,44,37.8,103
		C541.2,255.7,520.8,285.3,520.8,285.3z"/>
	<path class="st1" d="M503.4,112.6c8.8-14.8,12.4-29.8,12.4-38.6c0-39.2-37.6-63.3-67.9-63.3c-37.8,0-50.4,29.2-50.4,29.2
		s-15.4-3.2-30.4-3.2c-36.6,0-68.9,15.4-68.9,15.4s-39.4-22.6-97.5-12.2c0,0-16.8-29-50.4-29c-40,0-68.1,34-68.1,64.1
		c0,21.4,12.2,36.8,12.2,36.8s-41,48.6-41,108.9c0,40.6,17.8,64.1,17.8,64.1l9.6-10.2c0,0,14.4,68.1,88.3,113.7l2.8-16
		c0,0,17.4,22.6,51.2,40.6c33.8,18,54.2,28,76.3,52.8c21-26.8,74.8-47,98.3-63.7c25.2-18,32.4-33,32.4-33v21.2
		c80.7-43,82.5-118.7,82.5-118.7l8.2,13.8c0,0,20.4-29.6,20.4-69.7C541.2,156.6,503.4,112.6,503.4,112.6z M298.8,385.6
		c-34.6,0-41.6-5.2-41.6-9.4c0-4.2,13.8-5.2,42-5.2c24.2,0,41,1.4,41,5.4S333.4,385.6,298.8,385.6z M210.3,168.3
		c28.2-1.4,56.1,47.4,88.1,41.6v80.7c-31.4-1.2-40,8-40,17s10.2,22.6,10.2,22.6c1.6-9.4,8.8-13.8,8.8-13.8c5.6,2.2,22,24,22.1,23.9
		v20.6c-26.2,0-44.8,7-44.8,7s-19.6-37.8-19.6-95.1c0-23.7,3.8-49.7,13.6-71.3C226.7,204.1,216.1,195.3,210.3,168.3z M330,329.4
		c0,0,8.4-11.6,8.4-20.6c0-16.6-36-17.4-36-17.4v-1.6c17-0.4,41,3.8,41,16.4C343.4,318.8,330,329.4,330,329.4z M357.2,202.9
		c0,0,14.6,33.8,14.6,75.1c0,58.3-25.8,90.9-25.8,90.9c36-90.7-0.4-165.4-0.4-165.4l-15.4-0.4c12.6-4.2,26-28.6,59.5-35.2
		C385.9,204.1,357.2,202.9,357.2,202.9z M414.5,75.3c-12.2,24.2-23.2,19.8-37.8,31.6c-17,14.4-21.4,45-21.4,45s18.2-10,39.4-10
		c21.2,0,46.2,15.8,46.2,15.8s-19-4.4-33.4-4.4c-58.9,0-70.3,42-90.7,42c-6.8,0-11-4.4-11-4.4l-6.2-93.5l-6.8,93.1
		c0,0-1,4.8-10.8,4.8c-16.4,0-29.8-29.2-62.3-38.2c-27.6-9-60.7,0.4-60.7,0.4c23.6,0,35.4,6.4,35.4,6.4c7,40.8,26,38.8,26,38.8
		s-6.4,21.4-6.4,49.2c0,61.7,27.8,115.5,36.4,129.1c8.6,13.6,30.4,15,49.2,13.2v41.6c-16.4-18.6-40.6-22.4-76.3-47.4
		c-35.8-25-64.7-59.9-64.7-59.9l-2.2,21.6C110,324.5,92.5,237.8,92.5,237.8l-12.6,15.8c0,0-5.6-17.4-5.6-36.8
		c0-62.1,44.2-104.7,44.2-104.7s-11-16.8-11-38.8c0-28.6,25.4-40.4,40.2-40.4c29.2,0,46.2,32.6,46.2,32.6
		c44.2-14.4,105.3,8.6,105.3,8.6c60.7-28.4,106.9-7.4,106.9-7.4s15.8-31.8,44.8-31.8c15.2,0,28.2,8.8,28.2,8.8
		C445.5,38.3,426.7,51.1,414.5,75.3z M180.6,69.4c-28.1,8.5-54.1,35.1-54.1,35.1c-2-11.2,14.7-25.5,14.7-25.5
		c-6.5-7.5-18.6-0.7-18.6-0.7c11.1-20.1,33.6-11.1,33.6-11.1c-11.6-12.9-26.8-9.5-26.8-9.5C146.7,40.2,163.5,53.2,180.6,69.4z"/>
	<path class="st2" d="M343.4,306.2c0,12.6-13.4,23.2-13.4,23.2s8.4-11.6,8.4-20.6c0-16.6-36-17.4-36-17.4v-1.6
		C319.4,289.4,343.4,293.6,343.4,306.2z M355.3,151.9c0,0,18.2-10,39.4-10c21.2,0,46.2,15.8,46.2,15.8s-19-4.4-33.4-4.4
		c-58.9,0-70.3,42-90.7,42c-6.8,0-11-4.4-11-4.4l-6.2-93.5l-6.8,93.1c0,0-1,4.8-10.8,4.8c-16.4,0-29.8-29.2-62.3-38.2
		c-27.6-9-60.7,0.4-60.7,0.4c23.6,0,35.4,6.4,35.4,6.4c7,40.8,26,38.8,26,38.8s-6.4,21.4-6.4,49.2c0,61.7,27.8,115.5,36.4,129.1
		c8.6,13.6,30.4,15,49.2,13.2v41.6c-16.4-18.6-40.6-22.4-76.3-47.4c-35.8-25-64.7-59.9-64.7-59.9l-2.2,21.6
		C110,324.5,92.5,237.8,92.5,237.8l-12.6,15.8c0,0-5.6-17.4-5.6-36.8c0-62.1,44.2-104.7,44.2-104.7s-11-16.8-11-38.8
		c0-28.6,25.4-40.4,40.2-40.4c29.2,0,46.2,32.6,46.2,32.6c44.2-14.4,105.3,8.6,105.3,8.6c60.7-28.4,106.9-7.4,106.9-7.4
		s15.8-31.8,44.8-31.8c15.2,0,28.2,8.8,28.2,8.8c-33.6-5.4-52.4,7.4-64.6,31.6s-23.2,19.8-37.8,31.6
		C359.7,121.3,355.3,151.9,355.3,151.9z M180.6,69.4c-17.1-16.2-33.9-29.2-51.2-11.7c0,0,15.2-3.4,26.8,9.5c0,0-22.5-9-33.6,11.1
		c0,0,12.1-6.8,18.6,0.7c0,0-16.7,14.3-14.7,25.5C126.5,104.5,152.5,77.9,180.6,69.4z M330.2,203.1c12.6-4.2,26-28.6,59.5-35.2
		c-3.8,36.2-32.5,35-32.5,35s14.6,33.8,14.6,75.1c0,58.3-25.8,90.9-25.8,90.9c36-90.7-0.4-165.4-0.4-165.4L330.2,203.1z M349,189.1
		l4.8,1.2l8.2,8.8c0,0,14.9-4.1,13-26.7C364,176.9,355.8,183.3,349,189.1z"/>
	<path class="st3" d="M299.5,360.9c-26.2,0-44.8,7-44.8,7s-19.6-37.8-19.6-95.1c0-23.7,3.8-49.7,13.6-71.3
		c-22,2.6-32.6-6.2-38.4-33.2c12.7-0.6,25.3,8.9,38.3,19.1c-8.3-6.4-16.4-12.7-24.5-16.2c0,0-1.4,20.7,13.6,27.3l9-8.6l4-0.9
		c15.2,11.9,30.9,23.9,47.7,20.9v80.7c-31.4-1.2-40,8-40,17s10.2,22.6,10.2,22.6c1.6-9.4,8.8-13.8,8.8-13.8c5.6,2.2,22,24,22.1,23.9
		V360.9z M299.2,371c-28.2,0-42,1-42,5.2c0,4.2,7,9.4,41.6,9.4c34.6,0,41.4-5.2,41.4-9.2S323.4,371,299.2,371z"/>
	<path class="st4" d="M224.1,171.2c8.8,3.8,17.6,10.8,26.6,17.8l-4,0.9l-9,8.6C222.7,191.9,224.1,171.2,224.1,171.2z M375,172.4
		c-11,4.5-19.2,10.9-26,16.7l4.8,1.2l8.2,8.8C362,199.1,376.9,195,375,172.4z"/>
</g>
<g>
	<path class="st1" d="M389.8,512.2c0,5.3,0,10.6,0,16.8c0,20.4-9,32.1-25.1,32.1c-6.6,0-16.9,0-16.9,0v47.5h-10.9v-56h0.1h22.3
		c9.3,0,20.4-4.6,20.4-26.5c0-21.4-11.1-25.9-20.4-25.9h-27.8v108.4h-10.2V506.9l-7.7-17.9c0,0,40.4,0,51.1,0
		C375.3,489,389.8,498.1,389.8,512.2z M131.4,504.9v103.7H197v-12.4h-54V502h53.9v5.3h-48.5V546h35v-12.1h-23.1v-15H197V489h-72.8
		L131.4,504.9z M282.5,488.9c-16,0-80.5,0-80.5,0l7,16.8v102.9h27.3v-91.1h9.8v91.1H273v-91.9c0,0,9.3-1.5,9.3,6.8s0,85,0,85H294
		V522c0-12-6.9-16.3-13.4-16.3h-17.9v102.8h-5.4V505.6H226v103h-5.4V500.3h59.9c9.3,0,18.7,6.7,18.9,21.7v86.5h10.2
		c0,0,0-81.1,0-95.2S298.5,488.9,282.5,488.9z M160.4,563.8h23v-12.4h-35v39.4H197v-11.9h-36.6V563.8z M83.9,473.5H66.7v135.1h12.5
		V486.4c0,0,9-2.2,9,6.9c0,9,0,115.3,0,115.3h13.3V490.3C101.5,474.7,88,473.5,83.9,473.5z M89.2,455.6H0l7.9,19.8v133.2h12.5V468.2
		h63.5c14,0,23,8.6,23,22.1v118.3h11.3c0,0,0-106.3,0-126S101.1,455.6,89.2,455.6z M25.8,608.6h12.3v-122h10.6v122h12.6V473.5H25.8
		V608.6z M471.1,487.8h38.3v120.8h-30.3V507.2L471.1,487.8z M492.5,608.6h5.4V487.9h-5.4V608.6z M359.3,547.3H337v-41.7h22.4
		c10.1,0,15,6.7,15,20.6C374.4,547.3,363,547.3,359.3,547.3z M355.8,535.3c3.2,0,7.7-2.1,7.7-9.5c0-7.8-3.2-10.3-7.7-10.3
		c-4.6,0-6.8,0-6.8,0v19.8C349,535.3,352.7,535.3,355.8,535.3z M571.3,517.6c-10.1,0-20.4,0.7-20.4-7.2s0-9.2,0-17.5
		c0-7.7,11.4-7.3,11.4,0.2v12.1h13v-13.6c0-10.4-7.5-16.9-19.6-16.9c-8,0-17.5,2.7-17.5,15.5v23.6c0,10.7,10.8,15.6,20.8,15.6
		c18.9,0,21.7,10.9,21.7,17.4v27.8c0.1,10.5-6.4,22.8-25,22.8c-15.1,0-23.5-8.8-23.5-24.6v-14.4h5.4v14.4c0,13,5.9,19.3,18.1,19.3
		c18.3,0,19.7-13.3,19.7-17.4v-27.8c0-3,0-12-16.4-12c-15.2,0-26.1-8.8-26.1-21v-23.6c0-13.1,8.6-20.9,22.9-20.9
		c15.1,0,24.9,8.7,24.9,22.2v13.6h14.1c0,0,0-12.9,0-17.9c0.1-19.4-12.9-32.1-36.3-32.1c-31.1,0-39.6,14.8-39.6,30.1
		c0,12.9,0,8.9,0,31.2S542.7,546,550,546c6.4,0,12.4,0.5,12.4,8.2s0,12.1,0,19.8c0,7.8-11.2,7.8-11.2-0.8c0-8.7,0-14.9,0-14.9H519
		c0,0,0,5.3,0,18.3s3.7,33.2,37.1,33.2c33.4,0,38.9-21.6,38.9-32.4c0-10.8,0-17.5,0-35S578.1,517.6,571.3,517.6z M455.1,608.6H466
		V487.9h-10.9V608.6z M437.6,535.3h-13.9v-47.5H387l8,18.5v102.3h11.9V487.9h5.4v57.4h37.4v-57.4h-12.1V535.3z M412.3,608.6h10.2
		v-47h15.6v47h11.6v-57.9h-37.4V608.6z"/>
	<path class="st2" d="M61.3,473.5H25.8v135.1h-5.4V468.2h63.5c14,0,23,8.6,23,22.1v118.3h-5.4V490.3c0-15.6-13.5-16.8-17.6-16.8
		H66.7v135.1h-5.4V473.5z M497.9,487.9h-5.4v120.7h5.4V487.9z M197,590.8h-48.6v-39.4h35V546h-35v-38.7h48.5V502H143v94.2h54V590.8z
		 M412.3,550.7h37.4v57.9h5.4V487.9h-5.4v57.4h-37.4v-57.4h-5.4v120.7h5.4V550.7z M226,505.6h31.3v102.9h5.4V505.7h17.9
		c6.5,0,13.4,4.3,13.4,16.3v86.6h5.4V522c-0.2-15-9.6-21.7-18.9-21.7h-59.9v108.3h5.4V505.6z M359.3,552.6H337h-0.1v56h-5.4V500.2
		h27.8c9.3,0,20.4,4.5,20.4,25.9C379.7,548,368.6,552.6,359.3,552.6z M337,547.3h22.3c3.7,0,15.1,0,15.1-21.1
		c0-13.9-4.9-20.6-15-20.6H337V547.3z M580.7,505.2v-13.6c0-13.5-9.8-22.2-24.9-22.2c-14.3,0-22.9,7.8-22.9,20.9v23.6
		c0,12.2,10.9,21,26.1,21c16.4,0,16.4,9,16.4,12v27.8c0,4.1-1.4,17.4-19.7,17.4c-12.2,0-18.1-6.3-18.1-19.3v-14.4h-5.4v14.4
		c0,15.8,8.4,24.6,23.5,24.6c18.6,0,25.1-12.3,25-22.8v-27.8c0-6.5-2.8-17.4-21.7-17.4c-10,0-20.8-4.9-20.8-15.6v-23.6
		c0-12.8,9.5-15.5,17.5-15.5c12.1,0,19.6,6.5,19.6,16.9v13.6H580.7z M390.3,677.2l6.4,9.7l11.2,54.2l16-3.8l-14.4-64.9L390.3,677.2z
		 M281.3,685.1v18.7l9.5-4.3h7.4L280.5,751h40.1v-14.9h-18.4l18.6-51H281.3z M362.7,733.3l-3.8-51.3l-20.6,1.8l5.8,9.5l4.9,55.6
		l38.2-3.4l-0.4-15.5L362.7,733.3z M460.4,710.5l-3.4-9l12.6-4.8l-5.9-15l-12.2,4.7l-3-9l19.5-7.3l-5.8-14.5l-37.1,13.6l7.7,8.2
		l17.9,52.7l34-12.1l-5.6-14.7L460.4,710.5z M523.3,660.3c-4.1-5.4-11.1-2.8-16,0.6c-5,3.4-6.8,2.9-8.4,0.5
		c-1.6-2.4-2.5-3.7-4.3-6.3c-1.7-2.6,3.7-6.3,5.8-3.3c1.9,3,2.9,4.8,2.9,4.8l11.9-8.1c0,0-2.9-4.2-6.8-9.8s-12.8-4.3-21.4,1.7
		c-8.6,6-12.1,13.5-1.7,27.5c10.3,14,18.9,10.1,22.8,7.3c4-2.7,5.7-2.5,9.6,2.6c0,0,0.7,0.9,2.4,3.3c3,3.5-2.3,8.1-5.3,4.3
		c-3.1-3.8-4-5.4-4-5.4l-11.5,8.7c0,0,2.8,3.7,6.9,9.8c4.1,6.1,13.1,4.9,22.7-2.8c9.5-7.7,7.7-15.9,4.2-21.4
		C529.6,668.9,527.4,665.8,523.3,660.3z M99.2,660.6l12.8,8.7c0,0,2.5-3.7,5.7-9.1c3.1-5.4,2.8-12.8-8.1-20.2
		c-10.8-7.4-18.7-7.8-24.8,1c-6.1,8.8-14.6,21.4-21.2,30.9c-6.6,9.5-4.2,17,4.5,24c8.7,7,19.4,9.6,25.9,0.2
		c6.5-9.4,13.3-19.3,13.3-19.3l-15.4-10.4l-6.1,9.2l2.4,1.6c0,0-2.5,3.5-5,7.2s-10.1,0.7-4.8-6.7c5.3-7.4,14.9-21.2,17.4-25
		c2.6-3.8,8,0,6.2,3.2C100.2,659.1,99.2,660.6,99.2,660.6z M190.2,686.1l-11.7,52.5l15.6,3.5l14.1-65.5l-19.2-3.9L190.2,686.1z
		 M225.6,680.6l-1.1,18.9l9.2-4l8.9,0.5l-23.4,49.8l39.9,5.2l1.3-16.3l-18.3-0.8l24.5-49.9L225.6,680.6z M169.3,687.1
		c-4.2,11.3-10,13.6-10,13.6s2.9,2.3,0.6,9c-2.3,6.7-7.7,21.8-7.7,21.8l-14.6-5.1c0,0,5.9-16.7,7.5-21.6c1.6-4.9-5.1-7.4-6.7-3
		c-1.7,4.4-8.2,21.8-8.2,21.8l-14.8-5.8l19.1-49.5l0.2-13.5c0,0,6.6,2.3,21.3,7.9C170.5,668.2,173.5,675.8,169.3,687.1z
		 M147.7,675.2l-3.9,11.2c0,0,7.5,3.9,10-2.7C156.8,676.1,147.8,675.1,147.7,675.2z"/>
</g>
</svg>
