<?xml version="1.0" encoding="utf-8"?>
<!-- Generator: Adobe Illustrator 25.0.0, SVG Export Plug-In . SVG Version: 6.00 Build 0)  -->
<svg version="1.1" id="Atlanta_Hawks" xmlns="http://www.w3.org/2000/svg" xmlns:xlink="http://www.w3.org/1999/xlink" x="0px"
	 y="0px" viewBox="0 0 623 623" style="enable-background:new 0 0 623 623;" xml:space="preserve">
<style type="text/css">
	.st0{fill:#FFFFFF;}
	.st1{fill:#E03A3E;}
</style>
<g>
	<path class="st0" d="M311.5,0C139.7,0,0,139.7,0,311.5S139.7,623,311.5,623S623,483.3,623,311.5S483.3,0,311.5,0z M311.5,604
		C150.2,604,19,472.8,19,311.5S150.2,19,311.5,19S604,150.2,604,311.5S472.8,604,311.5,604z M494.9,182.9l17-10.9l4.7,7.3l-17,10.9
		l3.5,5.5c6.4-1.7,14-5.1,18.9-7.8c1.6,2.4,3.1,4.9,4.7,7.3c-5.7,3.1-15.1,7.2-22.1,8.5c-1.6,4.2-9.9,11.4-12.5,13.5
		c-1.6-2.4-3.1-4.9-4.7-7.3c1.9-1.5,6.5-5.5,9.6-9.2l-4.1-6.4l-11,7l-4.7-7.3l13.2-8.5l2.7-5.3L494.9,182.9z M103.1,199.9l-6.7-4
		l14.4-23.7l6.7,4l-4.9,8.1l28.4,17.2l-4.5,7.4L108,191.7L103.1,199.9z M155.1,181.9l-30.3-27.6l5.9-6.4l24.6,22.3l8.3-9.2l5.8,5.2
		L155.1,181.9z M311.5,32.5c-153.8,0-279,125.2-279,279s125.2,279,279,279s279-125.2,279-279S465.4,32.5,311.5,32.5z M311.5,577
		C165.1,577,46,457.9,46,311.5S165.1,46,311.5,46S577,165.1,577,311.5S457.9,577,311.5,577z M311.5,130.1
		c-100.2,0-181.4,81.2-181.4,181.4s81.2,181.4,181.4,181.4s181.4-81.2,181.4-181.4S411.7,130.1,311.5,130.1z M311.6,481.6
		c-69.5,0-129.2-41.9-155.2-101.9c84.7-36.9,99.8-36.9,99.8-36.9c-18.4,8.7-30.6,28-30.6,28c25.7-13.7,63.6-27.4,91.9-29.5
		c28.3-2,39.4,4.1,42.9,7.3c3.5,3.2,0.9,10.5,0.9,10.5c7.3-4.4,19-17.2,19-32.4c0-15.2-6.1-24.8-18.7-33.5
		c-12.5-8.8-25.4-19.3-33.8-28.3c-8.5-9-16.4-12.8-46.4-22.5c-10.3-3.3-65.3-19.4-81.8-24.3c-10.5-3-19-5.5-23.5-6.8
		c30.8-41.3,80.1-68.1,135.6-68.1c93.4,0,169.1,75.7,169.1,169.1C480.7,405.9,405,481.6,311.6,481.6z M252.4,260.6
		c13.1-12.2,28.3-1.2,38.2,3.8c9.9,5,19.5,4.1,19.5,4.1c-1.8,21.6-19.3,26.2-34.4,19.8c-15.2-6.4-14-23.3-13.1-26.2
		C263.5,259.1,252.4,260.6,252.4,260.6z M164,142.8l5.5,2.2l9.5,12.4l6.9-5.3l-7.9-10.3l8.1-6.2l7.9,10.3l6.9-5.3l-12.1-15.8
		c-4.3-5.5-10-10.2-16.8-13.7c-0.2,0.2-13.4,10.2-14,10.7c1.6,7.2,4.5,13.7,8.4,19.1L164,142.8z M172.2,120.8
		c3.5,2.6,6.6,5.5,9.2,8.7l-8.1,6.2c-2.5-3.4-4.4-7.1-6-11.2L172.2,120.8z M415.2,122.3l8.8,5.1l-6.5,11.2l7.5,4.4l10.1-17.3
		c3.4-6,5.6-13.1,6.3-20.7c-0.2-0.1-14.5-8.4-15.2-8.8c-6.1,4.2-11,9.3-14.5,15l-2.6-1.5v5.9l-7.9,13.5l7.5,4.4L415.2,122.3z
		 M427.2,105.9l5.2,3c-1,4.2-2.5,8.2-4.5,11.8l-8.8-5.1C421.3,112.1,424,108.8,427.2,105.9z M360,114.2l4.8-15l-1.3-5.8l2.9,0.9
		l6.1-19.2l8.3,2.6l-6.1,19.2l9.7,3.1l6.1-19.2l8.3,2.6l-12.4,39.1l-8.3-2.6l3.9-12.4l-9.7-3.1l-3.9,12.4L360,114.2z M441.4,155.2
		c2.5-7.3,6.3-13.7,11.2-18.7l13.8-14.2l6.2,6.1L459.4,142c-3.3,3.3-6.2,7.2-8.5,11.6l2.6,2.5c4.5-2.3,8.4-5.1,11.8-8.3l13.3-13.6
		l6.2,6.1l-13.5,13.8c-3,3.4-5.7,7.4-7.8,11.8l2.6,2.5c4.3-2.5,8.2-5.4,11.4-8.8l13.2-13.6l6.2,6.1l-13.8,14.2
		c-4.9,5-11.2,9-18.4,11.7c-0.1-0.1-10-9.8-10.6-10.3c0.3-1.2,0.8-2.3,1.2-3.5c-1.1,0.4-2.3,0.9-3.5,1.3
		C451.3,164.9,441.4,155.3,441.4,155.2z M95.9,249.7l5.8-1.1l14.7,5.3l3-8.2l-12.2-4.4l3.5-9.6l12.2,4.4l3-8.2l-18.7-6.8
		c-6.5-2.3-13.9-3.2-21.5-2.5c-0.1,0.2-5.7,15.8-6,16.5c5.2,5.2,11.2,9.1,17.4,11.6L95.9,249.7z M89.1,232.5l2.1-5.7
		c4.3,0.2,8.5,1,12.4,2.3l-3.5,9.5C96.3,237,92.6,235,89.1,232.5z M302.6,108.6l-0.1-12.9l10.2-0.1l0.1,12.9l8.7-0.1l-0.2-15.6
		l3-5.1h-3c-0.3-6.7-2-13.6-5.2-20.2c-0.8,0-17.4,0.2-17.6,0.2c-3.1,7-4.7,14.2-4.7,21.2l0.2,19.9L302.6,108.6z M304.3,75.5l6.1-0.1
		c1.3,4.2,2,8.4,2.2,12.5L302.5,88C302.6,83.9,303.2,79.7,304.3,75.5z M216,132.1l-16.6-37.5l8-3.5l14.4,7.3L216.7,87l8-3.5
		l16.6,37.5l-8,3.5l-5.2-11.7l-14.6-7.9l10.6,23.8L216,132.1z M248.7,83.7l-1.7-7.6l27-6.2l1.7,7.6l-9.3,2.1l7.4,32.4l-8.5,1.9
		l-7.4-32.4L248.7,83.7z M519.9,223.6c5.9-2.3,10.4-4.2,17.5-4.2c0.6,1.5,9.2,23.5,9.2,23.5l-10.3,4l-3.2-8.1l3-1.2l-3.5-9.1
		c-1.5,0.3-3,0.7-4.5,1.1l-2,21.2c-6.3,2.4-11.2,4.5-18.6,4.6c-0.4-1-9.2-23.5-9.2-23.5l10.3-4l3.2,8.1l-3,1.2l3.5,9
		c1.8-0.3,3.5-0.8,5.2-1.3L519.9,223.6z M480.9,472l7.4,8.1l-20.1,18.3l-27.6-30.3c0,0,17.8-16.2,18.6-16.9c2.2,1.5,5.4,4.2,8.7,7.3
		l-6.4,5.9c-0.9-0.8-1.8-1.6-2.6-2.4l-6.6,6l17.1,18.8l7.3-6.6l-2.2-2.4L480.9,472z M271.7,510.5l-2.2,16.5l-3.1-0.4l2.4,5.7
		l-2.5,18.9c0,0,25.1,3.4,26.9,3.6c1-6.6,0.9-13.6-0.1-20.6c3.4-6.3,4.5-11.6,5.6-20C296.9,513.9,271.7,510.5,271.7,510.5z
		 M285.2,545.8l-9.3-1.2l1.2-8.7l7.8,1C285.2,539.9,285.3,542.9,285.2,545.8z M286.3,529.2l-8.1-1.1l1.2-8.7l9.5,1.3
		C288.2,523.7,287.4,526.4,286.3,529.2z M336.8,512.6c-0.2,0-16.7,1.6-17.5,1.7c-2.4,6.9-3.4,14-3,20.7l-3,0.3l3.5,4.8l1.5,15.5
		l8.7-0.8l-1.3-12.9l10.1-1l1.3,12.9l8.7-0.8l-2-19.8C343.1,526.2,340.7,519.2,336.8,512.6z M325,534.2c-0.3-4.1,0-8.4,0.8-12.6
		l6-0.6c1.6,4,2.7,8.1,3.2,12.2L325,534.2z M509,441.9l6.2,4.7l-12.6,16.9L469.7,439l5.2-7l26.6,19.9L509,441.9z M443.4,312.5
		c0,72.8-59,131.8-131.8,131.8c-36.9,0-70.3-15.2-94.2-39.6c68.3-35.2,110.8-26.1,110.8-19.3c0,7-10.5,23.3-10.5,23.3
		c55.7-7.9,96.2-41.4,96.2-86.6s-42.3-67.1-53.1-73.8c-11.5-7.2-6.1-16.9-44-31.2c-23.1-8.7-55.4-17.3-68.1-20.5
		c18.7-10.2,40.1-15.9,62.9-15.9C384.4,180.7,443.4,239.7,443.4,312.5z M388.1,535.1l2,7.5l-20.3,5.5L359,508.6l8.4-2.3l8.7,32
		L388.1,535.1z M426.8,517.6l3.4,7l-18.9,9.3l-18-36.8l7.8-3.8l14.6,29.8L426.8,517.6z M138.1,431.4c-1.4,0.7-2.8,1.5-4.1,2.3
		l3.8,21c-5.4,4.1-9.5,7.4-16.6,9.5C120.5,463.3,106,444,106,444l8.8-6.6l5.2,7l-2.6,1.9l5.8,7.7c1.6-0.9,3.2-1.7,4.7-2.7l-3.4-21.2
		c5-3.8,8.9-6.9,15.7-8.8c1,1.3,15.2,20.2,15.2,20.2l-8.8,6.6l-5.2-7l2.6-1.9L138.1,431.4z M130.3,402.2c0-0.2-7-15.3-7.3-16
		c-7.4,0-14.3,1.4-20.5,4l-1.3-2.8l-3.4,4.9l-14.2,6.5l3.6,7.9l11.8-5.4l4.2,9.2l-11.8,5.4l3.6,7.9l18.1-8.3
		C119.3,412.5,125.2,408,130.3,402.2z M106,398.1c3.8-1.7,7.9-2.8,12.2-3.4l2.5,5.5c-3.3,2.9-6.8,5.3-10.5,7.1L106,398.1z
		 M532.4,347.4c-6-4-11.2-5.5-19.5-7.3c-0.4,1.8-5.9,26.6-5.9,26.6l16.2,3.6l-0.7,3.1l5.9-1.9l18.6,4.1c0,0,5.5-24.8,5.9-26.5
		C546.4,347.5,539.4,346.9,532.4,347.4z M525.1,361.7l-8.6-1.9l2.1-9.4c3,0.9,5.6,1.9,8.3,3.3L525.1,361.7z M541.3,365.3l-8.6-1.9
		l1.7-7.7c3,0,6,0.1,8.9,0.5L541.3,365.3z M536.7,405.5c-0.4,0.8-7.3,16.1-7.4,16.3c-7.7,0.1-15-1.3-21.4-4.2l-18-8.1l3.6-7.9
		l17.3,7.8c4.2,2,8.9,3.3,13.8,4l2.6-5.8c-3.8-3.2-7.8-5.9-12.1-7.7l-17.3-7.8l3.6-7.9l18,8.1C525.8,395.2,531.7,399.7,536.7,405.5z
		 M115.9,366.6c-0.4-1.8-5.6-26.7-5.6-26.7l-16.2,3.4l-0.6-3.1l-4.6,4.2l-18.7,3.9c0,0,5.2,24.8,5.6,26.6c6.6-1.3,13.1-3.7,19.4-7
		C102.2,369.1,107.6,368.4,115.9,366.6z M104.5,350.1l2,9.4c-3.1,0.4-5.9,0.6-8.9,0.4l-1.7-8L104.5,350.1z M81.6,364.5l-1.9-9.2
		l8.6-1.8l1.6,7.7C87.1,362.5,84.4,363.6,81.6,364.5z M187,472c-4.6,4.6-12.6,11-19,14.1c-0.4,4.5-6.4,13.6-8.4,16.4
		c-2.2-1.9-4.3-3.9-6.5-5.8c1.4-1.9,4.8-7,6.8-11.4l-5.6-5.1l-8.7,9.7l-6.5-5.8l10.5-11.7l1.2-5.8l2.2,2l13.5-15l6.5,5.8l-13.5,15
		l4.9,4.4c5.8-3.4,12.2-8.7,16.2-12.6C182.7,468.2,184.9,470.1,187,472z M233.6,499.3l26.2,9l-2.5,7.4l-9-3.1L237.5,544l-8.2-2.8
		l10.8-31.4l-9-3.1L233.6,499.3z M199.1,480.7l23.6,13.6l-3.9,6.8l-16.1-9.2l-4.4,7.6l9.9,5.7l-3.9,6.8l-9.9-5.7l-4.4,7.6l16.1,9.2
		l-3.9,6.8l-23.6-13.6l9.4-16.4l-0.1-6.4l2.8,1.6L199.1,480.7z"/>
	<path class="st1" d="M311.5,46C165.1,46,46,165.1,46,311.5S165.1,577,311.5,577S577,457.9,577,311.5S457.9,46,311.5,46z
		 M546.6,242.8l-10.3,4l-3.2-8.1l3-1.2l-3.5-9.1c-1.5,0.3-3,0.7-4.5,1.1l-2,21.2c-6.3,2.4-11.2,4.5-18.6,4.6
		c-0.4-1-9.2-23.5-9.2-23.5l10.3-4l3.2,8.1l-3,1.2l3.5,9c1.8-0.3,3.5-0.8,5.2-1.3l2.4-21.4c5.9-2.3,10.4-4.2,17.5-4.2
		C538,220.7,546.6,242.7,546.6,242.8z M511.9,172l4.7,7.3l-17,10.9l3.5,5.5c6.4-1.7,14-5.1,18.9-7.8c1.6,2.4,3.1,4.9,4.7,7.3
		c-5.7,3.1-15.1,7.2-22.1,8.5c-1.6,4.2-9.9,11.4-12.5,13.5c-1.6-2.4-3.1-4.9-4.7-7.3c1.9-1.5,6.5-5.5,9.6-9.2l-4.1-6.4l-11,7
		l-4.7-7.3l13.2-8.5l2.7-5.3l1.6,2.5L511.9,172z M466.4,122.4l6.2,6.1l-13.2,13.6c-3.3,3.3-6.2,7.2-8.5,11.6l2.6,2.5
		c4.5-2.3,8.4-5.1,11.8-8.3l13.3-13.6l6.2,6.1l-13.5,13.8c-3,3.4-5.7,7.4-7.8,11.8l2.6,2.5c4.3-2.5,8.2-5.4,11.4-8.8l13.2-13.6
		l6.2,6.1l-13.8,14.2c-4.9,5-11.2,9-18.4,11.7c-0.1-0.1-10-9.8-10.6-10.3c0.3-1.2,0.8-2.3,1.2-3.5c-1.1,0.4-2.3,0.9-3.5,1.3
		c-0.6-0.6-10.4-10.3-10.6-10.4c2.5-7.3,6.3-13.7,11.2-18.7L466.4,122.4z M408.9,109.8l2.6,1.5c3.6-5.7,8.5-10.8,14.5-15
		c0.7,0.4,15,8.7,15.2,8.8c-0.7,7.6-2.9,14.7-6.3,20.7l-10,17.2l-7.5-4.4l6.5-11.2l-8.8-5.1l-6.5,11.2l-7.5-4.4l7.9-13.5
		L408.9,109.8z M363.4,93.4l2.9,0.9l6.1-19.2l8.3,2.6l-6.1,19.2l9.7,3.1l6.1-19.2l8.3,2.6l-12.4,39.1l-8.3-2.6l3.9-12.4l-9.7-3.1
		l-3.9,12.4l-8.3-2.6l4.8-15L363.4,93.4z M298.6,67.8c0.2,0,16.8-0.2,17.6-0.2c3.2,6.6,4.9,13.5,5.2,20.2h3l-3,5.1l0.2,15.6
		l-8.7,0.1l-0.1-12.9l-10.2,0.1l0.1,12.9l-8.7,0.1l-0.2-19.9C293.8,82,295.4,74.7,298.6,67.8z M274,69.9l1.7,7.6l-9.3,2.1l7.4,32.4
		l-8.5,1.9l-7.4-32.4l-9.3,2.1l-1.7-7.6L274,69.9z M207.4,91.2l14.4,7.3l-5.1-11.4l8-3.5l16.6,37.5l-8,3.5l-5.2-11.7l-14.6-7.9
		l10.6,23.8l-8,3.5l-16.6-37.5L207.4,91.2z M172,111c6.8,3.5,12.5,8.2,16.8,13.7l12.1,15.8l-6.9,5.3l-7.9-10.3l-8.1,6.2l7.9,10.3
		l-6.9,5.3l-9.5-12.4l-5.5-2.2l2.4-1.8c-3.9-5.4-6.8-11.9-8.4-19.1C158.6,121.3,171.8,111.3,172,111z M130.7,148l24.6,22.3l8.3-9.2
		l5.8,5.2l-14.2,15.6l-30.3-27.6L130.7,148z M110.7,172.2l6.7,4l-4.9,8.1l28.4,17.2l-4.5,7.4L108,191.7l-4.9,8.1l-6.7-4L110.7,172.2
		z M86,218.6c7.6-0.7,14.9,0.2,21.5,2.5l18.7,6.8l-3,8.2l-12.2-4.4l-3.5,9.6l12.2,4.4l-3,8.2l-14.7-5.3l-5.8,1.1l1-2.9
		c-6.3-2.5-12.2-6.4-17.4-11.6C80,234.4,85.7,218.8,86,218.6z M70.3,348.3l18.7-3.9l4.6-4.2l0.6,3.1l16.2-3.4c0,0,5.2,24.9,5.6,26.7
		c-8.4,1.8-13.7,2.5-20.8,1.4c-6.3,3.3-12.8,5.7-19.4,7C75.4,373.2,70.2,348.4,70.3,348.3z M91.3,415.9l11.8-5.4l-4.2-9.2l-11.8,5.4
		l-3.6-7.9l14.2-6.5l3.4-4.9l1.3,2.8c6.2-2.7,13.2-4,20.5-4c0.3,0.7,7.2,15.8,7.3,16c-5,5.8-10.8,10.3-17.1,13.3L95,423.8
		L91.3,415.9z M137.8,454.7c-5.4,4.1-9.5,7.4-16.6,9.5C120.5,463.3,106,444,106,444l8.8-6.6l5.2,7l-2.6,1.9l5.8,7.7
		c1.6-0.9,3.2-1.7,4.7-2.7l-3.4-21.2c5-3.8,8.9-6.9,15.7-8.8c1,1.3,15.2,20.2,15.2,20.2l-8.8,6.6l-5.2-7l2.6-1.9l-5.8-7.8
		c-1.4,0.7-2.8,1.5-4.1,2.3L137.8,454.7z M159.5,502.6c-2.2-1.9-4.3-3.9-6.5-5.8c1.4-1.9,4.8-7,6.8-11.4l-5.6-5.1l-8.7,9.7l-6.5-5.8
		l10.5-11.7l1.2-5.8l2.2,2l13.5-15l6.5,5.8l-13.5,15l4.9,4.4c5.8-3.4,12.2-8.7,16.2-12.6c2.2,1.9,4.3,3.9,6.5,5.8
		c-4.6,4.6-12.6,11-19,14.1C167.6,490.6,161.6,499.8,159.5,502.6z M219,501.1l-16.1-9.2l-4.4,7.6l9.9,5.7l-3.9,6.8l-9.9-5.7
		l-4.4,7.6l16.1,9.2l-3.9,6.8l-23.6-13.6l9.4-16.4l-0.1-6.4l2.8,1.6l8.3-14.4l23.6,13.6L219,501.1z M257.4,515.8l-9-3.1l-10.8,31.4
		l-8.2-2.8l10.8-31.4l-9-3.1l2.5-7.4l26.2,9L257.4,515.8z M293.2,554.9c-1.8-0.2-26.9-3.6-26.9-3.6l2.5-18.9l-2.4-5.7l3.1,0.4
		l2.2-16.5c0,0,25.2,3.4,27,3.6c-1.1,8.4-2.2,13.7-5.6,20C294.1,541.2,294.1,548.1,293.2,554.9z M337.1,553.9l-1.3-12.9l-10.1,1
		l1.3,12.9l-8.7,0.8l-1.5-15.5l-3.5-4.8l3-0.3c-0.4-6.7,0.6-13.8,3-20.7c0.8-0.1,17.3-1.7,17.5-1.7c3.9,6.6,6.3,13.6,7,20.5l2,19.8
		L337.1,553.9z M369.9,548.3l-10.8-39.6l8.4-2.3l8.7,32l11.9-3.3l2,7.5L369.9,548.3z M411.3,533.8l-18-36.8l7.8-3.8l14.6,29.8
		l11.1-5.4l3.4,7L411.3,533.8z M311.5,492.9c-100.2,0-181.4-81.2-181.4-181.4s81.2-181.4,181.4-181.4s181.4,81.2,181.4,181.4
		S411.7,492.9,311.5,492.9z M468.2,498.4l-27.6-30.3c0,0,17.8-16.2,18.6-16.9c2.2,1.5,5.4,4.2,8.7,7.3l-6.4,5.9
		c-0.9-0.8-1.8-1.6-2.6-2.4l-6.6,6l17.1,18.9l7.3-6.6l-2.2-2.4l6.4-5.9l7.4,8.1L468.2,498.4z M502.7,463.3l-32.9-24.5l5.2-7
		l26.6,19.9l7.4-9.9l6.2,4.7L502.7,463.3z M529.3,421.7c-7.7,0.1-15-1.3-21.4-4.2l-18-8.1l3.6-7.9l17.3,7.8c4.2,2,8.9,3.3,13.8,4
		l2.6-5.8c-3.7-3.2-7.8-5.8-12.1-7.7l-17.3-7.8l3.6-7.9l18,8.1c6.4,2.9,12.3,7.5,17.3,13.3C536.4,406.4,529.5,421.7,529.3,421.7z
		 M528.4,371.4l-5.9,1.9l0.7-3.1l-16.2-3.6c0,0,5.5-24.8,5.9-26.6c8.3,1.8,13.5,3.3,19.5,7.3c7-0.4,14,0.2,20.5,1.7
		c-0.4,1.7-5.9,26.5-5.9,26.5L528.4,371.4z M311.7,143.2c-55.5,0-104.8,26.8-135.6,68.1c4.5,1.3,13,3.8,23.5,6.8
		c16.5,4.9,71.5,21,81.8,24.3c30,9.7,37.9,13.5,46.4,22.5c8.4,9,21.3,19.5,33.8,28.3c12.6,8.7,18.7,18.3,18.7,33.5
		c0,15.2-11.7,28-19,32.4c0,0,2.6-7.3-0.9-10.5c-3.5-3.2-14.6-9.3-42.9-7.3c-28.3,2.1-66.2,15.8-91.9,29.5c0,0,12.2-19.3,30.6-28
		c0,0-15.1,0-99.8,36.9c26,60,85.7,101.9,155.2,101.9c93.4,0,169.1-75.7,169.1-169.1S405,143.3,311.7,143.2z M311.6,444.3
		c-36.9,0-70.3-15.2-94.2-39.6c68.3-35.3,110.8-26.2,110.8-19.3c0,7-10.5,23.3-10.5,23.3c55.6-7.9,96.2-41.4,96.2-86.6
		c0-45.2-42.3-67.1-53.1-73.8c-11.5-7.2-6.1-16.9-44-31.2c-23.1-8.7-55.4-17.3-68.1-20.5c18.7-10.1,40.1-15.9,62.9-15.9
		c72.8,0,131.8,59,131.8,131.8S384.4,444.3,311.6,444.3z M534.4,355.7c3,0,6,0.2,8.9,0.5l-2,9.1l-8.6-1.9L534.4,355.7z M312.6,87.9
		L302.5,88c0.1-4.1,0.7-8.3,1.9-12.5l6-0.1C311.7,79.6,312.5,83.8,312.6,87.9z M262.6,262.1c0.9-2.9-10.2-1.5-10.2-1.5
		c13.1-12.2,28.3-1.2,38.2,3.8c9.9,5,19.5,4.1,19.5,4.1c-1.7,21.5-19.2,26.2-34.4,19.8C260.6,281.8,261.7,264.9,262.6,262.1z
		 M284.9,536.8c0.3,3,0.4,6,0.3,8.9l-9.3-1.2l1.2-8.7L284.9,536.8z M331.9,520.9c1.6,4,2.7,8.1,3.2,12.2l-10.1,1
		c-0.3-4.1,0-8.3,0.8-12.6L331.9,520.9z M311.5,19C150.2,19,19,150.2,19,311.5S150.2,604,311.5,604S604,472.8,604,311.5
		S472.8,19,311.5,19z M311.5,590.5c-153.8,0-279-125.2-279-279s125.2-279,279-279s279,125.2,279,279S465.3,590.5,311.5,590.5z
		 M428,120.8l-8.8-5.1c2.1-3.5,4.8-6.8,8-9.8l5.2,3C431.4,113.1,429.9,117.1,428,120.8z M120.6,400.2c-3.3,2.9-6.8,5.3-10.5,7.1
		l-4.2-9.2c3.8-1.7,7.9-2.8,12.2-3.4L120.6,400.2z M97.6,359.9l-1.7-8l8.6-1.8l2,9.4C103.4,359.9,100.6,360.1,97.6,359.9z
		 M100,238.6c-3.8-1.5-7.5-3.6-11-6.2l2.1-5.7c4.3,0.2,8.5,1,12.4,2.3L100,238.6z M279.3,519.4l9.5,1.3c-0.6,3-1.4,5.8-2.6,8.5
		l-8.1-1.1L279.3,519.4z M518.6,350.4c3,0.9,5.6,1.9,8.3,3.3l-1.8,8l-8.6-1.9L518.6,350.4z M173.3,135.7c-2.5-3.4-4.4-7.1-6-11.2
		l4.8-3.7c3.5,2.6,6.6,5.5,9.2,8.7L173.3,135.7z M88.2,353.5l1.6,7.7c-2.7,1.3-5.5,2.4-8.3,3.3l-1.9-9.2L88.2,353.5z"/>
</g>
</svg>
