<?xml version="1.0" encoding="utf-8"?>
<!-- Generator: Adobe Illustrator 25.0.1, SVG Export Plug-In . SVG Version: 6.00 Build 0)  -->
<svg version="1.1" id="Layer_1" xmlns="http://www.w3.org/2000/svg" xmlns:xlink="http://www.w3.org/1999/xlink" x="0px" y="0px"
	 viewBox="0 0 976.2 440.8" style="enable-background:new 0 0 976.2 440.8;" xml:space="preserve">
<style type="text/css">
	.st0{fill:#FFFFFF;}
	.st1{fill:#C4CED4;}
</style>
<g id="XMLID_1_">
	<path class="st0" d="M537.8,93l-21.7,38.8l-4,29.1l-32.6,58h-29.9l29.4-51.9V93.3h-47l-21.1,38.5l-3.7,29.4l-51.3,91.7l7.8,20.3
		l-9.9-10.7l4,55.1l-59.6,2.7l48.1,34.2l-33.9,50.3l55.6-18.2l22.5,54.3l16.8-58.3l62.5,16l-40.6-47l48.6-40.4l-43.3,2.7l28.6-32.3
		h56.1l64.2-113.3V93.3h-45.4V93z M576,166.3l-60.9,108h-55.3l-42,47.6l38.8-2.4l-37.4,31l30.5,35l-47-12l-13.4,46l-17.4-42
		l-42.2,13.6l26.2-39l-36.9-25.9l46.5-2.1l-3.2-42.5l26.7,28.9l14.2-36.1h-31.3l-8.6-20.8l50.5-89.8l2.9-28.3l19-34.7h35.8v65.2
		L437,226.7h46.2l35.3-63.1l3.2-28.3l19.8-35h34.2v66H576z M371.6,281.7h21.4l-6.4,16L371.6,281.7z"/>
	<path d="M293.8,73c-4,0.5-8.3,1.1-12.3,1.3v-62c5.1-0.5,9.9-1.3,14.7-1.6c7.2,13.1,14.7,25.9,21.7,38.8V8.6c4-0.5,8.3-0.8,12.3-1.3
		v62c-5.1,0.5-9.9,1.1-15,1.6c-7.2-13.1-14.2-26.2-21.4-39.3V73z M387.9,65c-4.5,0.5-8.8,0.5-13.1,0.8c5.6-20.8,11.5-42,17.1-63.1
		c6.7-0.5,13.4-0.5,20.6-0.5c5.6,20.6,11.5,40.6,17.1,61.2c-4.8,0-9.6,0.3-14.2,0.5c-1.3-4.5-2.4-9.1-3.7-13.9
		c-6.7,0.5-13.4,0.5-20.3,1.1C390.3,55.6,389.2,60.4,387.9,65z M394,40.1c5.1-0.3,9.9-0.5,15-0.5c-2.7-9.9-5.1-19.8-7.5-29.7
		C398.8,19.8,396.4,30.2,394,40.1z M535.4,62.5c4.5,0.5,9.4,0.5,13.9,0.5V12.3c5.6,0.5,11.5,0.5,16.8,0.8V2.4
		c-16-0.8-31.8-1.3-47.8-1.6v10.7c5.9,0,11.5,0.5,16.8,0.5v50.5H535.4z M953.5,241.9c-6.7-2.1-13.4-4-20-6.1
		c-18.4-5.3-36.9-10.4-55.3-15c-2.1-0.5-4-1.1-5.9-1.3v-46.8c2.7,0.8,5.3,1.3,8,2.1c15,4,30.5,7.8,45.4,12.3
		c2.4,0.5,5.3,1.3,7.8,2.4v25.1c14.2,4,27.8,8.6,41.7,12.8v-31.3c-4.8-10.2-9.6-20.3-14.4-30.5c-3.7-1.1-7.2-2.4-11-3.2l-0.5-0.3
		c-29.7-9.4-59.6-17.6-89.8-24.6c-1.1-0.3-2.1-0.5-3.2-0.8c-4-1.1-7.8-1.9-11.5-2.9c-5.1,7.8-10.4,15.5-15.2,23.3v62.3
		c7.8,9.4,15,18.7,22.7,27.8c6.1,1.6,12.6,3.2,18.7,4.5c19,5.1,38,10.2,56.9,15.5c2.1,0.5,4,1.3,5.9,1.6V317
		c-2.4-0.5-5.3-1.3-7.8-2.4c-15.8-4.5-31.5-8.6-47-12.8c-2.7-0.5-5.3-1.3-8-2.1v-25.1c-14.2-3.7-28.1-6.9-42.2-10.2v31
		c4.8,9.6,9.6,19.5,15,29.4c3.5,0.5,7.5,1.6,11,2.4c1.3,0.3,2.4,0.5,3.5,0.8c30.7,7.5,61.5,15.5,91.7,25.1c4,1.1,7.5,2.4,11,3.2
		c5.1-6.9,14.7-21.7,14.7-21.7c0.8,0.8,0.8-41.7,0.8-63.1C968.2,262,960.7,251.8,953.5,241.9z M461.9,20.6
		c7.2,13.9,14.4,27.3,21.4,41.2h15V0H486v41.2c-7.2-13.9-14.7-27.3-21.9-40.9c-4.8,0-9.6,0.3-14.4,0.3v62c4,0,8-0.3,12.3-0.3
		L461.9,20.6L461.9,20.6z M668.8,30.2c6.9,14.7,14.2,29.1,21.4,44.1c4.8,0.5,9.6,1.3,14.4,1.9v-62c-4-0.5-8-1.1-12.3-1.6v40.9
		c-7.2-14.4-14.2-28.9-21.4-43.3c-5.1-0.5-9.6-1.1-14.7-1.3v62c4,0.5,8.3,0.5,12.3,1.3v-42H668.8z M223.7,82.6
		c-4.5,0.5-8.8,1.3-13.1,2.1c5.9-21.4,11.5-43,17.1-64.4l0,0c6.9-1.1,13.4-2.1,20.3-3.2c5.9,19.5,11.5,39.6,17.1,59.3
		c-4.5,0.8-9.6,1.3-14.2,2.1c-1.3-4.3-2.4-8.8-3.5-13.1c-6.9,1.1-13.6,2.1-20.3,3.2C226.1,73,225.1,77.8,223.7,82.6z M229.9,57.2
		c5.1-0.5,10.2-1.3,15-2.4c-2.4-9.6-4.8-19.2-7.5-28.6C235,36.9,232.6,47,229.9,57.2z M194.6,79.1V58.3c-2.7-2.1-4.8-4-7.5-5.9
		c-2.4,0.5-4.5,0.5-6.9,1.3c-6.1,1.1-12,2.4-17.9,3.5c-0.8,0-1.3,0.3-2.1,0.5V42.5c0.8-0.3,1.9-0.3,2.4-0.5c5.1-1.1,9.9-1.9,15-2.9
		c0.8-0.3,1.9-0.3,2.7-0.5v8c4.5-0.5,9.1-1.6,13.9-2.4v-9.9c-1.6-2.7-3.2-5.1-5.1-7.5c-1.1,0.3-2.4,0.3-3.5,0.5h-0.3
		c-9.9,1.9-19.5,3.7-29.4,5.9c-0.3,0-0.8,0.3-1.1,0.3c-1.3,0.3-2.4,0.5-3.5,0.5c-1.3,3.5-3.2,6.4-5.1,9.9v20.3
		c2.7,1.9,5.1,3.7,7.5,5.9l6.1-1.3c6.1-1.3,12.3-2.4,18.4-3.7c0.8,0,1.3-0.3,2.1-0.3v15.5c-0.5,0.3-1.6,0.3-2.4,0.5
		c-5.1,1.1-10.4,2.1-15.5,2.9c-0.5,0.3-1.6,0.3-2.4,0.5v-8c-4.5,1.1-9.4,1.6-13.6,2.7V89c1.6,2.4,3.2,4.8,5.1,7.2
		c1.3-0.3,2.4-0.5,3.5-0.5c0.5,0,0.8-0.3,1.3-0.3c10.2-2.1,19.8-4,29.7-5.9c1.3-0.3,2.7-0.5,3.7-0.5C191.1,85.5,193,82.3,194.6,79.1
		z M771.2,220.8c5.1,4,10.2,7.5,15.5,11V313c-13.6-2.4-27-4.8-40.6-6.9c-0.8,0-1.3-0.5-2.4-0.5v-74.8c-7.5-0.8-14.7-2.4-22.2-3.2
		c-3.5-0.5-7.5-1.1-11-1.3c-11-1.3-22.2-3.2-33.1-4.3v74.8c-14.2-1.9-28.6-3.2-43-4.5V100.8c41.7,3.7,83.4,9.6,124.6,16.6
		c9.1,10.4,17.9,21.1,27,31.5v66C781.1,217.1,776.3,218.7,771.2,220.8z M743.6,144.6c-3.2-0.5-6.4-1.1-9.6-1.3
		c-19-3.2-37.7-5.9-56.7-8v56.4c18.7,2.1,37.4,4.8,56.1,7.8c3.2,0.5,7,1.1,10.2,1.9V144.6z M322.9,226.7c-3.7,0.5-7.8,0.5-11.5,1.3
		c-1.3,0.3-2.4,0.3-3.7,0.5c-25.1,3.2-50.8,6.9-76.2,10.7v66.8c-14.2,2.4-28.6,4.8-42.8,7.8V122.4c39.6-7.5,79.1-13.6,119-18.2
		c1.3-0.3,2.4-0.3,3.7-0.5l0,0c3.7-0.5,7.8-1.1,11.5-1.9c5.9,8.6,11.2,17.6,16.6,26.5V197C333.9,206.9,328.5,216.5,322.9,226.7z
		 M296.4,135.8c-3.5,0.5-6.4,0.5-9.9,1.3c-18.4,2.4-36.6,4.8-55.1,7.8v63.9c18.2-2.9,36.6-5.6,55.1-8c3.5-0.5,6.4-0.5,9.9-1.3v-54
		V135.8z M636.2,59.1c-1.6,2.9-3.5,5.9-5.3,8.6c-1.3,0-2.4-0.3-3.7-0.3c-10.2-1.1-19.8-1.6-29.7-2.4h-1.3c-1.3,0-2.7-0.5-4-0.5
		c-1.9-2.9-3.5-6.4-5.3-9.4V12c1.9-2.9,3.5-5.9,5.3-8.6c1.3,0,2.4,0.3,4,0.3h1.3c9.9,0.8,19.5,1.3,29.7,2.4c1.3,0,2.4,0.3,3.7,0.3
		c1.9,3.2,3.7,6.4,5.3,9.6V59.1z M622.3,15.8c-1.3,0-2.4-0.3-3.5-0.3c-5.1-0.3-9.6-0.5-14.7-1.1c-1.3,0-2.4-0.3-3.5-0.3v41.4
		c1.3,0,2.4,0.3,3.5,0.3c5.1,0.3,9.6,0.5,14.7,1.1c1.3,0,2.4,0.3,3.5,0.3V19.5V15.8z M103.4,218.9c-18.4,4.8-37.2,9.9-55.3,15
		c-2.1,0.5-4,1.3-5.9,1.9v-46.5c2.9-0.8,5.3-1.6,8.3-2.4c15-4.5,30.2-8.6,45.2-12.3c2.4-0.8,5.3-1.3,7.8-2.1v25.4
		c14.2-3.7,28.3-6.9,42.2-10.2v-30.7c-5.1-7.2-9.6-14.7-15-22.5c-3.5,0.8-7.2,1.9-10.7,2.7h-0.5c-29.7,7.2-59.9,15.2-89.5,24.3
		c-1.1,0.3-2.1,0.5-3.2,1.1c-3.7,1.1-7.5,2.1-11.2,3.5c-5.1,10.4-10.2,21.1-15,31.3v62c7.5,5.1,15,10.4,22.5,15.8
		c6.1-1.9,12.3-4,18.4-5.6c19-5.9,38-10.7,56.9-15.8c2.1-0.5,4-1.1,6.1-1.3v48.1c-2.4,0.5-5.3,1.3-7.8,2.1c-15.8,4-31.5,8-47,12.8
		c-2.7,0.5-5.3,1.3-8,2.4v-25.1c-13.9,4-27.8,8.6-41.7,12.8v31c5.1,6.9,9.6,14.2,14.7,21.1c3.5-1.1,7.2-2.4,11-3.2
		c1.3-0.5,2.4-0.8,3.7-1.1c30.2-9.4,60.7-17.6,91.4-24.9c4-1.1,7.5-1.9,11.5-2.7c5.1-9.9,9.9-20,15-29.7V232
		c-7.5-5.9-15-12-22.5-17.6C117.1,215.4,110.1,217.3,103.4,218.9z M759.7,74.3c-3.7-0.5-6.9-1.1-10.4-1.6V29.9
		c3.5,0.5,6.9,1.1,10.4,1.6v-9.4c-11.5-1.6-23.3-3.5-34.7-5.3v9.6c3.7,0.5,6.9,1.1,10.4,1.6v42.8c-3.5-0.5-6.9-1.1-10.4-1.6v9.6
		c11.5,1.6,23.3,3.2,34.7,5.3V74.3z M828.6,87.1c-1.3,2.9-3.2,5.3-5.1,8.3c-1.3-0.3-2.7-0.5-4-0.8c-9.6-2.1-19.5-3.7-29.7-5.6
		c-0.5,0-0.8-0.3-1.3-0.3c-1.3-0.3-2.4-0.5-3.7-0.8c-1.6-3.2-3.2-6.7-5.1-9.9V34.5c1.6-2.9,3.2-5.6,5.1-8.3c1.3,0.3,2.4,0.5,3.7,0.8
		c0.5,0,0.8,0.3,1.3,0.3c10.2,1.9,19.8,3.7,29.7,5.9c1.3,0.3,2.4,0.5,4,0.5c1.3,3.2,3.2,6.9,5.1,10.4V87.1z M815.3,42.2
		c-1.3-0.3-2.4-0.5-3.7-0.5c-4.8-1.1-9.6-1.9-14.4-2.9c-1.3-0.3-2.4-0.5-3.7-0.8v41.4c1.3,0.3,2.4,0.5,3.7,0.8
		c4.8,1.1,9.6,1.6,14.4,2.7c1.3,0.3,2.4,0.5,3.7,0.8V46V42.2z M541.6,100.5h34.2v65.8l-60.9,108h-55.1l-42,47.6l38.8-2.4l-37.4,31
		l30.5,35l-47-12l-13.4,46l-17.4-42l-42.2,13.6l26.2-39l-36.9-25.9l46.5-2.1l-3.2-42.5l26.7,28.9l14.2-36.1h-31.3l-8.6-20.8
		l50.5-89.8l2.9-28.3l19-34.7h35.8v65.2L437,226.7h46.2l35.3-63.1l3.2-28.3L541.6,100.5z M429.6,131.8h18.2l11.2-21.7h-17.1
		L429.6,131.8z M425,159.6h16.3l1.6-18.7h-16L425,159.6z M543.7,171.1h-16.8l-36.6,64.2h-87.9l36.9-64.2h-17.1l-44.4,77.8h48.9
		l-36.4,81.8l-16-17.4l1.6,21.9l-24.1,1.1l19.2,13.6l-13.4,20.3l21.9-7.2l9.1,21.7l6.9-23.8l24.6,6.4l-16-18.4l19.5-16l-27.3,1.9
		h-1.9l56.7-85.5h49.2L543.7,171.1z M548,140.9h-15.8l-2.1,18.7h16L548,140.9z M547.2,110.1l-12.3,21.7h16.8l11.8-21.7
		C563.5,110.1,547.2,110.1,547.2,110.1z M382.8,340.5L382.8,340.5c-4,0-7.2,3.5-7.2,7.5c0,3.7,3.2,6.9,6.9,6.9c4,0,7.2-2.9,7.2-6.9
		v-0.3C390,343.8,386.8,340.5,382.8,340.5z"/>
	<path class="st1" d="M441.3,159.6H425l2.1-18.7h16L441.3,159.6z M458.7,110.1h-17.1l-12.3,21.7h18.2L458.7,110.1z M526.9,171.1
		h16.8l-43.6,77.8h-49.2l-56.7,85.5h1.9l27.3-1.9l-19.5,16l16,18.4l-24.6-6.4l-6.9,23.8l-9.1-21.7l-21.9,7.2l13.4-20.3L351.5,336
		l24.1-1.1L374,313l16,17.4l35.8-81.5h-48.9l44.9-77.8h17.1L402,235.2H490L526.9,171.1z M390,347.8c0-4-3.2-7.2-7.2-7.2l0,0
		c-4,0-7.2,3.5-6.9,7.5c0,3.7,3.2,6.9,6.9,6.9c4,0,7.2-2.9,7.2-6.9V347.8z M547.2,110.1l-12.3,21.7h16.8l11.8-21.7
		C563.5,110.1,547.2,110.1,547.2,110.1z M530.1,159.6h16l1.6-18.7h-15.8L530.1,159.6z"/>
</g>
</svg>
