<?xml version="1.0" encoding="utf-8"?>
<!-- Generator: Adobe Illustrator 25.0.0, SVG Export Plug-In . SVG Version: 6.00 Build 0)  -->
<svg version="1.1" id="Layer_1" xmlns="http://www.w3.org/2000/svg" xmlns:xlink="http://www.w3.org/1999/xlink" x="0px" y="0px"
	 viewBox="0 0 879.9 761.4" style="enable-background:new 0 0 879.9 761.4;" xml:space="preserve">
<style type="text/css">
	.st0{fill:#FFFFFF;}
	.st1{fill:#E03A3E;}
</style>
<g id="XMLID_1_">
	<path class="st0" d="M652.4,0h-26.6H421.5h-4.6l-3.2,3.2l-79,79l-0.2,0.2c-7.4,7.4-14.2,15.5-20.6,24.8l-0.1,0.1l-0.1,0.1
		c-5.9,8.8-11.1,18.5-15.5,28.7c-8.8,20.9-13.3,43-13.3,65.6c0,22.6,4.4,44.7,13.2,65.5c4.1,9.8,9.3,19.4,15.5,28.6
		c6,9.1,13,17.5,20.8,25c0.5,0.5,1.1,1.1,1.6,1.6l-61.9,61.9l-18.8,18.8H282h204.3h4.6l3.2-3.2l79.2-79.3
		c15.3-15.2,27.4-33.1,35.9-53.3c8.8-20.9,13.3-43,13.3-65.6c0-22.6-4.4-44.6-13.2-65.5c-3.9-9.8-9.1-19.6-15.4-29.1
		c-6-9.1-13-17.5-20.9-25.1c-0.5-0.5-1-0.9-1.4-1.4l62-61.8L652.4,0z M555.5,81.1c3.4,2.8,6.7,5.7,9.8,8.8
		c7.3,7,13.8,14.8,19.4,23.3c5.7,8.6,10.6,17.7,14.4,27.2c16.5,39.2,16.5,83.4,0,122.6c-7.9,18.6-19.3,35.6-33.6,49.8l-79.2,79.3
		H282l70.1-70.1c-3.5-2.8-6.7-5.8-9.8-9c-7.3-7-13.8-14.8-19.4-23.3c-5.7-8.4-10.6-17.3-14.5-26.7c-16.5-39.2-16.5-83.4,0-122.6
		c4-9.4,8.8-18.4,14.5-26.9c5.8-8.3,12.2-16.1,19.4-23.3l0.2-0.2l79-79h204.3L555.5,81.1z M472.5,183.1c-3.3-3.2-7.3-5.5-11.7-6.8
		l85.7-86.1c3.2,2.8,6.6,5.8,9.6,9c56.7,56.8,56.8,148.5,0.3,205.3l-75,75h-18.6l84.2-84.4c51.6-51.4,51.7-134.9,0.3-186.4l-9.3,9.4
		l0.1,0.1c46.2,46.4,46.1,121.4-0.3,167.6l-93.6,93.8h-18.8l103-103c41.3-41.1,41.4-107.9,0.4-149.3l-9.4,9.4
		c35.9,36.1,35.9,94.5-0.2,130.5L406.8,379.5h-18.6l121.6-121.6l0.1-0.1c30.9-30.8,30.9-80.9,0.1-111.8l-9.2,9.2
		c25.5,25.9,25.4,67.5-0.2,93.2l-131,131H351l140.2-140.3l0.1-0.1c20.6-20.5,20.6-53.8,0.1-74.4l-9.2,9.2c15.2,15.6,15,40.6-0.4,56
		L332.3,379.5h-18.8l159-159C482.7,210.1,482.7,193.5,472.5,183.1z"/>
	<path d="M584.7,113.2c-5.6-8.5-12.1-16.3-19.4-23.3c-3.1-3.1-6.4-6-9.8-8.8L625.8,11H421.5l-79,79l-0.2,0.2
		c-7.2,7.2-13.6,15-19.4,23.3c-5.7,8.5-10.5,17.5-14.5,26.9c-16.5,39.2-16.5,83.4,0,122.6c3.9,9.4,8.8,18.3,14.5,26.7
		c5.6,8.5,12.1,16.3,19.4,23.3c3.1,3.2,6.3,6.2,9.8,9L282,392.1h204.3l79.2-79.3c14.3-14.2,25.7-31.2,33.6-49.8
		c16.5-39.2,16.5-83.4,0-122.6C595.3,130.9,590.4,121.8,584.7,113.2z M351.9,304.2C295.2,247.7,295,156,351.5,99.3l75.4-75.4h18.6
		l-84.6,84.6c-51.5,51.4-51.6,134.9-0.2,186.4l9.2-9.4c-46.1-46.4-46-121.5,0.4-167.7l93.8-94h18.6L379.5,127.1
		c-41.1,41.2-41.2,107.9-0.2,149.3l9.4-9.4c-35.9-36.1-35.9-94.5,0.2-130.5L501.5,23.9h18.6l-122,121.8
		c-30.8,30.9-30.9,80.8-0.2,111.8l9.4-9.2c-25.6-25.8-25.5-67.5,0.2-93.2L538.7,23.9h18.6L416.9,164.5l-0.3,0.3
		c-20.5,20.5-20.5,53.6-0.1,74.1l9.4-9.2c-15.4-15.5-15.3-40.6,0.2-56L576,23.9h18.6L435.5,183.1c-10.3,10.4-10.3,27.1,0,37.4
		c3.2,3.3,7.2,5.6,11.7,6.8L361.5,313C358.1,310.3,354.9,307.3,351.9,304.2z M556.4,304.5l-75,75h-18.6l84.2-84.4
		c51.6-51.4,51.7-134.9,0.3-186.4l-9.3,9.4l0.1,0.1c46.2,46.4,46.1,121.4-0.3,167.6l-93.6,93.8h-18.8l103-103
		c41.3-41.1,41.4-107.9,0.4-149.3l-9.4,9.4c35.9,36.1,35.9,94.5-0.2,130.5L406.8,379.5h-18.6l121.6-121.6l0.1-0.1
		c30.9-30.8,30.9-80.9,0.1-111.8l-9.2,9.2c25.5,25.9,25.4,67.5-0.2,93.2l-131,131H351l140.2-140.3l0.1-0.1
		c20.6-20.5,20.6-53.8,0.1-74.4l-9.2,9.2c15.2,15.6,15,40.6-0.4,56L332.3,379.5h-18.8l159-159c10.2-10.4,10.2-27,0-37.4
		c-3.3-3.2-7.3-5.5-11.7-6.8l85.7-86.1c3.2,2.8,6.6,5.8,9.6,9C612.8,156,612.9,247.7,556.4,304.5z"/>
	<path class="st1" d="M435.5,183.1L594.6,23.9H576L426.1,173.7c-15.5,15.4-15.6,40.5-0.2,56l-9.4,9.2c-20.4-20.5-20.4-53.6,0.1-74.1
		l0.3-0.3L557.3,23.9h-18.6L407.5,155.1c-25.7,25.7-25.8,67.4-0.2,93.2l-9.4,9.2c-30.7-31-30.6-80.9,0.2-111.8l122-121.8h-18.6
		L388.9,136.5c-36.1,36-36.1,94.4-0.2,130.5l-9.4,9.4c-41-41.4-40.9-108.1,0.2-149.3L482.7,23.8h-18.6l-93.8,94
		c-46.4,46.2-46.5,121.3-0.4,167.7l-9.2,9.4c-51.4-51.5-51.3-135,0.2-186.4l84.6-84.6h-18.6l-75.4,75.4
		c-56.5,56.7-56.3,148.4,0.4,204.9c3,3.1,6.2,6.1,9.6,8.8l85.7-85.7c-4.5-1.2-8.5-3.5-11.7-6.8C425.2,210.2,425.2,193.5,435.5,183.1
		z"/>
	<path d="M298.7,579.3v84.6h34c0,0,0.8-25.4,0-93.4c-0.2-21.2-13.5-24.4-13.5-24.4c15.4-6.6,13.5-14.3,13.5-31.8l-0.2-45.7
		c0-30.4-16.5-40.2-44.7-40.2h-46.4V664h35.5V560.4l0.2-0.1C293.4,559.6,298.7,565.2,298.7,579.3z M276.5,532.2v-75.6h8.5
		c7.8,0,13.3,2.7,13.3,11.7V517c0,8.6-2.6,15.2-15,15.2H276.5z M533.8,663.9h-80.1V428.4H489v207.4h44.7h0.1V663.9z M65,428.4H0
		l28.4,28.4v207.3h35.1V560.7h1.9c35.5,0,54-10.9,54.9-43.6v-42.8v0h-0.4C119.9,439.9,101.3,428.4,65,428.4z M84.8,519.6
		c0,8.7-2.5,13-14.9,13h-6v-75.8l-0.3,0h7.9c8,0,13.3,2.7,13.3,11.7V519.6z M287.6,701.9l-9.2,59.4h10.5l1.7-13.7h9.6l1.5,13.7h10.9
		l-9-59.4H287.6z M291.6,738.4l3.5-29.5l3.6,29.5H291.6z M265.2,729.9v-20.7l-7.3-7.3h-24.6h-0.2v59.4h11.1v-24.4h4.1l6.2,24.2h11.1
		l-6.6-25.4L265.2,729.9z M254,726l-2.3,2.6l-7.3,0v-18.2h7.3l2.3,2.6V726z M180.7,428.4c-21.5,0-45.7,8.9-45.7,39.7v156.4
		c0,30.6,24.2,39.5,45.7,39.5c21.8,0,45.9-8.9,45.9-39.5V468.1C226.6,437.2,202.3,428.4,180.7,428.4z M191.5,621.3
		c0,12.1-3.7,14.5-10.5,14.5c-7.1,0-10.9-2.5-10.9-14.5V471.1c0-11.9,3.8-14.5,10.9-14.5c6.9,0,10.5,2.7,10.5,14.5V621.3z
		 M187.8,702H219v10.1h-10.1v49.3h-11.1v-49.3h-10V702z M611.5,751.5h15v9.8h-26.3v-59.5h26.1v9.8h-14.8v14.5H625v9.8h-13.5V751.5z
		 M674.6,729.9v-20.7l-7.3-7.3h-24.6l0,59.4h11.1v-24.2h4.3l6,24.2h11.1l-6.4-25.6L674.6,729.9z M663.4,726l-2.3,2.6l-7.3,0v-18.2
		h7.3l2.3,2.6V726z M557.9,701.9h26.9v7.9l-15,41.4h15v10.1h-27.3h0v-8l15.2-41.2h-14.8V701.9z M714.1,726.4l6,6.2v21.6l-7.1,7.1
		h-16.5l-7.1-7.1v-10.7h10.9v6.2l2.6,2.6h3.9l2.3-2.6v-11.3l-1.9-1.9h-11.7l-6-6.4v-20.8l7.1-7.3H713l7.1,7.3v10.5H709v-6.2
		l-2.3-2.4h-3.8l-2.6,2.4v11.1l2.1,1.7H714.1z M619.4,664h35.3L628,428.5h-52.8L548.5,664h31.8l8.5-75.2h23.1L619.4,664z
		 M592.1,560.6L600,470h2l6.8,90.6H592.1z M741.4,428.4h31.8v235.5h-32l-39.7-130.6v130.6h-31.8V428.4h31.8l39.9,132.2V428.4z
		 M830.5,428.4H788V664h49.8c27.6,0,42.1-20.3,42.1-42.7V481.8C879.9,440.2,865.3,428.4,830.5,428.4z M845,618.3
		c0,15.2-4.3,17.5-13.3,17.5h-8.5v-179h8.5c8.8,0,13.3,2.5,13.3,17.5V618.3z M325.2,701.8h24.2v8.5H343v42.5h6.4v8.5h-24.2v-8.5h6.6
		v-42.5h-6.6V701.8z M438.8,456.8h-30.3V664h-35.2V456.8h-21.4l-28.6-28.4h115.5V456.8z M519.8,701.9l-9.1,59.4h10.5l1.7-13.7h9.4
		l1.7,13.7h11l-9-59.4H519.8z M524.2,738.4l3.3-29.5l3.8,29.5H524.2z M376.2,751.5h12.6v9.8h-23.9v-59.4h11.3V751.5z M485.7,751.5
		h13v9.8h-23.9v-59.4h10.9V751.5z M426.9,702v59.1h24.2l7.1-7.1v-17.3l-5.8-5.8l5.8-5.8v-15.8l-7.1-7.3H426.9z M447.2,750.2
		l-2.4,2.3v-0.2h-7v-16.9h6.6l2.8,2.6V750.2z M447.2,723.9l-2.8,2.8v0.2H438v-15.8h6.8l2.4,2.3V723.9z"/>
</g>
</svg>
