<?xml version="1.0" encoding="utf-8"?>
<!-- Generator: Adobe Illustrator 25.0.0, SVG Export Plug-In . SVG Version: 6.00 Build 0)  -->
<svg version="1.1" id="Layer_1" xmlns="http://www.w3.org/2000/svg" xmlns:xlink="http://www.w3.org/1999/xlink" x="0px" y="0px"
	 viewBox="0 0 741.3 741.3" style="enable-background:new 0 0 741.3 741.3;" xml:space="preserve">
<style type="text/css">
	.st0{fill:#FFFFFF;}
	.st1{fill:#003DA6;}
	.st2{fill:#DE1F37;}
</style>
<g>
	<path class="st0" d="M370.6,0C165.9,0,0,165.9,0,370.6s165.9,370.6,370.6,370.6s370.7-165.9,370.7-370.6S575.4,0,370.6,0z
		 M370.6,723.7c-195,0-353-158-353-353s158-353,353-353s353,158,353,353S565.7,723.7,370.6,723.7z M503.6,122.6l-38.5-16.1l2.2-5.5
		c1.3,0.5,2.5,0.9,3.6,0.9c0.1,0,0.2,0,0.2,0c2.6-0.1,3.5-2.9,4.4-5.2L486,71.2c0.9-2.4-1.4-4.1-4.1-5.2l2.2-5.6l23.1,9.7l-2.3,5.6
		c-1.6-0.7-2.4-1-3.6-1c-0.2,0-0.4,0-0.6,0c-2.7,0.2-3.5,2.8-4.4,5.1l-10.8,26.2c-0.7,1.6,1.8,3.3,2.9,3.8c2.3,1,4.5,1.4,6.6,1.4
		c2,0,4-0.4,6.1-1c4.3-1.3,6.2-2.9,10-5.9l3.8,4.6L503.6,122.6z M301.1,54.2c2.6,0,4.9,0.5,5.1,2.7l3,27.6c0.2,2.5,0.7,5.3-1.6,6.7
		c-1.1,0.6-2.5,1-3.9,1.1l0.5,6.1l21.3-2.1c9.3-1,19-2,25-8.7c5.5-6.1,6.6-15.5,4.1-24.1c-2-6.8-5.9-12.8-13-16.2
		c-3.3-1.6-6.9-2.1-10.5-2.1c-3.1,0-6.1,0.3-9,0.6l-23,2.4l0.7,6C300.1,54.2,300.6,54.2,301.1,54.2z M319.6,53.4
		c1-1.2,3.8-1.6,5.5-1.8c0.7-0.1,1.4-0.1,2.1-0.1c7.5,0,11.9,4.4,14.1,12c3.3,11.4,0.3,24.9-12.9,26.2c-0.3,0.1-0.8,0.1-1.3,0.1
		c-1.8,0-4.2-0.4-4.7-2.3c-0.2-0.6-0.2-1.3-0.3-1.8l-0.2-1.8l-2.6-25.7C319.1,56.9,318.6,54.6,319.6,53.4z M434.7,95.4l-44.8-3.6
		l0.5-5.9c0.4,0.1,0.8,0.1,1.2,0.1c1,0,1.9-0.2,2.7-0.5c2.4-0.9,2.4-3.8,2.6-6.2l2-27.3c0-1-0.3-1.6-1.2-2.3
		c-1.1-0.8-2.7-1.2-3.9-1.3l0.4-6l40.9,3.3l5.4,16.6l-4.8,1.3c-3.9-7.7-9.5-12.6-17.5-13.3c-0.5,0-1.1-0.1-1.8-0.1
		c-1.6,0-3.5,0.2-4.3,1.1c-1.2,1.2-1.3,4-1.4,5.7l-0.6,6.7l5,0.4c0.1,0,0.2,0,0.3,0c3.1,0,4.4-3.9,4.8-7.3l5.1,0.4l-1.7,22l-5-0.4
		l-0.2-2c-0.5-5.7-3.2-6.4-8.7-6.9l-1,14.5c-0.2,2.6,3.9,3.1,5.7,3.3c0.8,0.1,1.5,0.1,2.2,0.1c8.7,0,13.9-4.6,19.5-11.4l4.9,3
		L434.7,95.4z M545,211.6c24,26.5,42.1,58.3,52.3,93.5c-10.1-11.9-22.2-20.4-35-22.6c-9.5-1.6-20.3,0-31.5,8.2
		c-4.1-5.8-8.3-11.5-12.9-17.2c-6-7.5-12.4-16.1-19-23.2C519.4,232.4,535.3,219.4,545,211.6z M560.4,293.4
		c-8.2-1.3-16.1,0.9-23.6,6.5c25.4,34.5,37.7,76.7,41.2,109.5l-12.6-5.7c-3.3-31.1-13.9-64.8-37-96c-16,17.9-30,40.4-40.2,97.1
		l-12.1,4.6c12.3-71.2,29.9-94.2,46-111.1c-9.4-13.5-21.7-27.8-33.4-40.3c-22.5,19.7-50.5,44-81.4,72.1l-7.4-8.2
		c30.8-28,58.7-52.2,81.2-71.9c-11.8-11.9-22.9-22-36.4-32.2c-25.7,18.3-72.7,31.6-142.2,40.4l-1.4-10.9c73-9.3,112.9-22.8,134-36.4
		c-13.3-9.4-27.2-17.8-41.5-24.9c-52.1-25.9-105.3-29.4-149.1-14.6c-57.4,36.4-97.9,96.9-107.5,167.2c7.1-9.5,16.1-20.3,27.8-32.2
		l-0.3,15.6c-14.6,17.3-23.8,31.1-29.6,42c-0.1,2.2-0.1,4.4-0.1,6.6c0,59.5,22.1,113.8,58.4,155.3c12.2-12.9,5.6-5.9,32.2-32.3
		l12.2,3c-27,26.9-22,22.9-36.1,38.4c39.1,40.2,92.3,66.5,151.7,70.8c42.3-17.1,76.8-53.6,96-113.2l14.4-4.6
		c-20.4,64.6-54.8,99.6-87,118.3c77.7-2,146-41.4,187.6-101c0.7-8.6-1-11.5,1.1-14.5c1.7-2.3,10.8-4.5,10.8-4.5
		c19.3-34.2,30.3-73.7,30.3-115.7c0-11.7-0.9-23.2-2.5-34.4C593.5,314.6,577.4,296.2,560.4,293.4z M298.3,262.9l-6,4.4l2.2,6.8
		l-5.8-4.2l-5.8,4.2l2.2-6.8l-6-4.4h7.4l2.2-6.9l2.2,6.9H298.3z M291.4,299.4l-5.8-4.3l-5.8,4.3l2.2-6.9l-6-4.4h7.4l2.2-6.9l2.2,6.9
		h7.4l-6,4.4L291.4,299.4z M277.5,319.6l-5.8-4.2l-5.8,4.2l2.2-6.8l-6-4.4h7.4l2.2-6.9l2.2,6.9h7.4l-6,4.4L277.5,319.6z
		 M281.6,231.9l2.2,6.9h7.4l-6,4.4l2.2,6.9l-5.8-4.3l-5.8,4.3l2.2-6.9l-6-4.4h7.4L281.6,231.9z M260.8,219.1l2.1-6.9l2.2,6.9h7.5
		l-6,4.4l2.2,6.8l-5.8-4.2l-5.8,4.2l2.2-6.8l-6-4.4H260.8z M251.8,319.9h7.4l-6,4.4l2.2,6.9l-5.8-4.3l-5.8,4.3l2.2-6.9l-6-4.4h7.4
		l2.2-6.9L251.8,319.9z M235.8,213.2l2.2-6.8l2.2,6.9h7.4l-6,4.4l2.2,6.8l-5.8-4.2l-5.8,4.2l2.2-6.9l-6-4.4H235.8z M225.6,319h7.5
		l-6,4.3l2.2,6.9l-5.9-4.2l-5.8,4.2l2.2-6.8l-6-4.4h7.4l2.2-7L225.6,319z M209.6,219.1l2.2-6.9l2.2,6.9h7.4l-6,4.4l2.2,6.8l-5.8-4.2
		l-5.8,4.2l2.2-6.8l-6-4.4H209.6z M207.4,316.9l-5.9-4.2l-5.8,4.2l2.2-6.8l-6-4.4h7.4l2.2-6.9l2.2,6.9h7.5l-6,4.4L207.4,316.9z
		 M177.8,285h7.4l2.2-6.9l2.3,6.9h7.4l-6,4.4l2.2,6.9l-5.9-4.2l-5.8,4.2l2.2-6.9L177.8,285z M191.4,236.4l2.2-6.9l2.4,6.9h7.4
		l-6.1,4.4l2.2,6.8l-5.9-4.2l-5.8,4.2l2.2-6.8l-6-4.4H191.4z M182.9,259.6l2.2-6.9l2.1,6.9h7.4l-6,4.4l2.2,6.9l-5.8-4.3l-5.8,4.3
		l2.2-6.9l-6-4.4H182.9z M238.9,489.9c-17.3-8.3-45.6-7.9-60,2.7c-2.9,2.2-3.1,3.1-3.1-0.2c-0.6-43.8,46.8-93.6,64.6-107.5
		c18.4-14.5,39.7-31.5,48.7-49.8c0.9-1.8,0.1-3.2-1.3-1.2c-32.3,47.2-77.9,50.9-116.1,45.3V311h0.1c0.2-1.9,1.2-2.9,3.4-0.8
		c35.7,34.3,91,35.1,121.6,2.8c3.9-4.1,5.5-4.6,5-1.5c-4.6,30.1-31.6,68.6-41.7,83.5c-14.6,21.5-22.2,58.7-18.9,92.6
		C241.5,490.7,241.3,491,238.9,489.9z M248.6,485.4l-0.9-16.3c9.9-9.7,19.5-19,29.4-28.7l2.6,12.8
		C269.6,462.9,258.4,475.7,248.6,485.4z M347.9,494.4c-49.2,0-67.1-39.7-67.1-85.7c0-53,23-96.7,80.3-96.7
		c22.3,0,40.7,14.4,40.7,36.4c0,14.3-11.1,21.2-21.6,21.2c-15.4,0-20.4-12.9-22.6-24.2c-0.9-4.8,0.9-15.5-7.1-15.5
		c-16.7,0-19.4,32.6-20.1,44.6l-1.2,17.7h0.3c6.7-10.1,19.2-15,31.4-15c27.8,0,44.9,23.9,44.9,56.2
		C405.9,471.6,379.9,494.4,347.9,494.4z M441.6,484.5c-22.3,0-32.9-16.8-32.9-35.3c0-23.7,13.6-39.7,34.2-39.7
		c19.4,0,29.6,15.7,30.7,33.4l-36.4,9.8c0.8,8,5.8,15.7,14.3,15.7c6.9,0,11.1-4.3,14.6-9.7l7.2,8.5
		C466.8,478.5,454.5,484.5,441.6,484.5z M549.6,484.7c-9,0-24.6-1.2-24.6-14.8c0-6.2,3.4-10.9,9.5-10.9c9.6,0,11.2,8.7,12.8,14.9
		c0.5,1.6,1.9,1.9,3.2,1.9c5.1,0,8.7-2.1,8.7-5.4c0-12.7-32.3-7.8-32.3-35.2c0-1.1,0.1-2.1,0.2-3.1c-1.5,2.6-3.9,4.3-6.8,4.3
		c-3.9,0-7.3-1.7-9.1-2.3c-5-1.7-6.6,20-6.6,24.5v13.1l6.9,1.1v9.7h-0.2H473v-9.7l6.9-1.1v-30.1c0-10.8-1.4-15.9-9-15.9v-8.5
		l27.3-7.9c3.1,6.1,4.1,13,4.5,19.9h0.3c2.7-8.2,6.1-19.7,15.1-19.7c7.8,0,11.3,6,11.3,13.4c0,1-0.1,2-0.2,3
		c5.6-11,20.4-16.1,28.3-16.1c11.3,0,18.4,3.8,18.4,13.6c0,6-5.1,9-10.4,9.1c-6.6,0-11.3-5.4-12.5-11.8c-2.8,0-4.8,1.4-4.8,6.2
		c0,11.1,31.4,3.2,31.4,31.4C579.5,479.4,564.3,484.7,549.6,484.7z M358.4,438.6c0,20.2-2.8,37.7-14.4,37.7
		c-13.7,0-13.2-17.5-13.1-37.7c0-20.2,1.9-37.7,13.1-37.7C357.7,400.9,358.4,418.4,358.4,438.6z M595.6,188.6
		c0.8,0.2,1.2,0.2,1.7,0.2c1.7,0,3.3-1.3,4.8-2.3l22.7-15.6c2.1-1.4,0.8-4.2-0.2-6.1l-0.8-1.2l4.9-3.5l14.7,21.7l-5,3.4
		c-1.1-1.8-1.6-2.3-3.1-3.3c-0.6-0.3-1.2-0.5-1.7-0.5c-1.7,0-3.2,1.2-4.8,2.3l-5.6,3.8l10.4,15.3l8.8-6.2c2.2-1.6,0.7-4.7-0.8-7
		l4.9-3.5l14.4,21.2l-4.9,3.5c-1-1.6-1.5-2.2-2.9-3c-0.6-0.3-1.2-0.5-1.8-0.5c-1.7,0-3.2,1.2-4.8,2.3l-22.8,16
		c-2.1,1.5-0.4,4.8,1,6.9l-5,3.4l-14.4-21.2l4.9-3.5l0.8,1.2c0.6,0.7,1.8,1.8,2.5,2.1c0.5,0.2,0.9,0.3,1.3,0.3
		c1.7,0,3.3-1.3,4.8-2.3l8.6-6l-10.4-15.4l-11.9,8.3c-2.3,1.6-0.6,4.9,1,7.3l-5,3.4l-14.7-21.6l4.9-3.5l1,1.5
		C593.6,187.1,594.9,188.2,595.6,188.6z M555.4,151c-2.1-1.7-4.7-4.4-3.1-6.5l7.2-9.3l4.5,3.7c4.4,3.6,9.3,7.3,14.7,8.1
		c0.5,0.1,0.9,0.1,1.4,0.1c4.8,0,9.3-3,11.9-7.7c2.6-4.8,2.5-10.1-0.6-14.7c-2.1-3.3-6.2-6.6-9.1-8.9l-19-15.3l-3.8,4.8
		c2.5,2,4.4,4.4,2.8,6.4L545,133.5c-1.4,1.7-2.8,3.8-5,3.8c-0.1,0-0.2,0-0.3,0c-0.8,0-2.3-0.8-3-1.2l-1.1-0.9l-3.6,4.7l19.6,15.8
		L555.4,151z M570.2,122.1c1.9-2.4,2.8-3.7,4.2-3.7c1,0,2.1,0.7,4,2.2c3.6,3,5.4,6.4,2.9,11c-1.5,2.8-4.4,4.6-7.2,4.6
		c-0.2,0-0.3,0-0.5,0c-3.5-0.1-5.9-2.4-8.7-4.6l-1.4-1.1L570.2,122.1z M673.5,246.5l-0.4-1.2l5.5-2.1l9.2,25.2l-5.6,2
		c-0.6-1.5-1.2-2.8-2.1-3.7c-0.8-0.8-1.7-1.1-2.6-1.1c-1.4,0-2.8,0.6-4.2,1.1l-25.5,9.6c-2.3,0.9-1.5,4.6-0.7,7.1l-5.5,2l-9.2-25.2
		l5.5-2.1c0.6,1.7,1.3,3,2.2,4.1c0.8,0.8,1.6,1.1,2.6,1.1c1.4,0,2.8-0.6,4.2-1.1l25.3-9.5C674.7,251.7,674.1,248.6,673.5,246.5z
		 M699.1,453l-18.5,13.3l6.6,22.7l-18.9-13.1L649.3,489l6.8-22.7L637.7,453h22.8l7.9-22.2l7.9,22.2H699.1z M655.4,309.6l-6,0.9
		l2.8,20.7l6-0.8c0-1.5-0.6-5.5,1.5-6.2c0.4-0.2,0.7-0.2,1.1-0.2c0.5,0,1,0.1,1.5,0.2l7.2,1.5l2.1,15.9l-8.4,4.4
		c-0.4,0.2-0.6,0.3-0.9,0.3c-1.5,0-2.1-3.1-2.6-4.5l-0.2-1.3l-6,0.8l3.4,25.3l6-0.8v-0.9c0.2-1.9,0.2-3.6,1.9-5.1
		c1.1-0.9,3.6-2.4,4.9-3.1l33.9-19.4l-1.4-11l-35.4-8.9C661.2,316.1,657.6,316.1,655.4,309.6z M692.2,330.9l-15.2,7.9l-1.5-11.7
		L692.2,330.9z M370.6,107.9c-144.9,0-262.8,117.9-262.8,262.8s117.9,262.8,262.8,262.8s262.8-117.9,262.8-262.8
		S515.6,107.9,370.6,107.9z M370.6,622.5c-138.9,0-251.8-113-251.8-251.8c0-138.9,113-251.8,251.8-251.8s251.8,113,251.8,251.8
		S509.6,622.5,370.6,622.5z M145.1,139.5l-4.1-4.4l18.3-16.4l4,4.4c-1.5,1.3-2,1.8-2.7,3.4c-0.9,2.5,1,4.3,2.7,6.1l18.9,20.7
		c0.3,0.4,0.8,0.5,1.3,0.5c1.2,0,2.8-0.9,3.4-1.5c3.6-3.2,5-6.6,5.7-11.2c0.7-4.4,0-6.8-1.1-11.4l5.7-1.5l7.5,16.1l-30.5,27.5
		l-4-4.4c1.1-1,1.9-2,2.4-3.1c1-2.4-1.1-4.3-2.7-6.1l-18.4-20.1c-0.6-0.6-1.2-0.9-1.9-0.9C148.2,137.2,146.6,138.2,145.1,139.5z
		 M248.9,120.1l-2.4-5.7c-1,0.3-2.9,1.1-4.5,1.1c-0.8,0-1.5-0.3-1.9-0.9c-0.5-0.9-0.6-1.6-0.7-2.6l-0.6-7.4l14.7-6.3l6.6,7.1
		c1.9,1.8-1.7,3.5-3.1,4.5l-1.2,0.5l2.4,5.7l23.4-10.1l-2.5-5.7l-0.9,0.2c-1,0.2-1.9,0.4-2.8,0.4c-0.8,0-1.7-0.2-2.6-0.9
		c-1.3-0.8-3.4-2.9-4.4-4l-28.2-28.2l-9.9,4.3l1.3,37.2c0.2,5.9,1.2,9.4-4.4,13.5l2.5,5.6L248.9,120.1z M249.3,93.6l-10.9,4.7
		l-1-17.5L249.3,93.6z M599.5,576.8h22.8l-18.7,13.4l6.8,22.7l-18.9-13.2l-18.9,13.1l6.8-22.7l-18.5-13.3h22.8l7.9-22.2L599.5,576.8
		z M103.2,190.1l-5-3.3l14.2-21l4.9,3.4c-0.9,1.3-1.5,2.5-1.6,3.7c-0.5,2.6,2,4,4.1,5.4l23,15.2c0.4,0.3,0.8,0.4,1.3,0.4
		c1.7,0,3.5-2,4.7-3.6l4.9,3.3l-14.2,21l-5-3.3c1-1.4,1.6-2.7,1.8-3.9c0.4-2.6-2.1-4-4.1-5.4l-22.8-15.2c-0.5-0.3-1-0.5-1.4-0.5
		c-1.6,0-3,1.6-4.1,2.8L103.2,190.1z M484.3,656.7L465.6,670l6.8,22.7l-18.9-13.1l-18.9,13.1l6.8-22.6l-18.5-13.4h22.8l7.9-22.2
		l7.9,22.2H484.3z M281.6,152.1c27.5-11.1,57.5-17.3,89-17.3c23.7,0,46.5,3.5,68.1,10c11.1,11.6,20.6,26.1,17.5,40.4
		c-1.2,5.8-4.7,12.1-11.9,18.6c-14.8-10.6-30.2-20-45.9-27.8C359,156.4,318.6,148.9,281.6,152.1z M322,656.7L303.5,670l6.6,22.7
		l-18.9-13.1l-18.9,13.1l6.8-22.6l-18.5-13.4h22.8l7.9-22.2l7.9,22.2H322z M441.9,440.4l-6.4,1.7v-7.2c0-5.5,0-15.6,6-15.6
		c5.6,0,6.9,8.5,6.9,13.2C448.4,438,445.9,439.4,441.9,440.4z M458.3,151.5c29.8,12.1,56.6,29.9,78.9,52.2
		c-9.8,7.9-25.7,20.9-46.1,38.7c-11.9-11.9-24.4-21.7-37.7-31.9c7.3-7,11.8-14.7,13.6-23.1C469.7,174.7,465.4,162.4,458.3,151.5z
		 M60.4,274.1l-5.6-2.2l9.9-23.5l5.6,2.3c-0.9,1.9-1,2.5-1,4.3c0.2,2.7,2.8,3.4,5.1,4.4l6.3,2.5l6.9-16.7l-10-3.9
		c-0.3-0.1-0.7-0.2-1-0.2c-2,0-3.4,2.5-4.3,4.6l-5.6-2.2l9.6-23.1l5.6,2.2c-0.8,1.6-0.9,2.4-0.9,4c0.2,2.7,2.8,3.5,5.1,4.4
		l25.6,10.3c0.3,0.1,0.6,0.2,0.9,0.2c2,0,3.5-2.7,4.3-4.6l5.6,2.3l-9.6,23.1l-5.6-2.2l0.6-1.3c0.3-0.8,0.5-2.4,0.3-3.2
		c-0.5-2.4-3-3.1-5.1-4l-9.7-4l-7,16.8l13.4,5.3c0.3,0.1,0.7,0.2,1,0.2c2.1,0,3.5-2.6,4.4-4.9l5.6,2.3l-9.8,23.6l-5.6-2.3l0.7-1.6
		c0.2-0.7,0.4-2.4,0.3-3.2c-0.5-2.3-3-3.1-5.1-4l-25.5-10.3c-0.4-0.1-0.7-0.2-1-0.2c-1.8,0-3,2-3.9,3.6L60.4,274.1z M529.2,425.9
		c-0.3,2.4-1,4.5-2,6.2C527.5,429.9,528.2,427.8,529.2,425.9z M188.6,577.9l-18.5,13.3l6.6,22.7l-18.9-13.1l-18.9,13.1l6.8-22.7
		l-18.5-13.3h22.8l7.9-22.2l7.9,22.2H188.6z M48.6,353.1c0.1,0,0.2,0,0.3,0l27,3c2.2,0.3,4.8,0.3,5.9,2.5c0.4,0.7,0.5,2.3,0.6,3.2
		l-0.2,1.5l5.9,0.6l3-25.2l-5.9-0.7c-0.3,2.6-1.1,6.1-3.5,6.1c-0.1,0-0.2,0-0.3,0L69.9,343l0.7-5.8c0.7-5.7,1.3-11.9-0.9-16.9
		c-2.1-4.5-6.8-7.3-12.2-7.3c-0.3,0-0.7,0-1,0c-5.3,0.4-9.7,3.3-11.9,8.4c-1.5,3.6-2.2,8.9-2.6,12.6l-2.8,24.4l5.9,0.6
		C45.4,355.9,46.4,353.1,48.6,353.1z M47.9,334.9c0.5-4.7,2.5-8.1,7.6-8.4c0.1,0,0.3,0,0.5,0c3.1,0,6.1,1.7,7.3,4.2
		c1.7,3,1.1,6.2,0.7,9.8l-0.2,1.8l-10.4-1.1C48.4,340.6,47.2,340.6,47.9,334.9z M104.2,454.1l-18.5,13.3l6.6,22.7L73.4,477
		l-18.9,13.1l6.8-22.7l-18.5-13.3h22.8l7.9-22.2l7.9,22.2H104.2z"/>
	<path class="st1" d="M47.9,334.9c0.5-4.7,2.5-8.1,7.6-8.4c0.1,0,0.3,0,0.5,0c3.1,0,6.1,1.7,7.3,4.2c1.7,3,1.1,6.2,0.7,9.8l-0.2,1.8
		l-10.4-1.1C48.4,340.6,47.2,340.6,47.9,334.9z M249.3,93.6l-11.9-12.8l1,17.5L249.3,93.6z M573.6,136.1c0.2,0,0.3,0,0.5,0
		c2.8,0,5.7-1.8,7.2-4.6c2.5-4.6,0.7-8-2.9-11c-1.9-1.5-3-2.2-4-2.2c-1.4,0-2.3,1.3-4.2,3.7l-6.7,8.4l1.4,1.1
		C567.7,133.7,570.1,136.1,573.6,136.1z M692.2,330.9l-16.7-3.8l1.5,11.7L692.2,330.9z M321.9,83.9l0.2,1.8c0.1,0.5,0.1,1.2,0.3,1.8
		c0.5,1.9,2.9,2.3,4.7,2.3c0.5,0,1,0,1.3-0.1c13.2-1.3,16.2-14.8,12.9-26.2c-2.2-7.6-6.6-12-14.1-12c-0.7,0-1.4,0-2.1,0.1
		c-1.7,0.2-4.5,0.6-5.5,1.8c-0.9,1.1-0.5,3.4-0.3,4.8L321.9,83.9z M723.7,370.6c0,195-158,353-353,353s-353-158-353-353
		s158-353,353-353S723.7,175.6,723.7,370.6z M702.2,326.4l-35.4-8.9c-5.6-1.3-9.2-1.3-11.4-7.8l-6,0.9l2.8,20.7l6-0.8
		c0-1.5-0.6-5.5,1.5-6.2c0.4-0.2,0.7-0.2,1.1-0.2c0.5,0,1,0.1,1.5,0.2l7.2,1.5l2.1,15.9l-8.4,4.4c-0.4,0.2-0.6,0.3-0.9,0.3
		c-1.5,0-2.1-3.1-2.6-4.5l-0.2-1.3l-6,0.8l3.4,25.3l6-0.8v-0.9c0.2-1.9,0.2-3.6,1.9-5.1c1.1-0.9,3.6-2.4,4.9-3.1l33.9-19.4
		L702.2,326.4z M672.2,252.7l-25.3,9.5c-1.4,0.5-2.8,1.1-4.2,1.1c-1,0-1.8-0.3-2.6-1.1c-0.9-1.1-1.6-2.4-2.2-4.1l-5.5,2.1l9.2,25.2
		l5.5-2c-0.8-2.5-1.6-6.2,0.7-7.1l25.5-9.6c1.4-0.5,2.8-1.1,4.2-1.1c0.9,0,1.8,0.3,2.6,1.1c0.9,0.9,1.5,2.2,2.1,3.7l5.6-2l-9.2-25.2
		l-5.5,2.1l0.4,1.2C674.1,248.6,674.7,251.7,672.2,252.7z M595.6,188.6c-0.7-0.4-2-1.5-2.5-2.1l-1-1.5l-4.9,3.5l14.7,21.6l5-3.4
		c-1.6-2.4-3.3-5.7-1-7.3l11.9-8.3l10.4,15.4l-8.6,6c-1.5,1-3.1,2.3-4.8,2.3c-0.4,0-0.8-0.1-1.3-0.3c-0.7-0.3-1.9-1.4-2.5-2.1
		l-0.8-1.2l-4.9,3.5l14.4,21.2l5-3.4c-1.4-2.1-3.1-5.4-1-6.9l22.8-16c1.6-1.1,3.1-2.3,4.8-2.3c0.6,0,1.2,0.2,1.8,0.5
		c1.4,0.8,1.9,1.4,2.9,3l4.9-3.5l-14.4-21.2l-4.9,3.5c1.5,2.3,3,5.4,0.8,7l-8.8,6.2l-10.4-15.3l5.6-3.8c1.6-1.1,3.1-2.3,4.8-2.3
		c0.5,0,1.1,0.2,1.7,0.5c1.5,1,2,1.5,3.1,3.3l5-3.4l-14.7-21.7l-4.9,3.5l0.8,1.2c1,1.9,2.3,4.7,0.2,6.1l-22.7,15.6
		c-1.5,1-3.1,2.3-4.8,2.3C596.9,188.9,596.5,188.9,595.6,188.6z M532,139.9l19.6,15.8l3.8-4.7c-2.1-1.7-4.7-4.4-3.1-6.5l7.2-9.3
		l4.5,3.7c4.4,3.6,9.3,7.3,14.7,8.1c0.5,0.1,0.9,0.1,1.4,0.1c4.8,0,9.3-3,11.9-7.7c2.6-4.8,2.5-10.1-0.6-14.7
		c-2.1-3.3-6.2-6.6-9.1-8.9l-19-15.3l-3.8,4.8c2.5,2,4.4,4.4,2.8,6.4L545,133.5c-1.4,1.7-2.8,3.8-5,3.8c-0.1,0-0.2,0-0.3,0
		c-0.8,0-2.3-0.8-3-1.2l-1.1-0.9L532,139.9z M465.1,106.4l38.5,16.1l11.2-13.7l-3.8-4.6c-3.8,3-5.7,4.6-10,5.9c-2.1,0.6-4.1,1-6.1,1
		c-2.1,0-4.3-0.4-6.6-1.4c-1.1-0.5-3.6-2.2-2.9-3.8l10.8-26.2c0.9-2.3,1.7-4.9,4.4-5.1c0.2,0,0.4,0,0.6,0c1.2,0,2,0.3,3.6,1l2.3-5.6
		l-23.1-9.7l-2.2,5.6c2.7,1.1,5,2.8,4.1,5.2l-10.4,25.5c-0.9,2.3-1.8,5.1-4.4,5.2c0,0-0.1,0-0.2,0c-1.1,0-2.3-0.4-3.6-0.9
		L465.1,106.4z M389.9,91.7l44.8,3.6l6.3-16l-4.9-3c-5.6,6.8-10.8,11.4-19.5,11.4c-0.7,0-1.4,0-2.2-0.1c-1.8-0.2-5.9-0.7-5.7-3.3
		l1-14.5c5.5,0.5,8.2,1.2,8.7,6.9l0.2,2l5,0.4l1.7-22l-5.1-0.4c-0.4,3.4-1.7,7.3-4.8,7.3c-0.1,0-0.2,0-0.3,0l-5-0.4l0.6-6.7
		c0.1-1.7,0.2-4.5,1.4-5.7c0.8-0.9,2.7-1.1,4.3-1.1c0.7,0,1.3,0.1,1.8,0.1c8,0.7,13.6,5.6,17.5,13.3l4.8-1.3l-5.4-16.6l-40.9-3.3
		l-0.4,6c1.2,0.1,2.8,0.5,3.9,1.3c0.9,0.7,1.2,1.3,1.2,2.3l-2,27.3c-0.2,2.4-0.2,5.3-2.6,6.2c-0.8,0.3-1.7,0.5-2.7,0.5
		c-0.4,0-0.8,0-1.2-0.1L389.9,91.7z M299.1,48.2l0.7,6c0.4,0,0.9,0,1.3,0c2.6,0,4.9,0.5,5.1,2.7l3,27.6c0.2,2.5,0.7,5.3-1.6,6.7
		c-1.1,0.6-2.5,1-3.9,1.1l0.5,6.1l21.3-2.1c9.3-1,19-2,25-8.7c5.5-6.1,6.6-15.5,4.1-24.1c-2-6.8-5.9-12.8-13-16.2
		c-3.3-1.6-6.9-2.1-10.5-2.1c-3.1,0-6.1,0.3-9,0.6L299.1,48.2z M227.2,122.8l2.5,5.6l19.2-8.3l-2.4-5.7c-1,0.3-2.9,1.1-4.5,1.1
		c-0.8,0-1.5-0.3-1.9-0.9c-0.5-0.9-0.6-1.6-0.7-2.6l-0.6-7.4l14.7-6.3l6.6,7.1c1.9,1.8-1.7,3.5-3.1,4.5l-1.2,0.5l2.4,5.7l23.4-10.1
		l-2.5-5.7l-0.9,0.2c-1,0.2-1.9,0.4-2.8,0.4c-0.8,0-1.7-0.2-2.6-0.9c-1.3-0.8-3.4-2.9-4.4-4l-28.2-28.2l-9.9,4.3l1.3,37.2
		C231.9,115.2,232.9,118.7,227.2,122.8z M141,135.1l4.1,4.4c1.5-1.3,3.1-2.3,4.5-2.3c0.7,0,1.3,0.3,1.9,0.9l18.4,20.1
		c1.6,1.8,3.7,3.7,2.7,6.1c-0.5,1.1-1.3,2.1-2.4,3.1l4,4.4l30.5-27.5l-7.5-16.1l-5.7,1.5c1.1,4.6,1.8,7,1.1,11.4
		c-0.7,4.6-2.1,8-5.7,11.2c-0.6,0.6-2.2,1.5-3.4,1.5c-0.5,0-1-0.1-1.3-0.5l-18.9-20.7c-1.7-1.8-3.6-3.6-2.7-6.1
		c0.7-1.6,1.2-2.1,2.7-3.4l-4-4.4L141,135.1z M98.2,186.8l5,3.3l0.7-1c1.1-1.2,2.5-2.8,4.1-2.8c0.4,0,0.9,0.2,1.4,0.5l22.8,15.2
		c2,1.4,4.5,2.8,4.1,5.4c-0.2,1.2-0.8,2.5-1.8,3.9l5,3.3l14.2-21l-4.9-3.3c-1.2,1.6-3,3.6-4.7,3.6c-0.5,0-0.9-0.1-1.3-0.4l-23-15.2
		c-2.1-1.4-4.6-2.8-4.1-5.4c0.1-1.2,0.7-2.4,1.6-3.7l-4.9-3.4L98.2,186.8z M54.8,271.9l5.6,2.2l0.5-1.2c0.9-1.6,2.1-3.6,3.9-3.6
		c0.3,0,0.6,0.1,1,0.2l25.5,10.3c2.1,0.9,4.6,1.7,5.1,4c0.1,0.8-0.1,2.5-0.3,3.2l-0.7,1.6l5.6,2.3l9.8-23.6l-5.6-2.3
		c-0.9,2.3-2.3,4.9-4.4,4.9c-0.3,0-0.7-0.1-1-0.2l-13.4-5.3l7-16.8l9.7,4c2.1,0.9,4.6,1.6,5.1,4c0.2,0.8,0,2.4-0.3,3.2l-0.6,1.3
		l5.6,2.2l9.6-23.1l-5.6-2.3c-0.8,1.9-2.3,4.6-4.3,4.6c-0.3,0-0.6-0.1-0.9-0.2l-25.6-10.3c-2.3-0.9-4.9-1.7-5.1-4.4
		c0-1.6,0.1-2.4,0.9-4l-5.6-2.2l-9.6,23.1l5.6,2.2c0.9-2.1,2.3-4.6,4.3-4.6c0.3,0,0.7,0.1,1,0.2l10,3.9l-6.9,16.7l-6.3-2.5
		c-2.3-1-4.9-1.7-5.1-4.4c0-1.8,0.1-2.4,1-4.3l-5.6-2.3L54.8,271.9z M39.2,358.4l5.9,0.6c0.3-3.1,1.3-5.9,3.5-5.9c0.1,0,0.2,0,0.3,0
		l27,3c2.2,0.3,4.8,0.3,5.9,2.5c0.4,0.7,0.5,2.3,0.6,3.2l-0.2,1.5l5.9,0.6l3-25.2l-5.9-0.7c-0.3,2.6-1.1,6.1-3.5,6.1
		c-0.1,0-0.2,0-0.3,0L69.9,343l0.7-5.8c0.7-5.7,1.3-11.9-0.9-16.9c-2.1-4.5-6.8-7.3-12.2-7.3c-0.3,0-0.7,0-1,0
		c-5.3,0.4-9.7,3.3-11.9,8.4c-1.5,3.6-2.2,8.9-2.6,12.6L39.2,358.4z M85.7,467.4l18.5-13.3H81.4l-7.9-22.2l-7.9,22.2H42.7l18.5,13.3
		l-6.8,22.7L73.4,477l18.9,13.1L85.7,467.4z M170.1,591.2l18.5-13.3h-22.8l-7.9-22.2l-7.9,22.2h-22.8l18.5,13.3l-6.8,22.7l18.9-13.1
		l18.9,13.1L170.1,591.2z M303.5,670l18.5-13.3h-22.8l-7.9-22.2l-7.9,22.2h-22.8l18.5,13.4l-6.8,22.6l18.9-13.1l18.9,13.1L303.5,670
		z M465.6,670l18.7-13.3h-22.8l-7.9-22.2l-7.9,22.2h-22.8l18.5,13.4l-6.8,22.6l18.9-13.1l18.9,13.1L465.6,670z M622.3,576.8h-22.8
		l-7.9-22.2l-7.9,22.2h-22.8l18.5,13.3l-6.8,22.7l18.9-13.1l18.9,13.2l-6.8-22.7L622.3,576.8z M633.5,370.6
		c0-144.9-117.9-262.8-262.8-262.8S107.9,225.7,107.9,370.6s117.9,262.8,262.8,262.8S633.5,515.5,633.5,370.6z M680.6,466.3
		l18.5-13.3h-22.8l-7.9-22.2l-7.9,22.2h-22.8l18.5,13.3l-6.8,22.7l18.9-13.1l18.9,13.1L680.6,466.3z M622.5,370.6
		c0,138.8-112.9,251.8-251.8,251.8s-251.8-113-251.8-251.8c0-138.9,113-251.8,251.8-251.8S622.5,231.9,622.5,370.6z M458.3,151.5
		c7.1,10.9,11.4,23.2,8.7,35.9c-1.8,8.4-6.3,16.1-13.6,23.1c13.3,10.2,25.8,20,37.7,31.9c20.4-17.8,36.3-30.8,46.1-38.7
		C515,181.4,488.1,163.6,458.3,151.5z M281.6,152.1c36.9-3.2,77.3,4.3,116.8,23.9c15.7,7.8,31.1,17.2,45.9,27.8
		c7.2-6.5,10.7-12.8,11.9-18.6c3.1-14.3-6.4-28.8-17.5-40.4c-21.6-6.5-44.4-10-68.1-10C339.1,134.9,309.1,141.1,281.6,152.1z
		 M603.9,336.2c-10.4-21.7-26.5-40-43.5-42.8c-8.2-1.3-16.1,0.9-23.6,6.5c25.4,34.5,37.7,76.7,41.2,109.5l-12.6-5.7
		c-3.3-31.1-13.9-64.8-37-96c-16,17.9-30,40.4-40.2,97.1l-12.1,4.6c12.3-71.2,29.9-94.2,46-111.1c-9.4-13.5-21.7-27.8-33.4-40.3
		c-22.5,19.7-50.5,44-81.4,72.1l-7.4-8.2c30.8-28,58.7-52.2,81.2-71.9c-11.8-11.9-22.9-22-36.4-32.2
		c-25.7,18.3-72.7,31.6-142.2,40.4l-1.4-10.9c73-9.3,112.9-22.8,134-36.4c-13.3-9.4-27.2-17.8-41.5-24.9
		c-52.1-25.9-105.3-29.4-149.1-14.6c-57.4,36.4-97.9,96.9-107.5,167.2c7.1-9.5,16.1-20.3,27.8-32.2l-0.3,15.6
		c-14.6,17.3-23.8,31.1-29.6,42c-0.1,2.2-0.1,4.4-0.1,6.6c0,59.5,22.1,113.8,58.4,155.3c12.2-12.9,5.6-5.9,32.2-32.3l12.2,3
		c-27,26.9-22,22.9-36.1,38.4c39.1,40.2,92.3,66.5,151.7,70.8c42.3-17.1,76.8-53.6,96-113.2l14.4-4.6c-20.4,64.6-54.8,99.6-87,118.3
		c77.7-2,146-41.4,187.6-101c0.7-8.6-1-11.5,1.1-14.5c1.7-2.3,10.8-4.5,10.8-4.5c19.3-34.2,30.3-73.7,30.3-115.7
		C606.4,358.9,605.5,347.4,603.9,336.2z M597.3,305.1c-10.2-35.2-28.3-67-52.3-93.5c-9.7,7.8-25.6,20.8-46.1,38.7
		c6.6,7.1,13,15.7,19,23.2c4.6,5.7,8.8,11.4,12.9,17.2c11.2-8.2,22-9.8,31.5-8.2C575,284.7,587.2,293.2,597.3,305.1z M247.6,469.1
		l0.9,16.3c9.8-9.7,21.1-22.5,31.1-32.2l-2.6-12.8C267.1,450.1,257.6,459.4,247.6,469.1z M548.1,426.9c0-4.8,2-6.2,4.8-6.2
		c1.2,6.4,5.9,11.8,12.5,11.8c5.3-0.1,10.4-3.1,10.4-9.1c0-9.8-7.1-13.6-18.4-13.6c-7.9,0-22.7,5.1-28.3,16.1c-0.3,2.4-1,4.5-2,6.2
		c-0.1,1-0.2,2-0.2,3.1c0,27.4,32.3,22.5,32.3,35.2c0,3.3-3.6,5.4-8.7,5.4c-1.3,0-2.7-0.3-3.2-1.9c-1.6-6.2-3.2-14.9-12.8-14.9
		c-6.1,0-9.5,4.7-9.5,10.9c0,13.6,15.6,14.8,24.6,14.8c14.7,0,29.9-5.3,29.9-26.4C579.5,430.1,548.1,438,548.1,426.9z M405.9,433.4
		c0,38.2-25.9,61-57.9,61c-49.2,0-67.1-39.7-67.1-85.7c0-53,23-96.7,80.3-96.7c22.3,0,40.7,14.4,40.7,36.4
		c0,14.3-11.1,21.2-21.6,21.2c-15.4,0-20.4-12.9-22.6-24.2c-0.9-4.8,0.9-15.5-7.1-15.5c-16.7,0-19.4,32.6-20.1,44.6l-1.2,17.7h0.3
		c6.7-10.1,19.2-15,31.4-15C388.7,377.1,405.9,401,405.9,433.4z M358.4,438.6c0-20.2-0.7-37.7-14.4-37.7
		c-11.2,0-13.1,17.5-13.1,37.7c-0.1,20.2-0.6,37.7,13.1,37.7C355.6,476.4,358.4,458.9,358.4,438.6z M529.4,422.9
		c0-7.4-3.5-13.4-11.3-13.4c-9,0-12.4,11.5-15.1,19.7h-0.3c-0.4-6.9-1.4-13.8-4.5-19.9l-27.3,7.9v8.5c7.6,0,9,5.1,9,15.9v30.1
		l-6.9,1.1v9.7h38.4h0.2v-9.7l-6.9-1.1v-13.1c0-4.5,1.6-26.2,6.6-24.5c1.8,0.6,5.2,2.3,9.1,2.3c3,0,5.3-1.7,6.8-4.3
		c0.3-2.2,1-4.3,2-6.2C529.3,425,529.4,424,529.4,422.9z M473.4,467.2c-6.6,11.3-18.9,17.3-31.7,17.3c-22.3,0-32.9-16.8-32.9-35.3
		c0-23.7,13.6-39.7,34.2-39.7c19.4,0,29.6,15.7,30.7,33.4l-36.4,9.8c0.8,8,5.8,15.7,14.3,15.7c6.9,0,11.1-4.3,14.6-9.7L473.4,467.2z
		 M435.6,442.1l6.4-1.7c3.9-1,6.5-2.4,6.5-7.9c0-4.7-1.3-13.2-6.9-13.2c-6,0-6,10.1-6,15.6V442.1z M273.9,308.4l-2.2-6.9l-2.2,6.9
		h-7.4l6,4.4l-2.2,6.8l5.8-4.2l5.8,4.2l-2.2-6.8l6-4.4H273.9z M179.3,270.9l5.8-4.3l5.8,4.3l-2.2-6.9l6-4.4h-7.4l-2.1-6.9l-2.2,6.9
		h-7.5l6,4.4L179.3,270.9z M287.8,288.1l-2.2-6.9l-2.2,6.9h-7.4l6,4.4l-2.2,6.9l5.8-4.3l5.8,4.3l-2.2-6.9l6-4.4H287.8z M187.9,247.6
		l5.8-4.2l5.9,4.2l-2.2-6.8l6.1-4.4h-7.4l-2.4-6.9l-2.2,6.9h-7.4l6,4.4L187.9,247.6z M257.1,230.4l5.8-4.2l5.8,4.2l-2.2-6.8l6-4.4
		h-7.5l-2.2-6.9l-2.1,6.9h-7.4l6,4.4L257.1,230.4z M191.1,289.4l6-4.4h-7.4l-2.3-6.9l-2.2,6.9h-7.4l6,4.4l-2.2,6.9l5.8-4.2l5.9,4.2
		L191.1,289.4z M278.1,243.1l-2.2,6.9l5.8-4.3l5.8,4.3l-2.2-6.9l6-4.4h-7.4l-2.2-6.9l-2.2,6.9h-7.4L278.1,243.1z M225.6,319l-2.2-7
		l-2.2,7h-7.4l6,4.4l-2.2,6.8l5.8-4.2l5.9,4.2l-2.2-6.9l6-4.3H225.6z M241.6,217.7l6-4.4h-7.4l-2.2-6.9l-2.2,6.8h-7.4l6,4.4
		l-2.2,6.9l5.8-4.2l5.8,4.2L241.6,217.7z M249.6,326.9l5.8,4.3l-2.2-6.9l6-4.4h-7.4l-2.2-6.9l-2.2,6.9h-7.4l6,4.4l-2.2,6.9
		L249.6,326.9z M215.5,223.5l6-4.4h-7.4l-2.2-6.9l-2.2,6.9h-7.4l6,4.4l-2.2,6.8l5.8-4.2l5.8,4.2L215.5,223.5z M203.6,305.7l-2.2-6.9
		l-2.2,6.9h-7.4l6,4.4l-2.2,6.8l5.8-4.2l5.9,4.2l-2.2-6.8l6-4.4H203.6z M288.7,255.9l-2.2,6.9h-7.4l6,4.4l-2.2,6.8l5.8-4.2l5.8,4.2
		l-2.2-6.8l6-4.4h-7.4L288.7,255.9z"/>
	<path class="st2" d="M296.8,313c-30.6,32.3-85.9,31.5-121.6-2.8c-2.2-2.1-3.2-1.1-3.4,0.8h-0.1v68.2c38.2,5.6,83.8,1.9,116.1-45.3
		c1.4-2,2.2-0.6,1.3,1.2c-9,18.3-30.3,35.3-48.7,49.8c-17.8,13.9-65.2,63.7-64.6,107.5c0,3.3,0.2,2.4,3.1,0.2
		c14.4-10.6,42.7-11,60-2.7c2.4,1.1,2.6,0.8,2.3-2.3c-3.3-33.9,4.3-71.1,18.9-92.6c10.1-14.9,37.1-53.4,41.7-83.5
		C302.3,308.4,300.7,308.9,296.8,313z"/>
</g>
</svg>
