<?xml version="1.0" encoding="utf-8"?>
<!-- Generator: Adobe Illustrator 25.0.0, SVG Export Plug-In . SVG Version: 6.00 Build 0)  -->
<svg version="1.1" id="Layer_1" xmlns="http://www.w3.org/2000/svg" xmlns:xlink="http://www.w3.org/1999/xlink" x="0px" y="0px"
	 viewBox="0 0 718.6 821" style="enable-background:new 0 0 718.6 821;" xml:space="preserve">
<style type="text/css">
	.st0{fill:#FFFFFF;}
	.st1{fill:#63717A;}
	.st2{fill:#5B2B82;}
</style>
<g id="XMLID_1_">
	<path class="st0" d="M148.3,253.7h-37.3v55.5h14.4v-14.4H142v14.4h14.4v-47.2h-0.2C156.3,257.9,152.2,253.7,148.3,253.7z
		 M142,284.6h-16.5v-18.5H142V284.6z M172.1,254.6h43.8v10.9h-29.2v31.7h29.2v11h-36.5c-4,0-7.3-3.3-7.3-7.3V254.6z M275.4,288.6
		v-26.7c0-4-2.5-8.2-6.5-8.2h-36.7v55.5h14.4v-20.5h7.6l7.3,20.5h14.6l-7.3-20.5H275.4z M261.1,278.4h-14.4v-12.3h14.4V278.4z
		 M51.4,254.6h43.8v11H66v11h21.9c4,0,7.3,3.3,7.3,7.3v24.4H51.4v-11h29.2v-11H58.7c-4,0-7.3-3.3-7.3-7.3V254.6z M577.7,265.6h-14.6
		v-11h43.8v11h-14.6v42.6h-14.6V265.6z M629.7,307.1h28.4c4,0,7.3-3.3,7.3-7.3V261c0-4-3.3-7.3-7.3-7.3h-28.4c-4,0-7.3,3.3-7.3,7.3
		v38.8C622.4,303.8,625.7,307.1,629.7,307.1z M636.7,266.1h14.4v30.8h-14.4V266.1z M442.6,254.6h43.8v10.9h-29.2v11h29.2v10.9h-29.2
		v11h29.2v11h-36.5c-4,0-7.3-3.3-7.3-7.3V254.6z M615.1,103.6l-85.3-85.3l-85.3,85.3l-85.3-85.3L274,103.6l-85.3-85.3l-85.1,85.3
		L0,0v461.7C0,660.2,160.9,821,359.3,821S718.6,660,718.6,461.7V0L615.1,103.6z M30.4,354.3h48.8v57.3h14.6l26.7-57.2v-0.2h48.8
		L135.1,425l34.2,70.7h-48.6l-26.9-57.3H79.2v57.3H30.4V354.3z M82.2,644.2c-23.8-35.9-40.7-76.6-49.2-120.4h140.9
		c2.2,13.5,5.9,29,11.3,45.8C109,588.6,85.9,635.5,82.2,644.2z M295.9,786.8c-75.3-14.6-141.4-54.4-189.2-110.1
		c3.6-11.7,21.4-54.5,91.8-71.3C228.8,676.8,283,756.8,357.3,793C337.1,792.9,316.6,790.8,295.9,786.8z M185.2,495.7V354.3h48.8
		v141.4H185.2z M439.8,783.1c-112.8-19.3-175.4-108-206.4-182.7c8.9-1.2,18.3-1.2,28.4-1.2c152.2,0,250.9,110.9,316.7,110.9
		c0.2,0,0.3,0,0.3,0C539.3,745,491.5,770.2,439.8,783.1z M621,665.6c-5.7,4.3-13.8,7.9-24.2,7.9c-79.2,0-158.3-112-341.1-112
		c-12.7,0-24.4,0.6-35.7,1.9c-4.8-14.9-8.1-28.4-9.8-39.6h475.5C675.4,577.4,652.6,625.6,621,665.6z M299.8,381.4v114.5H251V354.5
		h119.3c8.1,0,14.6,6.5,14.8,14.8v126.6h-48.8V381.4H299.8z M488.2,469v-57.3H537v84H417.7c-8.1,0-14.6-6.5-14.6-14.6H403V354.3H537
		v26.9h-85.3V469H488.2z M688.2,391.1h-48.8v-9.8h-36.5v30.4h70.7c8.1,0,14.6,6.5,14.6,14.6v69.4H554.3V469h85.3v-30.4h-70.7
		c-8.1,0-14.6-6.5-14.6-14.6h-0.2v-69.3h134.1V391.1z M688.2,325.1H30.4V73l73,73l85.3-85.3l64,64L167.5,210H210L359.3,60.7
		l85.3,85.3l85.3-85.3l64,64L508.6,210h42.6l137-137V325.1z M546.6,261.9L546.6,261.9l0,46.3H532v-42.6h-14.6v42.6h-14.6v-53.6h36.5
		C543.4,254.6,546.6,257.9,546.6,261.9z M425.9,261.9L425.9,261.9l0,46.3h-14.6v-42.6h-14.6v42.6h-14.6v-42.6h-14.6v42.6h-14.6
		v-53.6h65.7C422.7,254.6,425.9,257.9,425.9,261.9z M329.2,253.7h-37.4v55.5h16.5v-14.4h14.4v14.4h14.4v-47.2h-0.2
		C336.9,257.9,333.2,253.7,329.2,253.7z M322.6,284.6h-14.4v-18.5h14.4V284.6z"/>
	<path class="st1" d="M685.7,523.8c-10.4,53.6-33.1,101.7-64.8,141.8c-5.7,4.3-13.8,7.9-24.2,7.9c-79.2,0-158.3-112-341.1-112
		c-12.7,0-24.4,0.6-35.7,1.9c-4.8-14.9-8.1-28.4-9.8-39.6H685.7z M578.5,710.2c-65.7,0-164.5-110.9-316.7-110.9
		c-10.1,0-19.6,0-28.4,1.2c31.1,74.7,93.7,163.3,206.4,182.7c51.7-12.9,99.4-38.2,139.2-73C578.8,710.1,578.6,710.2,578.5,710.2z
		 M198.5,605.4c-70.4,16.8-88.2,59.7-91.8,71.3c47.8,55.8,113.9,95.5,189.2,110.1c20.5,4,41,5.9,61.2,6.1
		C283,756.8,228.8,676.8,198.5,605.4z M185.2,569.6c-5.4-16.6-9.2-32.2-11.3-45.8H32.9c8.5,43.8,25.5,84.7,49.2,120.4
		C85.9,635.5,109,588.7,185.2,569.6z"/>
	<path class="st2" d="M403,354.3H537v26.9h-85.3V469h36.5v-57.3H537v84H417.7c-8.1,0-14.6-6.5-14.6-14.6H403V354.3z M554.1,423.9
		h0.2c0,8.1,6.5,14.6,14.6,14.6h70.7V469h-85.3v26.9h133.9v-69.4c0-8.1-6.5-14.6-14.6-14.6h-70.7v-30.4h36.5v9.8h48.8v-36.5H554.1
		V423.9z M370.3,354.5H251v141.4h48.8V381.4h36.5v114.5h48.8V369.2C384.9,361,378.4,354.5,370.3,354.5z M185.2,495.7h48.8V354.3
		h-48.8V495.7z M120.5,354.3v0.2l-26.7,57.2H79.2v-57.3H30.4v141.4h48.8v-57.3h14.6l26.9,57.3h48.6L135.1,425l34.2-70.7H120.5z
		 M125.5,284.6H142v-18.5h-16.5V284.6z M636.7,296.9h14.4v-30.8h-14.4V296.9z M308.2,284.6h14.4v-18.5h-14.4V284.6z M688.2,73v252.1
		H30.4V73l73,73l85.3-85.3l64,64L167.5,210H210L359.3,60.7l85.3,85.3l85.3-85.3l64,64L508.6,210h42.6L688.2,73z M95.2,254.6H51.4
		V279c0,4,3.3,7.3,7.3,7.3h21.9v11H51.4v11h43.8V284c0-4-3.3-7.3-7.3-7.3H66v-11h29.2V254.6z M156.4,261.9h-0.2c0-4-4-8.2-7.9-8.2
		h-37.3v55.5h14.4v-14.4H142v14.4h14.4V261.9z M215.9,254.6h-43.8v46.3c0,4,3.3,7.3,7.3,7.3h36.5v-11h-29.2v-31.7h29.2V254.6z
		 M276.2,309.1l-7.3-20.5h6.5v-26.7c0-4-2.5-8.2-6.5-8.2h-36.7v55.5h14.4v-20.5h7.6l7.3,20.5H276.2z M337.1,261.9h-0.2
		c0-4-3.7-8.2-7.8-8.2h-37.4v55.5h16.5v-14.4h14.4v14.4h14.4V261.9z M425.9,261.9c0-4-3.3-7.3-7.3-7.3h-65.7v53.6h14.6v-42.6h14.6
		v42.6h14.6v-42.6h14.6v42.6h14.6L425.9,261.9L425.9,261.9z M486.4,254.6h-43.8v47.5c0,4,3.3,7.3,7.3,7.3h36.5v-11h-29.2v-11h29.2
		v-10.9h-29.2v-11h29.2V254.6z M546.6,261.9c0-4-3.3-7.3-7.3-7.3h-36.5v53.6h14.6v-42.6H532v42.6h14.6L546.6,261.9L546.6,261.9z
		 M606.9,254.6h-43.8v11h14.6v42.6h14.6v-42.6h14.6V254.6z M665.5,261c0-4-3.3-7.3-7.3-7.3h-28.4c-4,0-7.3,3.3-7.3,7.3v38.8
		c0,4,3.3,7.3,7.3,7.3h28.4c4,0,7.3-3.3,7.3-7.3V261z M246.7,278.4h14.4v-12.3h-14.4V278.4z"/>
</g>
</svg>
