<?xml version="1.0" encoding="utf-8"?>
<!-- Generator: Adobe Illustrator 25.0.0, SVG Export Plug-In . SVG Version: 6.00 Build 0)  -->
<svg version="1.1" id="Layer_1" xmlns="http://www.w3.org/2000/svg" xmlns:xlink="http://www.w3.org/1999/xlink" x="0px" y="0px"
	 viewBox="0 0 856.4 837.5" style="enable-background:new 0 0 856.4 837.5;" xml:space="preserve">
<style type="text/css">
	.st0{fill:#FFFFFF;}
	.st1{fill:#1061AC;}
	.st2{fill:#C4CED4;}
</style>
<g>
	<path class="st0" d="M347.1,76.9l-5.3,2.2l0.2-6.9L347.1,76.9z M514.3,74.5l-5.2,4.5l5.2,2.3V74.5z M594.2,531.3
		c10.6-2.1,31.8-6.3,42.3-8.6c6.7-1.5,26.6-6.7,26.6-6.7l12.5-3.8l-5.8,17.1c7.9-10.2,21.4-19.5,24.7-21.7l0.6-0.4l45.6-17.3
		l15.1-5.7c0,0-44,100.2-44.3,100.9c0.1,0,0.5,0,0.5,0l-3.5,9.4c-0.8,2.1-19.6,52.5-28.3,67.5c-10.1,17.4-30.4,20.2-31.3,20.3
		l-0.4,0.1H648c-0.4,0-8.9,0-17.6-0.8c0,0-9-2.9-12-3.7c-7.4-1.8-30.1-5.8-30.1-5.8l-27.2-4.3l2.8-9.7c-8.3,7.3-18.6,7.9-19.2,7.9
		l-65.9-5.2l-55.1-2.7l0.3-10.8c-3.9,5.8-10.4,12.7-19.2,13.3c-10.9,0.8-29.8,0.8-30.6,0.8h-6.6l-0.3-10.5
		c-2.1,4.3-5.4,7.8-10.5,9.4c-9.9,3-27.5,2.9-31.3,3.4c-15.9,2-37.9,5.5-37.9,5.5l-24.8,3.8l-35.6,7.4l-29.1,7.1l-29.8,8.8
		L94.1,496.9l-5-13.5c0,0,43.6,15.7,58.3,20.4c11.4,3.7,45.8,13.7,45.8,13.7l0.3,0.1c1.1,0.5,26.9,11.5,34.7,35
		c0.3,0.8,0.6,1.8,0.9,2.8l-5.4-21.4l-2.6-10.6l45.8,10.2l0.3,0.1c0.8,0.3,16.2,5.4,24.9,18c-0.4-2.1-0.8-3.6-0.9-4.1v0.1l-3.3-10.3
		c0,0,32.1,5.1,42.9,6.1c9.2,0.9,36.9,1.7,36.9,1.7v6.6c0,3,0,6.1,0,9.3c3.3-7.3,9.9-13.7,21.1-13.7l39.1,0.2l2.1-0.1
		c0.2,0,0.5,0,0.7,0c6,0,12-0.2,17.9-0.7l25.8-1h0.3h0.3c4.6,0.3,12.4,2.7,16.4,9l1.1-9.5l30.4-1.9l8.5-0.5l-2.5,14.5
		c6.7-12.4,19.3-17.2,19.9-17.4l0.5-0.2C549.5,539.9,583,533.4,594.2,531.3z M254.4,667.8c0,0-25.5-92-32.5-112.9S191,524,191,524
		s-20.9-6.2-24.7-7.7c-3.9-1.5-5.4,0-5.4,0v7c0,0-1.1-2.7-3.9-5.4c-3.7-3.7-12.4-7.7-12.4-7.7l-44.1-15.5l71.9,193.4l21.7-6.4
		c0,0-49.5-140.6-51-146s-4.7-9.1,0-9.3c6.6-0.3,12.4,12.4,12.4,12.4c3.9,4.6,47.2,140.6,47.2,140.6l20.1-5.4l-37.1-122
		c0,0-4.6-11.6,0-13.1c4.6-1.5,13.1,17.8,13.1,17.8l33.3,116L254.4,667.8z M309.3,658.6c0,0-14.7-75.8-18.6-93.6
		c-3.9-17.8-25.5-24.7-25.5-24.7l-34.8-7.7l33.3,133l19.3-3.1L269.9,613l12.4,0.8l10.6,47.8L309.3,658.6z M362.6,627.6
		c-1.5-6.2-1.5-75.8-1.5-75.8l-24.7-0.8c0,0,12.4,77.3,10.8,86.6c-1.5,9.3-10.8,11.6-12.4,1.5c-1.5-10-10.1-89.7-10.1-89.7
		l-27.1-3.9c1.5,4.6,17.8,92,19.3,102.9c1.5,10.8,7.7,8.5,7.7,8.5s20.1,0,30.2-3.1C365,650.8,364.2,633.8,362.6,627.6z M403.6,565.7
		v28.6H423l0.8-39.4c0,0-17.8-0.8-34.8-0.8s-17,19.3-17,19.3l2.3,81.2c0,0,19.3,0,30.2-0.8c10.8-0.8,17.8-17,17.8-17l0.8-14.7h-17
		c0,0,0,0-1.5,13.1c-1.5,13.2-14.7,8.5-14.7,8.5v-33.2h31.7v-7.7h-30.9c0,0,0-17.8,0-28.6C390.5,563.4,403.6,565.7,403.6,565.7z
		 M475.6,605.2c7-3.1,10-14.7,10-14.7s2.3-18.6,1.5-27.8c-0.8-9.3-12.4-10.1-12.4-10.1l-41,1.5l-3.1,97.5l17.8,0.6l2.3-40
		c11.6,0,11.6,7,11.6,7l-3.1,33.3h17c0,0,4.6-20.9,4.6-33.3C481,606.7,475.6,605.2,475.6,605.2z M505.7,655.5l17.8-105.2l-24.8,1.6
		l-12.4,102.7L505.7,655.5z M644.9,611.4l28.6,0.8L657.3,654c0,0-3.1,7-7.7,7c-4.6,0-5.4-3.1-3.9-7.7c1.5-4.6,13.1-31.7,13.1-31.7
		h-16.2L627.1,664c0,0-4.6,10.1,3.9,10.8c8.5,0.8,17,0.8,17,0.8s17.8-2.3,26.3-17s27.8-66.5,27.8-66.5l-27.1,0.8
		c0,0-3.1,0.8-2.3-5.4s19.3-48,19.3-48s3.9-3.9,7-4.6c3.1-0.8,1.5,7,1.5,7l-14.7,37.9l20.9-0.8l36.4-82.8l-44.9,17
		c0,0-23.2,15.5-27.1,27.1C667.4,551.8,644.9,611.4,644.9,611.4z M606.3,537.1l-36.6,125.1l16.4,2.3l16.2-53.9
		c13.9,1.5,7.7,10,7.7,10l-13.3,46.2l17.2,3.3c0,0,12.4-34,16.2-45.6c3.9-11.6-3.1-19.3-3.1-19.3c6.2-1.5,15.5-16.2,15.5-16.2
		l22.4-66.5l-25.5,7.7c0,0-13.9,49.5-17.8,58.8c-3.9,9.3-15.5,8.5-15.5,8.5l20.9-65L606.3,537.1z M595.4,537.9l-44.1,8.5
		c0,0-14.7,5.4-18.6,20.1c-3.9,14.7-16.2,81.2-16.2,81.2s-1.5,7.7,3.9,9.3s24,2.3,24,2.3s16.2-0.8,21.7-16.2
		c5.4-15.5,9.3-30.2,9.3-30.2l-21.7,1.5l-5.4,21.7c0,0-3.1,10.1-7.7,11.6c-4.6,1.6-7-4.6-6.2-7c0.8-2.3,15.5-69.6,15.5-69.6
		s8.5-16.2,12.4-15.5c3.9,0.8,3.1,6.2,3.1,6.2l-7.7,30.2l23.2-0.8L595.4,537.9z M453.1,563.4l-1.5,36.4c15.5,1.5,12.4-5.4,12.4-5.4
		s2.3-15.5,2.3-25.5C466.3,558.8,453.1,563.4,453.1,563.4z M256.7,558.8l10.8,44.1h12.4c0,0-4.6-34.8-10.1-43.3
		C264.4,551.1,255.9,543.3,256.7,558.8z M851.3,392.3l-12.6,30.8c-10.8,26.5-54.9,130-90.4,213.1c-22.3,52.3-41.6,97.5-44.6,104.8
		l-4.2,10.2L689,748c-6-1.9-14.6-4.5-25.2-7.6l-6.3,15.5l-5.5,13.3l-12.1-7.8c-0.6-0.4-57.9-36.7-114.6-43.6
		c-6,8.4-17.9,25-31.7,42.7c-27.1,34.7-48.3,57.1-63,66.7l-6.5,4.2l-6.5-4.2c-29.8-19.4-84-87.9-99.4-107.8
		c-57.2,6.9-119.4,45-120,45.4l-12.3,7.6l-5.2-13.4l-6.7-17.2c-15.4,5.9-19,9-19.3,9.3l-13,14.6l-7.1-18.3
		C127,728.2,97.2,646.2,68.3,567c-24.1-66.2-46.9-128.7-51.6-140.7L5.2,396.6l28.3,14.7c4.3,2.2,9,4.5,14.2,6.9l-2-5.1l-12.3-31.5
		l29.4,16.7c42.1,23.9,79.9,39.4,103.5,48c-14.1-32.6-27.1-68.8-38.7-107.9c-11.7-39.4-21.9-81.9-30.5-126.3
		C82.6,136.5,77.8,80.8,77.8,80.2l-1.4-17.4l16.8,4.9l121.9,35.9c0-0.1,0-0.1,0-0.2l5.1,1.5c22.8-28.7,52-52.5,85-69.3
		C341.9,16.9,383.3,7.1,425,7.1c41.6,0,82.9,9.8,119.5,28.4c32.9,16.7,62.1,40.5,84.9,69l6.2-1.8c0,0.1,0,0.1,0,0.2L760,66.1
		l17.3-5.1l-2,18c-0.1,0.6-6.4,56.6-21.6,132.4c-12.6,63.1-33.9,152.2-65.7,233.4c20.8-8.9,53-24,92.5-46.4l30.2-17.1l-13.1,32.1
		l-3.3,8.1c10.7-4.8,20-9.3,27.6-13.4L851.3,392.3z M656.9,725.8L656.9,725.8c-40-11.7-100.9-28-136.4-30.8l-5.8-0.5l-3.3,4.8
		c-16,23.1-60.5,83.7-87.3,105.3c-32.8-25.7-91.7-103.1-92.4-104l-3.3-4.4l-5.5,0.4c-32.9,0.1-100.1,15.5-141.9,29.8l0.1,0.2
		c-0.1,0.1-0.3,0.1-0.4,0.2c0.1-0.1,0.3-0.1,0.4-0.2l10.9,27.9l0.1,0.2c0,0,69.2-42.8,131.8-47.8c0,0,67.5,89,100.5,110.4
		c32.9-21.4,95.5-112,95.5-112c62.6,4.9,126.8,46.1,126.8,46.1L656.9,725.8L656.9,725.8z M794.7,444.8
		c-61.3,29-124.6,48.2-173.2,60.2c7.6-15.7,14.8-32,21.6-48.7c80.7-197.7,89-347.6,89-347.6l-93.6,30.1c0.3,0.5,0.6,1.1,0.9,1.6
		c-2.6-4.5-5.4-8.9-8.3-13.2c0-0.1-0.1-0.1-0.1-0.2c28.1-8.3,101.1-29.9,120.3-35.5c-7.1,52.6-34.3,231.1-94.5,370.6l-12.1,28.7
		c0,0,68.2-22.7,127.2-47.1l14.4-35.3C713.8,449.6,666,466,666,466c72.5-168,97.2-388.8,97.2-388.8l-138.5,40.9
		c-1.2-1.7-2.5-3.3-3.8-5s-2.7-3.4-4.1-5C572,54,502.6,19.1,425,19.1c-77.7,0-147.1,34.9-192.2,89.4c-1.4,1.7-2.8,3.4-4.1,5.1
		c-1.3,1.7-2.7,3.5-4,5.2l-8.1-2.4L89.7,79.1c0,0,18.1,219.1,98.8,387.1c0,0-59.3-16.5-131.8-57.6l12.4,31.8
		c61.6,24.9,137.6,46.4,137.6,46.4l-10.2-25c-67-139.5-89.5-316.9-95.2-368.7c18.9,5.6,90.9,26.7,117.2,34.5
		c-1.4,2.1-2.7,4.2-4.1,6.3c0,0.1-0.1,0.1-0.1,0.2c-1.3,2.1-2.6,4.3-3.9,6.4c0.2-0.3,0.4-0.7,0.6-1l-96.7-29
		c0,0,16.5,136.7,80.7,316.3c9.3,25.9,20.6,51.8,33.2,77.2c-96.6-23.4-176.5-59-176.5-59l103.8,276.7c0,0,107.1-29.6,156.5-36.2
		c8.1-1.1,17.6-2,28-2.7c45.5,61.4,82.3,101.5,82.3,101.5s39.3-36.6,88.3-100.4c5.9,0.5,11.7,1,17.1,1.5
		c64.2,6.6,149.9,32.9,149.9,32.9L794.7,444.8z M459.5,694.3c-9.8-1.4-23.1-2.8-29.3-3.4l-1.9-0.2l-0.5-1.8
		c-0.8-3.1-3.5-11-5.6-16.9c-2.1,5.9-4.8,13.7-5.6,16.9l-0.5,1.8l-1.9,0.2c-6.2,0.6-19.5,2.1-29.3,3.4c8.9,3.1,20.4,8.2,24.5,15
		l0.7,1.1c0,0-4.8,12.4-8.1,20.7c7.6-5.5,20.1-14.5,20.1-14.5s12.5,9,20.1,14.5c-3.2-8.2-8.1-20.7-8.1-20.7l0.7-1.1
		C439.1,702.5,450.7,697.4,459.5,694.3z M295.2,110.7c1.3-1.1,2.1-1.9,2.5-2.6c0.4-0.6,0.5-1.3,0.5-2.1c-0.1-0.7-0.6-1.6-1.4-2.7
		c-1.2-1.4-2.3-2.1-3.4-2.1c-1.1,0-2.5,0.7-4.1,2.1l-1.6,1.3l6,7.3L295.2,110.7z M214.1,250.2l-3.9,16.2c-7.7,7.7-7.7,30.9-7.7,30.9
		c-2.5,0-4.3,0.5-5.7,1.4c-2.8-13.8-4.3-28.1-4.3-42.6c0-123.3,104.2-223.5,232.3-223.5s232.3,100.3,232.3,223.5
		c0,11.8-1,23.4-2.8,34.7c-6.9-49.9-30-94.7-64-128.7C549.7,121.3,493.2,96,430.9,96c-9.6,0-19,0.6-28.2,1.8
		c2.1-6.5,9.5-13.9,9.5-13.9c-60.3-1.5-76.6,34.8-82,35.6c-5.4,0.8-32.5,18.6-32.5,18.6l-10.1,1.5L269,157.4c0,0-1.5,8.5-4.6,10.8
		c-3.1,2.3-17.8,20.1-17.8,20.1C219.6,210.8,214.1,250.2,214.1,250.2z M550.9,109.8c0.5,2,2.5,4.4,5.8,7.4c1.9,1.7,3.6,2.9,5.2,3.6
		c1.6,0.7,3,1.1,4.3,1c1.3-0.1,2.3-0.6,3.1-1.4c0.6-0.7,0.9-1.6,0.9-2.6s-0.4-2.3-1.2-3.6c-0.8-1.4-2.4-3.5-4.7-6.2
		c-0.9-1.1-1.5-1.8-1.6-2.3c-0.1-0.4-0.1-0.7,0.1-0.9c0.3-0.3,0.6-0.4,1.2-0.3c0.5,0.1,1.2,0.5,1.9,1.1c0.9,0.7,1.4,1.5,1.7,2.2
		s0.2,1.4-0.2,2.1l5.9,4.8c0.9-1.6,1-3.3,0.3-5c-0.8-1.8-2.4-3.8-4.9-6c-2-1.8-3.8-3-5.3-3.7s-2.8-1-3.9-0.9c-1.1,0.1-2,0.5-2.6,1.2
		c-0.9,1-1,2.4-0.5,4c0.6,1.7,2,3.8,4.3,6.6c1.4,1.7,2.2,2.8,2.4,3.5c0.2,0.7,0.2,1.2-0.1,1.5c-0.3,0.4-0.8,0.5-1.5,0.3
		c-0.7-0.1-1.5-0.6-2.4-1.3c-1.2-1-1.8-2.1-2-3.1c-0.1-0.7,0.1-1.4,0.5-2.1l-6-4.8C550.6,106.1,550.4,107.8,550.9,109.8z
		 M496.2,80.5l7.5,3.4l2.4-2.1l8.3,3.7v3.2l7.7,3.5l-1.8-19.9l-8.1-3.6L496.2,80.5z M445.9,69.4l20.4,2.9l0.6-4.2l-12.5-1.8l1.9-13
		l-8-1.1L445.9,69.4z M389.7,53.9l2,17.3l20.5-2.4l-0.5-4.2L399.2,66l-1.5-13L389.7,53.9z M333.9,89.5l7.6-3.2l0.1-3.2l8.4-3.5
		l2.3,2.2l7.8-3.2l-15.7-12.3l-8.2,3.4L333.9,89.5z M278.9,106.7l11,13.4l9.3-7.6c1.1-0.9,2.3-2,3.4-3.4c0.9-1,1.5-2.1,1.9-3.4
		c0.4-1.3,0.6-2.5,0.4-3.7s-0.8-2.5-2-3.9c-0.8-0.9-1.6-1.7-2.6-2.2s-2.1-0.8-3.4-0.9c-1.2,0-2.6,0.3-4,0.9c-1.4,0.6-3,1.6-4.8,3.1
		L278.9,106.7z M314.7,396.4c0,0-30.2-40.2-36.3-54.1c-6.2-13.9-8.5-21.7-8.5-21.7s10.8,13.1,16.2,17.8c5.4,4.6,10.8,7,7.7,1.5
		c-3.1-5.4-17-34.8-17-38.7s0-8.5,6.2-1.6c6.2,7,18.6,13.1,25.5,15.5c7,2.3,10.1,1.5,4.6-3.9c-5.4-5.4-17.8-21.7-22.4-37.9
		c-4.6-16.2-3.9-43.3,2.3-58.8c6.2-15.5,17-36.3,23.2-44.1c6.2-7.7,18.6-16.2,19.3-30.9c0.8-14.7,18.6-27.1,18.6-27.1
		s19.3-15.5,34-18.6l7-0.8c0,0-15.5,19.3-17,25.5c-1.1,4.3-4.7,13.7-1.8,35.8c5.5,48.5-4.7,33-9,27.6c0,0-3.9,3.1-1.5,11.6
		c2.3,8.5,7,32.5,14.7,45.6s31.7,37.1,31.7,37.1s-10.1-0.8-19.3-7c-9.3-6.2-13.1-17-13.1-17s-2.3,4.6-1.5,7
		c0.8,2.3,10.8,40.2,10.8,40.2s3.1,19.3,4.6,27.1c1.5,7.7,5.4,20.9,6.2,27.1c0.8,6.2,2.3,14.7,4.6,20.1c2.3,5.4,2.3,5.4,2.3,5.4
		l7-15.5c0,0,3.1,11.6,3.1,20.1s1.5,24.7,2.3,29.4c0.8,4.6,1.5,8.5-3.1,13.1c-4.6,4.6-23.2,15.5-26.3,16.3s-21.7,5.4-37.1-2.3
		c0,0,7.7,15.5,26.3,27.8c18.6,12.4,24,15.5,53.4,20.1c29.4,4.6,76.6,3.9,76.6,3.9s-32.5,8.5-49.5,8.5s-55.7,1.5-95.9-16.2
		c-40.2-17.8-84.3-78.1-84.3-78.1l-10.1-18.6c0,0,15.5,10.8,44.9,18.6C343.3,414.2,314.7,396.4,314.7,396.4z M381.2,384.8
		c-3.6,4.3-3,18.8-3,18.8c-1,5.4,0.3,11.4,10,13c0,0-1.5-31.7,13.2,7c3.1-13.2,2.3-27.1-3.1-37.9
		C392.8,374.7,383.3,382.3,381.2,384.8z M370.4,312.8c2.3,7.7,1.5,18.6,1.5,18.6l1.5,37.1c9.3-4.6,19.3,3.9,19.3,3.9
		s-7-32.5-10.8-40.2c-3.9-7.7-5.4-17-5.4-20.1c0-3.1-1.5-10.1-1.5-10.1l-4.6-11.6C370.4,290.4,368.1,305.1,370.4,312.8z M348.7,145
		l12.4-11.6h3.9c0,0,13.1-27.8,15.5-30.9c2.3-3.1-13.9,7.7-13.9,7.7s-10.1,10.8-10.8,13.9C354.9,127.2,348.7,145,348.7,145z
		 M343.3,216.9c0,7,5.4,14.7,12.4,19.3c7,4.6,13.1,3.1,13.1,3.1s-10.8-16.2-13.9-30.2c-3.1-13.9-1.5-25.5-1.5-25.5s-4.6,3.9-6.2,8.5
		C345.6,196.8,343.3,210,343.3,216.9z M339.4,258.7c12.4,15.5,29.4,24.7,29.4,24.7l-7-25.5l-8.5-7c0,0-3.1,1.5-5.4,0.8
		c-2.3-0.8-13.1-17.8-17-30.9c-3.9-13.1,2.3-28.6,2.3-28.6s-7.7,10.8-8.5,20.9C324,223.1,327.1,243.2,339.4,258.7z M356.4,405.7
		l4.6,3.1c0,0,1.6-5.4-0.8-7c-2.3-1.5-31.7-68.1-31.7-68.1l-24-5.4c0,0,12.4,22.4,21.7,37.9C335.6,381.7,356.4,405.7,356.4,405.7z"
		/>
	<path class="st1" d="M542.1,409.6c0,0,2.3-51.8-20.9-90.5s-34-47.2-34-47.2c11.6,2.3,24,14.7,24,14.7
		c-0.8-10.1-15.5-38.7-15.5-38.7c9.3,4.7,52.6,33.3,66.5,50.3s29.4,34,37.9,60.3s9.3,54.9,9.3,54.9l-0.2,1.9
		c-8.9,10.2-19.5,21.1-31.5,30.6c-12.3,9.7-27.7,16.1-41.7,20.3C539.8,448.9,542.1,409.6,542.1,409.6z M527.4,400.2
		c-4.6-37.1-13.2-76.6-41-101.3c0,0,6.2,22.4,4.6,37.9c-1.6,15.5-12.4,35.6-12.4,35.6s-3.9-36.3-14.7-37.1c0,0,0,10.1-0.8,17
		c-0.8,7-7.7,20.1-3.1,30.9c4.6,10.8,11.6,39.4,12.4,42.5c0.8,3.1,2.3,11.6,2.3,11.6s1.5,3.1-3.1,7c-4.6,3.9-20.9,17.8-20.9,17.8
		s-12.4,7-4.6,9.3c7.7,2.3,51.8,2.3,51.8,2.3s11-0.9,25.7-4.3l-0.2-1.1C523.5,468.3,532,437.4,527.4,400.2z M541.4,209.9
		c-10.1,0-37.9-5.4-46.4-8.5l2.3,11.6c0,0-10.8-11.6-23.2-11.6v5.4c0,0,30.1,12.4,57.2,33.3c27,20.9,51,49.5,51,49.5
		s17.5,17,29.4,52.6c6.9,20.9,7.8,35.2,7.7,47.2c0,3.8-0.6,15.4-0.6,15.4s8.3-10.4,10.1-14.4c7.3-15.8,11.5-44.6,11.5-68.6
		c0-46.5-15.1-89.4-40.7-124.1c-2,0.8-13.9,5.5-24.4,7.6C563.7,207.7,551.3,210,541.4,209.9z M536.1,522.2c0,0-0.6,0.1-1.7,0.2
		c-26,13.5-55,22-85.7,24.4l25.8-1h0.3h0.3c4.6,0.3,12.4,2.7,16.4,9l1.1-9.5l30.4-1.9l8.5-0.5l-2.5,14.5
		c6.7-12.4,19.3-17.2,19.9-17.4l0.5-0.2c0,0,33.5-6.4,44.6-8.6c10.6-2.1,31.8-6.3,42.3-8.6c6.7-1.5,26.6-6.7,26.6-6.7l12.5-3.8
		l-5.8,17.1c7.9-10.2,21.4-19.5,24.7-21.7l0.6-0.4l45.6-17.3l15.1-5.7c0,0-44,100.2-44.3,100.9c0.1,0,0.5,0,0.5,0l-3.5,9.4
		c-0.8,2.1-19.6,52.5-28.3,67.5c-10.1,17.4-30.4,20.2-31.3,20.3l-0.4,0.1H648c-0.4,0-8.9,0-17.6-0.8c0,0-9-2.9-12-3.7
		c-7.4-1.8-30.1-5.8-30.1-5.8l-27.2-4.3l2.8-9.7c-8.3,7.3-18.6,7.9-19.2,7.9l-65.9-5.2l-55.1-2.7l0.3-10.8
		c-3.9,5.8-10.4,12.7-19.2,13.3c-10.9,0.8-29.8,0.8-30.6,0.8h-6.6l-0.3-10.5c-2.1,4.3-5.4,7.8-10.5,9.4c-9.9,3-27.5,2.9-31.3,3.4
		c-15.9,2-37.9,5.5-37.9,5.5l-24.8,3.8l-35.6,7.4l-29.1,7.1l-29.8,8.8L94.1,496.9l-5-13.5c0,0,43.6,15.7,58.3,20.4
		c11.4,3.7,45.8,13.7,45.8,13.7l0.3,0.1c1.1,0.5,26.9,11.5,34.7,35c0.3,0.8,0.6,1.8,0.9,2.8l-5.4-21.4l-2.6-10.6l45.8,10.2l0.3,0.1
		c0.8,0.3,16.2,5.4,24.9,18c-0.4-2.1-0.8-3.6-0.9-4.1v0.1l-3.3-10.3c0,0,32.1,5.1,42.9,6.1c9.2,0.9,36.9,1.7,36.9,1.7v6.6
		c0,3,0,6.1,0,9.3c3.3-7.3,9.9-13.7,21.1-13.7l39.1,0.2l2.1-0.1c-19.6-0.1-38.6-2.6-56.7-7.4c-0.6-0.2-1.3-0.3-1.9-0.5
		c-12.3-3.2-25.1-7.6-38.3-13.3c-4.2-1.8-8.2-3.7-12.1-5.7c-0.3,0-0.6-0.1-0.8-0.1c-131.8-14.8-268.5-75.8-268.5-75.8l103.8,276.7
		c0,0,107.1-29.6,156.5-36.2c24.6-3.3,62.2-4.9,101.7-4.9c2.4-7.4,5.9-16.8,6.1-17.3l2.5-7l2.5,7c0.2,0.5,3.6,10,6.1,17.4
		c34.5,0.4,69.2,2,96.9,4.8c64.2,6.6,149.9,32.9,149.9,32.9l117-273.4C669.5,504.1,536.1,522.2,536.1,522.2z M453.9,139.6
		c0,0,17-5.4,28.6-4.6c11.6,0.8,30.2,8.5,30.2,8.5s-18.6,10.1-22.4,13.9c-3.9,3.9-13.1,17-13.1,17s29.4,20.1,64.2,23.2
		c34.8,3.1,54.1-7.7,54.1-7.7s-0.4,0.2-1.3,0.6c-4.7-5.9-9.8-11.5-15.1-16.9c-37.9-37.9-90.3-61.4-148.2-61.4c-3,0-6,0.1-9,0.2
		C434.3,120.3,448.9,130.9,453.9,139.6z"/>
	<path d="M403.6,594.4v-28.6c0,0-13.1-2.3-13.1,8.5s0,28.6,0,28.6h30.9v7.7h-31.7v33.2c0,0,13.1,4.6,14.7-8.5
		c1.5-13.1,1.5-13.1,1.5-13.1h17l-0.8,14.7c0,0-7,16.2-17.8,17s-30.2,0.8-30.2,0.8l-2.3-81.2c0,0,0-19.3,17-19.3s34.8,0.8,34.8,0.8
		l-0.8,39.4L403.6,594.4L403.6,594.4z M334.9,639.3c-1.6-10-10.1-89.7-10.1-89.7l-27.1-3.9c1.5,4.7,17.8,92.1,19.3,102.9
		s7.7,8.5,7.7,8.5s20.1,0,30.2-3.1c10-3.1,9.2-20.1,7.7-26.3s-1.5-75.8-1.5-75.8l-24.7-0.8c0,0,12.3,77.3,10.8,86.6
		C345.6,647,336.3,649.3,334.9,639.3z M142.9,535.3c-1.5-5.4-4.7-9.1,0-9.3c6.7-0.2,12.4,12.4,12.4,12.4
		c3.9,4.7,47.2,140.6,47.2,140.6l20.1-5.4l-37.1-122c0,0-4.6-11.6,0-13.1c4.6-1.5,13.1,17.8,13.1,17.8l33.3,116l22.4-4.6
		c0,0-25.5-92-32.5-112.9c-6.9-20.8-30.9-30.9-30.9-30.9s-20.8-6.2-24.7-7.7c-3.9-1.5-5.4,0-5.4,0v7c0,0-1.2-2.6-3.9-5.4
		c-3.7-3.7-12.4-7.7-12.4-7.7l-44.1-15.5L172.3,688l21.7-6.4C194,681.6,144.5,541,142.9,535.3z M290.7,565
		c3.9,17.8,18.6,93.6,18.6,93.6l-16.4,2.9l-10.6-47.8l-12.4-0.8l13.1,49.5l-19.3,3.1l-33.3-133l34.8,7.7
		C265.2,540.2,286.8,547.2,290.7,565z M279.9,602.9c0,0-4.7-34.8-10.1-43.3c-5.4-8.5-13.9-16.3-13.1-0.8l10.8,44.1H279.9z
		 M486.5,654.4l19.3,1l17.8-105.2l-24.8,1.6L486.5,654.4z M514.7,694.5l-3.3,4.8c-16,23.1-60.6,83.7-87.3,105.3
		c-32.8-25.7-91.8-103.2-92.4-104l-3.3-4.4l-5.5,0.4c-32.9,0.1-100,15.5-141.9,29.8l10.9,28c0,0,69.2-42.9,131.8-47.8
		c0,0,67.6,89,100.5,110.4c32.9-21.4,95.5-112,95.5-112c62.6,4.9,126.8,46.1,126.8,46.1l10.4-25.5c-40.1-11.6-101.1-27.9-136.5-30.7
		L514.7,694.5z M487,562.8c0.8,9.2-1.5,27.8-1.5,27.8s-3,11.6-10,14.7c0,0,5.4,1.5,5.4,13.9c0,12.4-4.6,33.3-4.6,33.3h-17l3.1-33.3
		c0,0,0-7-11.6-7l-2.3,40l-17.8-0.6l3.1-97.5l41-1.5C474.8,552.6,486.4,553.4,487,562.8z M463.9,594.3c0,0,2.3-15.4,2.3-25.5
		c0-10-13.1-5.4-13.1-5.4l-1.5,36.4C467,601.3,463.9,594.3,463.9,594.3z M606.4,537.1l-36.6,125.1l16.4,2.3l16.2-53.9
		c13.9,1.5,7.7,10,7.7,10l-13.3,46.2l17.2,3.3c0,0,12.3-34,16.2-45.6s-3.1-19.3-3.1-19.3c6.2-1.5,15.5-16.2,15.5-16.2l22.4-66.5
		l-25.5,7.7c0,0-13.9,49.5-17.8,58.8s-15.5,8.5-15.5,8.5l20.9-65L606.4,537.1z M363.3,693.8l9.5-2.8c6.2-1.9,32.1-4.6,39.3-5.4
		c2.1-6.9,7.5-21.9,7.8-22.6l2.5-7l2.5,7c0.3,0.7,5.8,15.7,7.8,22.6c7.2,0.8,33.2,3.6,39.3,5.4l9.5,2.8l-9.6,2.4
		c-7.1,1.7-25.8,7.6-31.4,14.8c0.9,2.5,13.7,35.2,13.7,35.2s-29-21-31.8-23c-2.8,2-31.8,23-31.8,23s12.7-32.7,13.7-35.2
		c-5.7-7.1-24.3-13.1-31.4-14.8L363.3,693.8z M385.3,694.2c8.9,3.1,20.4,8.2,24.5,15l0.7,1.1c0,0-4.9,12.5-8.1,20.7
		c7.6-5.5,20.1-14.5,20.1-14.5s12.5,9,20.1,14.5c-3.3-8.3-8.1-20.7-8.1-20.7l0.7-1.1c4.1-6.8,15.6-11.9,24.5-15
		c-9.8-1.3-23.1-2.8-29.3-3.4l-1.9-0.2l-0.5-1.8c-0.8-3.2-3.5-11-5.6-16.9c-2.1,5.9-4.8,13.8-5.6,16.9l-0.5,1.8l-1.9,0.2
		C408.2,691.5,395,692.9,385.3,694.2z M532.5,566.6c-3.8,14.7-16.2,81.2-16.2,81.2s-1.5,7.8,3.9,9.3s24,2.3,24,2.3
		s16.3-0.7,21.7-16.2c5.4-15.5,9.3-30.2,9.3-30.2l-21.7,1.5l-5.4,21.7c0,0-3.1,10.1-7.7,11.6c-4.7,1.5-7-4.7-6.2-7
		s15.5-69.6,15.5-69.6s8.5-16.3,12.4-15.5c3.9,0.8,3.1,6.2,3.1,6.2l-7.7,30.2l23.2-0.8l14.7-53.4l-44.1,8.5
		C551.3,546.4,536.6,551.8,532.5,566.6z M304.9,101.9c0.2,1.2,0,2.4-0.4,3.7c-0.4,1.3-1,2.4-1.9,3.4c-1.1,1.4-2.3,2.5-3.4,3.4
		l-9.3,7.6l-11-13.4l9.3-7.6c1.8-1.5,3.4-2.5,4.8-3.1c1.4-0.6,2.8-0.9,4-0.9c1.3,0.1,2.4,0.4,3.4,0.9s1.8,1.3,2.6,2.2
		C304.1,99.6,304.8,100.9,304.9,101.9z M298.2,106.2c0-0.7-0.5-1.6-1.4-2.7c-1.1-1.5-2.3-2.2-3.4-2.1c-1.1,0.1-2.5,0.8-4.1,2.1
		l-1.6,1.3l6,7.3l1.5-1.3c1.3-1.1,2.1-2,2.5-2.6C298.1,107.5,298.3,106.8,298.2,106.2z M456.5,53.3l-8-1.1L446,69.4l20.4,2.9
		l0.6-4.2l-12.5-1.8L456.5,53.3z M344.4,66.3l15.7,12.3l-7.8,3.2l-2.3-2.2l-8.4,3.5l-0.1,3.2l-7.6,3.2l2.4-19.8L344.4,66.3z
		 M347,76.8l-5-4.7l-0.2,6.9L347,76.8z M399.2,65.9l-1.5-13l-8,0.9l2,17.3l20.5-2.4l-0.5-4.2L399.2,65.9z M568.6,103.3
		c-2.1-1.8-3.8-3-5.3-3.7c-1.5-0.7-2.8-1-3.9-0.9c-1.2,0.1-2,0.5-2.6,1.2c-0.9,1-1.1,2.3-0.5,4c0.6,1.7,2,3.9,4.3,6.6
		c1.4,1.7,2.2,2.8,2.4,3.5s0.2,1.2-0.1,1.5s-0.8,0.4-1.5,0.3c-0.8-0.1-1.5-0.5-2.4-1.3c-1.2-1-1.8-2-2-3.1c-0.1-0.7,0.1-1.4,0.5-2.1
		l-6-4.8c-1,1.5-1.2,3.2-0.7,5.2s2.5,4.5,5.8,7.4c1.9,1.7,3.6,2.9,5.2,3.6c1.5,0.8,3,1.1,4.3,1c1.3-0.1,2.4-0.6,3.1-1.4
		c0.6-0.7,0.9-1.6,0.9-2.6s-0.4-2.2-1.2-3.6c-0.8-1.4-2.4-3.5-4.7-6.2c-0.9-1.1-1.5-1.9-1.6-2.3c-0.1-0.4-0.1-0.7,0.1-0.9
		c0.3-0.3,0.7-0.4,1.2-0.3c0.6,0.1,1.2,0.5,1.9,1.1c0.9,0.8,1.4,1.5,1.7,2.2c0.2,0.7,0.2,1.4-0.2,2.1l5.9,4.8c1-1.5,1.1-3.2,0.3-5
		C572.7,107.8,571.1,105.8,568.6,103.3z M520.2,72.3l1.8,19.9l-7.7-3.5v-3.2l-8.3-3.7l-2.4,2.1l-7.5-3.4l16.1-11.9L520.2,72.3z
		 M514.4,74.6l-5.2,4.5l5.2,2.4V74.6z M388.1,416.4c0,0-1.5-31.7,13.2,7c0,0-8.2-63.1-23.1-19.9
		C377.2,408.9,378.5,414.9,388.1,416.4z M671.3,540.1c-3.9,11.6-26.3,71.2-26.3,71.2l28.6,0.8l-16.2,41.8c0,0-3.1,7-7.7,7
		c-4.7,0-5.4-3.1-3.9-7.7c1.5-4.6,13.1-31.7,13.1-31.7h-16.2L627.2,664c0,0-4.6,10,3.9,10.8s17,0.8,17,0.8s17.8-2.3,26.3-17
		s27.8-66.5,27.8-66.5l-27.1,0.8c0,0-3.1,0.8-2.3-5.4c0.7-6.2,19.3-48,19.3-48s3.9-3.8,7-4.6c3-0.7,1.5,7,1.5,7l-14.7,37.9l20.9-0.8
		l36.4-82.8l-44.9,17C698.3,513.2,675.1,528.6,671.3,540.1z M360.3,401.8c-2.3-1.6-31.7-68.1-31.7-68.1l-24-5.4
		c0,0,12.4,22.4,21.7,37.9c9.3,15.4,30.2,39.4,30.2,39.4l4.6,3.1C361.1,408.7,362.6,403.3,360.3,401.8z M353.4,183.8
		c0,0-4.7,3.9-6.2,8.5c-1.6,4.6-3.9,17.7-3.9,24.7c0,6.9,5.4,14.7,12.4,19.3c6.9,4.6,13.1,3.1,13.1,3.1s-10.8-16.3-13.9-30.2
		C351.8,195.3,353.4,183.8,353.4,183.8z M353.4,250.9c0,0-3.1,1.6-5.4,0.8c-2.3-0.7-13.1-17.8-17-30.9c-3.9-13.1,2.3-28.6,2.3-28.6
		s-7.7,10.8-8.5,20.9c-0.8,10,2.3,30.1,14.7,45.6c12.4,15.4,29.4,24.7,29.4,24.7l-7-25.5L353.4,250.9z M366.5,110.2
		c0,0-10,10.8-10.8,13.9c-0.8,3.1-7,20.9-7,20.9l12.3-11.6h3.9c0,0,13.2-27.8,15.5-30.9S366.5,110.2,366.5,110.2z M786.3,408.4
		l-14.4,35.3c-59,24.4-127.2,47.1-127.2,47.1l12.1-28.7c60.2-139.5,87.4-318,94.5-370.6c-19.2,5.6-92.2,27.2-120.3,35.5
		c25.1,37.1,39.7,81.4,39.7,129c0,28.4-5.2,55.6-14.7,80.8c-7.7,117.7-105.6,210.7-225.2,210.7c-19.9,0-39.1-2.6-57.4-7.4
		c-0.6-0.2-1.3-0.3-1.9-0.5c-12.3-3.2-25.1-7.6-38.3-13.3c-110.6-48-131.5-152.4-131.5-152.4s-6.1-20.8-7.6-36.1
		c-9.8-25.5-15.1-53-15.1-81.7c0-47.4,14.5-91.5,39.4-128.6c-26.3-7.8-98.3-28.9-117.2-34.5c5.7,51.8,28.2,229.2,95.2,368.7l10.2,25
		c0,0-76-21.5-137.6-46.4l-12.4-31.8c72.5,41.1,131.8,57.6,131.8,57.6C107.7,298.1,89.6,79,89.6,79l135,39.7
		C269.2,58.4,342.4,19,424.9,19c82.4,0,155.4,39.2,200,99.3l138.5-40.9c0,0-24.7,220.8-97.2,388.8
		C666.2,466.2,714,449.7,786.3,408.4z M571.9,480.1c-54.9,36.3-116.8,44.8-153.1,39.4c-36.4-5.4-88.2-20.1-131.5-71.9
		c-43.3-51.8-45.6-108.3-45.6-108.3s7.7,16.2,17,25.5c9.3,9.3,30.2,20.1,30.2,20.1s-36.3-42.5-42.5-89.7
		c-6.2-47.1,13.9-65.7,13.9-65.7c-9.2,31,7,73.5,7,73.5c-2.3-25.5,0.8-65.8,12.4-96.7c11.6-30.9,41.8-61.1,41.8-61.1
		c-13.9,4.7-37.1,32.5-37.1,32.5c-3.9-4.6,3.1-16.2,3.1-16.2c-11.6,8.5-14.7,20.1-16.2,24.7c-1.5,4.6-0.7,10.8-10.8,19.3
		c-10.1,8.5-23.2,48.7-23.2,48.7c-5.4-13.2,7.7-41.8,7.7-41.8c-8.5,6.1-22.5,34.8-24,62.6c-1.5,27.9,14.7,96.7,14.7,96.7
		c-17-18.6-20.1-59.6-20.1-59.6c-7.7,52.6,31.8,117.6,59.6,149.3c27.8,31.7,90.5,70.3,165.5,68.8
		C515.8,528.6,572.2,479.9,571.9,480.1z M491.1,336.8c-1.6,15.5-12.4,35.6-12.4,35.6s-3.9-36.3-14.7-37.1c0,0,0,10-0.8,17
		c-0.8,6.9-7.7,20.1-3.1,30.9c4.7,10.8,11.6,39.4,12.4,42.5c0.8,3.1,2.3,11.6,2.3,11.6s1.5,3.1-3.1,7c-4.7,3.9-20.9,17.8-20.9,17.8
		s-12.3,7-4.6,9.3s51.8,2.3,51.8,2.3s10.9-0.9,25.7-4.3l0.1,0l-0.2-1.1c0,0,8.5-31,3.9-68.1c-4.7-37.1-13.2-76.6-41-101.3
		C486.5,298.9,492.6,321.3,491.1,336.8z M525.1,469.1l10.7-2.4c0-0.1,0-0.3,0.1-0.4C532.1,467.3,528.6,468.3,525.1,469.1z
		 M454.7,438.1c-4.7,4.7-24,27.1-24,27.1l33.3-25.5c0,0,1.6-3.1,0.8-7.7c-0.8-4.6-15.5-54.9-15.5-54.9s-3.1-5.4-0.8-7.7
		c2.3-2.3,3.1-10.8,2.3-14.7c-0.8-3.9,0.8-12.4,2.3-14.7c1.6-2.3,3.9-12.3,3.9-20.1s-1.5-20.9-1.5-20.9s-4.6,17.7-5.4,24.7
		s-4.7,11.6-3.9,23.2c0.7,11.6-3.9,17-3.9,17s-3.9,7-0.8,12.4c3.1,5.4,14.7,51.8,14.7,51.8S459.3,433.5,454.7,438.1z M470.9,223.9
		c-2.4-5.4-0.8,7-0.8,7s-3.1,14.6-5.4,24.7c-2.3,10-4.6,15.4-7.7,22.4c-3.1,7-2.3,6.2-2.3,6.2s16.2-14.7,18.5-25.5
		S473.2,229.3,470.9,223.9z M477.1,146.6c10.9-4.7,24.8-3.9,24.8-3.9s-15.5-4.6-24.8-3.1c-9.3,1.6-20.1,7-20.1,7l8.5,13.1
		C465.5,159.7,466.3,151.2,477.1,146.6z M477,174.5c0,0,29.4,20.1,64.2,23.2c34.8,3.1,54.1-7.7,54.1-7.7s-0.5,0.2-1.3,0.6
		c-4.7-5.9-9.8-11.6-15.1-16.9c-38-37.9-90.3-61.4-148.2-61.4c-3,0-6,0.1-9,0.2c12.5,7.8,27.1,18.4,32.1,27.1c0,0,17-5.4,28.6-4.6
		c11.6,0.8,30.2,8.5,30.2,8.5s-18.5,10-22.4,13.9C486.4,161.3,477,174.5,477,174.5z M419.7,168.1c-7.8-8.5-32.5-25.5-32.5-25.5
		s13.9,23.9,24,60.3c10.1,36.4,17.8,67.3,17.8,67.3s1.5-34.8-3.1-54.1c-4.6-19.3-10.8-37.1-10.8-37.1s10.9,7.7,15.5,17.8
		c4.7,10,7,24.7,7,24.7c6.2-6.2,13.9-26.3,13.9-26.3s2.4,0-1.5,33.3c-3.9,33.3-9.3,44.1-9.3,44.1s7.8-9.3,12.4-22.4
		c4.6-13.2,5.4-38.7,5.4-38.7s0.8-27-1.5-39.4l-1.5-10.8l-3.9,11.6c0,5.4-11.6,23.2-11.6,23.2S427.6,176.7,419.7,168.1z M395.2,92.9
		l-7,0.8c-14.7,3.1-34,18.6-34,18.6s-17.8,12.4-18.6,27.1c-0.7,14.7-13.1,23.2-19.3,30.9c-6.2,7.8-17,28.6-23.2,44.1
		c-6.2,15.5-6.9,42.6-2.3,58.8c4.6,16.2,17,32.5,22.4,37.9c5.5,5.4,2.4,6.2-4.6,3.9c-6.9-2.4-19.3-8.5-25.5-15.5
		c-6.2-6.9-6.2-2.3-6.2,1.6c0,3.9,13.9,33.3,17,38.7c3.1,5.5-2.3,3.1-7.7-1.5c-5.4-4.7-16.2-17.8-16.2-17.8s2.3,7.8,8.5,21.7
		c6.1,13.9,36.3,54.1,36.3,54.1s28.6,17.8-0.8,10.1c-29.4-7.8-44.9-18.6-44.9-18.6l10.1,18.6c0,0,44.1,60.3,84.3,78.1
		c40.2,17.7,78.9,16.2,95.9,16.2s49.5-8.5,49.5-8.5s-47.2,0.7-76.6-3.9c-29.4-4.6-34.8-7.7-53.4-20.1
		c-18.6-12.3-26.3-27.8-26.3-27.8c15.4,7.7,34,3.1,37.1,2.3c3.1-0.8,21.7-11.7,26.3-16.3c4.6-4.6,3.9-8.5,3.1-13.1
		c-0.8-4.7-2.3-20.9-2.3-29.4s-3.1-20.1-3.1-20.1l-7,15.5c0,0,0,0-2.3-5.4c-2.3-5.4-3.8-13.9-4.6-20.1s-4.7-19.4-6.2-27.1
		c-1.5-7.8-4.6-27.1-4.6-27.1s-10-37.9-10.8-40.2c-0.8-2.4,1.5-7,1.5-7s3.8,10.8,13.1,17c9.2,6.2,19.3,7,19.3,7s-24-24-31.7-37.1
		s-12.4-37.1-14.7-45.6c-2.4-8.5,1.5-11.6,1.5-11.6c2.5,7.1,19.8,28.2,24.8,32.5c6.2,5.4,3.9-3.9,3.1-5.4
		c-0.8-1.6-18.8-54.7-18.8-54.7c-2.9-22.1,0.7-31.5,1.8-35.8C379.6,112.5,395.1,93.2,395.2,92.9z M609.5,413.3
		c0,0-0.8-28.6-9.3-54.9s-24-43.3-37.9-60.3s-57.2-45.7-66.5-50.3c0,0,14.7,28.6,15.5,38.7c0,0-12.4-12.4-24-14.7
		c0,0,10.8,8.5,34,47.2s20.9,90.5,20.9,90.5s-2.3,39.1-6.1,56.5c14-4.2,29.3-10.6,41.5-20.2c12-9.5,22.6-20.4,31.5-30.6L609.5,413.3
		z M640.5,321.8c0-46.5-15.1-89.4-40.7-124.1c-2,0.8-13.9,5.5-24.4,7.6c-11.6,2.3-23.9,4.6-34,4.6c-10.1,0-37.9-5.4-46.4-8.5
		l2.3,11.6c0,0-10.8-11.6-23.2-11.6v5.4c0,0,30.1,12.4,57.2,33.3c27,20.9,51,49.5,51,49.5s17.5,17,29.4,52.6
		c6.9,20.9,7.8,35.2,7.7,47.2c0,3.8-0.6,15.4-0.6,15.4s8.3-10.4,10.1-14.4C636.2,374.6,640.4,345.8,640.5,321.8z M424.8,32.6
		c-128.1,0-232.3,100.2-232.3,223.5c0,14.5,1.5,28.8,4.3,42.6c1.4-0.9,3.2-1.4,5.7-1.4c0,0,0-23.2,7.7-30.9l3.9-16.2
		c0,0,5.4-39.5,32.5-61.9c0,0,14.7-17.8,17.8-20.1c3.1-2.3,4.6-10.8,4.6-10.8l18.6-17.8l10.1-1.5c0,0,27.1-17.8,32.5-18.6
		c5.4-0.8,21.7-37.1,82-35.6c0,0-7.4,7.4-9.5,13.9c9.2-1.2,18.6-1.8,28.2-1.8c62.3,0,118.8,25.3,159.6,66.1
		c34,34,57.1,78.8,64,128.7c1.8-11.3,2.8-22.9,2.8-34.7C657.3,132.9,553.1,32.6,424.8,32.6z"/>
	<path class="st2" d="M411.5,203.2c-10.1-36.3-24-60.3-24-60.3s24.8,17,32.5,25.5s20.1,27.8,20.1,27.8s11.6-17.8,11.6-23.2l3.9-11.6
		l1.5,10.8c2.3,12.3,1.5,39.4,1.5,39.4s-0.8,25.6-5.4,38.7c-4.7,13.1-12.4,22.4-12.4,22.4s5.4-10.8,9.3-44.1
		c3.8-33.3,1.5-33.3,1.5-33.3s-7.7,20.1-13.9,26.3c0,0-2.4-14.6-7-24.7c-4.7-10.1-15.5-17.8-15.5-17.8s6.2,17.8,10.8,37.1
		c4.6,19.3,3.1,54.1,3.1,54.1S421.4,239.4,411.5,203.2z M470.8,223.9c-2.4-5.4-0.8,7-0.8,7s-3.1,14.6-5.4,24.7
		c-2.3,10-4.6,15.4-7.7,22.4s-2.3,6.2-2.3,6.2s16.3-14.7,18.6-25.5C475.6,247.9,473.2,229.3,470.8,223.9z M373.4,368.5
		c9.3-4.6,19.3,3.9,19.3,3.9s-7-32.5-10.8-40.2c-3.9-7.7-5.4-17-5.4-20.1c0-3.1-1.5-10.1-1.5-10.1l-4.6-11.6c0,0-2.3,14.7,0,22.4
		c2.3,7.8,1.5,18.6,1.5,18.6L373.4,368.5z M477.1,146.6c10.8-4.6,24.8-3.9,24.8-3.9s-15.5-4.6-24.8-3.1s-20.1,7-20.1,7l8.5,13.1
		C465.5,159.7,466.3,151.2,477.1,146.6z M430.7,465.2l33.3-25.5c0,0,1.5-3.1,0.8-7.7c-0.8-4.6-15.5-54.9-15.5-54.9s-3.1-5.4-0.8-7.7
		c2.3-2.3,3.1-10.8,2.3-14.7c-0.8-3.9,0.8-12.4,2.3-14.7c1.5-2.3,3.9-12.4,3.9-20.1s-1.5-20.9-1.5-20.9s-4.6,17.8-5.4,24.7
		c-0.8,7-4.6,11.6-3.9,23.2c0.8,11.6-3.9,17-3.9,17s-3.9,7-0.8,12.4c3.1,5.4,14.7,51.8,14.7,51.8s3.1,5.4-1.5,10.1
		C450,442.8,430.7,465.2,430.7,465.2z M392,214.6c6.2,5.4,3.9-3.9,3.1-5.4s-18.8-54.7-18.8-54.7c5.5,48.5-4.7,33-9,27.6
		C369.7,189.2,387.1,210.3,392,214.6z M401.3,423.5c3.1-13.2,2.3-27.1-3.1-37.9c-5.4-10.9-14.9-3.3-17-0.8c-3.6,4.3-3,18.8-3,18.8
		C393.1,360.3,401.3,423.5,401.3,423.5z M432.7,685.6c7.2,0.8,33.1,3.5,39.3,5.4l9.5,2.8l-9.6,2.4c-7.1,1.7-25.7,7.7-31.4,14.8
		c1,2.5,13.7,35.2,13.7,35.2s-29-21-31.8-23c-2.8,2-31.8,23-31.8,23s12.8-32.7,13.7-35.2c-5.6-7.2-24.3-13.1-31.4-14.8l-9.6-2.4
		l9.5-2.8c6.1-1.8,32.1-4.6,39.3-5.4c0.4-1.5,1-3.3,1.7-5.3c-26.5,0-52.2,0.8-73.6,2.2c45.5,61.4,82.3,101.5,82.3,101.5
		s39.3-36.6,88.3-100.4c-24.3-1.7-52.1-2.9-79.8-3.2C431.7,682.4,432.2,684.2,432.7,685.6z M201.8,373.9c0,0-6.1-20.8-7.6-36.1
		c-9.7-25.5-15.1-53-15.1-81.7c0-42.4,11.6-82.3,31.9-116.7l-96.7-29c0,0,16.5,136.7,80.7,316.3c9.4,25.9,20.7,51.8,33.4,77.1
		c29.7,7.2,61,13.2,92,16.7c0.3,0,0.6,0.1,0.8,0.1C221.2,470.6,201.8,373.9,201.8,373.9z M638.6,138.7
		c20.5,34.6,32.2,74.7,32.2,117.3c0,28.4-5.2,55.6-14.7,80.8c-5.4,81-53.3,150.2-121.7,185.6c1.1-0.1,1.7-0.2,1.7-0.2
		s34.7-4.7,85.5-17.3c7.5-15.7,14.8-32,21.6-48.7c80.8-197.7,89-347.6,89-347.6L638.6,138.7z M441,530c75-1.5,131.5-50.3,131.5-50.3
		c-55.2,36.5-117.1,45.1-153.4,39.6c-36.3-5.4-88.2-20.1-131.5-71.9C244.3,395.6,242,339.1,242,339.1s7.7,16.2,17,25.5
		s30.2,20.1,30.2,20.1s-36.4-42.5-42.5-89.7c-6.2-47.2,13.9-65.7,13.9-65.7c-9.3,30.9,7,73.5,7,73.5c-2.3-25.5,0.8-65.7,12.4-96.7
		c11.6-30.9,41.8-61.1,41.8-61.1c-13.9,4.6-37.1,32.5-37.1,32.5c-3.9-4.6,3.1-16.2,3.1-16.2c-11.6,8.5-14.7,20.1-16.2,24.7
		s-0.8,10.8-10.8,19.3c-10.1,8.5-23.2,48.7-23.2,48.7c-5.4-13.1,7.7-41.8,7.7-41.8c-8.5,6.2-22.4,34.8-24,62.6
		c-1.5,27.8,14.7,96.7,14.7,96.7c-17-18.6-20.1-59.6-20.1-59.6c-7.7,52.6,31.7,117.6,59.6,149.3C303.3,492.9,366,531.6,441,530z"/>
</g>
</svg>
