<?xml version="1.0" encoding="utf-8"?>
<!-- Generator: Adobe Illustrator 25.0.0, SVG Export Plug-In . SVG Version: 6.00 Build 0)  -->
<svg version="1.1" id="Layer_1" xmlns="http://www.w3.org/2000/svg" xmlns:xlink="http://www.w3.org/1999/xlink" x="0px" y="0px"
	 viewBox="0 0 850.7 857.4" style="enable-background:new 0 0 850.7 857.4;" xml:space="preserve">
<style type="text/css">
	.st0{fill:#FFFFFF;}
	.st1{fill:#911E30;}
	.st2{fill:#082041;}
	.st3{fill:#FFCC04;}
</style>
<g>
	<path class="st0" d="M194.9,584.3l8.4,12.4l-48.1,32.7l-7.8-11.4l12.3-17.4l-0.9-0.8l-16.2,11l-8.4-12.3l39.7-27l-1.9-2.7l8.4-5.7
		l9.9,14.6l-13,17.1l0.9,0.9L194.9,584.3z M340.8,111.9l9.9,47.1l14.5-3l-4-19.2l1.1-0.6l11.2,18l13.4-2.8l-11.9-57l-14.6,3
		l4.1,19.8l-1.1,0.5l-10.8-18.6l-17.1,3.6l2.1,9.9L340.8,111.9z M376.8,316.6l48.7,61.6V218.9l-87.8,107.5L376.8,316.6z
		 M166.1,217.1l41.8,30.1c-0.2,5.7-3,11.9-8,18.8l-9.4,13l-47.2-34l10.8-15.1c2.9-3.9,6.4-7.6,10.6-10.3
		C165.4,218.6,165.7,218.2,166.1,217.1z M193.7,255.1l-28-20.2c-3-0.8-5.5,2.3-3.8,5.3l28,20.2C193.3,261,195.4,257.7,193.7,255.1z
		 M233.4,692.6c-2.6,1.7-6.1-0.7-5.4-4.1l29.9-38.4L243.6,639l-6.2,8l2.4,1.8l-27.5,35.3c1.9,5.3,6.9,11.2,11.7,14.9
		c4.8,3.8,11.5,7.2,17.4,7.7l33.7-43.3l-11.8-9.2L233.4,692.6z M433.8,523c5.8-0.7,11.4-2,16.7-4.2c6.2-2.6,12.1-6.3,17.8-11.4
		c-10-6.9-21.8-11.4-34.5-12.6V523z M650.1,259.7l-9.1-11.6l45.8-36l11.5,14.7c2.9,3.6,5.4,7.8,6.8,12.3c0.9,1.1,1.6,2,2.4,2.5
		l-24.9,19.5c-1.6-0.5-3-1.2-4.5-2.2L665.3,279l-8.9-11.3l12.2-17.8c-0.8-1-1.5-1.9-2.3-2.9L650.1,259.7z M679.7,244.6l10.5-8.2
		c1.6-2.6-0.6-5.9-4-5.1l-10.5,8.2C674.2,242.6,676.8,245.5,679.7,244.6z M450.6,239.7l-10.4,13.5l10.4,24.4V239.7z M440.2,253.2
		L440.2,253.2l-14.6-34.3L440.2,253.2z M843.9,428.7c0,56.5-11.1,111.3-32.9,162.9c-21.1,49.8-51.3,94.6-89.7,133
		s-83.2,68.6-133,89.7c-51.6,21.8-106.4,32.9-162.9,32.9s-111.3-11.1-162.9-32.9c-49.8-21.1-94.6-51.3-133-89.7s-68.6-83.2-89.7-133
		C17.9,540,6.9,485.2,6.9,428.7s11-111.3,32.9-162.9c21.1-49.8,51.3-94.6,89.7-133c38.4-38.4,83.2-68.6,133-89.7
		c51.6-21.8,106.4-32.9,162.9-32.9s111.3,11.1,162.9,32.9c49.8,21.1,94.6,51.3,133,89.7c38.4,38.4,68.6,83.2,89.7,133
		C832.8,317.4,843.9,372.2,843.9,428.7z M821.9,428.7c0-219-177.5-396.5-396.5-396.5S28.9,209.7,28.9,428.7s177.5,396.5,396.5,396.5
		S821.9,647.7,821.9,428.7z M579,181.6l7.8-12.7l9.7,5.9l7.3-7.6l-11.6-7.1l6.7-11.1l14.8,9l5.2-8.5l-31.3-19l-5.2,8.5l2.8,1.7
		L560.1,182l28.5,17.3l5.3-8.7L579,181.6z M479.4,125.5c-0.5,0.1-0.9,0.1-1.2-0.2l0.8-30.8l-13-2.2l-1.8,58.7l19,3.3l19.6-55.7
		l-14.1-2.4L479.4,125.5z M552.5,729.1l-5.7-13.8l10.6-4.4l-1.8-10.3l-12.7,5.2l-4.9-12l16.1-6.7l-3.8-9.2L516.2,692l3.8,9.2
		l3.1-1.3l18.4,44.7l31-12.8l-3.9-9.4L552.5,729.1z M627.6,634.8l-6.6-7.6l-28.3,24.6l6.6,7.6l8.3-7.2l31.5,36.3l11.7-10.1
		L619.3,642L627.6,634.8z M694.7,576.5c-2-1.2-6.2-1.3-9.1,3.4l-7.2,11.6l-10.1-6.3c-1.8-2.9,0.4-6,3.4-5.4l6.3,3.9l7.9-12.7
		l-14.7-9.2c-0.2,0.9-0.7,1.9-1.5,3.1c-4,2.8-7.5,6.8-10.1,10.9c-3.3,5.2-6,12.3-5.9,18l19.1,11.9c3.6,2.2,7.2,1.6,10.3-3.5l7-11.3
		l13,8.1c1.9,2.5,0,6.1-3.4,5.7l-7.1-4.4l-8,12.8l12.7,7.9c5.1-2.4,10.4-8,13.7-13.2s5.7-11.8,5.6-17.7L694.7,576.5z M455.9,531.8
		c-7.1,3-14.5,4.7-22.1,5.4v23.4h65.8c-1.6-17.1-9.1-32.4-20.4-44C471.9,523.5,464.1,528.4,455.9,531.8z M268.8,186l-8.2-12.4
		l9.4-6.3l-3.8-9.8l-11.3,7.5l-7.2-10.8l14.4-9.6l-5.5-8.3l-30.5,20.2l5.5,8.3l2.8-1.8l26.6,40.2l27.8-18.4l-5.6-8.4L268.8,186z
		 M374.5,516.5c-11.3,11.6-18.9,27-20.5,44.1h65.7v-23.2c-8.1-0.7-16.1-2.7-23.9-6.3C388.3,527.7,381.2,522.9,374.5,516.5z
		 M345.6,694.1c-5.9-1.7-13.6-2.5-19-0.9l-14.5,49.3c3.7,4.3,10.5,7.9,16.4,9.6c5.9,1.7,13.4,2.5,19,0.8l8.9-30.4l-16.7-4.9l-4.8,8
		l4.4,2.2l-4.3,14.6c-2,2.4-6.2,1.5-6.7-1.9l10.5-35.7c2.3-2.6,6.3-1.1,6.6,1.9l-2.1,7.3l14.4,4.2l4.9-16.7c-1.2,0-2.3-0.3-3.4-0.6
		C355.3,697.8,350.2,695.5,345.6,694.1z M401.6,518.1c5.9,2.7,11.9,4.3,18.1,4.9v-28.3c-12.7,1.3-24.4,5.7-34.4,12.6
		C390.5,512.1,396,515.7,401.6,518.1z M442.6,728.6l-1.9,9.2l4.9,0.6l0.8,15.2c-1,3-5.2,3.5-6.8,0.5l-1.9-37.2
		c1.3-3.2,5.6-3.1,6.8-0.4l0.4,7.6l14.9-0.8l-0.9-17.4c-1.1,0.4-2.3,0.5-3.5,0.5c-4.7-1.7-10.3-2.1-15.1-1.9
		c-6.2,0.3-13.6,2.1-18.2,5.4l2.7,51.3c4.9,2.8,12.5,3.9,18.7,3.6c6.2-0.3,13.4-2.1,18.2-5.5l-1.7-31.6L442.6,728.6z"/>
	<path class="st1" d="M425.4,168.3C281.5,168.3,165,284.9,165,428.7s116.6,260.4,260.4,260.4s260.4-116.6,260.4-260.4
		S569.2,168.3,425.4,168.3z M425.4,670.1C292,670.1,183.9,562,183.9,428.7S292,187.3,425.4,187.3c133.3,0,241.4,108.1,241.4,241.4
		S558.7,670.1,425.4,670.1z M425.4,52.8c-207.6,0-375.9,168.3-375.9,375.9s168.3,375.9,375.9,375.9s375.9-168.3,375.9-375.9
		S632.9,52.8,425.4,52.8z M425.4,784.7c-196.6,0-356-159.4-356-356s159.4-356,356-356s356,159.4,356,356S622,784.7,425.4,784.7z"/>
	<path class="st2" d="M425.3,670.1c133.3,0,241.4-108.1,241.4-241.4s-108-241.4-241.3-241.4c-133.4,0-241.5,108.1-241.5,241.4
		S292,670.1,425.3,670.1z M419.7,640.4c-12.8-1.2-24.6-5.7-34.6-12.7c5.2-4.8,10.8-8.5,16.5-11.1c5.8-2.7,11.9-4.3,18.1-4.9V640.4z
		 M419.8,597.6L419.8,597.6c-8.2,0.7-16.3,2.7-24,6.3c-7.5,3.4-14.7,8.3-21.5,14.7C363,607,355.6,591.7,354,574.7h65.8V597.6z
		 M395.8,531.1c7.8,3.6,15.8,5.6,23.9,6.3v23.2H354c1.6-17.1,9.2-32.5,20.5-44.1C381.2,522.9,388.3,527.7,395.8,531.1z M385.3,507.3
		c10-6.9,21.7-11.3,34.4-12.6v28.4c-6.2-0.6-12.2-2.2-18.1-4.9C395.9,515.6,390.5,512,385.3,507.3z M433.8,640.4v-28.5
		c5.8,0.6,11.4,2,16.7,4.2c6.2,2.6,12.2,6.4,18,11.6C458.5,634.7,446.7,639.2,433.8,640.4z M479.3,618.5c-7.4-7-15.2-12-23.4-15.4
		c-7.1-2.9-14.5-4.7-22.1-5.4v-23.1h65.8C498,591.7,490.6,606.9,479.3,618.5z M433.8,560.5v-23.3c7.6-0.7,15-2.4,22.1-5.4
		c8.2-3.4,15.9-8.4,23.3-15.3c11.3,11.6,18.8,26.9,20.4,44H433.8z M433.8,523v-28.2c12.7,1.2,24.5,5.7,34.5,12.6
		c-5.7,5.1-11.6,8.8-17.8,11.4C445.3,521,439.7,522.3,433.8,523z M600.5,562.8l-12.3-14.6l-1.2-1.8l-149.6-94l24.9-14.8l137.1,89.2
		l1.9,0.2l18.8,5.1C622.3,542,611.4,560,600.5,562.8z M425.5,218.9l14.6,34.3l10.4-13.5l72.8,89L474,316.2l-48.5,62l-48.7-61.6
		l-39.1,9.9L425.5,218.9z M249.3,297.3l5,3.4h0.1c32.8-42.5,88.1-79.6,132.7-85c-41.2,23.7-77,56.9-105.2,95.6l26.2,19l-3.1,4.9
		l121.8,79.3l121.8-79.3l-3.1-4.9l26.2-19c-28.2-38.7-64-71.9-105.2-95.6c44.6,5.4,99.9,42.5,132.6,85h0.1l5-3.4l17.7,27.1l-5.5,3.4
		c26.5,50.3,35.6,115.9,22.1,155.5c-4.3-46.6-19.5-93.2-43.2-135.4l-28.4,16l-2.8-4.4l-112.8,70.8l-24.4,15.3L266.3,546.4l-1.2,1.8
		l-12.3,14.6c-10.9-2.8-21.8-20.8-19.6-30.6l18.8-5.1l1.9-0.2l148.3-96.6l-112.8-70.8l-2.8,4.4l-28.4-16
		c-23.7,42.2-38.9,88.8-43.2,135.4c-13.5-39.6-4.4-105.2,22.1-155.5l-5.5-3.4L249.3,297.3z M425.4,72.6c-196.6,0-356,159.4-356,356
		s159.4,356,356,356s356-159.4,356-356S622,72.6,425.4,72.6z M686.7,212.1l11.5,14.7c2.9,3.7,5.3,7.8,6.8,12.3
		c0.8,1.1,1.6,2,2.4,2.5l-24.9,19.5c-1.5-0.5-3-1.3-4.5-2.2L665.2,279l-8.9-11.3l12.2-17.8c-0.8-1-1.5-1.9-2.3-2.9L650,259.7
		l-9.1-11.6L686.7,212.1z M582.3,139.1l5.2-8.5l31.3,19l-5.2,8.5l-14.8-9l-6.7,11.1l11.6,7.1l-7.3,7.6l-9.7-5.9l-7.8,12.7l14.8,9
		l-5.3,8.7L560.1,182l25.1-41.2L582.3,139.1z M466,92.3l13,2.2l-0.8,30.8c0.3,0.3,0.7,0.3,1.2,0.2l9.3-29.3l14.1,2.4l-19.6,55.7
		l-19-3.3L466,92.3z M685.8,428.7c0,143.8-116.6,260.4-260.4,260.4S165,572.5,165,428.7s116.6-260.4,260.4-260.4
		S685.8,284.9,685.8,428.7z M352.7,99.2l10.8,18.6l1.1-0.5l-4.1-19.8l14.6-3l11.9,57l-13.4,2.8l-11.2-18l-1.1,0.6l4,19.2l-14.5,3
		L341,112l-3.2,0.7l-2.1-9.9L352.7,99.2z M256.7,136.3l5.5,8.3l-14.4,9.6L255,165l11.3-7.5l3.8,9.8l-9.4,6.3l8.2,12.4l14.4-9.6
		l5.6,8.4l-27.8,18.4L234.4,163l-2.8,1.8l-5.5-8.3L256.7,136.3z M154.2,229.9c2.8-4,6.4-7.6,10.6-10.3c0.7-0.9,1-1.3,1.4-2.5
		l41.7,30.1c-0.2,5.8-3,12-8,18.8l-9.4,13l-47.2-34L154.2,229.9z M111.3,438.2l-1.4-19.6l-21.4-1.5l17.4-10.5l-21.2-33.8l35,28.4
		l19.1-8.9l-10,17.1l24.3,22.9l-31.5-11.7L111.3,438.2z M155.2,629.4l-7.8-11.4l12.3-17.3l-0.9-0.8l-16.2,11l-8.4-12.3l39.7-27
		l-1.9-2.7l8.4-5.7l9.9,14.6l-13,17.1l0.9,0.9l16.7-11.4l8.4,12.4L155.2,629.4z M241.3,706.8c-5.9-0.5-12.5-3.9-17.4-7.7
		c-4.8-3.8-9.8-9.6-11.7-14.9l27.5-35.3l-2.4-1.8l6.2-8l14.3,11.1L228,688.5c-0.7,3.4,2.8,5.8,5.4,4.2l29.9-38.4l11.8,9.2
		L241.3,706.8z M357.5,718.2l-14.4-4.2l2.1-7.3c-0.3-3-4.2-4.5-6.6-1.9l-10.5,35.7c0.6,3.4,4.7,4.3,6.6,1.9l4.3-14.6l-4.4-2.2l4.8-8
		l16.7,4.9l-8.9,30.4c-5.7,1.7-13.1,0.9-19-0.8c-5.9-1.7-12.7-5.4-16.4-9.6l14.5-49.3c5.4-1.6,13.1-0.8,19,0.9
		c4.6,1.4,9.8,3.7,13.6,6.8c1.1,0.3,2.3,0.7,3.4,0.6L357.5,718.2z M443.5,765c-6.2,0.3-13.8-0.8-18.7-3.6l-2.7-51.3
		c4.6-3.3,12.1-5.1,18.2-5.4c4.8-0.3,10.5,0.2,15.1,1.9c1.2-0.1,2.4-0.1,3.5-0.5l0.9,17.4l-14.9,0.8l-0.4-7.6
		c-1.3-2.8-5.5-2.8-6.8,0.4l1.9,37.2c1.7,3,5.9,2.5,6.8-0.4l-0.8-15.2l-4.9-0.6l1.9-9.2L460,728l1.7,31.6
		C456.9,762.9,449.6,764.7,443.5,765z M541.5,744.6L523.2,700l-3.1,1.3l-3.8-9.2l34.1-14.1l3.8,9.2l-16.1,6.7l4.9,12l12.7-5.2
		l1.8,10.3l-10.6,4.4l5.7,13.8l16.1-6.7l3.9,9.4L541.5,744.6z M639,688.5l-31.5-36.3l-8.3,7.2l-6.6-7.6l28.3-24.6l6.6,7.6l-8.3,7.2
		l31.5,36.3L639,688.5z M710.9,607.8c-3.3,5.2-8.6,10.8-13.7,13.2l-12.7-7.9l8-12.8l7.1,4.4c3.4,0.4,5.3-3.2,3.5-5.7l-13-8.1
		l-7,11.3c-3.2,5-6.7,5.7-10.3,3.5l-19.1-11.9c-0.1-5.7,2.7-12.7,5.9-18c2.6-4.1,6.1-8.2,10.1-10.9c0.8-1.2,1.3-2.2,1.5-3.1
		l14.7,9.2l-7.9,12.7l-6.3-3.9c-3-0.6-5.3,2.4-3.4,5.4l10.1,6.3l7.2-11.6c2.9-4.7,7.2-4.6,9.1-3.4l21.9,13.6
		C716.7,596,714.2,602.6,710.9,607.8z M740.9,418.6l-1.4,19.6l-10.2-17.6l-31.5,11.7l24.3-22.9l-10-17.1l19.1,8.9l35-28.4L745,406.6
		l17.4,10.5L740.9,418.6z M675.7,239.5l10.5-8.2c3.4-0.8,5.6,2.5,4,5.1l-10.5,8.2C676.9,245.5,674.2,242.6,675.7,239.5z
		 M189.9,260.4l-28-20.2c-1.7-3,0.8-6.1,3.8-5.3l28,20.2C195.4,257.7,193.3,261,189.9,260.4z"/>
	<path class="st3" d="M401.6,616.8c5.9-2.7,11.9-4.3,18.1-4.9v28.6c-12.8-1.2-24.6-5.8-34.6-12.7C390.3,623,395.9,619.3,401.6,616.8
		z M374.4,618.6c6.8-6.4,14-11.3,21.5-14.7c7.7-3.6,15.8-5.6,23.9-6.3v-22.9H354C355.6,591.7,363,607,374.4,618.6z M523.3,328.8
		l-72.8-89l0.1,37.9l-25-58.7v159.2l48.5-62L523.3,328.8z M433.8,611.9v28.5c12.8-1.2,24.7-5.8,34.7-12.7c-5.7-5.2-11.7-9-18-11.6
		C445.3,613.9,439.7,612.6,433.8,611.9z M138.8,392.3l-19.1,8.9l-35-28.4l21.2,33.8l-17.4,10.5l21.4,1.5l1.4,19.6l10.2-17.6
		l31.5,11.7l-24.3-22.9L138.8,392.3z M433.8,597.7c7.6,0.7,15,2.4,22.1,5.4c8.2,3.4,16,8.4,23.4,15.4c11.2-11.6,18.6-26.9,20.3-43.8
		h-65.8V597.7z M766.1,372.9l-35,28.4l-19.1-8.9l10,17.1l-24.3,22.9l31.5-11.7l10.2,17.6l1.4-19.6l21.4-1.5l-17.4-10.5L766.1,372.9z
		 M601.3,527.1l-1.9-0.2l-137.1-89.2l-24.9,14.8l149.6,94l1.2,1.8l12.3,14.6c10.9-2.8,21.8-20.8,19.6-30.6L601.3,527.1z
		 M821.9,428.7c0,219-177.5,396.5-396.5,396.5S28.9,647.7,28.9,428.7S206.4,32.2,425.4,32.2S821.9,209.7,821.9,428.7z M801.3,428.7
		c0-207.6-168.3-375.9-375.9-375.9S49.5,221,49.5,428.6s168.3,375.9,375.9,375.9C632.9,804.5,801.3,636.3,801.3,428.7z M621.7,324.4
		L604,297.3l-5,3.4h-0.1c-32.7-42.5-88-79.6-132.6-85c41.2,23.7,77,56.9,105.2,95.6l-26.2,19l3.1,4.9l-121.8,79.3l-121.8-79.3
		l3.1-4.9l-26.2-19c28.2-38.7,64-71.9,105.2-95.6c-44.6,5.4-99.9,42.5-132.6,85h-0.1l-5-3.4l-17.7,27.1l5.5,3.4
		c-26.5,50.3-35.6,115.9-22.1,155.5c4.3-46.6,19.5-93.2,43.2-135.4l28.4,16l2.8-4.4l112.8,70.8l-148.3,96.6l-1.9,0.2l-18.8,5.1
		c-2.1,9.8,8.7,27.8,19.6,30.6l12.3-14.6l1.2-1.8l160.3-100.7l24.4-15.3l112.8-70.8l2.8,4.4l28.4-16c23.7,42.2,38.9,88.8,43.2,135.4
		c13.7-39.7,4.6-105.3-21.9-155.6L621.7,324.4z"/>
</g>
</svg>
