<?xml version="1.0" encoding="utf-8"?>
<!-- Generator: Adobe Illustrator 25.0.0, SVG Export Plug-In . SVG Version: 6.00 Build 0)  -->
<svg version="1.1" id="Layer_1" xmlns="http://www.w3.org/2000/svg" xmlns:xlink="http://www.w3.org/1999/xlink" x="0px" y="0px"
	 viewBox="0 0 747.2 749" style="enable-background:new 0 0 747.2 749;" xml:space="preserve">
<style type="text/css">
	.st0{fill:#FFFFFF;}
	.st1{fill:#E31837;}
	.st2{fill:#002B5C;}
	.st3{fill:#C4CED4;}
</style>
<g id="Group">
	<path class="st0" d="M718.6,230.9c-18.7-44.4-45.6-84.5-80-119.1c-34.5-34.9-74.7-62.3-119.3-81.5C472.8,10.2,423.7,0,373.2,0
		C323.6,0,275,10.4,228.7,30.9c-43.8,19.4-83.6,47-118.2,82C39.2,185.1-1.1,280.7,0,375.3c0.6,48.2,10.7,95.7,30.2,141.2
		c19,44.3,45.8,84.4,79.6,119.1c34.3,35.2,74,63,118,82.5C274,738.6,323,749,373.2,749c50.3,0,99.3-10.3,145.5-30.6
		c44.2-19.4,84-46.9,118.4-82c34.1-34.7,60.9-74.8,79.9-119.2c19.6-45.7,29.7-93.7,30.1-142.6C747.7,325.2,738.1,276.9,718.6,230.9z
		 M732.2,374.5C730.5,565.6,571.5,734,373.2,734C174.9,734,17.2,563.3,15,375.1C12.9,190.3,174.9,15,373.2,15
		C571.5,15,734,180.7,732.2,374.5z M533,144.5c-1.9,2.4-3.3,4.7-4.1,6.4c-1.7,3.6-1.9,6.7-0.5,9.5c1.4,2.8,4.7,6.2,9.8,10.2l9,7.1
		c6.4,5,11.4,7.6,14.8,7.4c3.5-0.2,7.4-2.9,11.7-8.5l16.4-20.9c1.7-2.4,3.1-4.5,4-6.4c1.7-3.6,1.9-6.7,0.3-9.7
		c-1.2-2.6-4.5-5.9-9.7-10l-9-7.1c-6.4-5-11.4-7.4-14.7-7.4c-3.5,0.2-7.4,2.9-11.7,8.5L533,144.5z M559.2,139.4
		c2.4-3.1,4.3-4.7,5.9-4.7c1.4,0,3.6,1.4,6.9,3.8l-1.2-1c2.1,1.7,3.5,2.9,4,3.6c1.4,1.6,1.6,3.3,0.7,5c-0.7,0.9-1.6,2.1-2.9,3.6
		l-9.1,11.6c-2.4,3.1-4.5,4.7-6,4.7c-1,0-2.8-0.9-5.2-2.6c-2.2-1.7-3.4-2.9-3.9-3.4c-1.4-1.7-1.6-3.3-0.7-5c0.5-1,1.4-2.2,2.6-4
		L559.2,139.4z M231.5,99.7c-2.8-6.6-3.3-11.4-1.7-14.5c1.6-3.1,6.2-6.2,13.6-9.3l20.9-8.6c2.9-1.2,6.6,0.5,7.8,3.5
		c2.1,5,5.3,12.9,5.3,12.9s-5.5-3.6-9.1-2.1l-16.9,7.1c-5.2,2.1-4,4.5-3.6,5.9c0.2,0.2,0.5,1,0.5,1c1.4,2.1,3.6,2.2,7.1,0.9l9.5-4
		c8.5-3.5,16.6-0.9,20.5,6.7c0.9,1.2,2.9,6,2.4,5.9c2.6,6.4,3.3,10.9,1.7,14c-1.6,3.1-6,6.2-13.6,9.3l-8.1,3.5l-11.2,4.7l-1.6,0.7
		c-2.9,1.2-6.6-0.5-7.8-3.5c-2.1-5-5.3-12.9-5.3-12.9s5.3,3.5,9,2.2l16.4-6.7c6.4-2.8,5.5-5.5,5.5-5.5c0-0.7-0.2-1.2-0.5-1.7
		c-1.4-2.1-3.6-2.4-6.7-1l-8.1,3.4c-5.3,2.2-10,2.8-14.1,1.7c-3.5-0.9-6-2.8-7.9-5.5c-0.5-0.9-1-1.6-1.4-2.4L231.5,99.7z
		 M99.7,194.2c0.2,0,0.2-0.2,0.2-0.2l8.1-9.1l3.6-4.1c0,0-1.9,5,2.6,7.2l34.5,17.8L124,171.1c-1-2.1,0-4.1,1.7-6.2
		c0.2,0,0.2-0.2,0.2-0.2l7.1-8.1l3.4-4c0,0-1.7,4.8,2.6,6.6l34.5,18.6L149.1,140c-0.2-1.4,0.7-2.6,2.1-4.1c0.2,0,0.2-0.2,0.2-0.2
		l9.7-10.9l1.7-2.2c0,0-0.9,2.8,1,6.2l28.5,47.6c0.7,2.1,0.5,4.7-1.2,6.6l-13.5,15.2L156.8,188l10.2,18.8c0.9,2.1,0.3,3.1-1.4,5
		L153,226.1L99.4,201c0,0,0,0-0.2-0.2C97.3,199.4,97.8,196.3,99.7,194.2z M196.7,169.4c1,3.3-2.9,9.1-2.9,9.1l17.9-12.6
		c1.6-1.2,2.1-3.1,1.4-4.8l-2.6-7.4l13.6-9.5l5.3,3.3c3.1,2.6,0.9,5.3,0.9,5.3L250,139l-57.6-34l-10.2,7.1c-2.1,1.4-2.9,2.8-2.8,5
		L196.7,169.4z M210,135.7l-5,3.6l-3.3-9L210,135.7z M280.7,62.8l20.7-4.3l5.2,25.7c0,0,0.7-3.6,4.3-4.3l12.1-2.6l-3.1-15.2v-0.2
		c-0.9-4.3-6.4-6-6.4-6l21.4-4.3l12.1,58c-0.3,1.9-2.1,2.4-4.5,2.9l-12.1,2.4l-4.8-22.9l-16.7,3.4l4.5,21c-0.3,1.9-2.1,2.4-4.5,2.9
		l-12.1,2.4l-10.9-52.6V69C285,64.8,280.7,62.8,280.7,62.8z M437,107.6c0.2-2.1,0.9-4.5,1.9-7.4l8.6-25.2c2.2-6.7,5-10.7,8.3-11.9
		c3.3-1.2,8.8-0.5,16.4,2.1l23.8,8.1c3.1,1.2,5.3,3.1,4.3,7.2l-3.3,9.3l-1.2,3.6c0,0-0.7-4.3-4-5.5l-18.3-6.4
		c-3.6-1.4-6.2-1.7-7.6-1.4c-1.4,0.3-2.6,2.4-4,6.2l-4.8,14c-0.7,1.9-1,3.5-1.2,4.5c-0.2,1.9,0.7,3.3,2.4,4.5
		c0.7,0.3,3.3,1.4,3.3,1.4c3.8,1.4,6.2,1.7,7.4,1.4c1.2-0.3,2.4-1.9,3.6-4.7l-7.4-2.6c-3.1-1-5.3,1.2-5.3,1.2l1-2.8
		c0,0,2.9-8.6,3.8-10.2c0.9-1.4,2.2-3.3,4.7-2.4l20.2,7.1c1.4,0.5,3.8,2.6,2.8,5.9c-0.7,1.9-4.8,13.6-4.8,13.6
		c-2.2,6.7-5,10.7-8.3,11.9c-3.1,1.2-8.6,0.5-16.4-2.2l-10.7-3.8c-6.2-2.1-10.4-4.3-12.6-6.4C437.4,114.5,436.5,111.6,437,107.6z
		 M499.3,95.9l2.4-4.1c0,0,5.3-9.3,5.9-10.2c0.5-0.9,2.1-2.4,4.1-1.2l14.5,8.5c0,0.2,0.2,0.2,0.2,0.2l25.5,14.8l-6.2,10.9l-4.1,6.6
		c0,0,0-6.4-4-8.6l-6.9-4c-7.4,12.9-20.2,35.2-20.2,35.2c-1.6,3.1-1.6,5.7-1.6,5.7l-16.2-9.5l23.1-40l-9-5.2
		C502.8,92.4,499.3,95.9,499.3,95.9z M384.9,56.7c0.5-4.3-4.1-7.8-4.1-7.8l5,0.5c0,0,12.4,1.6,14.5,1.7c1,0.2,1.7,0.7,2.1,1.4
		L417,83.3l2.6-22.9v0.2c0.3-4.3-4-7.4-4-7.4l4.7,0.5l16.9,1.7l-6.6,58.8c-1,1.7-2.8,1.7-5.2,1.4l-12.3-1.4l-3.6-0.5
		c0,0,4.1-0.3,2.2-4.8l-12.4-27.3c-1.6,15.2-3.1,28.6-3.1,28.6c-1,1.7-2.8,1.7-5.2,1.4l-12.3-1.4L384.9,56.7z M80.6,287.6
		l-21.2-15.4h26.2l8.1-24.8l8.1,24.8h26.1l-21.2,15.4l8.1,24.8l-21-15.4l-21.2,15.4L80.6,287.6z M352.1,58.1
		c-0.7-7.1,2.4-7.2,4.1-7.6c7.1-0.2,13.8-0.7,15.5-0.7c0,0-2.6,2.2-2.6,4.5c0,2.2,2.8,50.9,2.8,50.9c0.3,3.3,1.6,5.2,1.6,5.3
		l-1.2,0.3l-17.3,0.9L352.1,58.1z M267.4,674.6c-0.9,3.3-0.5,5.5-0.5,5.5l-1.4-0.2l-16.4-5.7l17.6-50.7c2.1-6.7,5-5.7,6.7-5.4
		c6.7,2.4,13.1,4.5,14.7,5.2c0,0-3.1,1-4,3.1C283.3,628.5,267.4,674.6,267.4,674.6z M514,613.8c-1.4-2.9-1.9-4-2.8-5.7
		c-1.7-3.5-4.3-5-6.6-5.3c-2.4-0.3-5.7,0.3-10,2.2l-40.7,17.6c0,0,5.7,1,7.6,4.7l18.8,43.7c0.9,3.1-0.3,6.4-0.9,7.1l39.7-17.1
		c5.4-2.4,8.5-4.8,9.5-7.6c0.9-2.8,0-7.4-2.9-13.8L514,613.8z M508.6,649.5l-15.7,6.7l-9.1-21c-0.5-1.4-1.9-4.7-3.6-8.1l15.4-6.6
		c1.7-0.7,3.1-0.2,4.3,1.6c0.7,1.2,10.9,23.6,10.7,24.8C510.4,648.2,509.8,649,508.6,649.5z M258.8,619l-39.7,37.4
		c-1.9,1-4.7,1.2-6.7-0.2l-17.1-10.9l6.9-22.1l-17.1,12.9c-1.9,1.2-2.9,0.9-5.2-0.5l-16-10.2l19.2-55.2c0,0,0,0.2,0.2-0.2
		c1-2.1,4.1-2.1,6.6-0.5c0,0.2,0.2,0.2,0.2,0.2l10.4,6.6l4.7,2.9c0,0-5.2-1.2-6.7,3.6L186,613.8l27.8-25.7c1.9-1.4,4.1-0.7,6.4,0.7
		c0,0.2,0.2,0.2,0.2,0.2l9,5.7l4.3,2.8c0,0-4.8,0-5.5,3.1l-9.8,31.7l27.1-26.4c1.2-0.3,2.6,0.3,4.3,1.4c0,0.2,0.2,0.2,0.2,0.2
		l12.3,7.8l2.4,1.4C264.5,616.6,261.7,616.2,258.8,619z M362.8,635.9c-2.6,0-4,0.7-5,2.4L342,691.1c-1,3.3-7.6,5.9-7.6,5.9h21.9
		c1.9,0,3.5-1.4,4-3.1l2.2-7.6h16.7l2.4,5.9c1,3.8-2.4,4.8-2.4,4.8h23.6v0l-27.6-61.1H362.8z M366.5,671.6l2.6-9.3l3.5,9.3H366.5z
		 M449.5,666.3c3.1-0.7,5.5-2.4,6.4-4c1.6-2.4,1.6-7.2,0.3-14.1c0,0-2.4-12.1-2.9-14c-0.9-3.6-2.9-5.9-5.2-6.7
		c-2.2-0.9-5.7-0.9-10.4,0l-43.3,8.1c0,0,5.5,2.1,6.4,6.2l9.7,52.8l12.1-2.2c2.4-0.5,4.1-0.9,4.7-2.8l-3.3-17.9l8.5-1.7l14.5,17.8
		l21.6-4c0,0-3.8-1-5.9-2.9L449.5,666.3z M439.8,652.3c-0.3,1.2-1.2,1.9-2.4,2.1l-10,1.9c-2.2,0.3-4,2.8-5.3,5.7l-2.9-15.9l16.2-3.1
		c1.7-0.5,3.1,0.3,3.8,2.4C439.6,646.6,440.1,651.1,439.8,652.3z M334.9,677.3l-3.3,15c-0.9,2.9-2.9,2.9-5.9,2.2l-45.4-10l2.2-9.7
		l34.9-29.3l-20.9-4.7c-3.8-0.7-7.1,1.9-7.1,1.9l0.9-3.3l1.7-8.1c0.9-2.9,2.2-5.3,6-5c0.7,0.2,45.9,10,45.9,10l-2.6,11.6l-35.5,27.1
		l21.9,4.8C331.4,680.6,334.9,677.3,334.9,677.3z M619.2,275.5h26.1l8.1-24.8l8.1,24.8h26.2l-21.2,15.4l8.1,24.8l-21.2-15.4
		l-21,15.4l8.1-24.8L619.2,275.5z M629.9,179.9l2.9,3.6l10.5,13.6l-46.6,36.4c-1.9,0.3-3.1-0.9-4.7-2.8l-7.6-9.7l-2.1-2.9
		c0,0,3.1,2.8,5-1.7l10.9-28c-11.9,9.3-22.6,17.8-22.6,17.8c-1.9,0.5-3.1-0.9-4.7-2.8l-7.6-9.7l42.4-33.3c3.5-2.8,2.6-8.5,2.6-8.5
		l3.1,4c0,0,7.6,9.8,9,11.6c0.7,0.9,0.9,1.6,0.5,2.4L609.4,202l18.1-14.1h-0.2C630.8,185.3,629.9,179.9,629.9,179.9z M578.5,600.5
		c4,5.7,5.5,10,4.7,13.3c-0.9,3.3-4.7,7.2-11.4,11.9l-7.2,5l-10,6.9l-1.4,1c-2.8,1.9-6.7,0.9-8.5-1.7c-2.9-4.5-7.9-11.6-7.9-11.6
		s5.9,2.2,9.1,0.3l14.5-10c5.9-4,4.3-6.6,4.3-6.6c-0.2-0.5-0.3-1-0.9-1.6c-1.9-1.7-4.1-1.6-6.9,0.3l-7.2,5
		c-4.8,3.3-9.3,4.8-13.5,4.7c-3.6-0.2-6.6-1.6-9-3.8c-0.5-0.7-1.2-1.4-1.7-2.1l-3.5-5c-4-5.9-5.5-10.5-4.7-13.8
		c0.9-3.3,4.7-7.2,11.4-11.9l18.5-12.8c2.8-1.9,6.7-0.9,8.5,1.7c2.9,4.5,7.9,11.6,7.9,11.6s-6.2-2.4-9.5-0.2L539,591.9
		c-4.5,3.1-2.9,5.3-2.2,6.6c0.2,0.2,0.7,0.9,0.7,0.9c1.7,1.6,4,1.4,7.1-0.7l8.5-5.9c7.4-5.2,16-4.3,21.4,2.2
		C575.4,596,578.5,600.4,578.5,600.5z M132.7,374.2c0,31.5,6,62.3,17.9,91.4c-50.9,0-90.3,0-108.6,0c-8.6-29.4-13.2-59.6-13.3-91.4
		c0-6.1,0.1-11.6,0.5-18.5l104.2,0c-0.1,1.9-0.3,3.8-0.4,5.7l0,0l0,0c-0.2,4-0.4,8.1-0.4,12.4V374.2z M613.5,355.7l104.4,0
		c0.3,5.5,0.4,10,0.4,17.1c0,31.9-4.6,62.8-13.3,92.6c-18.5,0-57.9,0.1-108.7,0.1c11.7-28.6,17.8-59.4,17.9-90.9v-0.2V374
		C614.1,367.9,613.9,361.8,613.5,355.7z M216.2,547c5.5,5,11.2,9.8,17.3,14.3c39,29.2,87.3,46.4,139.7,46.6h0.2h0.2
		c28.1,0,55.2-5,80.2-14.1C543.1,561,607,475.3,607.1,374.5v-0.2V374c0-32.3-6.4-63-18.3-90.9c-2.9-6.9-6.2-13.8-9.8-20.4
		c-14.3-26.4-33.6-49.9-56.8-68.8c-4.3-3.6-8.8-6.9-13.5-10.2c-38.1-27.1-84.7-43.3-135.1-43.3h-0.2c-124.9,0-226.9,98-233.4,221.4
		c-0.2,4-0.3,7.9-0.3,12.1v0.3c0,32.3,6.6,63,18.3,90.9c1.6,3.5,3.1,6.9,4.7,10.4C175.8,502.7,194.1,527,216.2,547z M518.1,528.9
		c-30.1,28-68.4,47.3-110.8,54.1l0,0.1H407l-33.1,19l-0.2-292.4l-0.2-0.2l-0.2-0.2l-0.2,0.2L358,324.7l-18.1,258.8
		c-42.3-6.7-80.4-25.9-110.6-53.7c-12.1-24.8-18.1-68.5,28.6-144.2c34.7-56.2,113.4-112.8,115.8-114.6
		c2.4,1.7,81.1,58.3,115.6,114.2C535.7,460.4,530,503.9,518.1,528.9z M346.1,234.6l-4-2.2l-13.1-7.1l-13.1-7.1
		c4-0.9,8.1-1.6,12.2-2.2c9.1-1.6,18.5-2.9,27.9-3.4l6.7-0.3V212l0.2-0.5l2.6-5.5l0.2-0.3l0.2-0.3l5-10.2l2.4-5l7.8,15.7l0.2,0.3
		l2.8,5.5l0.2,0.3l0.2,0.3l6.7,0.3c9.3,0.5,18.6,1.9,28,3.5c4.1,0.7,8.3,1.4,12.1,2.4l-8.5,4.7l-17.6,9.5l-5.5,2.9L397,237l2.4,8.8
		l0.7,2.2l0.7,2.2l7.2,26.4l-27.8-20.5l-3.3-2.4l-3.3-2.4v-0.2h-0.2h-0.2v0.2l-3.3,2.4l-3.3,2.4l-11.2,8.3L339,276.7l7.2-26.4
		l1.2-4.1l0.2-0.5l2.4-8.8L346.1,234.6z M586.6,376.4c-0.7,42.6-14,82.3-36.2,115.2c5.9-60.6-52.6-126.8-98.5-172.2
		c-24.3-24.3-34.5-52.6-34.5-52.6l-5.3-19.7l-1.2-4.7l24.8-14c0,0,14.5-10,46.9,8.8c38,22.4,68.8,51.4,84.9,82.1
		C575.9,335.9,582.8,354.9,586.6,376.4z M574.7,301.9c-28.8-43-84.9-91.3-170.1-100.9c7.4-17.9,22.8-26.6,36.4-30.7
		C503.4,191.1,553,239.9,574.7,301.9z M373.7,159.4c15.5,0,30.7,1.7,45.2,4.8c-10.9,5.5-21.6,15.7-28.3,34.3l-16.9-24.8l-16.9,24.8
		c-6.9-18.6-17.6-28.8-28.5-34.3C343,161.1,358.2,159.4,373.7,159.4z M306.1,170.2c13.8,4,29.2,12.6,36.7,30.7
		c-85.9,9.7-142.2,58.8-170.8,102C193.6,240.5,243.3,191.1,306.1,170.2z M160.3,378.3c3.6-22.3,10.7-41.8,19.5-58.8
		c16-30.7,46.9-59.7,84.9-82.1c32.4-18.8,46.9-8.8,46.9-8.8l24.8,14l-1.2,4.7l-5.3,19.7c0,0-10.2,28.5-34.7,52.4
		c-45.9,45.5-104.7,112.1-98.3,172.9C174.8,459.6,161.5,420.4,160.3,378.3z"/>
	<path class="st1" d="M205,139.4l-3.3-9l8.3,5.3L205,139.4z M596.2,465.5c-6.9,16.9-15.8,33.1-26.6,48.2
		c-5.4,7.6-11.3,14.9-17.5,21.8h123.8c12.2-22.2,22-45.7,29.1-70.1C684.6,465.4,643.6,465.4,596.2,465.5
		C596.2,465.5,596.2,465.5,596.2,465.5z M133.5,355.7l-104.2,0c10-177.4,166.2-327.4,345.3-327.4c179.6,0,333.9,149.6,343.2,327.5
		l-104.4,0c-1.8-26.6-7.9-51.2-18.2-75.4c-3.2-7.6-6.6-14.6-10.1-21c-14.9-27.4-34.5-51.2-58.4-70.9c-4.8-4-9.7-7.6-13.9-10.5
		c-41-29.2-89.2-44.6-139.1-44.6h-0.2c-128,0-233.6,100.1-240.4,228C133.2,359.5,133.3,357.6,133.5,355.7z M645.3,275.5h-26.1
		l21.2,15.4l-8.1,24.8l21-15.4l21.2,15.4l-8.1-24.8l21.2-15.4h-26.2l-8.1-24.8L645.3,275.5z M605.9,160.6l-42.4,33.3l7.6,9.7
		c1.6,1.9,2.8,3.3,4.7,2.8c0,0,10.7-8.5,22.6-17.8l-10.9,28c-1.9,4.5-5,1.7-5,1.7l2.1,2.9l7.6,9.7c1.6,1.9,2.8,3.1,4.7,2.8
		l46.6-36.4l-10.5-13.6l-2.9-3.6c0,0,0.9,5.3-2.6,7.9h0.2L609.4,202l11.7-31.9c0.3-0.9,0.2-1.6-0.5-2.4c-1.4-1.7-9-11.6-9-11.6
		l-3.1-4C608.5,152.1,609.4,157.8,605.9,160.6z M549.4,123.7L533,144.5c-1.9,2.4-3.3,4.7-4.1,6.4c-1.7,3.6-1.9,6.7-0.5,9.5
		c1.4,2.8,4.7,6.2,9.8,10.2l9,7.1c6.4,5,11.4,7.6,14.8,7.4c3.5-0.2,7.4-2.9,11.7-8.5l16.4-20.9c1.7-2.4,3.1-4.5,4-6.4
		c1.7-3.6,1.9-6.7,0.3-9.7c-1.2-2.6-4.5-5.9-9.7-10l-9-7.1c-6.4-5-11.4-7.4-14.7-7.4C557.6,115.4,553.7,118.1,549.4,123.7z
		 M501.7,91.7l-2.4,4.1c0,0,3.5-3.5,7.6-1l9,5.2l-23.1,40l16.2,9.5c0,0,0-2.6,1.6-5.7c0,0,12.8-22.3,20.2-35.2l6.9,4
		c4,2.2,4,8.6,4,8.6l4.1-6.6l6.2-10.9L526.4,89c0,0-0.2,0-0.2-0.2l-14.5-8.5c-2.1-1.2-3.6,0.3-4.1,1.2
		C507.1,82.4,501.7,91.7,501.7,91.7z M438.9,100.2c-1,2.9-1.7,5.3-1.9,7.4c-0.5,4,0.3,6.9,2.6,9.1c2.2,2.1,6.4,4.3,12.6,6.4
		l10.7,3.8c7.8,2.8,13.3,3.5,16.4,2.2c3.3-1.2,6-5.2,8.3-11.9c0,0,4.1-11.7,4.8-13.6c1-3.3-1.4-5.3-2.8-5.9l-20.2-7.1
		c-2.4-0.9-3.8,1-4.7,2.4c-0.9,1.6-3.8,10.2-3.8,10.2l-1,2.8c0,0,2.2-2.2,5.3-1.2l7.4,2.6c-1.2,2.8-2.4,4.3-3.6,4.7
		c-1.2,0.3-3.6,0-7.4-1.4c0,0-2.6-1-3.3-1.4c-1.7-1.2-2.6-2.6-2.4-4.5c0.2-1,0.5-2.6,1.2-4.5l4.8-14c1.4-3.8,2.6-5.9,4-6.2
		c1.4-0.3,4,0,7.6,1.4l18.3,6.4c3.3,1.2,4,5.5,4,5.5l1.2-3.6l3.3-9.3c1-4.1-1.2-6-4.3-7.2l-23.8-8.1c-7.6-2.6-13.1-3.3-16.4-2.1
		c-3.3,1.2-6,5.2-8.3,11.9L438.9,100.2z M384.9,56.7l-6,53.5l12.3,1.4c2.4,0.3,4.1,0.3,5.2-1.4c0,0,1.6-13.5,3.1-28.6l12.4,27.3
		c1.9,4.5-2.2,4.8-2.2,4.8l3.6,0.5l12.3,1.4c2.4,0.3,4.1,0.3,5.2-1.4l6.6-58.8l-16.9-1.7l-4.7-0.5c0,0,4.3,3.1,4,7.4v-0.2L417,83.3
		l-14.7-30.7c-0.3-0.7-1-1.2-2.1-1.4c-2.1-0.2-14.5-1.7-14.5-1.7l-5-0.5C380.8,49,385.4,52.4,384.9,56.7z M352.1,58.1l2.9,53.7
		l17.3-0.9l1.2-0.3c0-0.2-1.2-2.1-1.6-5.3c0,0-2.8-48.7-2.8-50.9c0-2.2,2.6-4.5,2.6-4.5c-1.7,0-8.5,0.5-15.5,0.7
		C354.6,50.9,351.5,51,352.1,58.1z M280.7,62.8c0,0,4.3,2.1,5.2,6.2v0.2l10.9,52.6l12.1-2.4c2.4-0.5,4.1-1,4.5-2.9l-4.5-21l16.7-3.4
		l4.8,22.9l12.1-2.4c2.4-0.5,4.1-1,4.5-2.9l-12.1-58l-21.4,4.3c0,0,5.5,1.7,6.4,6v0.2l3.1,15.2l-12.1,2.6c-3.6,0.7-4.3,4.3-4.3,4.3
		l-5.2-25.7L280.7,62.8z M231.5,99.7l2.4,5.5c0.3,0.9,0.9,1.6,1.4,2.4c1.9,2.8,4.5,4.7,7.9,5.5c4.1,1,8.8,0.5,14.1-1.7l8.1-3.4
		c3.1-1.4,5.3-1,6.7,1c0.3,0.5,0.5,1,0.5,1.7c0,0,0.9,2.8-5.5,5.5l-16.4,6.7c-3.6,1.2-9-2.2-9-2.2s3.3,7.9,5.3,12.9
		c1.2,2.9,4.8,4.7,7.8,3.5l1.6-0.7l11.2-4.7l8.1-3.5c7.6-3.1,12.1-6.2,13.6-9.3c1.6-3.1,0.9-7.6-1.7-14c0.5,0.2-1.6-4.7-2.4-5.9
		c-4-7.6-12.1-10.2-20.5-6.7l-9.5,4c-3.5,1.4-5.7,1.2-7.1-0.9c0,0-0.3-0.9-0.5-1c-0.3-1.4-1.6-3.8,3.6-5.9l16.9-7.1
		c3.6-1.6,9.1,2.1,9.1,2.1s-3.3-7.9-5.3-12.9c-1.2-2.9-4.8-4.7-7.8-3.5l-20.9,8.6c-7.4,3.1-12.1,6.2-13.6,9.3
		C228.3,88.3,228.8,93.1,231.5,99.7z M179.4,117.1l17.3,52.3c1,3.3-2.9,9.1-2.9,9.1l17.9-12.6c1.6-1.2,2.1-3.1,1.4-4.8l-2.6-7.4
		l13.6-9.5l5.3,3.3c3.1,2.6,0.9,5.3,0.9,5.3L250,139l-57.6-34l-10.2,7.1C180.1,113.5,179.3,114.9,179.4,117.1z M106.6,287.6
		l21.2-15.4h-26.1l-8.1-24.8l-8.1,24.8H59.3l21.2,15.4l-8.1,24.8l21.2-15.4l21,15.4L106.6,287.6z M153,226.1l12.6-14.3
		c1.7-1.9,2.2-2.9,1.4-5L156.8,188l20.7,10.2L191,183c1.7-1.9,1.9-4.5,1.2-6.6l-28.5-47.6c-1.9-3.5-1-6.2-1-6.2l-1.7,2.2l-9.7,10.9
		c0,0,0,0.2-0.2,0.2c-1.4,1.6-2.2,2.8-2.1,4.1l24.5,37.8l-34.5-18.6c-4.3-1.7-2.6-6.6-2.6-6.6l-3.4,4l-7.1,8.1c0,0,0,0.2-0.2,0.2
		c-1.7,2.1-2.8,4.1-1.7,6.2l24.7,34.7L114.2,188c-4.5-2.2-2.6-7.2-2.6-7.2l-3.6,4.1l-8.1,9.1c0,0,0,0.2-0.2,0.2
		c-1.9,2.1-2.4,5.2-0.5,6.6c0.2,0.2,0.2,0.2,0.2,0.2L153,226.1z M548.1,159.9c0.5,0.5,1.7,1.7,3.9,3.4c2.4,1.8,4.2,2.6,5.2,2.6
		c1.6,0,3.6-1.6,6-4.7l9.1-11.6c1.4-1.6,2.2-2.8,2.9-3.6c0.9-1.7,0.7-3.4-0.7-5c-0.5-0.7-1.9-1.9-4-3.6l1.2,1
		c-3.3-2.4-5.5-3.8-6.9-3.8c-1.6,0-3.5,1.6-5.9,4.7l-9.1,11.6c-1.2,1.7-2.1,2.9-2.6,4C546.6,156.6,546.8,158.2,548.1,159.9z
		 M156.3,478.4L156.3,478.4l-2.5-5.5l-2.2-4.9l0-0.1l0-0.1c-0.3-0.8-0.6-1.5-0.9-2.3c-50.9,0-90.2,0-108.5,0
		c7.1,24.4,17,47.8,29.2,70h123.4C179.3,518.5,166.4,499.4,156.3,478.4L156.3,478.4z M418.9,164.2c-14.5-3.1-29.7-4.8-45.2-4.8
		s-30.7,1.7-45.4,4.8c10.9,5.5,21.6,15.7,28.5,34.3l16.9-24.8l16.9,24.8C397.3,179.9,408,169.7,418.9,164.2z M441,170.2
		c-13.6,4.1-29,12.8-36.4,30.7c85.2,9.7,141.3,58,170.1,100.9C553,239.9,503.4,191.1,441,170.2z M306.1,170.2
		c-62.8,20.9-112.5,70.2-134.1,132.7c28.6-43.1,84.9-92.3,170.8-102C335.2,182.8,319.9,174.2,306.1,170.2z"/>
	<path class="st2" d="M552.1,535.5c-9.9,10.9-20.7,21-32.4,29.9c-19.3,14.8-40.7,26.6-63.5,34.9c-26.5,9.7-54.3,14.6-82.6,14.6h-0.2
		h-0.2c-52.4-0.2-102.2-16.8-143.9-48c-5.6-4.2-11.4-9-17.8-14.8c-5.9-5.3-11.5-10.9-16.7-16.7H71.2
		c52.6,95.4,148.7,166.3,258.1,181.8c14,1.7,28.1,2.6,42.6,2.6h0.2h0.2c31.4,0,61.8-4.1,90.6-12.1c90.4-26,167.7-90.1,212.7-172.4
		H552.1z M212.4,656.3l-17.1-10.9l6.9-22.1l-17.1,12.9c-1.9,1.2-2.9,0.9-5.2-0.5l-16-10.2l19.2-55.2c0,0,0,0.2,0.2-0.2
		c1-2.1,4.1-2.1,6.6-0.5c0,0.2,0.2,0.2,0.2,0.2l10.4,6.6l4.7,2.9c0,0-5.2-1.2-6.7,3.6L186,613.8l27.8-25.7c1.9-1.4,4.1-0.7,6.4,0.7
		c0,0.2,0.2,0.2,0.2,0.2l9,5.7l4.3,2.8c0,0-4.8,0-5.5,3.1l-9.8,31.7l27.1-26.4c1.2-0.3,2.6,0.3,4.3,1.4c0,0.2,0.2,0.2,0.2,0.2
		l12.3,7.8l2.4,1.4c0,0-2.8-0.3-5.7,2.4l-39.7,37.4C217.2,657.5,214.4,657.6,212.4,656.3z M266.9,680.1l-1.4-0.2l-16.4-5.7
		l17.6-50.7c2.1-6.7,5-5.7,6.7-5.4c6.7,2.4,13.1,4.5,14.7,5.2c0,0-3.1,1-4,3.1c-0.9,2.1-16.7,48.1-16.7,48.1
		C266.6,677.8,266.9,680.1,266.9,680.1z M325.7,694.6l-45.4-10l2.2-9.7l34.9-29.3l-20.9-4.7c-3.8-0.7-7.1,1.9-7.1,1.9l0.9-3.3
		l1.7-8.1c0.9-2.9,2.2-5.3,6-5c0.7,0.2,45.9,10,45.9,10l-2.6,11.6l-35.5,27.1l21.9,4.8c3.6,0.7,7.1-2.6,7.1-2.6l-3.3,15
		C330.7,695.3,328.7,695.3,325.7,694.6z M402.9,697h-23.6c0,0,3.5-1,2.4-4.8l-2.4-5.9h-16.7l-2.2,7.6c-0.5,1.7-2.1,3.1-4,3.1h-21.9
		c0,0,6.6-2.6,7.6-5.9l15.9-52.8c1-1.7,2.4-2.4,5-2.4h12.4L402.9,697L402.9,697z M446.8,687.7l-14.5-17.8l-8.5,1.7l3.3,17.9
		c-0.5,1.9-2.2,2.2-4.7,2.8l-12.1,2.2l-9.7-52.8c-0.9-4.1-6.4-6.2-6.4-6.2l43.3-8.1c4.7-0.9,8.1-0.9,10.4,0c2.2,0.9,4.3,3.1,5.2,6.7
		c0.5,1.9,2.9,14,2.9,14c1.2,6.9,1.2,11.7-0.3,14.1c-0.9,1.6-3.3,3.3-6.4,4l13.1,14.5c2.1,1.9,5.9,2.9,5.9,2.9L446.8,687.7z
		 M528.6,653.3c-1,2.8-4.1,5.2-9.5,7.6L479.5,678c0.5-0.7,1.7-4,0.9-7.1l-18.8-43.7c-1.9-3.6-7.6-4.7-7.6-4.7l40.7-17.6
		c4.3-1.9,7.6-2.6,10-2.2c2.2,0.3,4.8,1.9,6.6,5.3c0.9,1.7,1.4,2.8,2.8,5.7l11.7,25.7C528.6,645.9,529.5,650.6,528.6,653.3z
		 M583.1,613.8c-0.9,3.3-4.7,7.2-11.4,11.9l-7.2,5l-10,6.9l-1.4,1c-2.8,1.9-6.7,0.9-8.5-1.7c-2.9-4.5-7.9-11.6-7.9-11.6
		s5.9,2.2,9.1,0.3l14.5-10c5.9-4,4.3-6.6,4.3-6.6c-0.2-0.5-0.3-1-0.9-1.6c-1.9-1.7-4.1-1.6-6.9,0.3l-7.2,5
		c-4.8,3.3-9.3,4.8-13.5,4.7c-3.6-0.2-6.6-1.6-9-3.8c-0.5-0.7-1.2-1.4-1.7-2.1l-3.5-5c-4-5.9-5.5-10.5-4.7-13.8
		c0.9-3.3,4.7-7.2,11.4-11.9l18.5-12.8c2.8-1.9,6.7-0.9,8.5,1.7c2.9,4.5,7.9,11.6,7.9,11.6s-6.2-2.4-9.5-0.2L539,591.9
		c-4.5,3.1-2.9,5.3-2.2,6.6c0.2,0.2,0.7,0.9,0.7,0.9c1.7,1.6,4,1.4,7.1-0.7l8.5-5.9c7.4-5.2,16-4.3,21.4,2.2c1,1,4.1,5.3,4.1,5.5
		C582.5,606.2,584,610.5,583.1,613.8z M499.8,622.1c0.7,1.2,10.9,23.6,10.7,24.8c-0.2,1.2-0.7,2.1-1.9,2.6l-15.7,6.7l-9.1-21
		c-0.5-1.4-1.9-4.7-3.6-8.1l15.4-6.6C497.2,619.9,498.6,620.4,499.8,622.1z M439.1,645.4c0.5,1.2,1,5.7,0.7,6.9
		c-0.3,1.2-1.2,1.9-2.4,2.1l-10,1.9c-2.2,0.3-4,2.8-5.4,5.7l-2.9-15.9l16.2-3.1C437,642.5,438.4,643.3,439.1,645.4z M369,662.3
		l3.5,9.3h-6L369,662.3z M412,247.2l-1.2-4.7l24.8-14c0,0,14.5-10,46.9,8.8c38,22.4,68.8,51.4,84.9,82.1
		c8.5,16.4,15.4,35.4,19.2,56.9c-0.7,42.6-14,82.3-36.2,115.2c5.9-60.6-52.6-126.8-98.5-172.2c-24.3-24.3-34.5-52.6-34.5-52.6
		L412,247.2z M373.7,271c2.4,1.7,81.1,58.3,115.6,114.2c46.4,75.2,40.7,118.7,28.8,143.7c-30.2,28.1-68.7,47.4-111.3,54.2l0.2-0.2
		l-18.3-258.3l-15.2-15.2l-0.2-0.2l-0.2,0.2L358,324.7l-18.1,258.8c-42.3-6.7-80.4-25.9-110.6-53.7c-12.1-24.8-18.1-68.5,28.6-144.2
		C292.6,329.3,371.3,272.7,373.7,271z M196.9,492.2c-22.1-32.6-35.4-71.8-36.6-113.9c3.6-22.3,10.7-41.8,19.5-58.8
		c16-30.7,46.9-59.7,84.9-82.1c32.4-18.8,46.9-8.8,46.9-8.8l24.8,14l-1.2,4.7l-5.3,19.7c0,0-10.2,28.5-34.7,52.4
		C249.3,364.9,190.5,431.5,196.9,492.2z"/>
	<path class="st3" d="M703.4,235.2c-18.4-42.4-44.5-80.8-77.6-114.1c-33.2-33.3-71.5-59.5-113.8-78C467.9,24,421.7,14.3,374.6,14.3
		c-47.1,0-93.4,9.8-137.7,29.1c-42.5,18.5-81,44.9-114.5,78.3C88.9,155,62.5,193.5,44,236c-19.4,44.3-29.2,90.6-29.2,137.7
		c0,85.2,32.6,169,91.8,236.1c28.6,32.4,62,59.4,99.2,80.1c38.4,21.4,79.3,35.3,121.5,41.3l0.1,0l0.1,0c14.5,1.8,29.4,2.7,44.3,2.7
		h0.2h0.2c32.3,0,64-4.2,94.3-12.6l0.1,0l0.1,0c73.6-21,140.7-67.2,189.2-129.9c24.1-31.2,42.9-65.6,56-102.1
		c13.5-37.9,20.4-77.1,20.4-116.5C732.2,325.6,722.5,279.4,703.4,235.2z M462.9,707.8c-28.8,7.9-59.2,12.1-90.6,12.1h-0.2H372
		c-14.5,0-28.6-0.9-42.6-2.6C164.1,693.9,28.8,543.8,28.8,373.7c0-185.1,160.6-345.4,345.7-345.4c185.3,0,343.8,159.2,343.7,344.5
		C718.3,527.6,607.6,666.4,462.9,707.8z M585.1,259.4c-14.9-27.4-34.5-51.2-58.4-70.9c-4.8-4-9.7-7.6-13.9-10.5
		c-41-29.2-89.2-44.6-139.1-44.6h-0.2c-128,0-233.6,100.1-240.4,228l0,0l0,0c-0.2,4-0.4,8.1-0.4,12.4v0.3c0,32.4,6.3,63.9,18.8,93.6
		l0,0.1l0,0.1l2.2,4.9l2.5,5.5l0,0.1l0,0.1c13.5,28,32,52.8,55.1,73.8c6.4,5.8,12.2,10.6,17.8,14.8c41.7,31.2,91.5,47.8,143.9,48
		h0.2h0.2c28.4,0,56.2-4.9,82.6-14.6c22.8-8.4,44.2-20.1,63.5-34.9c19.1-14.7,36-32.1,49.9-51.7c29.1-40.8,44.5-88.9,44.5-139.2
		v-0.2V374c0-32.8-6.3-64.3-18.8-93.7C592.1,272.8,588.6,265.7,585.1,259.4z M607.1,374.3v0.2c-0.2,100.8-64,186.5-153.4,219.3
		c-25,9.1-52.1,14.1-80.2,14.1h-0.2h-0.2c-52.4-0.2-100.8-17.4-139.7-46.6c-6-4.5-11.7-9.3-17.3-14.3c-22.1-20-40.4-44.3-53.5-71.6
		c-1.6-3.5-3.1-6.9-4.7-10.4c-11.7-28-18.3-58.7-18.3-90.9v-0.3c0-4.1,0.2-8.1,0.3-12.1c6.6-123.4,108.5-221.4,233.4-221.4h0.2
		c50.4,0,97,16.2,135.1,43.3c4.7,3.3,9.1,6.6,13.5,10.2c23.1,19,42.4,42.4,56.8,68.8c3.6,6.6,6.9,13.5,9.8,20.4
		c11.9,28,18.3,58.7,18.3,90.9V374.3z M388.9,324.7l18.5,258.5H407l-33.1,19l-0.2-292.6L388.9,324.7z M419.1,216.1
		c4.1,0.7,8.3,1.4,12.1,2.4l-8.5,4.7l-17.6,9.5l-5.5,2.9L397,237l2.4,8.8l0.7,2.2l0.7,2.2l7.2,26.4l-27.8-20.5l-3.3-2.4l-3.3-2.4
		v-0.2h-0.2h-0.2v0.2l-3.3,2.4l-3.3,2.4l-11.2,8.3L339,276.7l7.2-26.4l1.2-4.1l0.2-0.5l2.4-8.8l-4-2.2l-4-2.2l-13.1-7.1l-13.1-7.1
		c4-0.9,8.1-1.6,12.2-2.2c9.1-1.6,18.5-2.9,27.9-3.4l6.7-0.3V212l0.2-0.5l2.6-5.5l0.2-0.3l0.2-0.3l5-10.2l2.4-5l7.8,15.7l0.2,0.3
		l2.8,5.5l0.2,0.3l0.2,0.3l6.7,0.3C400.4,213.2,409.8,214.6,419.1,216.1z"/>
</g>
</svg>
