<?xml version="1.0" encoding="utf-8"?>
<!-- Generator: Adobe Illustrator 25.0.0, SVG Export Plug-In . SVG Version: 6.00 Build 0)  -->
<svg version="1.1" id="Layer_1" xmlns="http://www.w3.org/2000/svg" xmlns:xlink="http://www.w3.org/1999/xlink" x="0px" y="0px"
	 viewBox="0 0 1271 564.2" style="enable-background:new 0 0 1271 564.2;" xml:space="preserve">
<style type="text/css">
	.st0{fill:#FFFFFF;}
	.st1{fill:#0D2240;}
	.st2{fill:#2B5134;}
	.st3{fill:#FFA400;}
</style>
<g id="XMLID_1_">
	<path class="st0" d="M1061.3,121.6H1037l39.7-61.9L1061.3,121.6z M383.8,408h56.5l-23.2-76.1C406,356.8,394.9,383.1,383.8,408z
		 M1260.2,31.3c-45.7,101.6-140.9,318.7-196.8,447.3h105.8h26.1l-10.5,23.8l-17.9,40.6l-4.3,9.8l-10.7,0.3
		c-8.8,0.3-449.4,1.6-879.1,2.9c-65.7,0.2-109.1,0.3-112.3,0.3l-0.4,0l-0.4,0c-37.2-1.7-71-14-97.6-35.4l-0.3-0.3l-0.3-0.3l-9.9-8.9
		l-0.3-0.2l-0.3-0.3C21.3,482.2,3.7,443.8,1,402.8H0.2l0.3-10.5L0,382h0.8c1.9-39.8,18.8-77.8,47.7-107.2
		c29.1-29.6,67.2-47.1,107.5-49.6v-0.9l10.6,0.5l10.2-0.4v0.9c29.3,1.8,57.7,11.5,82.3,28.1c15.4,10.4,28.8,23.1,39.9,37.7L418,17.6
		l4.4-10.2h11.1h811.1h26.3L1260.2,31.3z M72.6,275.8c31.7,28,50.5,67.6,51.8,110h35.4V242.1C127.9,244,97.4,255.8,72.6,275.8z
		 M17.7,385.8h93.5c-1.5-39.1-19.1-75.8-48.5-101.4C35.3,311.2,19.2,347.5,17.7,385.8z M111.2,399H17.8
		c1.8,37.7,17.8,73.4,44.8,99.9C92,473.7,109.6,437.6,111.2,399z M160.4,399h-36c-1.9,41.7-20.6,81-51.8,108.8
		c25,20.1,55.8,31.8,87.8,33.3V399z M1079.8,24.3L984.2,166h24l14.2-21.6h33.7l-4.7,21.6h25.3l28.4-141.6H1079.8z M942,46h34.8
		l-52.8,119.9h25.3L1002.1,46h29l9.6-21.6h-89.2L942,46z M842.5,24.3l-54.9,123.6c-4.1,9.5,0,17.5,10.1,17.5h50.8
		c11-1,20.6-7.5,25.3-17.5l54.9-123.6h-25.3l-53.4,119.9h-34.3l52.8-119.9H842.5z M884.1,202.4L764.2,477.3h26.5l119.9-274.9H884.1z
		 M773.9,24.3L712,166h26.5l61.9-141.6H773.9z M221.8,385.8h94L411.4,166h280l61.9-141.6H433.6l-132,303.4
		c-8-16-18.6-30.6-31.2-43.4C240.9,310,223.4,346.7,221.8,385.8z M172.9,385.8h36c1.5-42.2,20.1-82,51.8-110
		c-25-20.1-55.7-32-87.8-33.7V385.8z M260.7,507.3c-31.4-27.4-50.2-66.6-51.8-108.3h-36v141.6C205.1,539.6,236,527.9,260.7,507.3z
		 M315.8,399h-93.5c1.6,38.6,19.2,74.7,48.5,99.9C297.6,472.2,313.5,436.7,315.8,399z M590.3,536.9L490,202.4h-60.2l-147,334.5h44.4
		c0,0,16.4-37.6,38.6-87.8h86.7l26.3,87.8H590.3z M600.5,503.2l15.4-35.4l-80.4-265.2h-26.5L600.5,503.2z M859,495.6H735.8
		l128.3-293.2H591.1l-17.9,40.7h161.6c-39.1,88.8-128.9,293.2-128.9,293.2h235.6L859,495.6z M990,495.6l128.9-293.2H931.3
		l-17.9,40.7h76.1c-39.1,88.8-128.9,293.2-128.9,293.2h290.7l17.9-40.7H990z M1165.3,202.4h-26.5L1019,477.3h26.5L1165.3,202.4z
		 M1244.7,24.3h-25.3L1192.9,84h-34.3l26.5-59.6h-25.9L1096.7,166h25.3l26.5-60.2h34.9l-26.5,60.2h25.3L1244.7,24.3z"/>
	<path class="st1" d="M17.8,399h93.4c-1.6,38.6-19.2,74.7-48.5,99.9C35.6,472.4,19.6,436.7,17.8,399z M62.7,284.4
		c-27.4,26.8-43.5,63.1-45,101.4h93.5C109.7,346.7,92.1,310,62.7,284.4z M222.2,399c1.6,38.6,19.2,74.7,48.5,99.9
		c26.8-26.6,42.8-62.2,45-99.9H222.2z M797.7,165.4h50.8c11-1,20.6-7.5,25.3-17.5l54.9-123.6h-25.3l-53.4,119.9h-34.3l52.8-119.9
		h-25.9l-54.9,123.6C783.5,157.4,787.6,165.4,797.7,165.4z M984.2,166l95.6-141.6h25.3L1076.7,166h-25.3l4.7-21.6h-33.7l-14.2,21.6
		H984.2z M1037,121.6h24.3l15.4-61.9L1037,121.6z M923.9,165.8h25.3L1002.1,46h29l9.6-21.6h-89.2L942,46h34.8L923.9,165.8z
		 M1219.4,24.3L1192.9,84h-34.3l26.5-59.6h-25.9L1096.7,166h25.3l26.5-60.2h34.9l-26.5,60.2h25.3l62.5-141.6H1219.4z M864.1,202.4
		H591.1l-17.9,40.7h161.6c-39.1,88.8-128.9,293.2-128.9,293.2h235.6l17.5-40.7H735.8L864.1,202.4z M1118.9,202.4H931.3l-17.9,40.7
		h76.1c-39.1,88.8-128.9,293.2-128.9,293.2h290.7l17.9-40.7H990L1118.9,202.4z M411.4,166h280l61.9-141.6H433.6l-132,303.4
		c-8-16-18.6-30.6-31.2-43.4c-29.5,25.6-46.9,62.3-48.5,101.4h94L411.4,166z M490,202.4l100.4,334.5H478.9l-26.3-87.8h-86.7
		c-22.2,50.2-38.6,87.8-38.6,87.8h-44.4l147-334.5H490z M440.4,408l-23.2-76.1c-11.1,24.9-22.2,51.2-33.3,76.1H440.4z"/>
	<path class="st2" d="M260.7,507.3c-24.7,20.6-55.7,32.3-87.8,33.3V399h36C210.5,440.7,229.3,479.9,260.7,507.3z M172.9,385.8h36
		c1.5-42.2,20.1-82,51.8-110c-25-20.1-55.7-32-87.8-33.7V385.8z M509.1,202.6l91.5,300.6l15.4-35.4l-80.4-265.2H509.1z
		 M1138.8,202.4L1019,477.3h26.5l119.9-274.9H1138.8z M764.2,477.3h26.5l119.9-274.9h-26.5L764.2,477.3z M773.9,24.3L712,166h26.5
		l61.9-141.6H773.9z"/>
	<path class="st3" d="M72.6,275.8c24.9-20,55.4-31.8,87.2-33.7v143.7h-35.4C123.1,343.5,104.3,303.8,72.6,275.8z M124.4,399
		c-1.9,41.7-20.6,81-51.8,108.8c25,20.1,55.8,31.8,87.8,33.3V399H124.4z"/>
</g>
</svg>
