<?xml version="1.0" encoding="utf-8"?>
<!-- Generator: Adobe Illustrator 25.0.0, SVG Export Plug-In . SVG Version: 6.00 Build 0)  -->
<svg version="1.1" id="Layer_1" xmlns="http://www.w3.org/2000/svg" xmlns:xlink="http://www.w3.org/1999/xlink" x="0px" y="0px"
	 viewBox="0 0 704 704" style="enable-background:new 0 0 704 704;" xml:space="preserve">
<style type="text/css">
	.st0{fill:#FFFFFF;}
	.st1{fill:#0A509A;}
	.st2{fill:#B3B2B1;}
	.st3{fill:#DC1E35;}
</style>
<g id="XMLID_1_">
	<path class="st0" d="M208.9,359.3h-50.8v0.7c0.1,6.6,4.8,12.1,11.3,13.2v75.7h20.8v-38h17.3c9.1,0,14.5-5.9,14.5-16.5V391
		C221.5,365.8,220.6,360.8,208.9,359.3z M189.6,399.2v-26c0,0,5.9-0.2,6.9,0c2.4,0.2,4.3,1.1,4.3,3.9c0.2,0.7,0.2,22.1,0.2,22.1
		H189.6z M211.5,254.2h-49.7v0.4c-0.4,3.2,0.5,6.4,2.6,8.9c2.3,2.6,5.6,4.1,9.1,4.3V341h37.1c8.5,0,14.1-7,14.1-17.8v-40.6
		C224.7,260.5,224.7,254.5,211.5,254.2z M204.6,327.4h-11.1v-59.5c6.9-0.2,8.3,0.2,8.5,0.6c2.6,0.7,2.6,5.6,2.6,5.9
		C205,281.1,204.6,321.9,204.6,327.4z M486.4,341.2h-19.3v-87h19.3V341.2z M363,341.7v-37.5h0.2h3.5c3.2,0,8.9,1.1,8.9,7
		c0,2.8,0.2,11.9,0.4,15.2v1.5c0,0.4,0.4,4.8,0.6,5.8c1.3,5.2,5.6,8.2,11.7,8.9h5.8v-31.7c-0.2-3.4-1.5-6.7-3.7-9.3l-0.4-0.4
		c3-3.5,4.6-8,4.3-12.6v-3.3c0-24.5-0.9-29.7-12.4-30.8h-38.6v87.2H363L363,341.7z M363,267.9h0.2h3.9c5.4,0,7,0,6.9,9.3
		c0,7.2,0,7.8-0.2,11.1v0.7c0,1.1-0.4,2.2-1.1,3c-0.4,0.5-1,0.8-1.7,0.7h-8h0V267.9z M300.5,267.9h-13v-13.7h45.6v0.6
		c0.1,3.7-1.1,7.2-3.5,10c-2.3,2.2-5.4,3.3-8.5,3.2h-0.7v73.6h-19.8h0V267.9z M277,341.2h-40.4l0.2-87H277v13.5h-21v19.5h14.3v18.9
		H256v21.3h21V341.2z M545.7,359.3l-0.2,0.7c0.1,1.2,0.1,2.5,0,3.7c-0.4,1.6-1,3.1-1.7,4.6c-1.3,2.8-4.1,4.7-7.2,4.6h-15.8v5
		c0,5.9,5.4,8.5,10,10.8c1.1,0.7,2.4,1.1,3.5,1.9c1.2,0.6,2.3,1.2,3.3,2c2,1.4,3.2,3.6,3.3,5.9c0.6,6.3,0.4,36.2-0.2,40.6
		c-1.9,5.4-6.9,8.9-14.5,9.1h-21.5v-11.9h16.3v-32.3c-0.4-0.2-0.7-0.7-1.5-0.9c-0.3-0.2-0.7-0.3-1.1-0.4l-0.7-0.4
		c-6.6-1.2-12.1-5.8-14.5-12.1c-1.7-4.6-0.2-21.5-0.2-21.7c0-0.4,0.1-0.9,0.2-1.3c0.9-5.4,4.8-8.2,10.8-8.2h0.9
		c3.9-0.2,24.5,0,29.9,0v0H545.7z M233,359.3h19.8v89.2H233V359.3z M509.8,267.9h-13v-13.7h45.6v0.6c0.1,3.7-1.1,7.2-3.5,10
		c-2.3,2.2-5.4,3.3-8.5,3.2h-0.7v73.6h-19.8h0V267.9z M351.5,69.1C194.9,69.1,68,196,68,352.6s126.9,283.5,283.5,283.5
		S635,509.2,635,352.6S508,69.1,351.5,69.1z M351.7,619.2c-113,0-209.7-70.2-248.7-169.4c47.7,64.7,141.3,109,248.9,109
		c106.9,0,199.6-43.4,247.9-107.4C560.4,549.7,464.2,619.2,351.7,619.2z M618.7,343.7H567v16.7h51.7c-0.3,8.4-0.9,16.7-1.9,24.8
		c-22,90.2-132.5,159.2-265.1,159.2c-132.6,0-243-68.9-265.1-159.1c-1-8.2-1.6-16.5-1.9-24.8h51.9v-16.7H84.8
		c0.2-7.8,0.8-15.6,1.7-23.2c21.4-91.3,132-160.7,265.4-160.7c131.8,0,241.8,68.3,264.7,157.8C617.7,326.1,618.4,334.8,618.7,343.7z
		 M351.9,145.6c-107.7,0-201.3,44-249,109.1C141.8,155.4,238.5,85,351.7,85c112.6,0,208.9,69.7,248.2,168.2
		C551.7,189.3,458.9,145.6,351.9,145.6z M676.3,215c-17.7-41.9-43.1-79.6-75.4-111.9c-32.3-32.3-70-57.7-111.9-75.4
		C449.5,11,407.9,1.8,365,0.2l0-0.2l-13,0h-13v0.2C296,1.8,254.4,11,214.9,27.7c-41.9,17.7-79.5,43.1-111.8,75.4
		C70.8,135.4,45.4,173,27.7,214.9C9.3,258.3,0,304.4,0,351.9c0,47.5,9.3,93.6,27.6,137c17.7,41.9,43.1,79.6,75.4,111.9
		c32.3,32.3,69.9,57.7,111.9,75.5c43.4,18.4,89.5,27.7,137,27.7h0.1c47.5,0,93.6-9.3,137-27.7c41.9-17.7,79.5-43.1,111.9-75.4
		c32.3-32.3,57.7-69.9,75.4-111.8c18.4-43.4,27.7-89.5,27.7-137V352C704,304.5,694.7,258.4,676.3,215z M691,352.1
		c0,45.8-9,90.1-26.7,131.9c-17.1,40.4-41.5,76.6-72.7,107.7c-31.1,31.1-67.4,55.6-107.7,72.6C442.1,682,397.8,691,352,691h-0.1
		c-45.8,0-90.2-9-132-26.7c-40.4-17.1-76.6-41.5-107.7-72.7c-31.1-31.1-55.6-67.4-72.6-107.8C21.9,442.1,13,397.7,13,351.9
		c0-45.7,9-90.1,26.7-131.9c17.1-40.4,41.5-76.6,72.6-107.7c31.1-31.1,67.4-55.6,107.7-72.6C261.8,22,306.2,13,352,13l0,9.3V13
		c45.8,0,90.2,9,132,26.6c40.4,17.1,76.6,41.5,107.8,72.6c31.1,31.1,55.6,67.4,72.7,107.8C682,261.8,691,306.2,691,352V352.1z
		 M471,359.7h20.6v89.2H471l-13.9-36v36h-20.2v-89.2l0.4-0.4c0.9-0.1,1.9-0.2,2.8-0.2c6.1,0,21.7,3.7,31,38.2V359.7z M309.2,359.3
		l-0.4,0.7c0.2,1.2,0.2,2.5,0,3.7c-0.3,1.6-0.8,3.2-1.5,4.6c-1.4,2.8-4.3,4.6-7.4,4.6h-15.6v5c0,5.9,5.2,8.5,9.8,10.8
		c1.1,0.7,2.6,1.1,3.7,1.9c1.1,0.6,2.2,1.3,3.2,2c2.1,1.3,3.4,3.5,3.5,5.9c0.4,6.3,0.2,36.2-0.2,40.6c-1.9,5.4-7,8.9-14.5,9.1h-21.7
		v-11.9h16.3v-32.3c-0.4-0.4-0.8-0.7-1.3-0.9c-0.4-0.2-0.8-0.3-1.3-0.4l-0.6-0.4c-5.6-1.5-11.9-4.5-14.5-12.1
		c-1.7-4.6-0.4-21.5-0.4-21.7c0.1-0.5,0.2-0.9,0.4-1.3c0.9-5.4,4.8-8.2,10.8-8.2h0.9c3.9-0.2,24.3,0,29.9,0v0H309.2z M456.3,326.1
		v-54.3c0.2-17.6-11.3-17.6-24.7-17.6c-4.3-0.1-8.6,0.3-12.8,1.1c-9.6,2.2-14.3,8.7-14.3,19.5v51.9c0,13.4,9.6,16.1,24.1,16.1
		C446.1,342.8,456.3,336.7,456.3,326.1z M436.5,321.7c0,1-0.1,2-0.4,3l-0.6,0.2c-1.1,0.3-2.2,0.4-3.3,0.4c-1.9,0.2-3.9-0.4-5.4-1.7
		c-1.3-2.2-1.8-4.8-1.5-7.4v-42.3c0-1.8,0.1-3.6,0.6-5.4l0.6-0.4c0.9-0.2,1.9-0.2,2.8-0.2h0.4c6.7,0,6.9,2,6.9,14.1V321.7z
		 M366.7,359.7l0.2,0.6c0.1,3.7-1.2,7.3-3.5,10.2c-2.4,2.2-5.5,3.3-8.7,3.2h-0.7v75.5h-20.4v-75.5h-13.4v-13.9H366.7z M400.3,359.3
		c-4.4-0.1-8.7,0.4-13,1.3c-9.6,2.2-14.5,8.7-14.5,19.8v53.2c0,13.5,9.6,16.3,24.3,16.3c17.8,0,27.8-6.3,27.8-17.3v-55.5
		C425,359.3,413.5,359.3,400.3,359.3z M404.8,428.3c0,1-0.1,2-0.4,3l-0.6,0.6c-1.1,0.2-2.2,0.2-3.3,0.2c-2,0.3-3.9-0.3-5.4-1.7
		c-1.5-1.5-1.5-4.3-1.5-7.4v-43.4c0-1.8,0.1-3.6,0.6-5.4l0.6-0.4c0.9-0.2,1.9-0.2,2.8-0.2h0.4c6.7,0,6.9,2,6.9,14.3V428.3z"/>
	<path class="st1" d="M656.5,223.3c-16.7-39.4-40.5-74.7-70.9-105.1C555.2,87.8,519.9,64,480.5,47.3C439.7,30,396.4,21.2,351.7,21.1
		h0l0,0c-44.7,0-88,8.8-128.8,26c-39.4,16.7-74.8,40.5-105.2,70.9c-30.4,30.4-54.2,65.8-70.9,105.2c-17.3,40.8-26,84.2-26,128.8
		c0,44.7,8.8,88,26,128.8c16.7,39.4,40.5,74.8,70.9,105.2c30.4,30.4,65.8,54.2,105.2,70.9c40.8,17.3,84.2,26,128.8,26
		s88-8.8,128.8-26c39.4-16.7,74.8-40.5,105.2-70.9c30.4-30.4,54.2-65.8,70.9-105.2c17.3-40.8,26-84.2,26-128.8
		C682.6,307.4,673.8,264.1,656.5,223.3z M351.7,636.1c-156.9,0-284-127.2-284-284s127.2-284,284-284c156.8,0.2,283.8,127.3,284,284
		C635.7,509,508.5,636.1,351.7,636.1z"/>
	<path class="st2" d="M664.3,220c-17.1-40.4-41.5-76.6-72.7-107.8c-31.1-31.1-67.4-55.6-107.8-72.6C442.1,22,397.7,13,352,13v8.1
		c44.5,0.1,87.8,8.9,128.5,26.2c39.4,16.7,74.7,40.5,105.1,70.9c30.4,30.4,54.2,65.7,70.9,105.1c17.3,40.8,26.1,84.1,26.2,128.8
		c0,44.7-8.8,88-26,128.8c-16.7,39.4-40.5,74.8-70.9,105.2c-30.4,30.4-65.8,54.2-105.2,70.9c-40.8,17.3-84.2,26-128.8,26
		c-44.7,0-88-8.8-128.8-26c-39.4-16.7-74.8-40.5-105.2-70.9c-30.4-30.4-54.2-65.8-70.9-105.2c-17.3-40.8-26-84.2-26-128.8
		c0-44.7,8.8-88,26-128.8c16.7-39.4,40.5-74.8,70.9-105.2c30.4-30.4,65.8-54.2,105.2-70.9c40.8-17.3,84.2-26,128.8-26h0h0
		c0.1,0,0.2,0,0.2,0l0-8.1c-45.8,0-90.2,9-132,26.7c-40.4,17.1-76.6,41.5-107.7,72.6C81.2,143.4,56.7,179.7,39.7,220
		C22,261.8,13,306.2,13,351.9c0,45.8,8.9,90.2,26.6,132c17.1,40.4,41.5,76.6,72.6,107.8c31.1,31.1,67.4,55.6,107.7,72.7
		C261.8,682,306.1,691,351.9,691h0.1c45.8,0,90.1-9,131.9-26.6c40.4-17.1,76.6-41.5,107.7-72.6c31.1-31.1,55.6-67.4,72.7-107.7
		C682,442.2,691,397.9,691,352.1V352C691,306.2,682,261.8,664.3,220z"/>
	<path class="st3" d="M102.9,254.8C141.8,155.4,238.5,85,351.7,85c112.6,0,208.9,69.7,248.2,168.2c-48.2-63.9-141-107.6-248-107.6
		C244.2,145.6,150.6,189.7,102.9,254.8z M397.9,373.6h-0.4c-0.9,0-1.9,0-2.8,0.2l-0.6,0.4c-0.4,1.8-0.6,3.6-0.6,5.4V423
		c0,3.2,0,5.9,1.5,7.4c1.4,1.3,3.4,2,5.4,1.7c1.1,0,2.2,0,3.3-0.2l0.6-0.6c0.2-1,0.4-2,0.4-3v-40.4
		C404.8,375.7,404.6,373.6,397.9,373.6z M372.7,292c0.7-0.8,1.1-1.9,1.1-3v-0.7c0.2-3.3,0.2-3.9,0.2-11.1c0.2-9.3-1.5-9.3-6.9-9.3
		h-3.9H363v24.9h8C371.7,292.8,372.3,292.5,372.7,292z M351.9,558.7c-107.6,0-201.1-44.3-248.9-109c39,99.2,135.6,169.4,248.7,169.4
		c112.5,0,208.7-69.5,248.1-167.9C551.5,515.3,458.8,558.7,351.9,558.7z M202,268.4c-0.2-0.4-1.7-0.7-8.5-0.6v59.5h11.1
		c0-5.6,0.4-46.4,0-53C204.6,274,204.6,269.2,202,268.4z M196.5,373.2c-0.9-0.2-6.9,0-6.9,0v26h11.3c0,0,0-21.3-0.2-22.1
		C200.7,374.4,198.9,373.4,196.5,373.2z M618.7,360.3c-0.3,8.4-0.9,16.7-1.9,24.8c-22,90.2-132.5,159.2-265.1,159.2
		c-132.6,0-243-68.9-265.1-159.1c-1-8.2-1.6-16.5-1.9-24.8h51.9v-16.7H84.8c0.2-7.8,0.8-15.6,1.7-23.2
		c21.4-91.3,132-160.7,265.4-160.7c131.8,0,241.8,68.3,264.7,157.8c1.1,8.6,1.8,17.3,2.1,26.2H567v16.7H618.7z M467.1,341.2h19.3
		v-87h-19.3V341.2z M343.2,341.7L343.2,341.7H363v-37.5h0.2h3.5c3.2,0,8.9,1.1,8.9,7c0,2.8,0.2,11.9,0.4,15.2v1.5
		c0,0.4,0.4,4.8,0.6,5.8c1.3,5.2,5.6,8.2,11.7,8.9h5.8v-31.7c-0.2-3.4-1.5-6.7-3.7-9.3l-0.4-0.4c3-3.5,4.6-8,4.3-12.6v-3.3
		c0-24.5-0.9-29.7-12.4-30.8h-38.6V341.7z M287.5,267.9h13v73.6h19.8v-73.6h0.7c3.2,0.2,6.2-1,8.5-3.2c2.4-2.8,3.6-6.4,3.5-10v-0.6
		h-45.6V267.9z M236.5,341.2H277v-13.7h-21v-21.3h14.3v-18.9H256v-19.5h21v-13.5h-40.3L236.5,341.2z M221.9,391L221.9,391
		c-0.4-25.2-1.3-30.2-13-31.7h-50.8v0.7c0.1,6.6,4.8,12.1,11.3,13.2v75.7h20.8v-38h17.3c9.1,0,14.5-5.9,14.5-16.5V391z M224.7,282.5
		c0-22.1,0-28-13.2-28.4h-49.7v0.4c-0.4,3.2,0.5,6.4,2.6,8.9c2.3,2.6,5.6,4.1,9.1,4.3V341h37.1c8.5,0,14.1-7,14.1-17.8V282.5z
		 M252.9,359.3H233v89.2h19.8V359.3z M308.9,360.1l0.4-0.7h-0.7c-5.6,0-26-0.2-29.9,0h-0.9c-5.9,0-9.8,2.8-10.8,8.2
		c-0.2,0.4-0.3,0.8-0.4,1.3c0,0.2-1.3,17.1,0.4,21.7c2.6,7.6,8.9,10.6,14.5,12.1l0.6,0.4c0.5,0,0.9,0.2,1.3,0.4
		c0.5,0.2,0.9,0.5,1.3,0.9v32.3h-16.3v11.9H290c7.4-0.2,12.6-3.7,14.5-9.1c0.4-4.5,0.6-34.3,0.2-40.6c-0.2-2.4-1.5-4.6-3.5-5.9
		c-1-0.8-2-1.4-3.2-2c-1.1-0.7-2.6-1.1-3.7-1.9c-4.6-2.2-9.8-4.8-9.8-10.8v-5H300c3.2,0,6-1.8,7.4-4.6c0.7-1.5,1.2-3,1.5-4.6
		C309.1,362.6,309.1,361.3,308.9,360.1z M366.9,360.3l-0.2-0.6h-46.6v13.9h13.4v75.5h20.4v-75.5h0.7c3.2,0.2,6.4-1,8.7-3.2
		C365.8,367.6,367,364,366.9,360.3z M425,377.3c0-18-11.5-18-24.7-18c-4.4-0.1-8.7,0.4-13,1.3c-9.6,2.2-14.5,8.7-14.5,19.8v53.2
		c0,13.5,9.6,16.3,24.3,16.3c17.8,0,27.8-6.3,27.8-17.3V377.3z M428.7,342.8c17.4,0,27.6-6.1,27.6-16.7v-54.3
		c0.2-17.6-11.3-17.6-24.7-17.6c-4.3-0.1-8.6,0.3-12.8,1.1c-9.6,2.2-14.3,8.7-14.3,19.5v51.9C404.6,340,414.2,342.8,428.7,342.8z
		 M491.6,359.7H471v37.7c-9.3-34.5-24.9-38.2-31-38.2c-0.9,0-1.9,0.1-2.8,0.2l-0.4,0.4v89.2h20.2v-36l13.9,36h20.6V359.7z
		 M496.8,267.9h13v73.6h19.8v-73.6h0.7c3.2,0.2,6.2-1,8.5-3.2c2.4-2.8,3.6-6.4,3.5-10v-0.6h-45.6L496.8,267.9L496.8,267.9z
		 M545.6,360.1l0.2-0.7H545c-5.4,0-26-0.2-29.9,0h-0.9c-5.9,0-9.8,2.8-10.8,8.2c-0.1,0.4-0.2,0.9-0.2,1.3c0,0.2-1.5,17.1,0.2,21.7
		c2.4,6.3,7.9,10.8,14.5,12.1l0.7,0.4c0.4,0,0.8,0.2,1.1,0.4c0.7,0.2,1.1,0.7,1.5,0.9v32.3h-16.3v11.9h21.5
		c7.6-0.2,12.6-3.7,14.5-9.1c0.6-4.5,0.7-34.3,0.2-40.6c-0.2-2.4-1.4-4.6-3.3-5.9c-1-0.8-2.2-1.5-3.3-2c-1.1-0.7-2.4-1.1-3.5-1.9
		c-4.6-2.2-10-4.8-10-10.8v-5h15.8c3.1,0,6-1.8,7.2-4.6c0.7-1.5,1.2-3,1.7-4.6C545.6,362.5,545.6,361.3,545.6,360.1z M429.6,267.9
		h-0.4c-0.9,0-1.9,0-2.8,0.2l-0.6,0.4c-0.4,1.8-0.6,3.6-0.6,5.4v42.3c-0.4,2.6,0.2,5.2,1.5,7.4c1.5,1.2,3.4,1.8,5.4,1.7
		c1.1,0.1,2.3-0.1,3.3-0.4l0.6-0.2c0.2-1,0.4-2,0.4-3V282C436.5,269.9,436.3,267.9,429.6,267.9z"/>
</g>
</svg>
