<?xml version="1.0" encoding="utf-8"?>
<!-- Generator: Adobe Illustrator 25.0.0, SVG Export Plug-In . SVG Version: 6.00 Build 0)  -->
<svg version="1.1" id="Layer_1" xmlns="http://www.w3.org/2000/svg" xmlns:xlink="http://www.w3.org/1999/xlink" x="0px" y="0px"
	 viewBox="0 0 786.5 818" style="enable-background:new 0 0 786.5 818;" xml:space="preserve">
<style type="text/css">
	.st0{fill:#BB1F35;}
	.st1{fill:#FFFFFF;}
</style>
<g>
	<path class="st0" d="M458.5,559c-23.8,6.3-50.7,0-64.9-22.1c-2.5,2.3-3.3,4.6-5.6,6.3c-21.3,24.4-58.4,22.1-84.5,11.1
		c12.6,33.2,18.2,72,10.2,109.1c-1.5,7.9-4,15.8-6.3,23.8c48.2-25.4,116.2-26.1,165.2-1.6c4,1.6,7.1,4,10.2,5.6
		c-6.3-20.5-10.2-42.6-10.2-65.5c-0.8-26.1,4.8-52.2,11.9-75.1C476.7,553.5,467.9,557.5,458.5,559z M414,643.5
		c-26.1,7.1-56.1,1.5-73.5-19.8c-12.6-15.8-19-34.7-21.3-55.3c1.6-0.8,3.1-0.8,4.8-0.8c2.3,29.2,18.2,62.5,47.4,72
		c25.3,7.9,56.1,0,74.3-22.1c11.9-15,19.8-33.2,23.8-51.3c1.6,0,2.3,0,4,1.6C466.3,599.3,446.6,634.9,414,643.5z M302.8,682.4
		c-20.5-31.7-36.3-64.9-52.2-98.9c7.1,3.1,18.2,6.4,25.3,0.8c7.1-4.8,11.1-11.9,13.4-19.8C306.7,598.6,310.6,643.6,302.8,682.4z
		 M92.4,296.7c-5.5-4.8-11.7-11.1-17.3-15.8c-5.6,5.5-10.2,11.7-15.8,17.3c5.6-28.4,15-56.1,27.6-82.1
		C86.2,242.9,86.2,271.4,92.4,296.7z M246.7,572.4c-2.5-3.1-4.8-6.3-5.6-10.2c13.4,8.7,31.5,1.6,43.4-7.1h0.8
		c-1.6,11.1-4.8,22.1-15.8,26.1C260.8,583.6,252.2,578.8,246.7,572.4z M534.3,581.9c-13.4,34-30,67.2-47.4,100.4
		c-5.6-16.7-4.8-34.8-3.1-53c2.3-22.1,7.9-43.4,14.2-64c4,8.7,11.9,16.7,21.3,18.2C524,584.2,529.5,583.6,534.3,581.9z M727.1,293.4
		l-13.4-9.4c-6.3,2.3-11.9,6.3-18.2,9.4c4.8-25.3,5.6-52.2,4-79.1c11.9,22.9,19,47.5,25.9,72L727.1,293.4z M674.9,471.5
		c4,0.8,16.7,5.6,16.7,5.6s-4,5.6-6.3,7.9c-13.4,11.7-35.5,23.6-54.5,24.4c-11.9,0-30.9-2.3-45.9-7.9c-7.1-3.3-8.7-4-12.7-5.6
		c-0.7,3.1-4.6,10.2-6.3,14.2c-4.8,11.1-10.4,28.4-16.7,36.3c-4,4.6-14.2,11.1-21.8,12.2c-9.4,0.8-16.5-3.1-18.2-4.8
		c-0.8-0.8-4-4-4-4s20.5-1.6,33.2-11.1c12.7-9.6,17.5-26.9,19.8-41.9c3.1-1.5,6.3-0.8,9.4-3.1c4-2.3,3.1-7.9,2.3-11.1
		c-0.8-2.5-1.6-12.7-19.8-12.7c-18.8,0-33.2,12.6-39.5,18.2c-7.1,6.3-26.8,28.4-39.5,35.5c-16.7,9.4-39.6,10.2-53.8-1.6
		c-14.2-11.9-14.2-26.1-17.3-36.3c29.2,0,75.1-6.3,81.4-7.1c7.1-0.7,5.5-7.9-0.8-6.3c-6.3,0.8-42.6,6.3-81.4,7.1
		c-0.8-4.6-0.8-11.7-0.8-17.3c20.5-0.8,54.5-4.8,78.2-8.7c7.8-0.7,7.1-7.9-1.6-6.3c-24.6,5.5-52.3,6.3-76.7,7.1
		c0-6.3-0.8-15-0.8-21.3c36.3-0.8,74.3-7.9,79.1-8.7c4-0.8,4.8-7.2-3.1-5.6c-13.4,2.3-42.7,6.3-75.1,7.1c0-8.6-0.8-15-0.8-17.3
		c0-7.1-5.6-6.3-5.6,0s0,12.6,0,17.3c-34,0.8-79.9-6.3-79.9-6.3c-5.6,0-6.3,5.5,0,6.3c36.5,5.5,62.5,7.9,79.9,7.1
		c0,7.9,0,15.8,0,22.1c-26.8,0-76.6-7.1-80.6-8.7c-6.4-1.6-7.1,5.5-0.8,7.1c30,6.4,61.6,7.9,80.6,8.7c0,7.1,0,13.4,0,17.3
		c-32.4,0-78.2-6.3-78.2-6.3c-5.6-1.6-8.7,5.5-1.6,6.3c24.6,3.1,50.7,6.3,79.1,7.1c-2.5,7.9-4,21.3-20.6,37.1
		c-16.5,16.7-41.9,9.6-55.3,1.6c-12.7-7.8-33.2-29.2-41.1-35.5c-5.5-5.6-14.2-12.7-25.3-15.8c-16.7-5.5-22.9,0-26.9,4.8
		c-3.1,5.6-4.8,10.2-4,15c0.8,4,3.1,4.6,11.9,6.3c2.3,28.4,16.5,46.7,51.3,49c-1.5,1.6-10.2,11.9-22.1,11.9
		c-14.3-0.8-22.1-8.7-27.7-19c-3.1-7.1-7.9-22.9-11.9-34c-1.6-4-4-8.7-4-8.7s-7.9,3.3-11.9,5.6c-15,6.3-37.1,7.9-49,7.9
		c-37.1-0.8-56.8-24.6-62.4-30.9c0,0,2.3-1.6,7.9-4c35.6-13.5,89.4-24.6,128.9-26.9c4-43.4,13.4-72.6,21.3-96.4
		c20.6-0.7,108.3-6.3,143.1-6.3c34,0,124.1,3.1,143.9,4.8c8.6,24.4,13.4,51.3,17.3,95.6C592.7,449.3,639.4,457.3,674.9,471.5z
		 M546.2,556.7c-3.1,9.6-11.1,19-21.3,20.6c-7.1,1.5-13.4-2.5-18.2-8.7c-2.3-3.1-3.1-7.1-4-11.1
		C514.6,566.9,533.5,564.6,546.2,556.7z M290,703.7c1.6,31.5,9.6,60.8,30.9,84.5c42.7,18.2,101.2,16.7,143.9-0.8
		c19-22.9,29.2-49,33.2-78.2c-11.9-9.4-24.6-15.8-38-22.1C407.8,663.4,335.9,670.5,290,703.7z M319.2,713.3
		c7.8-10.4,22.8-13.5,35.5-8.7c6.4,1.5,13.5,7.1,16.7,13.4c5.6,8.6,3.3,21.3-2.3,29.2c-0.8,1.6-1.5,3.3-3.1,1.6
		c-2.3-2.3,0.8-4.8,0.8-7.9c0.8-2.3,1.6-4.8,0.8-7.1c-7.9,10.4-19,15-30.9,12.7c-8.7-1.6-16.7-7.9-19.8-16.7
		C315.4,724.2,316.2,717.9,319.2,713.3z M463.1,782c-4-1.6-8.6-3.1-13.4-4.8c-39.5-15.8-90.1-11.1-127.3,4.8c-0.8-1.6-1.6-2.5-2.5-4
		c43.4-19,102.8-21.3,146.2,0C465.5,779.6,464.8,779.6,463.1,782z M467.1,713.1c3.1,7.2,0.8,15-3.1,20.6c-7.9,8.6-19,12.6-30,9.4
		c-6.4-1.6-12.7-5.6-16.7-12.7c-2.3,5.6,2.5,10.2,1.6,15c-0.8,1.6-2.3,1.6-3.1,0.8c-6.3-8.7-8.7-21.3-3.3-30.7
		c7.1-11.9,19.8-17.5,34-15.8C454.4,701.3,463.1,705.2,467.1,713.1z"/>
	<path d="M735.7,318.8c-2.3-47.4-23.6-90.9-36.3-116.2l-7.1-14.2l0.8,12.7c1.5,16.7,5.5,75.1-11.9,108.3
		c-22.1,45.1-85.3,41.1-106.6,39.5h-1.6c-34-2.3-145.4-6.3-180.2-6.3c-45.1,0-94.9,4-135.2,7.1c-19.8,1.5-36.3,2.3-48.2,3.1
		c-0.8,0-2.3,0-4,0c-56.1,5.5-91.8-11.1-106-49c-8.7-23.6-7.9-69.5-7.9-91.6v-15.8l-4.8,7.9c-10.2,19.8-30,56.1-36.3,116.2
		c-4,72,33.2,97.2,60.9,109.9c29.2,14.3,60.1,15.8,69.5,16.7h0.8c1.5,0,4,0,6.3,0.8c3.1,0,6.3,0,9.4,0.8c-4.8,0.8-11.9,2.3-18.2,3.1
		c-6.4,0.8-12.7,2.3-15.8,3.1c-7.1,0.8-34.7,7.9-50.5,12.7c-12.7,4.8-26.9,11.1-26.9,11.1l-2.3,1.6l1.6,2.3c0,0,4.6,6.3,9.4,11.1
		c10.2,10.4,38,27.7,71.1,23.8c26.9-4,41.1-9.6,46.7-12.7c2.3,5.5,6.3,19,10.2,29.2c11.9,30,39.6,87.7,49.8,107.5
		c8.7,15.7,16.5,30,22.1,39.5l2.3,3.1c-1.5,6.3-6.3,10.2-9.4,13.4c-0.7,0.8-1.5,0.8-2.3,1.6l-0.8,0.8v0.8c0,5.5-1.6,55.3,32.4,91.6
		l0.8,0.8c17.3,6.4,38.8,12.7,74.3,12.7c36.3,0,66.4-7.8,77.4-13.4v-0.8h0.8c23.8-27.6,34-69.5,34.8-85.3v-0.8l-0.8-0.8
		c-0.7-0.8-1.5-0.8-2.3-1.6c-3.1-4-7.9-7.9-10.2-18.2c2.5-4.8,7.9-16.7,12.7-26.1c3.1-5.6,4.6-10.4,6.3-12.7
		c9.4-19.8,38.6-82.2,50.5-111.4c7.1-19,11.1-28.5,13.4-31.7c4.8,2.3,19,8.7,45.1,11.1c33.2,3.8,65.5-19,74.3-31.7
		c1.6-1.6,4.8-4.8,4.8-4.8l1.6-2.3l-2.3-1.6c-0.7,0-1.5,0-6.3-2.3l-38-11.9c-4.8-2.3-27.6-7.1-44.2-10.2l-12.7-3.1l4-0.8
		C639.4,438.8,742.2,420.7,735.7,318.8z M699.3,214.4c11.9,22.9,19,47.5,26.1,72l1.6,7.1l-13.4-9.4c-6.3,2.3-11.9,6.3-18.2,9.4
		C700.3,268.2,701.1,241.3,699.3,214.4z M86.8,216.1c-0.7,26.8-0.7,55.3,5.6,80.6c-5.5-4.8-11.7-11.1-17.3-15.8
		c-5.6,5.5-10.2,11.7-15.8,17.3C64.9,269.8,74.3,242.1,86.8,216.1z M83,405.7c-25.3-25.3-31.7-60.8-26.1-95.6
		c6.3-7.2,12.6-13.5,18.2-20.6c8.6,8.7,22.1,15.8,24.4,27.7c16.7,32.5,51.3,43.6,86.2,41.9c19.8,0,38.8-2.3,57.8-4v1.6
		c-9.6,27.6-16.7,56.1-20.6,85.3C172.3,443.6,121,439.7,83,405.7z M246.7,572.4c-2.5-3.1-4.8-6.3-5.6-10.2
		c13.4,8.7,31.5,1.6,43.4-7.1h0.8c-1.6,11.1-4.8,22.1-15.8,26.1C260.8,583.6,252.2,578.8,246.7,572.4z M250.7,583.4
		c7.1,3.1,18.2,6.4,25.3,0.8c7.1-4.8,11.1-11.9,13.4-19.8c17.3,34,21.3,79.1,13.4,117.8C282.2,650.7,266.4,617.6,250.7,583.4z
		 M472.7,625.6c0,22.8,4,44.9,10.2,65.5c-3.1-1.6-6.3-4-10.2-5.6c-49-24.4-117-23.6-165.2,1.6c2.3-7.9,4.6-15.8,6.3-23.8
		c7.9-37.1,2.5-75.9-10.2-109.1c26.1,11.1,63.2,13.4,84.5-11.1c2.5-1.5,3.3-4,5.6-6.3c14.3,22.1,41.1,28.4,64.9,22.1
		c9.4-1.6,18.2-5.6,26.1-8.7C477.3,573.2,471.9,599.3,472.7,625.6z M498,709.2c-4,29.2-14.2,55.3-33.2,78.2
		c-42.7,17.5-101.2,19-143.9,0.8c-21.4-23.6-29.2-52.8-30.9-84.5c45.9-33.3,117.8-40.4,170-16.7C473.4,693.3,486.1,699.8,498,709.2z
		 M486.9,682.4c-5.5-16.7-4.8-34.8-3.1-53c2.3-22.1,7.9-43.4,14.2-64c4,8.7,11.9,16.5,21.3,18.2c4.8,0.7,10.2,0,15-1.6
		C520.9,615.9,504.2,649.1,486.9,682.4z M524.9,577.3c-7.1,1.5-13.4-2.5-18.2-8.7c-2.3-3.1-3.1-7.1-4-11.1
		c11.7,9.4,30.7,7.1,43.4-0.8C543,566.1,535.1,575.6,524.9,577.3z M675.3,471.6c4,0.8,16.7,5.6,16.7,5.6s-4,5.6-6.3,7.9
		c-13.4,11.7-35.5,23.6-54.5,24.4c-11.9,0-30.9-2.3-45.9-7.9c-7.1-3.3-8.7-4-12.7-5.6c-0.7,3.1-4.6,10.2-6.3,14.2
		c-4.8,11.1-10.4,28.4-16.7,36.3c-4,4.8-14.2,11.1-22.1,11.9c-9.4,0.8-16.5-3.1-18.2-4.8c-0.8-0.8-4-4-4-4s20.5-1.6,33.2-11.1
		c12.7-9.6,17.5-26.9,19.8-41.9c3.1-1.5,6.3-0.8,9.4-3.1c4-2.3,3.1-7.9,2.3-11.1c-0.8-2.5-1.6-12.7-19.8-12.7
		c-18.8,0-33.2,12.6-39.5,18.2c-7.1,6.3-26.8,28.4-39.5,35.5c-16.7,9.4-39.6,10.2-53.8-1.6c-14.2-11.9-14.2-26.1-17.3-36.3
		c29.2,0,75.1-6.3,81.4-7.1c7.1-0.7,5.5-7.9-0.8-6.3c-6.3,0.8-42.6,6.3-81.4,7.1c-0.8-4.6-0.8-11.7-0.8-17.3
		c20.5-0.8,54.5-4.8,78.2-8.7c7.8-0.7,7.1-7.9-1.6-6.3c-24.6,5.5-52.3,6.3-76.7,7.1c0-6.3-0.8-15-0.8-21.3
		c36.3-0.8,74.3-7.9,79.1-8.7c4-0.8,4.8-7.2-3.1-5.6c-13.4,2.3-42.7,6.3-75.1,7.1c0-8.6-0.8-15-0.8-17.3c0-7.1-5.6-6.3-5.6,0
		s0,12.6,0,17.3c-34,0.8-79.9-6.3-79.9-6.3c-5.6,0-6.3,5.5,0,6.3c36.5,5.5,62.5,7.9,79.9,7.1c0,7.9,0,15.8,0,22.1
		c-26.8,0-76.6-7.1-80.6-8.7c-6.4-1.6-7.1,5.5-0.8,7.1c30,6.4,61.6,7.9,80.6,8.7c0,7.1,0,13.4,0,17.3c-32.4,0-78.2-6.3-78.2-6.3
		c-5.6-1.6-8.7,5.5-1.6,6.3c24.6,3.1,50.7,6.3,79.1,7.1c-2.5,7.9-4,21.3-20.6,37.1c-16.5,16.7-41.9,9.6-55.3,1.6
		c-12.7-7.8-33.2-29.2-41.1-35.5c-5.5-5.6-14.2-12.7-25.3-15.8c-16.7-5.5-22.9,0-26.9,4.8c-3.1,5.6-4.8,10.2-4,15
		c0.8,4,3.1,4.6,11.9,6.3c2.3,28.4,16.5,46.7,51.3,49c-1.5,1.6-10.2,11.9-22.1,11.9c-14.3-0.8-22.1-8.7-27.7-19
		c-3.1-7.1-7.9-22.9-11.9-34c-1.6-4-4-8.7-4-8.7s-7.9,3.3-11.9,5.6c-15,6.3-37.1,7.9-49,7.9c-37.1-0.8-56.8-24.6-62.4-30.9
		c0,0,2.3-1.6,7.9-4c35.6-13.5,89.4-24.6,128.9-26.9c4-43.4,13.4-72.6,21.3-96.4c20.6-0.7,108.3-6.3,143.1-6.3
		c34,0,124.1,3.1,143.9,4.8c8.6,24.4,13.4,51.3,17.3,95.6C592.8,449.2,639.4,457,675.3,471.6z M509,536.9c10.2,0,21.3-4,26.9-12.7
		c4-6.3,5.6-14.2,5.6-22.1c1.5-1.5,4-2.3,6.3-2.3c0,15-4.8,30-18.2,37.1c-6.4,3.1-13.5,4.8-20.6,4.8
		C508.2,540,508.2,538.5,509,536.9z M278.3,540.1c-2.3,0-3.1,0.8-7.1,0c-17.5,0-35.6-14.2-34.8-38c2.3-0.8,4.6-0.8,6.3,0
		c0,13.4,5.6,32.4,34.8,32.4C278.9,537.7,277.4,537.7,278.3,540.1z M560.6,442.9c-0.8-4-1.6-9.4-1.6-13.4
		c-4-26.2-8.7-52.3-15.8-76.7c47.4,0,105.8,12.6,137.5-31.7c4-6.3,7.9-11.9,11.9-18.2c7.1-3.1,14.2-7.9,20.5-11.1
		c5.6,2.3,10.2,7.1,15.8,10.2c1.5,5.6,1.5,10.2,2.3,15c2.3,39.6-14.2,75.1-48.2,94.9C646.5,434.2,604.6,442.1,560.6,442.9z
		 M466.1,778c-0.8,1.6-1.5,1.6-3.1,4c-4-1.6-8.6-3.1-13.4-4.8c-39.5-15.8-90.1-11.1-127.3,4.8c-0.7-1.6-1.5-2.3-2.3-4
		C363.6,759,422.9,756.6,466.1,778z M473.4,567.7c-7.1,31.7-26.9,67.2-59.3,75.9c-26.1,7.1-56.1,1.6-73.5-19.8
		c-12.7-15.8-19-34.8-21.3-55.3c1.6-0.8,3.1-0.8,4.8-0.8c2.3,29.2,18.2,62.4,47.4,72c25.3,7.9,56.1,0,74.3-22.1
		c11.9-15,19.8-33.2,23.8-51.3C471.1,566.1,471.9,566.1,473.4,567.7z M446.5,699.8c7.9,1.5,16.7,5.5,20.6,13.4
		c3.1,7.2,0.8,15-3.1,20.6c-7.9,8.6-19,12.6-30,9.4c-6.4-1.6-12.7-5.6-16.7-12.7c-2.3,5.6,2.5,10.2,1.6,15c-0.8,1.6-2.3,1.6-3.1,0.8
		c-6.3-8.7-8.7-21.4-3.1-30.9C419.7,703.7,432.3,698.1,446.5,699.8z M316.9,729.8c-1.6-5.6-0.8-11.9,2.3-16.7
		c7.8-10.4,22.8-13.5,35.5-8.7c6.4,1.5,13.5,7.1,16.7,13.4c5.6,8.6,3.3,21.3-2.3,29.2c-0.8,1.6-1.5,3.3-3.1,1.6
		c-2.3-2.3,0.8-4.8,0.8-7.9c0.8-2.3,1.6-4.8,0.8-7.1c-7.9,10.4-19,15-30.9,12.7C328,744.8,320,738.4,316.9,729.8z"/>
	<path class="st1" d="M278.3,540c-2.5,0-3.1,0.8-7.1,0c-17.5,0-35.6-14.2-34.8-38c2.3-0.8,4.6-0.8,6.3,0c0,13.4,5.6,32.4,34.8,32.4
		C279.1,537.7,277.4,537.7,278.3,540z M535.9,524.2c-5.6,8.7-16.7,12.7-26.9,12.7c-0.8,1.6-0.8,3.1,0,4.8c7.1,0,14.2-1.6,20.6-4.8
		c13.4-7.1,18.2-22.1,18.2-37.1c-2.3,0-4.8,0.8-6.3,2.3C541.5,510,539.9,517.9,535.9,524.2z M243.4,355.1c-19,1.6-38,4-57.8,4
		c-34.7,1.5-69.5-9.6-86.2-41.9c-2.3-11.9-15.7-19-24.6-27.6c-5.5,7.2-11.9,13.5-18.2,20.6c-5.6,34.7,0.8,70.3,26.1,95.6
		c38,34,89.4,38,140,36.3c4-29.2,11.2-57.6,20.6-85.3V355.1z M733.9,386.9c-9.6,16.4-23.6,30.4-41.9,41.5
		c-12.8,7.8-26.4,13.4-39.3,17.6c3.1,0.8,4.9,1.5,5.9,1.9l37.1,11.6c0.5,0.1,1.2,0.4,1.8,0.7c1.2,0.7,2,1.1,2.5,1.2
		c1.9,0.3,3.7,0.8,5.2,1.9l2.3,1.6c2.7,1.8,4.5,4.6,5.2,7.8c0.7,3.3,0,6.6-1.8,9.3l-1.6,2.3c-0.4,0.7-1,1.4-1.5,1.9l-4,4
		c-5.9,7.9-16.4,16.5-28.4,23.2c-10.9,6-28,13.2-47.7,13.2c-3,0-6-0.1-9-0.5c-16.7-1.6-29.1-4.6-37.8-7.6c-2,4.8-4.6,11.6-7.9,20.2
		c0,0.1-0.1,0.1-0.1,0.3c-12.2,30-41.6,92.7-50.9,112.1c-0.3,0.5-0.5,1-0.8,1.5c-0.3,0.4-1,1.9-1.5,3c-1.1,2.3-2.3,5.3-4.2,8.6
		c-2.6,5.5-5.6,11.7-8.1,16.8c-0.8,1.6-1.5,3.3-2.2,4.6c1.2,3.1,2.7,4.9,4.6,7.1c0.1,0.3,0.4,0.4,0.5,0.7c0.8,0.5,1.8,1.2,2.9,2.3
		l0.8,0.8c2.3,2.3,3.5,5.5,3.5,8.7v0.8c0,0.1,0,0.4,0,0.5c-0.8,16.8-11.2,61.7-37.7,92.7c-0.4,0.4-0.7,0.8-1.1,1.1
		c-1,1.1-2.2,2-3.5,2.7c-14.7,7.4-47.9,14.7-83,14.7c-36.6,0-59.4-6.4-78.5-13.4c-1.6-0.7-3.3-1.6-4.5-2.9l-0.8-0.8
		c-0.1-0.1-0.1-0.1-0.3-0.3c-15.3-16.4-25.9-37-31.5-61.2c-2.9-12.4-4.4-25.3-4.2-38.2v-0.7v-0.8c0-3.3,1.2-6.4,3.5-8.7l0.8-0.8
		c1.2-1.2,2.5-2,3.4-2.6c0,0,0.1-0.1,0.3-0.3c1-0.8,1.8-1.8,2.6-2.6c-4.8-8.2-11.3-19.9-21-37.5c0-0.1-0.1-0.1-0.1-0.3
		c-10.6-20.3-38.5-78.5-50.4-108.7c0-0.1,0-0.1,0-0.1c-2-5.5-4.1-11.5-5.9-16.9c0-0.1-0.1-0.3-0.1-0.4c-8.2,2.7-20.3,5.9-37.5,8.5
		c0,0-0.1,0-0.3,0c-3.7,0.4-7.5,0.7-11.2,0.7c-33.5,0-59.8-17.5-70.2-27.9c-5.3-5.3-10.4-12.2-10.6-12.4c-0.1-0.1-0.3-0.4-0.4-0.5
		l-1.6-2.3c-1.8-2.7-2.5-6.1-1.8-9.3c0.5-3.1,2.5-6,5.2-7.8l2.3-1.6c0.5-0.3,1.1-0.7,1.8-1c0.7-0.3,14.7-6.6,27.6-11.3
		c0.3-0.1,0.5-0.1,0.8-0.3c5.3-1.6,12.3-3.5,19.4-5.5c-7.4-2.3-15.2-5.2-22.7-8.9c-13.1-6-32.4-16.4-47-36.6
		c-15.7-21.7-22.8-50.4-20.9-85.1c0-0.1,0-0.4,0-0.5c6.4-60.5,26.1-98.3,36.7-118.7l1-1.9c0.1-0.3,0.3-0.4,0.4-0.7l4.8-7.9
		c2.2-3.8,6.3-6,10.5-6c1.1,0,2.2,0.1,3.3,0.4c5.3,1.5,9,6.4,9,11.9v15.8c0,1.6,0,3.4,0,5.2c-0.1,21.7-0.1,62.3,7.1,82.2
		c10.6,28.3,35,42.1,74.3,42.1c6,0,12.4-0.3,19-1c0.4,0,0.8,0,1.2,0h3.5c3.7-0.3,7.9-0.5,12.3-0.8c9.8-0.5,22-1.2,35.4-2.3h1.6
		c39.9-3,89.6-7,134.5-7c34.4,0,145.3,3.8,180.6,6.3h1.1c0.4,0,0.7,0,1,0c5.7,0.4,12,0.8,19.3,0.8c39.3,0,64.7-11.2,75.6-33.5
		c0-0.1,0.1-0.1,0.1-0.3c12.6-24,13.7-68.1,10.5-101.4c0-0.1,0-0.3,0-0.4l-0.8-12.7c-0.4-5.9,3.4-11.2,9-12.7c1-0.3,2-0.4,3.1-0.4
		c4.5,0,8.7,2.6,10.9,6.8l7.1,14.2c12.3,24.4,35.1,70.2,37.7,121C749.7,344.1,744.8,367.3,733.9,386.9z M735.7,318.8
		c-2.3-47.4-23.6-90.9-36.3-116.2l-7.1-14.2l0.8,12.7c1.5,16.7,5.5,75.1-11.9,108.3c-22.1,45.1-85.3,41.1-106.6,39.5h-1.6
		c-34-2.3-145.4-6.3-180.2-6.3c-45.1,0-94.9,4-135.2,7.1c-19.8,1.5-36.3,2.3-48.2,3.1c-0.8,0-2.3,0-4,0c-56.1,5.5-91.8-11.1-106-49
		c-8.7-23.6-7.9-69.5-7.9-91.6v-15.8l-4.8,7.9c-10.2,19.8-30,56.1-36.3,116.2c-4,72,33.2,97.2,60.9,109.9
		c29.2,14.3,60.1,15.8,69.5,16.7h0.8c1.5,0,4,0,6.3,0.8c3.1,0,6.3,0,9.4,0.8c-4.8,0.8-11.9,2.3-18.2,3.1c-6.4,0.8-12.7,2.3-15.8,3.1
		c-7.1,0.8-34.7,7.9-50.5,12.7c-12.7,4.8-26.9,11.1-26.9,11.1l-2.3,1.6l1.6,2.3c0,0,4.6,6.3,9.4,11.1c10.2,10.4,38,27.7,71.1,23.8
		c26.9-4,41.1-9.6,46.7-12.7c2.3,5.5,6.3,19,10.2,29.2c11.9,30,39.6,87.7,49.8,107.5c8.7,15.7,16.5,30,22.1,39.5l2.3,3.1
		c-1.5,6.3-6.3,10.2-9.4,13.4c-0.7,0.8-1.5,0.8-2.3,1.6l-0.8,0.8v0.8c0,5.5-1.6,55.3,32.4,91.6l0.8,0.8
		c17.3,6.4,38.8,12.7,74.3,12.7c36.3,0,66.4-7.8,77.4-13.4v-0.8h0.8c23.8-27.6,34-69.5,34.8-85.3v-0.8l-0.8-0.8
		c-0.7-0.8-1.5-0.8-2.3-1.6c-3.1-4-7.9-7.9-10.2-18.2c2.5-4.8,7.9-16.7,12.7-26.1c3.1-5.6,4.6-10.4,6.3-12.7
		c9.4-19.8,38.6-82.2,50.5-111.4c7.1-19,11.1-28.5,13.4-31.7c4.8,2.3,19,8.7,45.1,11.1c33.2,3.8,65.5-19,74.3-31.7
		c1.6-1.6,4.8-4.8,4.8-4.8l1.6-2.3l-2.3-1.6c-0.7,0-1.5,0-6.3-2.3l-38-11.9c-4.8-2.3-27.6-7.1-44.2-10.2l-12.7-3.1l4-0.8
		C639.4,438.8,742.2,420.7,735.7,318.8z M728.7,302.2c-5.6-3.1-10.2-7.9-15.8-10.2c-6.3,3.1-13.4,7.9-20.5,11.1
		c-4,6.3-7.9,11.9-11.9,18.2c-31.7,44.2-90.1,31.7-137.5,31.7c7.1,24.4,11.9,50.5,15.8,76.7c0,4,0.8,9.4,1.6,13.4
		c44.2-0.8,86.2-8.7,122.5-30.9c34-19.8,50.5-55.3,48.2-94.9C730.3,312.4,730.3,307.6,728.7,302.2z"/>
	<path d="M232.7,7.1v16.7c0,2.3-0.8,2.3-4,2.3h-4c-2.3,0-2.3,0-2.3,3.1V102c0,2.3,0,2.3,3.1,2.3h4c3.1,0,3.1,0,3.1,4.8v14.2
		c0,2.3,0,3.1-4,3.1h-45.1c-3.1,0-3.1,0-3.1-4.8v-14.2c0-3.1,0-3.1,4-3.1h2.3c2.3,0,2.3,0,2.3-3.1V79.1c0-5.6,0-5.6-4-5.6h-22.9
		c-3.1,0-4,0.8-4,5.6v22.1c0,3.1,0,3.1,3.1,3.1h1.6c4,0,4,0,4,3.1v14.2c0,4,0,4.8-3.1,4.8h-44.5c-4,0-4,0-4-3.1v-14.2
		c0-4.8,0-4.8,3.1-4.8h3.1c4,0,4,0,4-2.3V29.2c0-2.3-0.8-3.1-3.1-3.1h-3.1c-4,0-4,0-4-2.3V7.1c0-2.3,0-3.1,4-3.1h42.7
		c3.1,0,4,0.8,4,4v14.2c0,3.1,0,3.1-4,3.1h-2.3c-1.6,0-1.6,0-1.6,3.1V49c0,5.6,0,5.6,4,5.6H185c4.8,0,4.8,0,4.8-5.6V28.4
		c0-3.1-0.8-3.1-2.3-3.1h-2.3c-4,0-4,0-4-3.1V7.9c0-3.1,0.8-4,4-4h42.7C232.7,4,232.7,4.8,232.7,7.1z M257.5,25.3h4.8
		c1.6,0,1.6,0,1.6,3.1v72.8c0,3.1,0,3.1-2.3,3.1h-4c-4,0-4,0-4,3.1v14.2c0,4.8,0.8,4.8,3.1,4.8h45.1c4,0,4-0.8,4-3.1v-14.2
		c0-4.8,0-4.8-3.1-4.8h-3.1c-3.1,0-3.1,0-3.1-2.3V29.2c0-3.1,0-3.1,3.1-3.1h1.6c4,0,4,0,4-2.3V7.1c0-2.3,0-3.1-4.8-3.1h-42.9
		c-3.1,0-4,0.8-4,4v14.2C253.6,25.3,254.4,25.3,257.5,25.3z M221.7,248.2c0,16.7-11.9,31.7-28.4,31.7h-66.5c-3.1,0-4,0-4-3.1v-15
		c0-3.1,0.8-3.1,3.1-3.1h4c2.3,0,3.1-0.8,3.1-3.1v-72c0-3.1,0-3.1-2.3-3.1h-4c-4,0-4-0.8-4-3.1v-15c0-4,0.8-4,5.6-4h60.9
		c11.1,0,30,11.9,30,30.9c0,17.3-11.1,23.8-16.7,29.2C211.4,224.5,221.7,230.7,221.7,248.2z M191.7,242.6c0-15-16.7-15.8-21.3-15.8
		c-4,0-4.8,0.8-4.8,4.8v20.6c0,4.8,0.8,4.8,4.8,4.8C175.9,256.8,191.7,257.6,191.7,242.6z M191.7,194.4c0-15-17.3-15.8-21.3-15.8
		c-4.8,0-4.8,0-4.8,4.8V204c0,4,0,4.8,4.8,4.8C175.9,208.6,191.7,208.6,191.7,194.4z M88.5,84.7l-11.9-4.8c-3.1-0.8-3.1-0.8-4.8,4
		c-1.6,3.1-6.3,18.2-19,18.2c-11.7,0-17.3-18.2-17.3-37.1c0-19,3.1-36.3,18.2-36.3c15.8,0,18.2,15.8,19.8,22.1
		c0,2.3,0.8,2.3,3.1,2.3h11.1c2.3,0,2.3,0,2.3-5.6V7.1C90,4,90,4,85.2,4h-9.4c-2.3,0-2.3,0.8-4,3.1c-0.7,2.5-3.1,4-6.3,1.6
		C60.1,3.1,51.3,0,42.7,0C34,0.8,0,11.9,0,62.4c0,49.8,30.9,66.5,48.9,66.5c18.3,0,36.5-14.3,42.7-38.8C92.4,87,91.6,86.2,88.5,84.7
		z M370.7,128.9c19,0,37.1-14.3,42.7-38.5c1.6-3.3,0.8-4-3.1-5.6L398.4,80c-2.5-0.8-2.5-0.8-4.8,4c-0.8,3.1-6.3,18.2-18.2,18.2
		c-12.6,0-17.3-18.2-17.3-37.1c0-19,3.1-36.3,18.2-36.3c15,0,18.2,15.8,19,22.1c0.8,2.3,0.8,2.3,4,2.3h11.1c2.3,0,2.3,0,2.3-5.6V7.2
		c0-3.1-0.8-3.1-4.8-3.1h-10.2c-1.5,0-1.5,0.8-3.1,3.1c-0.8,2.5-3.1,4-7.1,1.6c-5.5-5.6-13.4-8.7-22.1-8.7
		c-8.7,0.7-42.7,11.9-42.7,62.4C322.5,112.2,352.5,128.9,370.7,128.9z M473.5,109.1v14.1c0,2.3,0,3.1-4,3.1h-31.7
		c-2.3,0-2.3-0.8-2.3-4.8v-14.2c0-3.1,0-3.1,4-3.1h3.1c1.5,0,2.3-0.7,3.1-2.3l22.9-73.5c0.8-1.5,0.8-2.3-2.3-2.3h-4.8
		c-3.1,0-4,0-4-3.1V8.7c0-4.8,0.8-4.8,5.6-4.8h60.9c3.1,0,3.1,0.8,3.1,4.8v13.4c0,3.1,0,3.1-4.8,3.1h-4.8c-1.6,0-1.6,0.8-0.8,3.1
		l22.9,72.8c0.7,3.1,0.7,3.1,2.3,3.1h4c4,0,4,0,4,3.1v14.2c0,4,0,4.8-3.1,4.8h-45.1c-4,0-4-0.8-4-3.1v-14.2c0-4.8,0.8-4.8,3.1-4.8
		h4.8c2.5,0,2.5,0,1.6-3.1l-4-11.1c-0.8-2.3-1.6-2.3-4-2.3h-27.7c-3.1,0-3.1,0-4,2.3l-4,11.1c-0.7,3.1-0.7,3.1,1.6,3.1h4.8
		C473.5,104.3,473.5,105.1,473.5,109.1z M474.3,68.8c0,2.3,0,2.3,3.1,2.3c0,0,16.5,0,17.3,0c2.3,0,3.1,0,2.3-2.3l-10.2-31.7
		c-0.7-2.3-1.5-2.3-2.3,0L474.3,68.8z M658.4,64.3h-33.2c-3.1,0-3.1,0-3.1,3.1v13.4c0,2.3,0,2.3,4,2.3h7.9c4,0,4,0.8,4,3.1
		c0,6.4-5.5,15.8-18.2,15.8c-12.6,0-17.3-18.2-17.3-37.1c0-19,3.1-36.3,18.2-36.3c12.7,0,17.3,8.7,19,15c0.8,2.3,0.8,2.3,4,2.3h11.1
		c2.3,0,2.3,0,2.3-5.6V7.2c0-3.1-0.8-3.1-5.6-3.1h-9.4c-2.3,0-2.3,0.8-3.1,3.1c-0.8,2.5-4,4-7.1,1.6c-5.5-5.6-14.2-8.7-22.1-8.7
		c-9.6,0.7-42.7,11.9-42.7,62.4c0,49.7,30,66.4,48.2,66.4c27.7,0,49-21.4,49-60.9C664,64,664,64,658.4,64.3z M636.5,207.9
		c-14.2-6.4-22.1-12.7-22.1-19.8c0-4.8,3.1-7.9,8.7-7.9c12.7,0,20.6,9.6,22.9,16.7c0.8,2.3,0.8,2.3,4,2.3h7.1c2.3,0,2.3,0,2.3-5.6
		v-33.2c0-3.1,0-3.1-4.8-3.1h-5.6c-1.5,0-1.5,0-3.1,4c-0.8,1.6-4,4.8-7.9,1.6c-5.5-4.8-13.4-7.9-21.3-7.9c-10.2,0-34,11.1-34,36.3
		c0,26.1,18.2,33.2,30,39.5c11.9,6.4,18.2,8.7,18.2,19.8c0,5.5-4.8,7.1-11.1,7.1c-11.9,0-19.7-9.6-21.3-16.7c-0.8-2.3-0.8-2.3-4-2.3
		h-7.9c-1.5,0-2.3,0-2.3,4.8v34c0,2.3,0,2.3,5.6,2.3h4.8c1.6,0,1.6,0,4-3.1c0.8-1.6,4-4.8,7.9-1.6c5.5,4.8,14.2,7.9,22.1,7.9
		c10.4,0,34.8-11.1,34.8-37.1C663.6,224.5,650.1,214.2,636.5,207.9z M786.5,66.4c0,34.7-24.6,62.4-53.8,62.4
		c-30,0-54.5-27.6-54.5-62.4c0-34.7,24.4-62.4,54.5-62.4C761.9,4,786.5,31.7,786.5,66.4z M752.5,66.4c0-22.1-9.6-40.3-20.6-40.3
		c-11.1,0-19.8,18.2-19.8,40.3s8.7,40.3,19.8,40.3C742.9,106.6,752.5,88.5,752.5,66.4z M556.8,236.3h-11.1c-4,0-4,0.8-4,4.8v12.7
		c0,4.8,0,4.8-4,4.8h-16.7c-5.6,0-5.6-0.8-5.6-4v-70.3c0-4.8,0-4.8,2.3-4.8h4.8c3.1,0,3.1-0.8,3.1-3.1v-14.2c0-4,0-4-4-4h-41.9
		c-4.8,0-4.8,0-4.8,4v14.2c0,3.1,0,4,3.1,4h4c2.3,0,3.1,0,3.1,4v70.3c0,3.1-0.8,4-3.1,4h-4c-3.1,0-3.1,0-3.1,4v14.2
		c0,3.1,0,3.1,3.1,3.1h78.2c3.1,0,4,0,4-4.8v-34.8C560.8,237.2,560.8,236.3,556.8,236.3z M448.5,236.3h-11.1c-4,0-4,0.8-4,4.8v12.7
		c0,4.8,0,4.8-4,4.8h-16.7c-5.6,0-5.6-0.8-5.6-4v-70.3c0-4.8,0-4.8,2.3-4.8h4.8c3.1,0,3.1-0.8,3.1-3.1v-14.2c0-4,0-4-4-4h-41.9
		c-4.8,0-4.8,0-4.8,4v14.2c0,3.1,0,4,3.1,4h4c2.3,0,3.1,0,3.1,4v70.3c0,3.1-0.8,4-3.1,4h-4c-3.1,0-3.1,0-3.1,4v14.2
		c0,3.1,0,3.1,3.1,3.1h78.2c3.1,0,4,0,4-4.8v-34.8C452.5,237.2,452.5,236.3,448.5,236.3z M341.1,158.1h-31.7c-3.1,0-3.1,0-3.1,4
		v14.2c0,3.1,0,3.1,4,3.1h3.1c2.3,0,3.1,0,3.1,3.1v60.1c0,5.6-3.1,17.3-19,17.3c-12.7,0-18.2-11.1-18.2-17.3v-60.9
		c0-2.3,0-2.3,2.3-2.3h3.1c4.8,0,4.8,0,4.8-3.1v-14.2c0-4-0.8-4-4-4h-41.9c-4.8,0-4.8,0-4.8,4.8v13.4c0,3.1,0,4,3.1,4h4
		c2.3,0,3.1,0,3.1,2.3v62.4c0,15.8,15,38.8,45.9,38.8c31.7,0,39.5-22.9,39.5-38.8v-62.4c0-2.3,0.8-2.3,3.1-2.3h4.8c4,0,4-0.8,4-4
		v-14.2C346.5,158.1,346.5,158.1,341.1,158.1z"/>
</g>
</svg>
