<?xml version="1.0" encoding="utf-8"?>
<!-- Generator: Adobe Illustrator 25.0.0, SVG Export Plug-In . SVG Version: 6.00 Build 0)  -->
<svg version="1.1" id="gsw" xmlns="http://www.w3.org/2000/svg" xmlns:xlink="http://www.w3.org/1999/xlink" x="0px" y="0px"
	 viewBox="0 0 678.8 844" style="enable-background:new 0 0 678.8 844;" xml:space="preserve">
<style type="text/css">
	.st0{fill:#FFFFFF;}
	.st1{fill:#1D4588;}
	.st2{fill-rule:evenodd;clip-rule:evenodd;fill:#FDB825;}
	.st3{fill:#1E4489;}
</style>
<path class="st0" d="M647.9,270.5c-17-40.3-41.3-76.3-72.3-107.2c-31-31-67-55.3-107.2-72.2c-41.7-17.6-85.8-26.6-131.3-26.6
	c-45.4,0-89.5,8.9-131.2,26.6c-40.3,16.9-76.3,41.3-107.2,72.3c-30.9,30.8-55.2,66.9-72.2,107.1C8.9,312.1,0,356.2,0,401.7
	c0,45.5,8.9,89.6,26.6,131.2c17,40.2,41.3,76.3,72.2,107.2c30.8,30.9,66.9,55.2,107.1,72.2c41.6,17.6,85.7,26.5,131.2,26.5
	c46.3,0,91.2-9.2,133.3-27.4c39.7-17.1,75.3-41.4,105.9-72.2c3.6-2.9,6.8-6.4,10.2-10.8c27.4-30,48.9-64.3,64-102
	c15.8-39.7,23.8-81.6,23.8-124.7C674.4,356.1,665.5,312,647.9,270.5z M634.8,520.1c-14.4,36-35,68.8-61.3,97.5
	c-2.9,3.9-5.6,6.8-8.5,9c-29.3,29.6-63.3,52.9-101.3,69.3c-40,17.3-82.6,26-126.6,26c-43.2,0-85.1-8.5-124.6-25.2
	c-38.2-16.2-72.5-39.3-101.7-68.6c-29.4-29.4-52.4-63.6-68.6-101.8C25.5,486.8,17,444.9,17,401.7c0-43.2,8.5-85.1,25.2-124.6
	c16.2-38.2,39.2-72.4,68.6-101.7c29.3-29.4,63.5-52.5,101.8-68.6c39.6-16.7,81.5-25.2,124.6-25.2c43.1,0,85.1,8.5,124.6,25.2
	c38.1,16.1,72.4,39.2,101.8,68.6c29.4,29.3,52.4,63.5,68.6,101.7c16.7,39.4,25.2,81.3,25.2,124.6
	C657.4,442.6,649.8,482.5,634.8,520.1z"/>
<path class="st1" d="M190.7,602.5c0.7,15.7,1.5,29.2,2.3,40.4l-6.4-4c-0.7-10.9-1.5-22.9-2.2-36.1L190.7,602.5z M180.3,273.6
	l-4.6-5.1c1.3,116.4,3.6,214.2,6.8,293.6l6.3-0.7C186,490.5,183.2,394.6,180.3,273.6z M280.6,552.6l-81.2-258.3l-1.4-1.5l2.2,63.9
	l61.4,197.4L280.6,552.6z M96.9,547.5c3.3,5.5,7.2,11.3,11.5,17.3l46.2-261.2c-6.5,14.6-14.1,30-22.7,46.1L96.9,547.5z M62.6,461.4
	l3,12.7l6.8-26.8L62.6,461.4z M497.7,543.6L497.7,543.6l-7.1-22.3l-21.9-11.2l10.5,33.5H497.7z M439.8,493.7l15.5,50.2l17.7-0.3
	L461.3,506C453.7,501.9,446.5,497.7,439.8,493.7z M104,398.7L82.5,520.4c2.9,6.4,6.3,13,10.1,19.7L123,366.2
	C116.9,377.2,110.6,388.1,104,398.7z M82.3,432.7l-12.4,55.6c2.6,8.2,5.5,15.9,8.6,23.2l17.7-100.1L82.3,432.7z M151.9,565.8
	c0-28,0.2-58.3,0.5-91.1l-16.5,93.2L151.9,565.8z M129.7,568.7l22.2-125.1l0.9,0.2c0.4-34.6,0.9-69.1,1.5-103.4L113.4,571
	L129.7,568.7z M142.3,604.1l10,9l-0.1-9.4L142.3,604.1z M399.9,468.3l-23.2-16.1l29.3,93l18.1-0.5l-24-75.9l0.7,0.2L399.9,468.3z
	 M259.6,592c121.5-2.2,214.9-0.7,280.1,4.5l6.4-6.9C443.7,587.2,348.2,588,259.6,592z M204.9,466.9c1.9,37.9,3.6,68.6,5.3,92.1
	l23.3-2.3L204.9,466.9z M498,524.8l5.9,18.8l41.9,0.5C531.4,539.5,515.5,533,498,524.8z M213.3,602c1.8,22.4,3.7,40.6,5.5,54.6
	c37.5,17.4,76.9,26.1,118.3,26.1c36,0,70.5-6.6,103.7-19.8c32.1-12.8,60.8-30.8,86.3-54.2C453.6,601.2,349,598.9,213.3,602z
	 M596.2,292.3c-14.2-33.7-34.3-63.5-60.2-89.3c-26-26-55.8-46-89.4-60.3c-34.8-14.7-71.3-22.1-109.4-22.1
	c-38.1,0-74.6,7.4-109.4,22.1c-33.6,14.2-63.4,34.3-89.3,60.3c-25.9,25.9-46,55.6-60.2,89.3C63.6,327,56.2,363.5,56.2,401.6
	c0,13.6,1,27.1,3,40.6c14-14.4,27.9-31.6,41.8-51.8c20.2-29.3,38.3-62.2,54.2-98.7l0.7-39.7l7.3-1.8l0.3-7.2h12l0.2,20.7l4.6,5.7
	l-0.3-13l8.2-7l8.8,3.9l1.1,36.7c42.1,47,89.4,89.2,141.8,126.4c79.7,56.6,162.2,94.4,247.5,113.4c20.7-40.3,31-83,31-128.3
	C618.2,363.5,610.9,327,596.2,292.3z M345.1,428.4l37.2,117.7l17.4-0.7l-31.9-99.7L345.1,428.4z M310.1,399.9l47,147.6l19-1
	l-39.7-124.9C327.4,414.5,318.7,407.2,310.1,399.9z M407.7,473.5l22.5,70.9l19-0.5l-17-54.9C424.1,484.2,416,479,407.7,473.5z
	 M278.2,372l55.9,176.7l16.9-1l-49.1-154.8L278.2,372z M209.2,304.6l77.5,247.5l17.3-1.4l-70.6-221.5L209.2,304.6z M243.7,339.5
	l66.4,210.9l17.9-1.2l-58.9-185.5C260.7,355.9,252.3,347.9,243.7,339.5z M255.4,554.7l-54.3-173.2l2.6,61l35.8,113.7L255.4,554.7z
	 M657.4,401.7c0,41-7.6,80.8-22.6,118.4c-14.4,36-35,68.8-61.3,97.5c-2.9,3.9-5.6,6.8-8.5,9c-29.3,29.6-63.3,52.9-101.3,69.3
	c-40,17.3-82.6,26-126.6,26c-43.2,0-85.1-8.5-124.6-25.2c-38.2-16.2-72.5-39.3-101.7-68.6c-29.4-29.4-52.4-63.6-68.6-101.8
	C25.5,486.8,17,444.9,17,401.7c0-43.2,8.5-85.1,25.2-124.6c16.2-38.2,39.2-72.4,68.6-101.7c29.3-29.4,63.5-52.5,101.8-68.6
	c39.6-16.7,81.5-25.2,124.6-25.2c43.1,0,85.1,8.5,124.6,25.2c38.1,16.1,72.4,39.2,101.8,68.6c29.4,29.3,52.4,63.5,68.6,101.7
	C648.9,316.5,657.4,358.4,657.4,401.7z M637.1,401.7c0-40.7-7.8-79.6-23.6-116.7c-15.2-35.9-36.6-67.7-64.3-95.3
	c-27.7-27.7-59.5-49.1-95.4-64.3c-37.2-15.7-76.1-23.6-116.8-23.6c-40.6,0-79.5,7.9-116.7,23.6c-35.9,15.1-67.7,36.5-95.3,64.3
	c-27.7,27.6-49.1,59.4-64.3,95.3c-15.7,37.1-23.6,76-23.6,116.7c0,40.7,7.9,79.6,23.6,116.7c15.2,35.9,36.6,67.7,64.3,95.4
	c27.6,27.7,59.4,49.1,95.3,64.3c37.2,15.7,76.1,23.6,116.7,23.6c41.4,0,80.9-8.1,118.5-24.4c36.4-15.7,68.4-37.7,96.3-66.2
	c1.6-0.9,3.5-3,5.9-6.3c25.1-27.2,44.5-57.9,58.2-92.1C630.1,477.2,637.1,440.2,637.1,401.7z"/>
<path class="st2" d="M613.6,285c-15.2-35.9-36.6-67.7-64.3-95.3c-27.7-27.7-59.5-49.1-95.4-64.3c-37.2-15.7-76.1-23.6-116.8-23.6
	c-40.6,0-79.5,7.9-116.7,23.6c-35.9,15.1-67.7,36.5-95.3,64.3c-27.7,27.6-49.1,59.4-64.3,95.3c-15.7,37.1-23.6,76-23.6,116.7
	c0,40.7,7.9,79.6,23.6,116.7c15.2,35.9,36.6,67.7,64.3,95.4c27.6,27.7,59.4,49.1,95.3,64.3c37.2,15.7,76.1,23.6,116.7,23.6
	c41.4,0,80.9-8.1,118.5-24.4c36.4-15.7,68.4-37.7,96.3-66.2c1.6-0.9,3.5-3,5.9-6.3c25.1-27.2,44.5-57.9,58.2-92.1
	c14.1-35.4,21.1-72.4,21.1-110.9C637.1,361,629.3,322.1,613.6,285z M62.6,461.4l9.9-14.1l-6.8,26.8L62.6,461.4z M69.9,488.4
	l12.4-55.6l13.8-21.3L78.5,511.5C75.5,504.3,72.6,496.6,69.9,488.4z M82.5,520.4L104,398.7c6.5-10.7,12.9-21.5,19-32.5L92.7,540.1
	C88.8,533.4,85.4,526.8,82.5,520.4z M142.3,604.1l9.9-0.4l0.1,9.4L142.3,604.1z M151.9,565.8l-15.9,2.1l16.5-93.2
	C152.1,507.5,151.9,537.8,151.9,565.8z M152.8,443.7l-0.9-0.2l-22.2,125.1l-16.3,2.3l40.9-230.7
	C153.7,374.7,153.2,409.2,152.8,443.7z M108.5,564.8c-4.4-6.1-8.2-11.9-11.5-17.3L132,349.8c8.6-16.1,16.1-31.5,22.7-46.1
	L108.5,564.8z M175.7,268.5l4.6,5.1c2.9,121,5.7,216.9,8.6,287.8l-6.3,0.7C179.3,482.8,177,384.9,175.7,268.5z M186.6,638.8
	c-0.7-10.9-1.5-22.9-2.2-36.1l6.3-0.2c0.7,15.7,1.5,29.2,2.3,40.4L186.6,638.8z M198,292.7l1.4,1.5l81.2,258.3l-19,1.6l-61.4-197.4
	L198,292.7z M424,544.6l-18.1,0.5l-29.3-93l23.2,16.1l0.9,0.6l-0.7-0.2L424,544.6z M473,543.6l-17.7,0.3l-15.5-50.2
	c6.7,4,13.8,8.2,21.5,12.3L473,543.6z M468.8,510.1l21.9,11.2l7.1,22.3h-18.4L468.8,510.1z M449.1,544l-19,0.5l-22.5-70.9
	c8.3,5.5,16.4,10.7,24.4,15.5L449.1,544z M399.7,545.4l-17.4,0.7l-37.2-117.7l22.7,17.3L399.7,545.4z M376.1,546.4l-19,1l-47-147.6
	c8.6,7.4,17.3,14.6,26.3,21.7L376.1,546.4z M351,547.7l-16.9,1L278.2,372l23.6,20.9L351,547.7z M328,549.1l-17.9,1.2l-66.4-210.9
	c8.6,8.4,17,16.5,25.4,24.2L328,549.1z M303.9,550.7l-17.3,1.4l-77.5-247.5l24.2,24.7L303.9,550.7z M201.1,381.4l54.3,173.2
	l-15.9,1.5l-35.8-113.7L201.1,381.4z M204.9,466.9l28.6,89.8l-23.3,2.3C208.5,535.5,206.7,504.8,204.9,466.9z M440.8,662.9
	c-33.1,13.2-67.7,19.8-103.7,19.8c-41.4,0-80.9-8.7-118.3-26.1c-1.8-14-3.7-32.2-5.5-54.6c135.7-3,240.3-0.7,313.9,6.8
	C501.7,632.1,472.9,650.2,440.8,662.9z M539.7,596.4c-65.3-5.2-158.6-6.7-280.1-4.5c88.6-4,184.1-4.8,286.5-2.4L539.7,596.4z
	 M498,524.8c17.5,8.2,33.4,14.6,47.9,19.3l-41.9-0.5L498,524.8z M587.2,529.9c-85.3-19-167.7-56.8-247.5-113.4
	c-52.4-37.2-99.7-79.4-141.8-126.4l-1.1-36.7l-8.8-3.9l-8.2,7l0.3,13l-4.6-5.7l-0.2-20.7h-12l-0.3,7.2l-7.3,1.8l-0.7,39.7
	c-15.9,36.5-34,69.4-54.2,98.7c-13.8,20.2-27.8,37.4-41.8,51.8c-2-13.6-3-27.1-3-40.6c0-38.1,7.4-74.6,22.1-109.4
	c14.2-33.7,34.3-63.5,60.2-89.3c25.9-26,55.7-46,89.3-60.3c34.8-14.7,71.2-22.1,109.4-22.1s74.6,7.4,109.4,22.1
	c33.6,14.2,63.4,34.3,89.4,60.3c25.9,25.9,46,55.6,60.2,89.3c14.7,34.8,22.1,71.2,22.1,109.4C618.2,446.9,607.9,489.6,587.2,529.9z"
	/>
<path class="st3" d="M580.9,146.1l-10.5-9.7l1.1-1.3c0.4,0.3,0.8,0.5,1.1,0.5c0.5,0.1,0.9-0.1,1.3-0.5l25-27.2l-11.3-10.5
	c-0.5-0.3-0.9-0.6-1.5-0.7c-0.6-0.1-1.1,0.1-1.8,0.7l-1.3-1.1l8.8-9.6l1.2,1.1c-0.6,0.7-0.8,1.3-0.6,1.9l0.8,1.4l30.4,28
	c0.4,0.4,0.9,0.7,1.5,0.7c0.6,0.1,1.2-0.1,1.8-0.7l1.2,1.1l-8.8,9.6l-1.3-1.1c0.6-0.7,0.8-1.3,0.7-1.8c-0.2-0.5-0.5-1-0.9-1.5
	L606.8,115l-25.1,27.2c-0.7,0.9-0.6,1.8,0.4,2.6L580.9,146.1z M638.8,140.3l-33.4,25.8c-0.5,0.3-0.9,0.4-1.3,0.3l-1.1-0.7l-1.3,1
	l26.4,34.4l1.3,1.9c0.3,0.5,0,1.1-0.7,1.7l1.1,1.4l10.1-7.8l-1.1-1.3c-0.5,0.5-1.1,0.5-1.8,0.3c-0.7-0.2-1.4-0.7-2-1.4l-19-24.6
	l10.2-7.8l11.1,14.4c0.7,1,1.1,1.9,1.3,2.6c0.1,0.8-0.5,1.6-1.6,2.5l1.1,1.3l11.4-8.8l-0.9-1.4c-1.1,0.9-2,1.2-2.7,0.9l-2.2-2
	l-11.1-14.4l9.2-7l18.4,23.9c0.9,1,1.3,1.9,1.4,2.5c0,0.6-0.3,1.1-0.8,1.6l1,1.4l9.8-7.5l-1.1-1.4c-0.5,0.5-1.1,0.5-1.7,0.3
	c-0.7-0.1-1.4-0.7-2.2-1.8L640.4,137l-1.4,1c0.3,0.5,0.4,0.9,0.3,1.2L638.8,140.3z M241.7,13.5c0.3,0.2,0.6,0.6,0.7,1.1l8.1,41.4
	c0.1,0.5,0,1-0.3,1.4c-0.3,0.4-0.7,0.6-1.1,0.7l0.3,1.6l42.5-8.3l2.3-0.2c0.6,0,0.9,0.5,1.1,1.4l1.7-0.3l-2.4-12.5L293,40
	c0.1,0.7-0.1,1.4-0.5,1.9c-0.5,0.6-1.2,0.9-2.1,1l-30.5,6l-2.4-12.6l17.9-3.6l3,0.1c0.7,0.3,1.2,1.1,1.6,2.5l1.6-0.3l-2.8-14.2
	l-1.6,0.3c0.2,1.5,0.1,2.4-0.5,2.8c-0.6,0.5-1.5,0.9-2.7,1.1L256,28.6l-2.3-11.3l29.6-5.8l2.8-0.1c0.5,0.3,0.9,0.7,1.1,1.4l1.6-0.3
	l-2.4-12.1l-1.6,0.3c0.1,0.7,0,1.3-0.5,1.7c-0.4,0.5-1.3,0.9-2.6,1.2l-41.6,8.1l0.4,1.6L241.7,13.5z M484.4,78.2l-1.3-0.1l-0.6,1.5
	l12.9,6.2l0.7-1.6c-1.1-0.6-1.6-1.4-1.1-2.4l15.9-33.4l13.9,6.5l1.2,1.1c0.3,0.5,0.3,1.1,0,1.9l1.5,0.7l5.6-11.7l-1.6-0.7
	c-0.3,0.7-0.8,1.2-1.4,1.3l-1.7-0.3l-37.4-17.6l-1.2-1.1c-0.3-0.5-0.3-1.1,0.1-2l-1.6-0.7l-5.5,11.8l1.5,0.7
	c0.3-0.7,0.9-1.1,1.5-1.2l1.6,0.3l13.9,6.6l-15.8,33.5L484.4,78.2z M324.6,47.2c-1.4,0-2.1-0.5-2.1-1.7V14.6l28.4,29.6
	c1,1,1.5,1.7,1.5,2.2c0,0.5-0.4,0.8-1.1,0.8v1.7h15.1v-1.7c-1.1,0-1.8-0.5-1.8-1.7V3.3c0-1.1,0.6-1.7,1.8-1.7V0h-14.1v1.6
	c1.6,0,2.4,0.5,2.4,1.7v29.6L327.9,5.2C326.6,3.8,326,3,326,2.5c0-0.6,0.3-0.9,0.7-0.9V0h-15.9l0.1,1.6c1.1,0,1.8,0.5,1.8,1.7v42.2
	c0,1.1-0.6,1.7-1.8,1.7v1.7h13.8V47.2z M167.9,39.4l-0.7-1.6l28.7-11.4c3.1-1.2,6.2-1.9,9.4-2.1c3.2-0.2,6.1,0.2,8.9,1.3
	c2.8,1.1,5.3,2.9,7.5,5.3c2.2,2.2,4.1,5.3,5.7,9.3c1.6,4,2.3,7.6,2.3,10.8c0,3.3-0.7,6.3-2,9c-1.3,2.7-3.1,5.1-5.5,7
	c-2.4,2-5.1,3.6-8.3,4.9l-28.7,11.4l-0.6-1.6c1.4-0.5,1.8-1.3,1.4-2.3l-15.6-39.3C170.2,39.2,169.3,38.9,167.9,39.4z M182.1,40.6
	l12.1,30.6l13.4-5.3c2.8-1.1,5.1-2.3,6.8-3.5c1.8-1.3,3.2-2.8,4-4.5c0.9-1.6,1.3-3.5,1.2-5.9c-0.1-2.2-0.8-4.8-2-7.8
	c-1.1-2.9-2.4-5.2-3.9-7c-1.5-1.7-3.1-2.9-4.9-3.5l-6-0.5c-2.1,0.3-4.5,1-7.4,2.1L182.1,40.6z M418.6,41.9l-8,9.4l1,1.1
	c0.5-0.4,1-0.5,1.4-0.5c0.6,0.2,1.4,0.6,2.1,1.3l3.2,2.6l5.3,3c2.1,0.9,4.9,2,8.4,3l8.1,1.6c3,0.5,5.9,0.4,8.6-0.1
	c2.7-0.4,5.2-1.4,7.5-3c2.2-1.4,3.6-3.7,4.5-6.9c0.7-2.6,0.9-4.9,0.3-7c-0.6-2-1.6-3.8-3-5.2c-1.4-1.4-3.2-2.7-5.2-3.7
	c-1.8-0.9-4-1.9-6.4-2.8l-6.5-2.3c-2.1-0.7-4-1.5-5.7-2.4c-1.6-0.7-2.8-1.7-3.6-2.8c-0.9-1-1.1-2.2-0.7-3.6c0.2-1.1,0.8-1.9,1.8-2.3
	c0.9-0.5,2-0.7,3.2-0.9l4.1,0.2l4.2,0.7c1.7,0.5,3.4,1.2,5.1,2c1.6,0.7,3.1,1.7,4.5,2.7c1.3,0.7,2.4,1.7,3.4,2.8
	c0.9,1,1.5,2,1.8,2.8c0.2,0.7,0.2,1.5,0.1,2.2l0.8,0.6l9.3-9.5l-0.9-0.9c-0.5,0.2-1.1,0.2-2,0c-0.7-0.2-1.6-0.7-2.7-1.6l-3.9-2.7
	l-5.5-3.2c-2.4-1.1-5.1-2.2-8.1-3c-3.6-1-6.9-1.4-10-1.4c-3,0.1-5.7,0.5-7.8,1.4c-2.2,0.9-4,2.2-5.3,3.7c-1.4,1.4-2.3,3.2-2.8,5.1
	c-0.7,2.8-0.8,5.1-0.3,7.1c0.5,1.9,1.6,3.6,3,5.1c1.4,1.5,3.2,2.8,5.3,3.8c1.9,0.9,4.1,1.8,6.4,2.7l6.6,2.3c2.1,0.7,4,1.4,5.6,2.2
	c1.6,0.7,2.8,1.6,3.7,2.6c0.9,0.9,1.1,2,0.7,3.4c-0.3,1.3-1.2,2.3-2.6,2.9l-4.5,0.8l-5.1-0.4l-4-0.9l-4.6-1.8l-4.6-2.7l-3.7-3
	c-1-1-1.6-2-1.9-2.8c-0.1-0.5-0.1-1.1,0.1-1.6L418.6,41.9z M554,67.1c0.3-0.5,0.3-1,0.1-1.5l-0.8-1.2l0.9-1.4l13,8.8l-0.9,1.4
	l-1.4-0.3c-0.5-0.1-0.9,0.2-1.3,0.8c-0.3,0.3-0.5,0.8-0.6,1.4l-5.4,44.3c-0.1,0.7,0,1.4,0.2,2l0.9,1.8l-0.9,1.4l-13.6-9.2l0.9-1.4
	l0.9,0.3l0.9-0.4c0.3-0.5,0.6-1.3,0.7-2.4l0.9-7.7L530,91.1l-6.4,3.6c-1.3,0.7-2.1,1.3-2.3,1.8c-0.4,0.6-0.1,1.2,0.8,1.9l-0.9,1.4
	l-10.9-7.4l0.9-1.4l2.3,0.1l2.4-1.2l36.7-21.5L554,67.1z M553.2,77.5l-17,9.5l13.8,9.2L553.2,77.5z M59.2,132.4
	c-0.7-3.4-0.7-7,0.1-10.5c0.7-3.5,2.1-6.8,4-9.9c2-3.2,4.2-5.9,6.7-8.2c2.5-2.3,5.4-4.3,8.7-5.9c3.3-1.6,6.7-2.6,10.3-3
	c3.5-0.4,7-0.1,10.5,0.9c3.5,1.1,6.7,3.2,9.5,6.3c2.8,3.1,4.7,6.5,5.5,10.1c0.7,3.6,0.7,7.2-0.1,10.6c-0.8,3.6-2.2,6.8-4.2,9.8
	c-1.9,3-4.1,5.7-6.8,8.1c-2.6,2.4-5.5,4.3-8.6,6c-3.1,1.7-6.5,2.7-10.1,3.2c-3.5,0.5-7,0.1-10.5-0.9c-3.5-1.1-6.7-3.2-9.6-6.3
	C61.7,139.3,59.9,135.9,59.2,132.4z M68.8,129.3c0.5,2.2,1.6,4.4,3.4,6.3c1.8,2,3.8,3.2,6,3.9c2.2,0.7,4.5,1,6.8,0.7
	c2.4-0.2,4.7-0.9,6.9-2c2.2-1,4.2-2.3,6-3.9c1.8-1.6,3.2-3.5,4.4-5.6c1.3-2,2.2-4.3,2.6-6.6c0.5-2.4,0.4-4.7-0.1-7
	c-0.5-2.2-1.6-4.3-3.3-6.3c-1.9-1.9-3.9-3.2-6.1-4c-2.2-0.7-4.5-0.9-6.9-0.7c-2.4,0.2-4.6,0.9-6.8,1.9c-2.2,1-4.2,2.3-6,3.9
	c-1.8,1.8-3.4,3.6-4.5,5.6c-1.2,2.1-2,4.3-2.5,6.7C68.2,124.7,68.3,127,68.8,129.3z M39,205.8c3.3-0.8,6.4-2.3,9.4-4.5
	c3-2.3,5.8-5.2,8.3-8.6l3.8-5.6l3.4-6.2c0.9-2,1.6-4.2,2.3-6.8c0.5-2.3,0.9-4.7,0.9-7.3l-1.2-0.9c-0.4,0.3-0.8,0.5-1.3,0.7
	c-0.3,0.2-0.8,0.1-1.3-0.2l-8.5-6.2l-0.9-1.3c0-0.5,0.3-1.2,0.8-2.2l-1.3-1l-13.8,18.8l-1.5,1.4c-0.5,0.2-1.2,0-2.1-0.5l-0.9,1.4
	l9.6,7.1l0.9-1.4c-0.9-0.7-1.4-1.4-1.4-2c-0.1-0.5,0.2-1.1,0.7-2l7-9.6l6.5,4.7l-2.8,7c-1.3,2.8-2.9,5.5-4.9,8.3
	c-1.4,1.8-3,3.4-4.8,4.9c-1.9,1.5-3.9,2.5-6.1,3.1l-6.8,0.3c-2.4-0.5-4.8-1.6-7.3-3.4s-4.3-3.8-5.4-5.9c-1.1-2.1-1.7-4.3-1.8-6.6
	c-0.1-2.2,0.3-4.5,1.1-6.7c0.8-2.2,1.9-4.3,3.2-6l3.8-4.7c1.4-1.6,2.8-2.8,4.3-3.9c1.6-1.2,3-2,4.2-2.4l3,0.1l0.7,0.7l1.6-1.1
	l-6.7-11.7c-0.3,0.2-0.7,0.4-1.1,0.5l-0.1,1.1l-0.5,1.3l-1.8,1.6l-3.9,3c-1.6,1.4-3.2,3-4.9,4.7c-2,2-3.6,4-5.1,6
	c-2.5,3.4-4.4,6.9-5.6,10.5c-1.1,3.6-1.6,7.1-1.4,10.3c0.2,3.2,1.1,6.4,2.8,9.5c1.7,2.9,4.1,5.5,7.3,7.8c3,2.2,6.1,3.8,9.6,4.5
	C32.5,206.7,35.8,206.6,39,205.8z M114.1,73l22.3,35.8c0.6,1,0.1,2-1.5,2.9l0.9,1.5l37.6-23.4c0.9-0.5,1.6-0.9,2.1-1
	c0.5-0.3,1.1,0,1.6,0.8l1.4-0.8L171.7,78l-1.4,0.8c0.4,0.7,0.5,1.4,0.2,2c-0.2,0.7-0.7,1.3-1.6,1.8l-26.3,16.3l-19.6-31.5
	c-0.5-0.9-0.1-1.8,1.4-2.8l-0.8-1.3l-13.7,8.4l0.9,1.5L114.1,73z M528.8,753.3c2.2,5.3,3.3,10.6,3.3,16.1l-0.5,6.9
	c-2.4,15.6-12.4,27.1-29.8,34.6c-7.9,3.3-15.3,4.9-22.1,4.9c-4.9,0-9.4-0.8-13.8-2.4c-5.9-2-10.9-5.3-15.3-9.7c-4-4-7-8.5-9.2-13.6
	c-2.4-5.5-3.6-11.2-3.6-16.9c0-2.1,0.2-4.3,0.6-6.3c2.2-15.3,12.1-26.8,29.8-34.5c7.8-3.4,15.1-5.1,22.1-5.1c4.9,0,9.4,0.8,13.7,2.4
	C515.5,733.5,523.7,741.5,528.8,753.3z M513.2,771.4L513.2,771.4c-0.1-3.9-0.9-7.4-2.3-10.6c-3.6-8.3-9-13.6-16.5-16.1
	c-2.8-0.8-5.5-1.2-8.2-1.2c-3.8,0-8,0.9-12.2,2.6c-7,3-11.9,7.6-14.8,13.6c-1.7,3.6-2.6,7.4-2.6,11.2c0,3.7,0.9,7.6,2.6,11.6
	c3.2,7.8,8.7,13,16.4,15.7c2.6,0.9,5.3,1.4,8.2,1.4c3.8,0,7.8-0.9,11.9-2.6c7.1-3,12.1-7.6,14.9-13.7c1.7-3.3,2.5-7.2,2.5-11.4
	V771.4z M435.7,826.7c-0.6-0.3-1-1.1-1.2-2.2l-14.9-67.3l-0.1-1.1l0.3-1.3c0.5-0.7,1.2-1.3,2.3-1.8l-0.1-2.6l-0.1-0.6l-26,5.7
	l0.5,2.5c1.8,0.5,3,0.9,3.5,1.3c0.6,0.5,1,1.1,1.1,2.1l14.9,67.3l0.1,1.1l-0.3,1.4c-0.3,0.7-1.1,1.3-2.4,1.8l0.1,2.6l0.3,0.6l26-5.7
	l-0.6-2.5L435.7,826.7z M678.4,653c-1.1-5.8-3.9-10.5-8.6-14.2c-2.9-2.4-6.1-3.9-9.7-4.7l-4.9-0.6l-5.4,0.7c-3.3,1-6.4,2.5-9.3,4.5
	c-2.8,1.8-6.3,4.8-10.5,8.9l-6.6,6.8c-4.3,4.4-7.3,7.2-9,8.3c-1.6,1-3,1.6-4.3,1.6c-1.1,0-2.2-0.4-3.2-1.1c-1.4-1.3-2.2-2.8-2.4-4.5
	l-0.2-1.7c0-1.6,0.3-3.1,0.9-4.7c1.4-3.3,3.3-6.5,5.8-9.5c5.8-7.2,12.8-12,21.1-14.5l3.1-0.5c0.7,0,1.4,0.1,1.8,0.5l0.7,0.7l2.5-0.7
	l0.5-0.3l-9.2-20.7l-2.4,0.9c-0.3,1.9-0.7,3-1,3.4c-0.1,0.2-1.2,0.9-3.4,2.2c-6.5,3.6-11.7,6.7-15.3,9.4c-3.5,2.7-7,6.2-10.5,10.5
	c-7.2,9-10.9,17.5-10.9,25.6l0.1,2.1c0.4,6.7,3.4,12.2,9,16.7c3.4,2.6,7,4.3,10.7,4.9l3.4,0.3c3,0,5.9-0.6,8.5-1.9
	c2.6-1.1,5-2.6,7.2-4.3l9.6-9l6.5-6.5c4-4.1,7.2-6.8,9.3-8.1c1.1-0.7,2.2-1,3.4-1c1,0,2,0.4,3.2,1.3c1.3,1.1,2.1,2.6,2.6,4.3
	l0.3,2.8l-0.4,3.2c-0.9,3.8-2.9,7.9-6.2,12c-3,3.6-6.9,7-11.5,10.1c-4.5,3.1-8.5,4.9-11.9,5.5l-1.5,0.1c-1.4,0-2.6-0.4-3.5-1.1
	l-0.6-0.5l-3,1l10.5,20.6l2.4-1l0.7-3l3.5-1.9c10.7-4.9,19.4-11.6,26.3-20.1c3.8-4.7,6.8-9.5,9-14.6c2.2-5.1,3.2-9.7,3.2-13.8
	C678.8,655.7,678.7,654.3,678.4,653z M629.6,723.6l1.9,2.4l-24.4,18.7l-0.3-0.5l-1.6-2l0.3-0.4c0.9-0.9,1.4-1.6,1.4-2.2l-0.3-0.5
	c-0.2-0.5-1.8-1.3-5-2.2l-27.2-9l-16.7,13l16.1,20.8c0.6,0.7,1.3,1.2,2.1,1.4h0.4l2.4-0.5l0.5-0.2l1.8,2.5L560,781.2l-1.8-2.4
	l0.3-0.3c0.8-1,1.3-1.9,1.3-2.7v-0.1c0-0.7-0.3-1.4-0.9-2.2l-42-54.5c-0.7-0.9-1.4-1.4-2.1-1.6l-0.4-0.1c-0.7,0-1.6,0.2-2.5,0.6
	l-0.5,0.2l-1.8-2.4l40.8-31.4c5.1-4,9.2-6.7,12.4-8.2c3.4-1.8,6.8-2.8,10.1-3h1.4c3.4,0,6.7,0.8,9.6,2.4c3.4,1.9,6.3,4.4,8.7,7.6
	c3.6,4.7,5.5,9.5,5.5,14.3c0,5.9-2.7,11.7-8.2,17.6l25.4,7.9c4.7,1.4,7.8,2.2,9.2,2.2h0.5c1.6,0,2.9-0.5,4.1-1.4L629.6,723.6z
	 M579.9,700.6c0-1.9-0.8-3.9-2.4-6c-2.1-2.8-4.5-4.1-7.2-4.1l-1.3,0.1c-1.7,0.3-3.1,0.7-4.3,1.5c-1.7,1-4,2.7-7,4.9l-21.1,16.3
	l12.1,15.9l21.3-16.3l6.5-5.5c1.1-1.1,2-2.4,2.6-3.8C579.7,702.6,579.9,701.6,579.9,700.6z M89.9,753.6l57.3-29.2
	c3-1.5,5.1-2.3,6.1-2.4l0.4-0.1c1,0,2.2,0.4,3.7,1.1l0.4,0.1l2-2.2L138,701.6l-2,2.2l0.3,0.5c0.9,1.2,1.4,2.3,1.4,3.2l-0.5,1.5
	c-0.7,0.7-2.1,1.6-3.9,2.4l-38.7,20.2l15.7-41.6c0.6-1.6,1.1-2.6,1.5-3.1c0.6-0.6,1.2-0.9,2-0.9s1.7,0.3,2.9,0.9l0.3,0.3l1.6-1.9
	l0.5-0.4l-23-20.5l-2,2.3l0.3,0.3c0.9,1.1,1.3,2.2,1.3,3c0,0.7-0.2,1.2-0.6,1.6c-0.1,0.3-1.1,0.9-3,1.8l-40.4,20l16.1-41.3
	c0.6-1.6,1.2-2.7,1.8-3.3c0.4-0.6,1-0.9,1.8-0.9c0.7,0,1.6,0.3,2.6,0.9l0.5,0.2l2-2.2l-22.1-19.7l-2,2.3l0.3,0.5
	c0.9,1.3,1.4,2.6,1.4,3.8c0,1.4-0.5,3.5-1.6,6.4L29.9,700l-2.2,4.9c-0.7,0.7-1.5,1.1-2.2,1.1c-0.7,0-1.6-0.3-2.6-0.9l-0.6-0.3
	l-1.5,1.8l-0.4,0.5l20.3,18.2l1.8-1.8l0.3-0.3l-0.3-0.5c-0.9-1.4-1.3-2.5-1.3-3.4c0-0.6,0.2-1.1,0.6-1.6c0.3-0.4,1.7-1.1,4-2.2
	l43.7-21.9l-16.7,44.8c-1,3-1.8,4.7-2.2,5c-0.6,0.7-1.3,1.1-2,1.1c-0.9,0-1.8-0.3-2.9-1.1l-0.5-0.3l-2,2.4l20.7,18.5l2-2.4l-0.3-0.3
	c-1-1.2-1.5-2.2-1.5-3.1c0.1-0.6,0.3-1.1,0.7-1.6C85.6,756,87.2,755,89.9,753.6z M170.7,719.3l27,13.2l-0.2,0.6l-1.6,2l-1.3-0.1
	c-1.3,0.1-2.3,0.5-2.8,1.3c-0.4,0.8-0.6,2.1-0.6,3.8h-0.4l0.4,0.1l0.3,69.9c0,2.8,0.3,4.9,0.7,6.1c0.4,1.3,1.2,2.3,2.4,3.2l0.5,0.3
	l-1.4,2.8l-28-13.8l1.4-2.7l0.3,0.1l2,0.3c1.1-0.1,2-0.6,2.6-1.6c0.3-0.5,0.4-1.7,0.4-3.6V789l-32.1-16.1l-9.9,7.9
	c-1.1,0.9-2,1.8-2.5,2.6l-0.2,1.1c0,1,0.7,2,2,3.2l0.5,0.3l-1.4,2.7l-25.4-12.4l1.4-2.7l0.5,0.1l2.2,0.3l1.5-0.3
	c0.9-0.2,2.4-1.1,4.4-2.8l54.3-43c1.5-1.1,2.6-2.2,3.2-3.4l0.3-1.3c0-0.9-0.5-2-1.7-3l-0.3-0.3L170.7,719.3z M173.7,745.9l-23,18.6
	l22.1,10.9L173.7,745.9z M298.5,774.2c0.3,1.8,0.5,3.6,0.5,5.5c0,2-0.2,4-0.6,6c-2.5,12.6-10.7,18.8-24.4,18.8h-1.6l10.5,24.3
	c1.9,4.4,3.4,7.3,4.4,8.6c0.9,1.2,2.2,2.1,3.8,2.6l0.6,0.1l-0.7,3l-30-6.2l0.1-0.6l1-2.4h0.5c1.4-0.1,2.2-0.3,2.4-0.9v-0.1
	c0-0.8-0.5-2.6-1.7-5.2l-10.7-26.4l-20.6-4.3l-5.5,25.9l-0.1,0.9c0,0.6,0.1,1.1,0.3,1.4l2.6,2.5l-0.6,2.5l-26-5.5l0.1-0.6l0.9-2.4
	c1.1,0,2.1-0.2,2.8-0.6c0.5-0.3,0.9-1.1,1.2-2.2l14.1-67.4v-1.1l-0.2-1.3c-0.2-0.4-1.1-1.3-2.8-2.6l0.6-2.5l50.4,10.5
	c6.1,1.4,10.9,2.7,14.3,4.1c3.6,1.6,6.5,3.5,8.7,5.9C295.8,767.1,297.6,770.4,298.5,774.2z M280.1,778.9c0-2.6-0.9-4.7-2.6-6.1
	c-1.2-1-2.6-1.8-4-2.4c-1.7-0.6-4.5-1.3-8.2-2l-26.3-5.5l-4,19.6l26.2,5.5l8.4,1.4h0.9l3.6-0.5c3-0.9,5-3.2,5.9-7.2L280.1,778.9z
	 M394.2,836.4c0.9,0.7,2.6,1.5,5.1,2.2l-0.6,2.6l-30,0.5l0.4-2.5c1.7-0.3,2.5-0.9,2.5-1.6v-0.1c0-0.5-0.9-2.1-2.9-4.7l-16.9-23
	l-21.1,0.8l1,26.3c0.1,1,0.3,1.8,0.9,2.4c0.4,0.4,1.4,1,3.1,1.8l-0.5,2.6l-26.1,0.3l0.5-2.6c1.3-0.4,2.2-0.9,2.6-1.4
	c0.4-0.4,0.6-1.1,0.6-2.2l-2.7-69c0-1.1-0.3-1.9-0.7-2.4c-0.3-0.3-1.4-1-3.2-1.9l0.5-2.5l50.8-2l5.1-0.1l9.7,0.6
	c3.8,0.5,7.2,1.7,10,3.5c3.3,1.9,5.8,4.7,7.6,8.4c1.6,3.6,2.5,7.2,2.6,11.1v1.4c0.1,12.6-6.8,20.3-20.7,23.2l16.1,21.1
	C390.6,832.7,392.6,835.1,394.2,836.4z M373.6,784.8l-0.1-0.6c-0.1-4-1.6-6.7-4.5-8.1c-1.5-0.7-3-1.1-4.5-1.2l-3.2-0.2l-32.1,0.5
	l0.9,20.8l26.7-1.1l8.5-0.7c1.6-0.3,3-0.8,4.3-1.6C372.3,791.1,373.5,788.4,373.6,784.8z"/>
</svg>
