<?xml version="1.0" encoding="utf-8"?>
<!-- Generator: Adobe Illustrator 25.0.0, SVG Export Plug-In . SVG Version: 6.00 Build 0)  -->
<svg version="1.1" id="Layer_1" xmlns="http://www.w3.org/2000/svg" xmlns:xlink="http://www.w3.org/1999/xlink" x="0px" y="0px"
	 viewBox="0 0 627.3 899.1" style="enable-background:new 0 0 627.3 899.1;" xml:space="preserve">
<style type="text/css">
	.st0{fill:#FFFFFF;}
	.st1{fill:#6F253C;}
	.st2{fill:#FDB619;}
	.st3{fill:#0B1F41;}
</style>
<path class="st0" d="M627.2,358.9c-0.2-34.4-0.9-68.3-2-101c-1.4-40.6-3.2-74.1-5.7-105.6l-0.5-6.5l-0.4-4.7l-3.6-3l-5.1-4.2
	c-8.5-7-18.1-13.9-28.5-20.5c-10-6.4-20.6-12.3-31.3-17.5c-37.6-18.4-75.9-34.4-105-46.3c-47.4-19.3-86.4-34.2-122.9-46.8l-4.6-1.6
	L314.3,0L311,1l-5.4,1.6l-0.2,0.1L305,2.7c-36.5,12.6-75.5,27.5-122.9,46.8c-29.1,11.9-67.4,27.9-105,46.3
	c-10.8,5.3-21.3,11.1-31.3,17.5c-10.3,6.6-19.9,13.5-28.5,20.5l-5.1,4.2l-3.6,3l-0.4,4.7l-0.5,6.5c-2.5,31.4-4.3,65.9-5.7,105.6
	c-1.1,32.7-1.8,66.7-2,101H0l0,11v11.2c0,51.2,6.9,102,20.4,150.9c13.4,48.5,33.5,95.6,59.6,140.1c29.3,49.8,65.8,95.7,108.2,136.2
	c36.1,34.4,75.1,63.5,112.8,83.9l7.4,4l5.3,2.9l5.3-2.9l7.4-4c37.7-20.5,76.7-49.5,112.8-83.9c42.5-40.5,78.9-86.3,108.2-136.2
	c26.2-44.5,46.2-91.6,59.6-140.1c13.5-48.9,20.4-99.7,20.4-150.9v-11.2L627.2,358.9L627.2,358.9z M616.3,381.1
	c0,101.4-27.1,198.2-78.5,285.4c-28.9,49.2-65.1,94.4-106.3,133.8c-32.8,31.3-70.5,60.5-110.4,82.2l-7.4,4l-7.4-4
	c-39.9-21.7-77.6-50.9-110.4-82.2c-41.3-39.4-77.4-84.6-106.3-133.8C38.1,579.2,11,482.5,11,381.1v-11.2h0
	c0.1-37.2,0.8-74.5,2-111.7c1.2-35.1,2.9-70.2,5.6-105.1l0.5-6.5l5.1-4.2c8.7-7.1,17.9-13.7,27.4-19.7c9.8-6.2,19.9-11.8,30.3-16.9
	c34.1-16.6,69.3-31.7,104.3-46c40.2-16.4,81.2-32.4,122.3-46.6l5.4-1.6l4.6,1.6c41.1,14.2,82.1,30.2,122.3,46.6
	c35.1,14.3,70.3,29.4,104.3,46c10.4,5.1,20.5,10.7,30.3,16.9c9.5,6,18.7,12.6,27.4,19.7l5.1,4.2l0.5,6.5c2.8,35,4.5,70.1,5.6,105.1
	c1.3,37.2,1.9,74.4,2,111.7h0V381.1z M275.4,218.5l-6.6-48.1h9l5.4,42.9h1.1l5.3-42.9h8.9l-7.9,54.9c-3.4,0-6.8,0-10.2,0
	L275.4,218.5z M242.9,246.7l-17.6,112.5c-7.2,0.4-14.4,0.8-21.5,1.2l-10.7-13.3l-13.9-100.5h19.1l11.9,93.1l1.1,0l12.5-93.1H242.9z
	 M134.6,246.7l1.4,6.8l-16.5,114.8c6.3-0.9,12.6-1.6,19-2.3l3-24l0.5,0c6.2-0.5,12.4-1.1,18.6-1.4l0.6,0l3,22.8
	c6.3-0.6,12.7-1.1,19-1.6l-17.2-115.2C155.6,246.7,145.1,246.7,134.6,246.7z M158.2,322c-4.5,0.2-9,0.5-13.4,0.9l-0.8,0.1l6.8-54.3
	l1.1,0l7,53.3L158.2,322z M95.3,246.7l17.2,17.6v13.3l-18.8,19.7v-27.6l-2.6-2.5h-0.2c-3.8,0-7.6,0-11.4,0h-0.2l-2.6,2.5v0.3
	c0,32.8,0,65.7,0,98.5v0.3l2.7,2.6l11.9-1.5l2.6-3v-11.3l18.8-21.4l-0.1,34.9l-17.1,20l-20.7,3.3l-16.8-15.7
	c0-37.1-0.1-74.1-0.1-111.2l17.1-18.8C81.7,246.7,88.5,246.7,95.3,246.7z M329.9,172.8l-0.9-2.3c3.5,0,7.1,0,10.6,0l-0.8,2.1l0,44.1
	h14l-2,8.7h-20.8V172.8z M243.7,172.8l-0.9-2.3c7.2,0,14.4,0,21.6,0v8.7h-11.9v12.5h9.3v7.8h-9.3v17.3h11.9v8.7h-20.7V172.8z
	 M216.5,172.8l-0.9-2.3c3.5,0,7.1,0,10.6,0l-0.8,2.1l0,44.1h14l-2,8.7h-20.8V172.8z M193.7,225.3l-7.5-7.4c0-13.3,0-26.7,0-40
	l7.5-7.4c3.6,0,7.2,0,10.8,0l7.5,7.4v6.3l-8.8,8.5v-12.4l-1.1-1.1h-0.3c-1.8,0-3.6,0-5.4,0h-0.3l-1.1,1.1v0.3c0,11.6,0,23.2,0,34.8
	v0.3l1.1,1.1h0.3c1.8,0,3.6,0,5.4,0h0.3l1.1-1.1v-3.9l8.8-8.5v14.8l-7.5,7.4C200.9,225.3,197.3,225.3,193.7,225.3z M407.3,225.3
	l-8.7-30.9v30.9h-8.8v-52.5l-0.9-2.3c3.1,0,6.3,0,9.4,0l8.9,28.8v-28.8h8.8v54.9H407.3z M453.2,246.7l1.2,5.6v109.9
	c6.3,0.5,12.5,1,18.8,1.6v-46.2l6-3.6l12.7,19.8v32c6.3,0.7,12.5,1.5,18.8,2.3v-40.4l-16.8-23l16.8-10.2h0v-29.8l-17.3-18
	C480,246.7,466.6,246.7,453.2,246.7z M491.6,286.7l-18.4,12.5v-33.5l15.5,0l2.9,2.7h0V286.7z M420.5,170.5v54.9h18.9l7.5-7.4v-1.4
	c0-12.4,0-24.8,0-37.2v-1.4l-7.5-7.4H420.5z M438.1,180.5c0,11.6,0,23.2,0,34.8v0.3l-1.1,1.1h-7.7v-37.5h7.7l1.1,1.1V180.5z
	 M253.4,246.7l1.4,6.4l-16.5,105.5c6.3-0.3,12.7-0.5,19-0.7l3-22.1l0.5,0c6.2-0.2,12.4-0.5,18.6-0.5h0.6l3,22
	c6.4-0.1,12.7-0.2,19.1-0.2l-17-110.4C274.6,246.7,264,246.7,253.4,246.7z M277,317.4c-4.5,0-8.9,0.1-13.4,0.3l-0.7,0l7.5-54.6
	l7.4,54.3L277,317.4z M420.2,341.8l25.1,1.2v18.5c-14.7-1.1-29.4-1.9-44.1-2.6V252.5l-1.3-5.8c15.1,0,30.3,0,45.4,0v18.4h-25.1v25.6
	l19.8,0.6V307l-19.8-0.6V341.8z M537.9,292l37.1,34.2l-0.1,50.4l-16.8,15.6l-22-3.3L519.1,369l0-35.3l18.9,14.1v18.8l2.7,3l12.5,1.5
	l2.7-2.6v-33.3l-37.1-34v-36.6l17.3-17.9H558l17,18.8v34l-19-13.9v-16.1l-2.9-2.5h-12.5l-2.7,2.4V292z M329.5,339.3h29.9l-3.6,18.2
	c-8.5-0.2-17.1-0.3-25.6-0.4l-0.6,0v0.2h-18.8V251.8l-2.4-5.1c7.8,0,15.7,0,23.5,0l-2.4,5.4V339.3z M367.7,246.7
	c7.1,0,14.2,0,21.3,0l-1.2,5.6l0,106.1c-6.3-0.2-12.5-0.4-18.8-0.6V252.1L367.7,246.7z M325,225.3h-20.7v-52.5l-0.9-2.3
	c7.2,0,14.4,0,21.6,0v8.7h-11.9v12.5h9.3v7.8h-9.3v17.3H325V225.3z M376.9,225.3h9.1l-8-54.9c-5,0-10.1,0-15.1,0l0.6,2.2l-7.4,52.7
	h9.1l1.3-10.8h9.1L376.9,225.3z M367.6,205l2.8-22.2h1.1l2.8,22.2H367.6z"/>
<path class="st1" d="M269,599.7c48.5-12.2,98.2-30.9,147.3-52.1c-29.8,27-77.5,58-125.3,75.3c-24.5,8.9-49.3,14.1-72.1,13.9
	c-22.4,0.2-46.7-7.7-56.8-26.2c-12.9-23.7,0.7-54,13.7-74.7c12-19.2,29-38.9,50.2-59.1c-15.4,2.7-31.3,7-46.1,10.7
	c18.3-16.1,62.4-45.5,111.8-66.1l-0.2,39.5c-21.4,16.9-39.9,37.4-56.9,60.6c-21.8,30-31.1,56.2-23.4,69.5
	C218.4,604.4,241.4,605.5,269,599.7z M616.3,369.9L616.3,369.9l0,11.2c0,101.4-27.1,198.2-78.5,285.4
	c-28.9,49.2-65.1,94.4-106.3,133.8c-32.8,31.3-70.5,60.5-110.4,82.2l-7.4,4l-7.4-4c-39.9-21.7-77.6-50.9-110.4-82.2
	c-41.3-39.4-77.4-84.6-106.3-133.8C38.1,579.2,11,482.5,11,381.1v-11.2h0c0.1-37.2,0.8-74.5,2-111.7c1.2-35.1,2.9-70.2,5.6-105.1
	l0.5-6.5l5.1-4.2c8.7-7.1,17.9-13.7,27.4-19.7c9.8-6.2,19.9-11.8,30.3-16.9c34.1-16.6,69.3-31.7,104.3-46
	c40.2-16.4,81.2-32.4,122.3-46.6l5.4-1.6l4.6,1.6c41.1,14.2,82.1,30.2,122.3,46.6c35.1,14.3,70.3,29.4,104.3,46
	c10.4,5.1,20.5,10.7,30.3,16.9c9.5,6,18.7,12.6,27.4,19.7l5.1,4.2l0.5,6.5c2.8,35,4.5,70.1,5.6,105.1
	C615.5,295.4,616.2,332.7,616.3,369.9z M605.1,381.1L605.1,381.1c0-38.8-0.7-81.1-2.1-122.5c-1.2-36.7-3.1-72.6-5.6-104.6l-0.1-1.8
	l-1.4-1.2c-6.2-5.1-15.1-11.8-26.3-18.9c-8.4-5.3-18.2-10.9-29.2-16.3c-30.3-14.8-67.3-30.9-103.7-45.7
	c-47.4-19.4-93.5-36.6-121.7-46.4h-2.8c-28.2,9.7-74.3,27-121.7,46.4c-36.3,14.8-73.4,30.9-103.7,45.7c-11,5.4-20.8,11-29.2,16.3
	c-11.2,7.1-20.1,13.8-26.3,18.9l-1.4,1.2l-0.1,1.8c-2.5,32.1-4.4,68-5.6,104.6c-1.4,41.4-2,83.7-2,122.5h0
	C22.2,490,53.9,584,99.1,660.8c61,103.6,146.7,176.1,212.5,211.9l2.1,1.1l2.1-1.1c65.8-35.8,151.5-108.3,212.5-211.9
	C573.4,584,605.1,490,605.1,381.1z M325.8,443.2l0-5.3c0,0,0,0,0,0V443.2z M379.8,398.7c-25.4,1.4-27.6,2.4-53.9,9.9l-0.1,16.7
	l0-55.4l0,67.9c0.6-0.3,3.2-1.5,11.3-5.3c9.9-4.6,18.8-7.5,26.5-8.8c24.6-4.2,35.9,5.6,17.3,42.4c7.8-4.8,73.8-45.5,74-44.4
	C438.7,405,412.5,396.9,379.8,398.7z"/>
<path class="st2" d="M379.4,390.1c-14.8,0.8-30.2,3.6-45.6,7.7l0-27.8h-8l0.1,38.7c26.3-7.6,28.6-8.6,53.9-9.9
	c32.7-1.8,58.9,6.3,75.2,23.1c-0.2-1.1-66.3,39.6-74,44.4c18.6-36.9,7.3-46.6-17.3-42.4c-7.7,1.3-16.6,4.2-26.5,8.8
	c-8.2,3.8-10.8,5-11.3,5.3v5.3c8.2-4.7,16.1-8.6,22.9-11.1c6.7-2.5,14.1-4.5,19.6-5.4c10.1-1.6,18.4,1,16.2,12.4
	c-3.4-0.6-7-0.5-10.3-0.1c-7.7,1.3-17.5,4.4-27.4,9c-7.4,3.3-14.3,7-21,10.9l0,114.6c-4.1,1.5-8.3,2.9-12.4,4.2l0.2-98.5l0.2-78.4
	L314,370l-7.7,0l-0.2,33.9l-0.5,82l-0.6,94.9c-1.8,0.6-3.6,1.1-5.4,1.7l0.9-105.8c0,0,0,0-0.1,0.1l0.2-17.2l0.8-89.5h-9.4l-0.3,42.1
	c-4.2,1.7-8.5,3.5-12.6,5.4c-46.6,20.7-87.8,48.1-105.4,63.6l-27.5,41.9c10.8-3,21.3-5.5,32-8.1c-10.5,13.5-20.2,28.7-26.4,44.7
	c-21,54.7,1.4,98.4,65,102.8c24.3,1.7,51.4-2.3,73-9l0,5.4c-0.2,0.1-0.4,0.2-0.5,0.3c-9,5-17.4,12.5-23.6,20.7
	c-14,18.5-17.3,33.3-17.9,56c-0.4,6.6-1.6,14.9-3.8,21.3l-6.1,17.3l17.5-6c17.6-6,25.3-21.2,35-34.3c0,16,0.1,31.9,0.3,47.9
	c-4.8,5.6-10.9,20.1-12.2,32.8c24.5,3.5,62.1-6.3,61.6-33.4l-0.9-1.6c13.9-11.5,22.5-25.5,24.1-44.2c0.6-6.7-0.1-14.1-2-21.2
	c2.3,0.4,4.6,0.8,6.8,1.2l8.2,1.5l1.8-8.1c2.2-9.7,1.3-19.5-2.3-28.7c-7-18-23.8-27.4-42.2-30.2l0-14.6c9.9-4.8,19.5-10,28.6-15.3
	c23.5-13.7,44.9-29.6,59.2-41.6l9.5-48.9c-22.9,11.6-57.2,26.2-92.7,39.6c-1.5,0.6-3.1,1.1-4.6,1.7l0-106.5
	c12.4-6.9,32.8-16.3,45.9-17.2c-6.4,16-23.9,47.9-32.7,65.9l119.2-68.2l0.1-23.6C445.6,396.6,414.9,388.1,379.4,390.1z M326.2,437.9
	C326.2,437.9,325.9,438,326.2,437.9L326.2,437.9z M166.8,508.7l13.1-17.4c10.1-2.5,22.5-5.3,32.6-7.5c-5,5.3-11.4,11.9-16.7,18
	C184.6,504.3,173.1,507.2,166.8,508.7z M369.3,706.9c-7-1.3-14.3-2.7-21.8-3.6c8.6,13.1,18.9,49.6-23.1,77.3l6.9,4.4
	c-2.7,17.7-35.2,22.1-40.8,21.4c1.1-14.2,9-22.2,9-22.4c-0.2-14.8-0.7-50.9-0.3-71.6c-20,14.5-25.6,40.5-46.6,47.6
	c2.5-6.5,4-15.6,4.4-24.2c0.5-20.9,2.8-34,15.7-51c6-7.9,13.7-14.4,20.9-18.4c1.5-0.8,3.3-1.6,5.3-2.4l0.1-13.9
	c0.5-0.2,1-0.4,1.5-0.6l0,0c1.7-0.6,3.3-1.3,5-1.9c-0.3,0.1-0.6,0.3-0.9,0.4l-0.1,19.1c0,2.6,8.8,2.6,8.8-2.4l0-20.2
	c0,0-0.1,0-0.1,0.1c4.3-1.8,8.5-3.6,12.6-5.5l0,19.1c2.3-0.1,4.4,0,6.2,0.2C362.2,662.9,374.3,684.5,369.3,706.9z M414.6,573
	c-25.3,21.3-68.7,50.6-117,68.5c-19.5,7.6-46,12.2-68.9,12.6c-33.5,0.6-62.8-11.5-71.2-37.5c13.4,16.8,37.4,24.9,61.3,25.1
	c66.9,0.8,152.2-45.5,200.4-91.4L414.6,573z M416.3,547.5c-29.8,27-77.5,58-125.3,75.3c-24.5,8.9-49.3,14.1-72.1,13.9
	c-22.4,0.2-46.7-7.7-56.8-26.2c-12.9-23.7,0.7-54,13.7-74.7c12-19.2,29-38.9,50.2-59.1c-15.4,2.7-31.3,7-46.1,10.7
	c18.3-16.1,62.4-45.5,111.8-66.1l-0.2,39.5c-21.4,16.9-39.9,37.4-56.9,60.6c-21.8,30-31.1,56.2-23.4,69.5
	c7.1,13.5,30.1,14.6,57.7,8.7C317.5,587.5,367.2,568.8,416.3,547.5z M246.4,535.1c-17.7,24.3-26.6,44.4-25.4,58.1
	c-3.4-2.5-5.9-6.2-6.9-10.8c-2.8-13.4,7.3-33.5,21.1-53.3c13.7-19.8,31.7-40,44.9-52.8c3.3-3.1,7.2-6.5,11.4-9.9l0,17.8
	C274.5,499,260.9,515.2,246.4,535.1z M291.2,496.7l-0.7,88.4c-18.2,5.2-34.8,8.7-47.8,8.9c-13.4,0.2-14.8-2.1-10.8-15.3
	C239.1,554.4,269.7,517.7,291.2,496.7z M368.1,494.1l12-23.1c14.3-8.6,68-41.1,78.2-47.2l0.3,16.4
	C455.3,442.2,376,489.7,368.1,494.1z M307.5,155.7l0.2-39.1c4.8,7.8,6.7,24.9,6.7,37.3l0,1.8l-2.9,0L307.5,155.7L307.5,155.7z
	 M303.4,155.7h-9.7l0-4c0.3-39.1,1.6-67.6,20.3-97.2c20.3,30.4,20.9,57.6,19.8,96.8v4.4h-8v-4.4c1-30.4-0.7-57.9-10.6-76.5
	c-9.4,17.9-11.7,45.6-11.8,76.5L303.4,155.7z M334.3,665.7c10.2,1.9,33,14.7,28.9,33.9c-17.9-3.8-34.9-4.2-49.4,0
	c-31.1,8.7-34.7,32.2-52.5,48.2c2.3-8.9,2.3-20.2,3.7-30.2c2.9-20.2,16.7-38.2,36-46c0,0.3,0.1,0.7,0.2,0.9c1.1,2.8,4.8,5,9.7,5
	c5.8,0,11-3.1,11.3-6.8c9.5,2.4,16.6,7.1,19.4,12.5c-7.3-0.3-32.6,1.2-52,21.7c25.7-19.2,55-16.7,67.6-12.8
	C356.2,679.4,338.7,669.3,334.3,665.7z M605.1,381.1L605.1,381.1c0-38.8-0.6-81.1-2-122.5c-1.2-36.7-3.1-72.6-5.6-104.6l-0.1-1.8
	l-1.4-1.2c-6.2-5.1-15.1-11.8-26.3-18.9c-8.4-5.3-18.2-10.9-29.2-16.3c-30.3-14.8-67.3-30.9-103.7-45.7
	c-47.4-19.4-93.5-36.6-121.7-46.4h-2.8c-28.2,9.7-74.3,27-121.7,46.4c-36.3,14.8-73.4,30.9-103.7,45.7c-11,5.4-20.8,11-29.2,16.3
	c-11.2,7.1-20.1,13.8-26.3,18.9l-1.4,1.2l-0.1,1.8c-2.5,32.1-4.4,68-5.6,104.6c-1.4,41.4-2,83.7-2,122.5h0
	C22.2,490,53.9,584,99.1,660.8c61,103.6,146.7,176.1,212.5,211.9l2.1,1.1l2.1-1.1c65.8-35.8,151.5-108.3,212.5-211.9
	C573.4,584,605.1,490,605.1,381.1L605.1,381.1z M596.5,381.1c0,107.2-31.2,199.8-75.7,275.4c-59.5,101-142.7,171.9-207.1,207.5
	C249.2,828.4,166,757.5,106.5,656.5C62,580.8,30.8,488.3,30.8,381.1h0c0-38.6,0.6-80.8,2-122.2c1.2-35.6,3-70.6,5.5-102.4
	c5.8-4.7,13.9-10.7,24-17.1c8.3-5.3,17.8-10.7,28.3-15.9c30.1-14.7,67-30.7,103.1-45.5c46.4-19,91.7-35.9,119.9-45.7
	C341.9,42.1,387.1,59,433.5,78c36.1,14.8,73,30.7,103.1,45.5c10.5,5.1,20,10.6,28.3,15.9c10.1,6.4,18.2,12.4,24,17.1
	c2.5,31.8,4.3,66.8,5.5,102.4C595.9,300.3,596.5,342.4,596.5,381.1L596.5,381.1z M340.2,702.7c17.1,17.8,8.4,51.5-0.6,57.1
	c7.6-17.8,10-43.6-7.9-57.2C334.5,702.5,337.3,702.5,340.2,702.7z M304,709.4c2.4-1.4,5.1-2.6,7.9-3.6l-0.1,74.9
	c0,4.7-8.1,4.4-8.1,0.9C303.8,776.5,304,729.4,304,709.4z M340.5,736.7c-0.7,13.9-8.1,28-20.3,35.8c8-18.6,10.7-39.8,5.7-60.9
	c-0.3-1.4-0.7-2.7-1.1-4.1c3,0.3,5.6,1.6,7.8,3.7C338.1,716.5,341,726.5,340.5,736.7z"/>
<path d="M594.5,258.9c-1.2-35.6-3-70.6-5.5-102.4c-5.8-4.7-13.9-10.7-24-17.1c-8.3-5.3-17.8-10.7-28.3-15.9
	c-30.1-14.7-67-30.7-103.1-45.5c-46.4-19-91.7-35.9-119.9-45.7C285.4,42.1,240.2,59,193.8,78c-36.1,14.8-73,30.7-103.1,45.5
	c-10.5,5.1-20,10.6-28.3,15.9c-10.1,6.4-18.2,12.4-24,17.1c-2.5,31.8-4.3,66.8-5.5,102.4c-1.4,41.4-2,83.6-2,122.2h0
	c0,107.2,31.2,199.8,75.7,275.4C166,757.5,249.2,828.4,313.7,864c64.5-35.6,147.7-106.5,207.1-207.5
	c44.5-75.6,75.7-168.2,75.7-275.4h0C596.5,342.4,595.9,300.3,594.5,258.9z M420.5,170.5h18.9l7.5,7.4v1.4c0,12.4,0,24.8,0,37.2v1.4
	l-7.5,7.4h-18.9V170.5z M440,291.3V307l-19.8-0.6v35.4l25.1,1.2v18.5c-14.7-1.1-29.4-1.9-44.1-2.6V252.5l-1.3-5.8
	c15.1,0,30.3,0,45.4,0v18.4h-25.1v25.6L440,291.3z M398.4,170.5l8.9,28.8v-28.8h8.8v54.9h-8.7l-8.7-30.9v30.9h-8.8v-52.5l-0.9-2.3
	C392.1,170.5,395.2,170.5,398.4,170.5z M367.7,246.7c7.1,0,14.2,0,21.3,0l-1.2,5.6l0,106.1c-6.3-0.2-12.5-0.4-18.8-0.6V252.1
	L367.7,246.7z M362.8,170.5c5,0,10.1,0,15.1,0l8,54.9h-9.1l-1.4-10.8h-9.1l-1.3,10.8H356l7.4-52.7L362.8,170.5z M308.3,246.7
	c7.8,0,15.7,0,23.5,0l-2.4,5.4v87.2h29.9l-3.6,18.2c-8.5-0.2-17.1-0.3-25.6-0.4l-0.6,0v0.2h-18.8V251.8L308.3,246.7z M303.4,170.5
	c7.2,0,14.4,0,21.6,0v8.7h-11.9v12.5h9.3v7.8h-9.3v17.3H325v8.7h-20.7v-52.5L303.4,170.5z M352.7,216.7l-2,8.7h-20.8v-52.5l-0.9-2.3
	c3.5,0,7.1,0,10.6,0l-0.8,2.1l0,44.1v0H352.7z M293.7,151.6c0.3-39.1,1.6-67.6,20.3-97.2c20.3,30.4,20.9,57.6,19.8,96.8v4.4h-40.1
	L293.7,151.6z M253.4,246.7c10.6,0,21.2,0,31.7,0l17,110.4c-6.4,0-12.7,0.1-19.1,0.2l-3-22h-0.6c-6.2,0-12.4,0.2-18.6,0.5l-0.5,0
	l-3,22.1c-6.3,0.2-12.7,0.4-19,0.7l16.5-105.5L253.4,246.7z M277.8,170.5l5.4,42.9h1.1l5.3-42.9h8.9l-7.9,54.9c-3.4,0-6.8,0-10.2,0
	l-5-6.8l-6.6-48.1H277.8z M264.4,170.5v8.7h-11.9v12.5h9.3v7.8h-9.3v17.3h11.9v8.7h-20.7v-52.5l-0.9-2.3
	C250,170.5,257.2,170.5,264.4,170.5z M226.2,170.5l-0.8,2.1l0,44.1h14l-2,8.7h-20.8v-52.5l-0.9-2.3
	C219.2,170.5,222.7,170.5,226.2,170.5z M186.2,177.9l7.5-7.4c3.6,0,7.2,0,10.8,0l7.5,7.4v6.3l-8.8,8.5v-12.4l-1.1-1.1h-0.3
	c-1.8,0-3.6,0-5.4,0h-0.3l-1.1,1.1v0.3c0,11.6,0,23.2,0,34.8v0.3l1.1,1.1h0.3c1.8,0,3.6,0,5.4,0h0.3l1.1-1.1v-3.9l8.8-8.5v14.8
	l-7.5,7.4c-3.6,0-7.2,0-10.8,0l-7.5-7.4C186.2,204.6,186.2,191.2,186.2,177.9z M198.3,246.7l11.9,93.1l1.1,0l12.5-93.1h19.1
	l-17.6,112.5c-7.2,0.4-14.4,0.8-21.5,1.2l-10.7-13.3l-13.9-100.5H198.3z M112.5,264.3v13.3l-18.8,19.7v-27.6l-2.6-2.5h-0.2
	c-3.8,0-7.6,0-11.4,0h-0.2l-2.6,2.5v0.3c0,32.8,0,65.7,0,98.5v0.3l2.7,2.6l11.9-1.5l2.6-3v-11.3l18.8-21.4l-0.1,34.9l-17.1,20
	l-20.7,3.3l-16.8-15.7c0-37.1-0.1-74.1-0.1-111.2l17.1-18.8c6.8,0,13.7,0,20.5,0L112.5,264.3L112.5,264.3z M141.6,342l-3,24
	c-6.3,0.7-12.7,1.5-19,2.3L136,253.5l-1.4-6.8c10.5,0,21,0,31.5,0l17.2,115.1c-6.3,0.5-12.7,1-19,1.6l-3-22.8l-0.6,0
	c-6.2,0.3-12.4,0.8-18.6,1.4L141.6,342z M466.2,444.9L347,513.1c8.7-18,26.3-49.8,32.7-65.9c-13.1,0.9-33.5,10.2-45.9,17.2l0,106.5
	c1.5-0.6,3.1-1.1,4.6-1.7c35.5-13.4,69.8-28,92.7-39.6l-9.5,48.9c-14.3,12.1-35.8,27.9-59.2,41.6c-9.1,5.3-18.6,10.5-28.6,15.3
	l0,14.6c18.3,2.8,35.1,12.3,42.2,30.2c3.6,9.2,4.5,19,2.3,28.7l-1.8,8.1l-8.2-1.5c-2.2-0.4-4.5-0.8-6.8-1.2c1.9,7.1,2.6,14.5,2,21.2
	c-1.6,18.7-10.1,32.7-24.1,44.2l0.9,1.6c0.5,27.1-37.1,36.9-61.6,33.4c1.3-12.6,7.4-27.2,12.2-32.8c-0.2-16-0.4-32-0.3-47.9
	c-9.8,13.2-17.4,28.3-35,34.3l-17.5,6l6.1-17.3c2.3-6.4,3.5-14.7,3.8-21.3c0.5-22.7,3.9-37.5,17.9-56c6.2-8.2,14.6-15.7,23.6-20.7
	c0.2-0.1,0.4-0.2,0.5-0.3l0-5.4c-21.5,6.7-48.6,10.7-73,9c-63.7-4.4-86-48.1-65-102.8c6.2-16.1,15.9-31.2,26.4-44.7
	c-10.8,2.6-21.2,5.1-32,8.1l27.5-41.9c17.5-15.4,58.8-42.9,105.4-63.6c4.2-1.8,8.4-3.6,12.6-5.4l0.3-42.1h41.7l0,27.8
	c15.4-4.1,30.8-6.9,45.6-7.7c35.5-1.9,66.2,6.5,86.9,31.2L466.2,444.9z M510.8,264.7v29.8L494,304.7l16.8,23v40.4
	c-6.3-0.9-12.5-1.6-18.8-2.3v-32l-12.7-19.8l-6,3.6v46.2c-6.3-0.6-12.5-1.1-18.8-1.6V252.3l-1.2-5.6c13.4,0,26.9,0,40.3,0
	L510.8,264.7L510.8,264.7z M575,376.6l-16.8,15.6l-22-3.3L519.1,369l0-35.3l18.9,14.1v18.8l2.7,3l12.5,1.5l2.7-2.6v-33.3l-37.1-34
	v-36.6l17.3-17.9H558l17,18.8h0v34l-19-13.9v-16.1l-2.9-2.5h-12.5l-2.7,2.4V292l37.1,34.2L575,376.6z M437,179.1l1.1,1.1v0.3
	c0,11.6,0,23.2,0,34.8v0.3l-1.1,1.1h-7.7v-37.5C429.3,179.1,437,179.1,437,179.1z M374.3,205h-6.7l2.8-22.2h1.1L374.3,205z
	 M263.6,317.7l-0.7,0l7.5-54.6l7.4,54.3l-0.7,0C272.5,317.4,268.1,317.5,263.6,317.7z M151.9,268.7l7,53.3l-0.7,0
	c-4.5,0.2-9,0.5-13.4,0.9l-0.8,0.1l6.8-54.3L151.9,268.7z M291.2,496.7l-0.7,88.4c-18.2,5.2-34.8,8.7-47.8,8.9
	c-13.4,0.2-14.8-2.1-10.8-15.3C239.1,554.4,269.7,517.7,291.2,496.7z M488.7,265.7l2.9,2.7v18.4l-18.4,12.5v-33.5L488.7,265.7z"/>
<path class="st3" d="M325.8,443.2c8.2-4.7,16.1-8.6,22.9-11.1c6.7-2.5,14.1-4.5,19.6-5.4c10.1-1.7,18.4,1,16.2,12.4
	c-3.4-0.6-7-0.5-10.3-0.1c-7.7,1.3-17.5,4.4-27.4,9c-7.4,3.3-14.3,7-21,10.9l0,114.6c-4.1,1.5-8.3,2.9-12.4,4.2l0.2-98.5l0.2-78.4
	L314,370l11.9-0.1L325.8,443.2z M368.1,494.1c7.9-4.5,87.2-51.9,90.5-53.8l-0.3-16.4c-10.1,6.1-63.9,38.6-78.2,47.2L368.1,494.1z
	 M325.9,155.7l-22.4-0.1l0-4.5c0-30.9,2.4-58.6,11.8-76.5c10,18.6,11.6,46.1,10.6,76.5V155.7z M314.5,153.9
	c0-12.4-1.9-29.5-6.7-37.3l-0.2,39.1c0,0,0,0,0,0l6.9,0L314.5,153.9z M218.7,641.8c-23.9-0.3-47.9-8.3-61.3-25.1
	c8.5,26,37.8,38.1,71.2,37.5c22.9-0.4,49.4-5,68.9-12.6c48.4-17.9,91.8-47.2,117-68.5l4.5-22.6C370.9,596.3,285.6,642.6,218.7,641.8
	z M305,580.7l0.6-94.9l0.5-82l0.2-33.9l-4.7,0l-0.8,89.5l-0.2,17.2c0,0,0,0,0.1-0.1l-0.9,105.8C301.4,581.8,303.2,581.3,305,580.7z
	 M369.3,706.9c-7-1.3-14.3-2.7-21.8-3.6c8.6,13.1,18.9,49.6-23.1,77.3l6.9,4.4c-2.7,17.7-35.2,22.1-40.8,21.4
	c1.1-14.2,9-22.2,9-22.4c-0.2-14.8-0.7-50.9-0.3-71.6c-20,14.5-25.6,40.5-46.6,47.6c2.5-6.5,4-15.6,4.4-24.2
	c0.5-20.9,2.8-34,15.7-51c6-7.9,13.7-14.4,20.9-18.4c1.5-0.8,3.3-1.6,5.3-2.4l0.1-13.9c0.5-0.2,1-0.4,1.5-0.6l0,0
	c1.7-0.6,3.3-1.3,5-1.9c-0.3,0.1-0.6,0.3-0.9,0.4l-0.1,19.1c0,2.6,8.8,2.6,8.8-2.4l0-20.2c0,0-0.1,0-0.1,0.1
	c4.3-1.8,8.5-3.6,12.6-5.5l0,19.1c2.3-0.1,4.4,0,6.2,0.2C362.2,662.9,374.3,684.5,369.3,706.9z M312,705.8c-2.9,1-5.5,2.2-7.9,3.6
	c0,20-0.2,67.1-0.2,72.2c0,3.6,8.1,3.8,8.1-0.9L312,705.8z M340.5,736.7c0.5-10.1-2.3-20.2-7.9-25.5c-2.2-2.1-4.8-3.4-7.8-3.7
	c0.4,1.4,0.7,2.7,1.1,4.1c5,21.1,2.3,42.3-5.7,60.9C332.4,764.6,339.7,750.6,340.5,736.7z M340.2,702.7c-2.8-0.2-5.7-0.2-8.5-0.2
	c18,13.6,15.5,39.5,7.9,57.2C348.5,754.2,357.2,720.6,340.2,702.7z M334.3,665.7c4.4,3.5,21.8,13.7,23.1,26.4
	c-12.6-3.9-41.9-6.4-67.6,12.8c19.4-20.5,44.7-22.1,52-21.7c-2.9-5.3-9.9-10.1-19.4-12.5c-0.3,3.8-5.4,6.8-11.3,6.8
	c-4.9,0-8.5-2.1-9.7-5c-0.1-0.3-0.2-0.6-0.2-0.9c-19.3,7.7-33.1,25.7-36,46c-1.4,10-1.4,21.4-3.7,30.2c17.7-16,21.3-39.4,52.5-48.2
	c14.5-4.2,31.5-3.8,49.4,0C367.3,680.5,344.5,667.7,334.3,665.7z M212.5,483.8c-10.1,2.2-22.5,5-32.6,7.5l-13.1,17.4
	c6.3-1.6,17.8-4.5,29-6.9C201.1,495.7,207.5,489.1,212.5,483.8z M221.1,593.2c-1.2-13.7,7.7-33.8,25.4-58.1
	c14.5-19.9,28-36.1,45.1-51l0-17.8c-4.3,3.4-8.2,6.8-11.4,9.9c-13.2,12.7-31.2,33-44.9,52.8c-13.7,19.9-23.8,39.9-21.1,53.3
	C215.1,587,217.7,590.7,221.1,593.2z"/>
</svg>
