<?xml version="1.0" encoding="utf-8"?>
<!-- Generator: Adobe Illustrator 25.0.0, SVG Export Plug-In . SVG Version: 6.00 Build 0)  -->
<svg version="1.1" id="Layer_1" xmlns="http://www.w3.org/2000/svg" xmlns:xlink="http://www.w3.org/1999/xlink" x="0px" y="0px"
	 viewBox="0 0 726 873" style="enable-background:new 0 0 726 873;" xml:space="preserve">
<style type="text/css">
	.st0{fill:#FFFFFF;}
	.st1{fill:#DFD3B0;}
	.st2{fill:#284E37;}
</style>
<g>
	<path class="st0" d="M687.4,377.9c-17.4-40.7-42-77.4-73.2-109.1c9.3-14.9,15.6-29,18.7-42.2c9-38.2,6.8-78-6.2-112.1
		c-15.4-40.3-45.4-72.6-86.8-93.4c-2.9-1.5-6.3-2.3-9.8-2.3c-5.9,0-11.4,2.3-15.5,6.4C500.4,15,484.8,6.9,468.2,1l-0.1,0L468,1
		c-2.3-0.8-4.7-1.2-7.1-1.2c-8.3,0-16,4.8-19.6,12.3c-4.8,10-1.3,22,8.2,27.9l0.3,0.2c1.7,1.1,15.4,10,30.4,25.1c-0.8,0-1.6,0-2.4,0
		c-1.2,0-2.6,0-4.1,0.1c-10.7,0.6-19.5,9-20.5,19.8c-1,10.8,6.1,20.7,16.6,23.2c0,0,0,0,0,0c2.5,0.7,24.7,6.8,52.4,25.9
		c2.8,10.4,7,31.3,5.4,57.2c-1.7,28.9-9.8,55.2-24.3,78.7c-3.8-23.1-12.5-43.2-25.8-59.9c-13.5-16.9-31.4-30-53.4-38.9l-0.1,0
		l-0.1,0c-2.6-1-5.4-1.5-8-1.5c-7.9,0-15.3,4.3-19.1,11.3l0,0.1l0,0.1c-5.3,9.7-2.5,21.8,6.5,28.2c0.9,0.7,2.2,1.7,3.7,3
		c-6.6,2.8-11.5,8.7-12.9,16.1c-0.9,5-0.1,10,2.2,14.3c-2.6-1.1-5.4-1.7-8.4-1.7c-0.6,0-1.6,0-2.8,0.2c-10.4,1.3-18.4,9.8-19,20.4
		l0,0l0,0l0,0.1c-0.4,8-1.2,47,18.1,85.8c-7,2.2-15.9,4.1-25.7,4.1c-7.8,0-15.4-1.2-22.7-3.6c9-18.6,19.1-48.4,17.8-85.9
		c-0.4-10.9-8.5-19.7-19.4-21l-0.6-0.1h-0.1c-0.4,0-1-0.1-1.7-0.1c-2.7,0-5.4,0.5-7.8,1.4c2.5-4.8,3.3-10.5,1.8-16.1l0-0.1l0-0.1
		c-1.8-6.5-6.5-11.7-12.5-14.2c1.4-1.1,2.8-2.1,4.2-3.2l0,0l0,0c8.8-6.3,11.6-17.9,6.8-27.5l0-0.1l0-0.1
		c-3.8-7.3-11.2-11.9-19.4-11.9c-2,0-4,0.3-6.2,0.9l-0.1,0l-0.1,0c-0.3,0.1-27.5,8.5-51,34.5c-12.3,13.6-26.1,35.1-30.7,65.9
		c-1.1-1.8-2.2-3.6-3.3-5.4c-22.7-39.3-27.5-83.3-14.4-131.1c9-6,31.5-20.1,51.3-25.5c10.3-2.8,17.1-12.9,15.9-23.4
		c-1.2-10.6-9.8-18.8-20.4-19.4l-0.3,0h0c-0.6,0-2-0.1-4-0.1c-0.4,0-0.8,0-1.2,0c8.3-8.7,18.6-17.7,31-25.7
		c9.1-5.9,12.5-17.3,8.1-27.2C276,4.8,268.2-0.3,259.7-0.3c-2.2,0-4.1,0.3-6,0.9c-4.4,1.3-24.5,7.8-47.8,24.7c-4-4-9.4-6.2-15.3-6.2
		c-3,0-6,0.6-8.7,1.8l-0.1,0l-0.1,0c-2.5,1.1-25.4,11.7-48.8,35.2c-22.2,22.2-49.2,60.8-51.6,118.3c-1.3,30.1,7.8,61.6,27,93.7
		C76.8,300,52,336.9,34.6,377.9C15.8,421.8,6.2,468.7,6.2,517.2c0,47.9,9.4,94.4,27.9,138.2c17.8,42.2,43.4,80.1,76.1,112.8
		c32.6,32.6,70.5,58.2,112.8,76.1c43.8,18.5,90.3,27.9,138.2,27.9s94.4-9.4,138.2-27.9c42.2-17.8,80.1-43.4,112.8-76.1
		c32.6-32.6,58.2-70.5,76.1-112.8c18.5-43.8,27.9-90.3,27.9-138.2C715.9,468.9,706.3,422,687.4,377.9z M678,651.1
		c-17.3,40.9-42.1,77.7-73.7,109.3C572.7,792,536,816.8,495,834.1c-42.4,17.9-87.5,27-133.9,27c-46.4,0-91.5-9.1-133.9-27
		c-40.9-17.3-77.7-42.1-109.3-73.7c-31.6-31.6-56.4-68.3-73.7-109.3c-17.9-42.4-27-87.5-27-133.9c0-46.8,9.2-92.3,27.5-135
		c17.6-41.3,42.8-78.2,74.9-109.9c0.9-0.9,1.9-1.6,3-2.1c-21.4-33-31.6-64.9-30.3-95.4c2.2-53.8,27.5-90.1,48.4-111
		c22.5-22.6,44.6-32.5,45.5-32.9c1.4-0.6,2.9-0.9,4.4-0.9c3.6,0,7.1,1.8,9.1,5c1.5,2.4,2,5.3,1.5,7.9c27.8-23.7,53.9-31.3,55.6-31.8
		c1-0.3,1.9-0.4,2.9-0.4c4.1,0,8,2.4,9.8,6.4c2.2,4.9,0.5,10.6-4,13.5c-23.4,15.1-40.2,34-50.8,48.6c12.1-2.3,21.9-2.7,27-2.7
		c2.2,0,3.6,0.1,3.7,0.1c5.3,0.3,9.5,4.4,10.1,9.7c0.6,5.2-2.8,10.1-7.9,11.5c-23.4,6.4-49.4,23.4-57.9,29.3
		c-15.3,52.2-10.5,100.4,14.3,143.4c7.2,12.6,15.3,23,22.5,31c-2.6-43.6,13.5-72.2,29.2-89.5c20.7-22.9,45-31,46-31.3
		c1.1-0.3,2.2-0.5,3.3-0.5c3.9,0,7.7,2.2,9.6,5.9c2.4,4.8,0.9,10.6-3.4,13.7c-11.5,8.2-19.3,16.7-24.6,24.4c9.6-2.6,17.3-3,17.9-3
		c0.1,0,0.3,0,0.4,0c4.8,0,9.1,3.2,10.4,7.9c1.3,4.9-0.8,10-5.2,12.4c-21.1,11.6-32.9,25.4-35.1,41c-2.5,17.3,7.1,34.2,14.2,44
		c21.6-25.8,32.1-66.1,32.2-66.5c1.3-4.8,5.6-8.1,10.5-8.1c0.4,0,0.8,0.1,1.2,0.1c5.3,0.6,9.4,5,9.6,10.4
		c1.5,43.4-13.2,75.6-22.2,91.1c12,6,24.8,9.1,38.1,9.1c17.4,0,32.3-5.2,41.4-9.4c-25.6-42.1-22.9-89-22.8-91.1
		c0.3-5.3,4.4-9.6,9.7-10.1c0.4-0.1,0.7-0.1,1.1-0.1c4.8,0,9.1,3.2,10.4,8c8.3,30.9,23.6,53.9,33,65.9
		c11.6-17.1,15.9-32.8,12.6-46.7c-5.6-24.1-32.5-36.9-32.8-37c-4.6-2-7.1-6.9-6.2-11.8c0.9-4.9,5-8.5,10-8.8
		c1.1-0.1,2.1-0.1,3.2-0.1c5,0,9.7,0.6,14,1.7c-8-10.9-17.6-19.3-22.5-22.8c-4.5-3.2-5.8-9.2-3.2-14c2-3.6,5.7-5.6,9.5-5.6
		c1.4,0,2.8,0.3,4.1,0.8c40.6,16.5,65.7,48,72.6,91.2c1.6,10,2.1,19.5,1.9,27.9c26.9-30.8,41.7-67.2,44.1-108.5
		c1.9-31.4-4.4-56.2-6.9-64.6c-32.9-23.4-59-29.7-59.3-29.8c-5.3-1.2-8.8-6.1-8.3-11.5c0.5-5.4,4.9-9.6,10.3-9.8
		c1-0.1,2.2-0.1,3.3-0.1c9.4,0,19.9,1.7,29.3,3.7c-22-30.6-51.4-49.1-51.8-49.3c-4.7-2.9-6.5-8.8-4.1-13.8c1.8-3.8,5.6-6.1,9.7-6.1
		c1.2,0,2.4,0.2,3.6,0.6c22.4,7.9,40.5,19.3,54.9,31.6c-0.6-2.8-0.1-5.9,1.6-8.4c2.1-3.1,5.5-4.8,9-4.8c1.6,0,3.3,0.3,4.8,1.1
		c39,19.6,67.2,49.9,81.6,87.6c12.3,32.1,14.3,69.6,5.8,105.6c-3.6,15.3-11.8,31.2-22.3,46.5c0.8,0.4,1.5,1,2.2,1.6
		c32.2,31.7,57.5,68.7,75.2,110c18.3,42.8,27.6,88.3,27.7,135C705,563.6,695.9,608.7,678,651.1z M312.5,252.8
		c-0.7,1.4-1.3,2.8-1.7,4.3l0,0.1l0,0.1c-0.3,1-7.2,26.8-20.7,49.1c-3.1-6.8-5.3-14.6-4.2-22.3C287.5,272.7,296.4,262.2,312.5,252.8
		z M407.2,252.4c3.4,1.8,22.2,12.3,26.1,29.2l0,0l0,0c1.7,7,0.7,14.9-3,23.5c-7.5-11.8-16-28.2-21.3-48.1
		C408.6,255.4,407.9,253.8,407.2,252.4z M129,676.1l13.2,18.7l-9.3,7.2l-20.4-28.6l58.7-41.7l6.5,8.7L129,676.1z M166.2,622.1
		l-63.4,33.2l-5.4-9.5l63.5-34L166.2,622.1z M603.2,573.6l40.8,13l-10.3,34.7l-19.2-6l3.7-10.2l8.2,2.2l3.5-13.8l-19.5-5.2
		l-6.5,23.7l-38.8-11.5l10-34.5l19.2,5.2l-3.1,10.9l-8.3-2.2l-3.5,13.3l16.5,4.7L603.2,573.6z M156.1,601.9l-67.2,24.3l-4-10.7
		l40.8-14.8l-17.5-0.5l12.5-12l-40.8,13.5l-3.7-10l67.7-23.7l4.5,11.8L133.7,591l19.2,0.7L156.1,601.9z M220.6,689.1l-54.3,46.8
		l-8.5-8l11.8-18.2l-18,11.8l-7.5-7.5l45.9-55.3l7.7,7l-17.3,22.5l23.5-15.7l2.3,2.2l-14.3,23.7l21.7-16.8L220.6,689.1z
		 M340.9,456.2l8-27.5l11.3,5.5l11.4-5.5c0,0,3.8,12.3,7.8,27.3s18.5,25.3,18.5,25.3l6.2,26.2L389.3,527h-14.7l13.5-20.9l-2-12.3
		c0,0-10.3,10.3-26.3,10.3s-24.7-11.3-24.7-11.3l-3.2,13.2l15,21h-15.8l-14.3-19.3l5.8-26.5C336.4,472,340.9,456.2,340.9,456.2z
		 M394.5,417c0,0,21.8-10.3,22-10.4c5-2.5,7.4,1.6,6.3,8.9c-1.1,7.4-12.5,13.1-17.5,13.2c-5,0.1-8.2-2.2-12.3-5.8
		C388.9,419.3,394.5,417,394.5,417z M226,692.8l-38.3,60.7l9,5.7l16.8-26.2l11.8,7.8L208.6,767l9.5,6.2l38-61.2L226,692.8z
		 M220.6,723.4l9.3-14.7l11,7.3l-9.3,14.5L220.6,723.4z M297.5,415.6c-1.1-7.4,1.4-11.5,6.3-8.9c0.2,0.1,22,10.4,22,10.4
		s5.6,2.3,1.5,5.9c-4,3.5-7.3,5.9-12.3,5.8C310,428.7,298.6,423,297.5,415.6z M196.6,379.3l-4.1-18.2c0,0,31,28.7,62.3,42l-31.1-1.5
		C223.7,401.6,202.9,403.6,196.6,379.3z M514.1,675l46.3,54.7l-28.2,23.5l-45.6-54l8.3-8.2l38.7,45.7l10.5-8.8l-38.7-45.2L514.1,675
		z M497.3,401.5l-31.1,1.5c31.3-13.2,62.3-42,62.3-42l-4.1,18.2C518.2,403.5,497.3,401.5,497.3,401.5z M580.5,631.3l45.8,5.7
		l-5.3,10l-31.5-3.5l25.7,14.5l-5.2,9.8L546.7,634l5-9.9l17,8.3l-12.3-17l5.3-10.3L580.5,631.3z M492.1,737.7l1.2-8.2l-11.2-19.2
		l-10.2-3.3l-24.5,14l34.5,62.5l24.5-12.8l3.5-11.7l-12.5-20L492.1,737.7z M462.7,725.9l11.7-6.7l8,13.8l-12,7.2L462.7,725.9z
		 M485.6,768.8l-9.7-17.7l12.2-6.7l9.3,17.3L485.6,768.8z M581.9,671.7l16.8,13.8l-23.3,27.8L519.6,669l22.7-28.7l16.8,14.2
		l-6.4,8.2l-7.8-6l-8.3,10.3l37.3,29.8l8.3-10.2l-7.3-5.7L581.9,671.7z M355.9,797.4h23v12h-33.7l-1-71.7H378v10.7h-23v17.8h23.2
		v10.7h-22.3V797.4z M336.6,735.8l-19,26.2l8.7,44.8l-12-1.5l-6.7-30.3l-4.7,28.7l-11-2l12.3-71.2l10.8,1.4l-2.3,18.7l11.7-16.5
		L336.6,735.8z M296.5,729L271,796.2l-34.2-13.5l25.7-67.2l10.7,4.1l-22,56.9l12.8,5l21.5-56.7L296.5,729z M339.6,538.8h41.3
		l-10,13.5h-21.8L339.6,538.8z M432.5,788.8l2.3,11.8l-33.1,6.4l-14.5-70.2l33.2-6.4l2,10.5l-22.6,4.3l3.4,17.5l22.7-4.4l2,10.5
		L406,773l3.9,20.1L432.5,788.8z"/>
	<path class="st1" d="M153.6,253c0,0-43.6-70.3-3.8-104.6C149.8,148.4,139.3,182,153.6,253z M570.8,148.4c0,0,10.5,33.6-3.8,104.6
		C567,253,610.6,182.7,570.8,148.4z M705,517.2c0,46.4-9.1,91.5-27,133.9c-17.3,40.9-42.1,77.7-73.7,109.3
		C572.7,792,536,816.8,495,834.1c-42.4,17.9-87.5,27-133.9,27c-46.4,0-91.5-9.1-133.9-27c-40.9-17.3-77.7-42.1-109.3-73.7
		c-31.6-31.6-56.4-68.3-73.7-109.3c-17.9-42.4-27-87.5-27-133.9c0-46.8,9.2-92.3,27.5-135c17.6-41.3,42.8-78.2,74.9-109.9
		c0.9-0.9,1.9-1.6,3-2.1c-21.4-33-31.6-64.9-30.3-95.4c2.2-53.8,27.5-90.1,48.4-111c22.5-22.6,44.6-32.5,45.5-32.9
		c1.4-0.6,2.9-0.9,4.4-0.9c3.6,0,7.1,1.8,9.1,5c1.5,2.4,2,5.3,1.5,7.9c27.8-23.7,53.9-31.3,55.6-31.8c1-0.3,1.9-0.4,2.9-0.4
		c4.1,0,8,2.4,9.8,6.4c2.2,4.9,0.5,10.6-4,13.5c-23.4,15.1-40.2,34-50.8,48.6c12.1-2.3,21.9-2.7,27-2.7c2.2,0,3.6,0.1,3.7,0.1
		c5.3,0.3,9.5,4.4,10.1,9.7c0.6,5.2-2.8,10.1-7.9,11.5c-23.4,6.4-49.4,23.4-57.9,29.3c-15.3,52.2-10.5,100.4,14.3,143.4
		c7.2,12.6,15.3,23,22.5,31c-2.6-43.6,13.5-72.2,29.2-89.5c20.7-22.9,45-31,46-31.3c1.1-0.3,2.2-0.5,3.3-0.5c3.9,0,7.7,2.2,9.6,5.9
		c2.4,4.8,0.9,10.6-3.4,13.7c-11.5,8.2-19.3,16.7-24.6,24.4c9.6-2.6,17.3-3,17.9-3c0.1,0,0.3,0,0.4,0c4.8,0,9.1,3.2,10.4,7.9
		c1.3,4.9-0.8,10-5.2,12.4c-21.1,11.6-32.9,25.4-35.1,41c-2.5,17.3,7.1,34.2,14.2,44c21.6-25.8,32.1-66.1,32.2-66.5
		c1.3-4.8,5.6-8.1,10.5-8.1c0.4,0,0.8,0.1,1.2,0.1c5.3,0.6,9.4,5,9.6,10.4c1.5,43.4-13.2,75.6-22.2,91.1c12,6,24.8,9.1,38.1,9.1
		c17.4,0,32.3-5.2,41.4-9.4c-25.6-42.1-22.9-89-22.8-91.1c0.3-5.3,4.4-9.6,9.7-10.1c0.4-0.1,0.7-0.1,1.1-0.1c4.8,0,9.1,3.2,10.4,8
		c8.3,30.9,23.6,53.9,33,65.9c11.6-17.1,15.9-32.8,12.6-46.7c-5.6-24.1-32.5-36.9-32.8-37c-4.6-2-7.1-6.9-6.2-11.8
		c0.9-4.9,5-8.5,10-8.8c1.1-0.1,2.1-0.1,3.2-0.1c5,0,9.7,0.6,14,1.7c-8-10.9-17.6-19.3-22.5-22.8c-4.5-3.2-5.8-9.2-3.2-14
		c2-3.6,5.7-5.6,9.5-5.6c1.4,0,2.8,0.3,4.1,0.8c40.6,16.5,65.7,48,72.6,91.2c1.6,10,2.1,19.5,1.9,27.9
		c26.9-30.8,41.7-67.2,44.1-108.5c1.9-31.4-4.4-56.2-6.9-64.6c-32.9-23.4-59-29.7-59.3-29.8c-5.3-1.2-8.8-6.1-8.3-11.5
		s4.9-9.6,10.3-9.8c1-0.1,2.2-0.1,3.3-0.1c9.4,0,19.9,1.7,29.3,3.7c-22-30.6-51.4-49.1-51.8-49.3c-4.7-2.9-6.5-8.8-4.1-13.8
		c1.8-3.8,5.6-6.1,9.7-6.1c1.2,0,2.4,0.2,3.6,0.6c22.4,7.9,40.5,19.3,54.9,31.6c-0.6-2.8-0.1-5.9,1.6-8.4c2.1-3.1,5.5-4.8,9-4.8
		c1.6,0,3.3,0.3,4.8,1.1c39,19.6,67.2,49.9,81.6,87.6c12.3,32.1,14.3,69.6,5.8,105.6c-3.6,15.3-11.8,31.2-22.3,46.5
		c0.8,0.4,1.5,1,2.2,1.6c32.2,31.7,57.5,68.7,75.2,110C695.6,425,704.9,470.5,705,517.2z M226.7,362.8L183,344.4
		c0,0-9.1-4.5-8.4,3.4c0.7,7.9,5.4,57,26.4,64.1c21,7.1,66.4,7.4,66.4,7.4l-5.5,21.9l33.3,52.9l-16.6-16.2l-37,133.2l102.7,84.7
		l-31.3-144l47.7,56.3l46.5-56.4l-30.9,144.1L479,611.3L441,478l-15.9,16.4l34-54.6l-6.3-19.9c0,0,53.2-1.2,66.4-8.3
		c13.2-7.1,24.3-33.1,25.7-60.8c0,0,2.5-12-10.5-5.7s-40.6,16.7-40.6,16.7S596.7,285,611.7,221.7s-2-141-81.6-181
		c0,0,51.3,45,60.3,103.7c0,0-13-19.3-31.7-30.3c0,0-24.7-66.7-97.7-92.3c0,0,46.7,28.7,69,76c0,0-33-11.3-55-10.3
		c0,0,29.7,7,66,33.7c0,0,43,119.7-60.7,209c0,0,26-101.7-64.3-138.3c0,0,34.3,24.7,39.3,57c0,0-15.7-17.7-39.7-16.3
		c0,0,78.3,35.3,16.3,110.7c0,0-30.7-30.3-44-80.3c0,0-3.3,52.7,27.7,94.3c0,0-54.7,36.7-110.3,0c0,0,28.7-36.7,26.7-94.3
		c0,0-13.7,53.3-43.3,80c0,0-65.3-65.7,16.3-110.7c0,0-26,1-40,16.3c0,0,3-31,40-57.3c0,0-89.1,29-63.4,139.3
		c0,0-103.8-72.8-61.3-209.8c0,0,33.7-24.7,64.3-33c0,0-26.2-1.5-54.2,10.2c0,0,21.2-45.2,69-76c0,0-64.4,18.1-97.2,90.8
		c0,0-25,18.3-31.8,30.3c0,0,8-56.8,59.8-101.8c0,0-83.5,37-87.5,134.5S226.7,362.8,226.7,362.8z M62.7,517.5
		c0-83.1,34-158.1,88.7-212.2l-8.2-8.4C86.3,353.1,51,431.2,51,517.5c0,171.1,138.8,309.9,309.9,309.9s309.9-138.7,309.9-309.9
		c0-86.5-35.4-164.8-92.6-220.8l-8.2,8.4c55,54,89.1,129.3,89.1,212.5c0,18.9-1.8,37.4-5.2,55.4l-93-27.3
		c-13.3,99.3-98.4,175.9-201.4,175.9c-102.6,0-187.4-75.9-201.3-174.6l-90.6,24.4C64.4,553.9,62.7,535.9,62.7,517.5z M694.1,517.4
		c0-92.9-38.1-177-99.6-237.4l-9.1,9.2c59,58.1,95.7,138.9,95.7,228.3c0,176.9-143.4,320.2-320.2,320.2S40.7,694.3,40.7,517.5
		c0-89.2,36.5-169.9,95.3-228l-9-9.3c-61.3,60.4-99.3,144.4-99.3,237.2c0,184,149.2,333.2,333.2,333.2S694.1,701.4,694.1,517.4z"/>
	<path class="st2" d="M485.6,768.8l-9.7-17.7l12.2-6.7l9.3,17.3L485.6,768.8z M474.4,719.2l-11.7,6.7l7.7,14.3l12-7.2L474.4,719.2z
		 M240.9,716l-11-7.3l-9.3,14.7l11,7.1L240.9,716z M102.7,175.8c4-97.5,87.5-134.5,87.5-134.5c-51.8,45-59.8,101.8-59.8,101.8
		c6.8-12,31.8-30.3,31.8-30.3C195,40.1,259.4,22,259.4,22c-47.8,30.8-69,76-69,76c28-11.7,54.2-10.2,54.2-10.2
		c-30.6,8.3-64.3,33-64.3,33c-42.5,137,61.3,209.8,61.3,209.8C215.9,220.3,305,191.3,305,191.3c-37,26.3-40,57.3-40,57.3
		c14-15.3,40-16.3,40-16.3c-81.6,45-16.3,110.7-16.3,110.7c29.6-26.7,43.3-80,43.3-80c2,57.6-26.7,94.3-26.7,94.3
		c55.6,36.7,110.3,0,110.3,0c-31-41.6-27.7-94.3-27.7-94.3c13.3,50,44,80.3,44,80.3c62-75.4-16.3-110.7-16.3-110.7
		c24-1.4,39.7,16.3,39.7,16.3c-5-32.3-39.3-57-39.3-57c90.3,36.6,64.3,138.3,64.3,138.3c103.7-89.3,60.7-209,60.7-209
		c-36.3-26.7-66-33.7-66-33.7c22-1,55,10.3,55,10.3c-22.3-47.3-69-76-69-76c73,25.6,97.7,92.3,97.7,92.3
		c18.7,11,31.7,30.3,31.7,30.3c-9-58.7-60.3-103.7-60.3-103.7c79.6,40,96.6,117.7,81.6,181S493.8,361.8,493.8,361.8
		s27.6-10.4,40.6-16.7s10.5,5.7,10.5,5.7c-1.4,27.7-12.5,53.7-25.7,60.8c-13.2,7.1-66.4,8.3-66.4,8.3l6.3,19.9l-34,54.6L441,478
		l38,133.3l-102.7,84.5l30.9-144.1l-46.5,56.4L313,551.8l31.3,144l-102.7-84.7l37-133.2l16.6,16.2l-33.3-52.9l5.5-21.9
		c0,0-45.4-0.3-66.4-7.4c-21-7.1-25.7-56.2-26.4-64.1c-0.7-7.9,8.4-3.4,8.4-3.4l43.7,18.4C226.7,362.8,98.7,273.3,102.7,175.8z
		 M567,253c0,0,43.6-70.3,3.8-104.6C570.8,148.4,581.3,182,567,253z M466.2,403l31.1-1.5c0,0,20.9,2,27.1-22.3l4.1-18.2
		C528.5,361,497.5,389.8,466.2,403z M380.9,538.8h-41.3l9.5,13.5h21.8L380.9,538.8z M393,422.9c4.1,3.6,7.3,5.9,12.3,5.8
		c5-0.1,16.4-5.8,17.5-13.2c1.1-7.3-1.3-11.4-6.3-8.9c-0.2,0.1-22,10.4-22,10.4S388.9,419.3,393,422.9z M340.9,456.2
		c0,0-4.5,15.8-18.3,25l-5.8,26.5l14.3,19.3h15.8l-15-21l3.2-13.2c0,0,8.7,11.3,24.7,11.3s26.3-10.3,26.3-10.3l2,12.3L374.6,527
		h14.7l14.8-19.5l-6.2-26.2c0,0-14.5-10.3-18.5-25.3s-7.8-27.3-7.8-27.3l-11.4,5.5l-11.3-5.5L340.9,456.2z M297.5,415.6
		c1.1,7.4,12.5,13.1,17.5,13.2c5,0.1,8.3-2.3,12.3-5.8c4.1-3.6-1.5-5.9-1.5-5.9s-21.8-10.3-22-10.4
		C298.9,404.1,296.4,408.2,297.5,415.6z M192.5,361.1l4.1,18.2c6.3,24.3,27.1,22.3,27.1,22.3l31.1,1.5
		C223.5,389.8,192.5,361.1,192.5,361.1z M153.6,253c-14.3-71-3.8-104.6-3.8-104.6C110,182.7,153.6,253,153.6,253z M151.4,305.3
		c-54.7,54.1-88.7,129.1-88.7,212.2c0,18.4,1.7,36.4,4.9,53.9l90.6-24.4c13.9,98.7,98.7,174.6,201.3,174.6
		c103,0,188.1-76.6,201.4-175.9l93,27.3c3.4-18,5.2-36.5,5.2-55.4c0-83.2-34.1-158.5-89.1-212.5l8.2-8.4
		c57.2,56,92.6,134.3,92.6,220.8c0,171.2-138.8,309.9-309.9,309.9S51,688.6,51,517.5c0-86.3,35.3-164.4,92.2-220.6L151.4,305.3z
		 M565.1,600.5l38.8,11.5l6.5-23.7l19.5,5.2l-3.5,13.8l-8.2-2.2l-3.7,10.2l19.2,6l10.3-34.7l-40.8-13l-7.3,24.3l-16.5-4.7l3.5-13.3
		l8.3,2.2l3.1-10.9l-19.2-5.2L565.1,600.5z M546.7,634l63.3,33.8l5.2-9.8l-25.7-14.5L621,647l5.3-10l-45.8-5.7l-18.8-26.2l-5.3,10.3
		l12.3,17l-17-8.3L546.7,634z M519.6,669l55.8,44.3l23.3-27.8l-16.8-13.8l-7,9.2l7.3,5.7l-8.3,10.2L536.6,667l8.3-10.3l7.8,6
		l6.4-8.2l-16.8-14.2L519.6,669z M486.6,699.2l45.6,54l28.2-23.5L514.1,675l-8.7,7.7l38.7,45.2l-10.5,8.8L494.9,691L486.6,699.2z
		 M447.4,721l34.5,62.5l24.5-12.8l3.5-11.7l-12.5-20l-5.3-1.3l1.2-8.2l-11.2-19.2l-10.2-3.3L447.4,721z M387.2,736.8l14.5,70.2
		l33.1-6.4l-2.3-11.8l-22.6,4.3L406,773l21.9-4.2l-2-10.5l-22.7,4.4l-3.4-17.5l22.6-4.3l-2-10.5L387.2,736.8z M344.2,737.7l1,71.7
		h33.7v-12h-23v-20.5h22.3v-10.7H355v-17.8h23v-10.7H344.2z M304.2,730.5l-12.3,71.2l11,2l4.7-28.7l6.7,30.3l12,1.5l-8.7-44.8
		l19-26.2l-12.2-1.7l-11.7,16.5l2.3-18.7L304.2,730.5z M262.5,715.5l-25.7,67.2l34.2,13.5l25.5-67.2l-11-4.2L264,781.5l-12.8-5
		l22-56.9L262.5,715.5z M226,692.8l-38.3,60.7l9,5.7l16.8-26.2l11.8,7.8L208.6,767l9.5,6.2l38-61.2L226,692.8z M190,658.7L144.1,714
		l7.5,7.5l18-11.8l-11.8,18.2l8.5,8l54.3-46.8l-7-7.5l-21.7,16.8l14.3-23.7l-2.3-2.2l-23.5,15.7l17.3-22.5L190,658.7z M171.2,631.7
		l-58.7,41.7l20.4,28.6l9.3-7.2L129,676.1l48.7-35.7L171.2,631.7z M97.4,645.8l5.4,9.5l63.4-33.2l-5.3-10.3L97.4,645.8z M76.2,591.7
		l3.7,10l40.8-13.5l-12.5,12l17.5,0.5l-40.8,14.8l4,10.7l67.2-24.3l-3.2-10.2l-19.2-0.7l14.7-11.2l-4.5-11.8L76.2,591.7z M594.5,280
		l-9.1,9.2c59,58.1,95.7,138.9,95.7,228.3c0,176.9-143.4,320.2-320.2,320.2S40.7,694.3,40.7,517.5c0-89.2,36.5-169.9,95.3-228
		l-9-9.3c-61.3,60.4-99.3,144.4-99.3,237.2c0,184,149.2,333.2,333.2,333.2s333.2-149.2,333.2-333.2C694.1,424.5,656,340.4,594.5,280
		z"/>
</g>
</svg>
