<?xml version="1.0" encoding="utf-8"?>
<!-- Generator: Adobe Illustrator 25.0.0, SVG Export Plug-In . SVG Version: 6.00 Build 0)  -->
<svg version="1.1"
	 id="Layer_1" xmlns:cc="http://creativecommons.org/ns#" xmlns:dc="http://purl.org/dc/elements/1.1/" xmlns:inkscape="http://www.inkscape.org/namespaces/inkscape" xmlns:rdf="http://www.w3.org/1999/02/22-rdf-syntax-ns#" xmlns:sodipodi="http://sodipodi.sourceforge.net/DTD/sodipodi-0.dtd" xmlns:svg="http://www.w3.org/2000/svg"
	 xmlns="http://www.w3.org/2000/svg" xmlns:xlink="http://www.w3.org/1999/xlink" x="0px" y="0px" viewBox="0 0 544.5 720.9"
	 style="enable-background:new 0 0 544.5 720.9;" xml:space="preserve">
<style type="text/css">
	.st0{fill:#FFFFFF;}
	.st1{stroke:#000000;stroke-width:0.3195;}
</style>
<g id="Group" transform="translate(-104.84159,-612.36982)" inkscape:groupmode="layer" inkscape:label="Layer">
	<path class="st0" d="M380.1,626.4c76.9,0,164.8,14.1,255.3,56.5c0,106.9-17.6,203-57.7,282.4c-41.4,82-120.3,162-200.5,188.6
		c-65.9-19.5-153.6-101-199.5-188.8c-41.7-79.6-59-177.2-58.8-282.9c1-1.1,107.4-54.7,256.4-55.8
		C376.9,626.4,378.5,626.4,380.1,626.4 M380.1,612.4c-1.7,0-3.3,0-4.9,0c-78.9,0.6-145.6,15.8-187.6,28.5
		c-24.3,7.3-43.1,14.6-54.5,19.4c-7,2.9-12,5.2-15,6.6c-6.2,3-7.7,3.9-9.5,5.9l-3.6,4l0,5.4c-0.2,115.1,20.1,212.5,60.4,289.4
		c22.7,43.5,56.5,87.4,95.1,123.7c38.6,36.3,78.7,61.9,112.9,72l4.2,1.2l4.2-1.4c40.2-13.3,81.8-39.9,120.1-76.7
		c35.7-34.3,67.1-76.5,88.5-118.9c20.1-39.8,35.3-85.1,45.1-134.5c9.3-47,14.1-98.9,14.1-154.2V674l-8.1-3.8
		C559.4,631.8,471.5,612.4,380.1,612.4L380.1,612.4z"/>
	<path d="M135.5,693.2c-2.1,127.3,30.8,220.6,61.2,275.9c34.2,62.4,112.3,145.9,181.2,168c93.6-32.4,177.7-144,205.9-224.9
		c27.4-78.8,34.9-126.2,35.2-219.5C470.3,624.2,265,627.7,135.5,693.2z M237.6,845.7c-0.9-2.3-47.4-120.9-47.4-120.9
		s0.7,134.6,0.7,134.7c-0.1,0.1,0.2,2.2-1.9,3c-2.1,0.8-15.7,5.5-15.7,5.5s-2.4-0.1-2.4-2.4l0.2-161.6c0,0-0.6-1.7,2.3-2.8
		c2.8-1.1,21.9-8.1,21.9-8.1s2.4-0.9,3,0.5c0.6,1.4,48.9,122.9,48.9,122.9l-1-135.2c0,0-0.1-2.4,2.3-3c2.4-0.5,16.8-3.7,16.8-3.7
		c-0.1,0,2.1-0.3,2.1,2s-0.3,162.1-0.3,162.1s-0.3,2.8-2.4,3.2c-2.1,0.4-23.6,5.5-23.5,5.5C241.2,847.4,238.5,848,237.6,845.7z
		 M258.7,989.9c25.6,33.5,75.6,38.9,75.6,38.9l0.2-10.3c-68.6-16-72.2-34.3-76.6-37c-1.6-31.4,11.3-64,17.2-69.4
		c16-0.2,32.4,1.3,59.8,15.3l-0.2-8.5c-8-3.4-29.5-17.7-55.7-13.7c20.8-28.3,49.8-41.7,64-44.8c49.2-6.8,110.7,35.2,127.7,104.9
		c-14.8,6.8-39.2,2.4-54.1-5.4c0,0,1.1,1.8-2.8,6.8c0,0,1.6-0.2,5.4,6c4.7,1.1,35.8,12.4,53.7,1.6c0,0,1.8,9.8,1.6,25.5
		c0,0-24.9,11.6-50,16.2l0.1,8.4c0,0,28.9-5.6,49.4-15.8c0,0-0.4,9.6-3.5,21.4c-12,5.8-11.7,7-48.7,26.6c-34.2,17-56.5,29.4-94.3,24
		C284.5,1066.4,261.7,1018.8,258.7,989.9z M337.5,1086.4c48.7,7,88.6-21.6,131-48C448.9,1102.4,354.1,1098.6,337.5,1086.4z
		 M464.7,1055.4c5.1-8.1,12-21.6,10.8-22.1c1.7-1.2,4.1-3.2,5.4-2C480.5,1037.8,464.7,1055.4,464.7,1055.4z M484.2,1028.1
		c-2.4-2.5-2.8-2.3-6-1.4c4.8-18.5,4-20,4.2-22.9c0,0,7.2-3,13.1-14.4C494.8,998.2,492.2,1013.9,484.2,1028.1z M496.7,976.1
		c-3.7,10.3-8.4,16.2-14.5,20.1c0.1-17.8-2.8-27.2-2.8-27.2c10.8-9.5,12.9-24.3,12.9-24.3C498,957,496.7,976.1,496.7,976.1z
		 M492,782.5l17.4,3.3c0,0,1.9,0,2,2.5l0.1,24.6c0,0,0.8,22.6,40.6,28.6c0,0,16,3.6,15.8-11.6L568,817c0,0-0.3-12.1-18-29.4
		l-38.3-38.5c0,0-13.7-13.7-16.4-31.8c0,0-1.3-17.3,4.7-27.1c0,0,12.9-22.5,59.2-0.5c0,0,23.6,9,26.5,32.7l1.3,27.4
		c0,0-0.2,2.8-2.6,2.3c-2.4-0.5-17.3-6.4-17.3-6.4s-2-1-1.8-2.5c0.1-1.5,0.1-22,0.1-22s-0.3-11.2-14.5-18.9c0,0-9.2-5.9-24.3-5.4
		c-0.6,0.1-9,0.3-9.6,12.6c0,0-0.7,14.4,5.3,22.3c0,0,9.3,12.4,21.1,24.2l19.1,20c0,0,16.7,17.3,21.6,27.5c0,0,5,7.5,5.5,26.1
		c0,0,2.2,27.4-19.8,28.6c0,0-16.6,3.3-48.2-10c0,0-29.4-10.4-31.8-37.9l-0.2-25.6C489.6,784.9,489.5,782.4,492,782.5z M386,663.1
		c2.9,0.1,53.9,0.5,100.2,9.2c0,0,2.4,0.5,2.4,2.4s0,11.3,0,11.3s-0.3,3-2.6,2.5c-2.3-0.5-19-3.7-39-5.9v147.8c0,0,0.6,2.9-2.1,2.6
		l-17.2-1.4c0,0-2.5,0.2-2.6-2.4l-0.2-148.4c0,0-22.8-2.5-38.7-1.8c0,0-2.2,0.2-2.2-2.1c0-2.4-0.1-11.9-0.1-11.9
		S383.3,663,386,663.1z M485.6,930.4c0,0,1.3,24.1-8.3,29c-9-29.5-42.1-96.8-111.4-104.1C423.6,849.3,477.8,890.9,485.6,930.4z
		 M373.2,665c0,2.6,0,10.7,0,11.4s-0.2,2.6-2.4,2.6c-2.1,0-39.1-0.1-63.8,4.9l-0.2,56.2c0,0,17.2-3.7,52.4-4.1c0,0,1.9-1.2,1.9,1.8
		s0,10.9,0,10.9s0.2,3.1-2.3,2.8s-40.5,1.3-52.3,4l-0.1,63.4c0,0,20.6-3.7,63.8-4.6c0,0,2.8-0.8,2.8,2.4s0,10.1,0,10.1
		s0.7,3.2-2.8,3.2s-51.2,0.8-82,6.9c0,0-3.1,0.5-3.1-1.7L284.9,673c0,0-0.8-2.4,3.3-2.8c4.2-0.5,25.8-5.5,81.2-6.9
		C369.4,663.2,373.2,662.4,373.2,665z M360.3,1062.4c10-0.2,20,0.3,29.9-0.4c12.7-1.9,24.6-12.3,25.2-25.7c0.1-15.9,0.1-31.9,0-47.8
		c-1.2-8.9-7.6-17.2-16.1-20.1c8.5-4.7,11.1-14.9,10.4-24c-0.3-10.5,0.3-21.1-0.6-31.6c-0.9-9.6-7-19.1-16.7-21.5
		c-8.3-2.2-17-0.9-25.5-1.3c-7.1,0.1-14.2-0.1-21.2,0.2c-1.5,0.4-2.4,2.1-2.3,3.6c0.1,55.1,0.1,110.2,0.3,165.3
		C345.9,1065.4,354.9,1061.2,360.3,1062.4z M396.5,992.8l0.1,34.4c0.1,18.7-13,17.2-13,17.2s-17.6,0.1-19.2,0.1
		c-1.6,0-1.5-1.1-1.5-1.1l0.1-64.9h12.1C395,978.3,396.5,992.8,396.5,992.8z M363.4,907.5l16.2,0.1c11.7,0.1,10.7,10,10.7,10
		l-0.1,28.4c-0.1,14.4-13.7,14.5-13.7,14.5s-12.1-0.1-12.9,0c-0.9,0.1-0.8-0.7-0.8-0.7s-0.1-50.7-0.1-51.5
		C362.7,907.6,363.4,907.5,363.4,907.5z M375.2,626.4c-149,1.1-255.4,54.7-256.4,55.8c-0.2,105.7,17.1,203.3,58.8,282.9
		c45.9,87.8,133.6,169.3,199.5,188.8c80.2-26.6,159.1-106.6,200.5-188.6c40.1-79.4,57.7-175.5,57.7-282.4
		C542.9,639.6,453.2,625.8,375.2,626.4z M569.8,961.3c-46.5,90.4-127.6,162.5-192.4,184.3c-72.7-22-154.2-108.9-192.8-182.8
		c-56.8-108.9-59.6-232.1-56.3-275.6c1-1.1,103.7-51.2,247.2-52.3c75.2-0.6,161.8,12.6,251.3,53.6
		C627.7,796.8,607.5,888.1,569.8,961.3z"/>
	<path class="st1" d="M166.1,1252.7c0.7-0.8,10.6-5.6,10.3-17.2l0.1-30.7c0.3-9.2-7.6-18.6-18.3-18.7l-35.1-0.2l0.1,143.4
		c0,0,0,1.7,0.6,1.7s36.6,0,36.6,0c1.2,0,20.9-5,21-22.5v-38.7C181,1263.1,175.1,1253.9,166.1,1252.7z M136.8,1246.2
		c0,0-0.1-46-0.1-46.9s0.5-0.7,0.5-0.9l13.8,0.1c12.5,0.2,11.3,9.2,11.3,9.2l0.1,26.7c-0.2,13.1-15.5,12.3-15.5,12.3s-8.8,0-9.5,0
		S136.8,1246.2,136.8,1246.2z M154.7,1318.6c0,0-16.9-0.1-17.3-0.1c-0.5,0-0.4-0.6-0.4-0.6l-0.1-57.4c0,0-0.1-0.3,0.5-1l12.9,0.1
		c19-0.1,17.6,16.6,17.6,16.6l0.1,25.9C168.1,1319.2,154.7,1318.6,154.7,1318.6z M248.5,1240.6v-34.4c0,0-1.6-20.1-25.6-20h-33.4
		l0.6,142.9c0,0,0.2,1.7,1,1.5s10.9,0,10.9,0s1.5-0.2,1.5-1.9c0-1.7,0.2-66.4,0.2-66.4l11.8-0.2l25.7,68.5h12.6c0,0,1-0.2,1.1-1
		v-2.2l-25.1-66.4C232.3,1261.1,248.6,1253.7,248.5,1240.6z M203.6,1249.5l-0.1-51l18.9,0.1c13-0.1,11.9,13.3,11.9,13.3l-0.1,26.3
		c0.1,10.9-9.9,11.3-9.9,11.3L203.6,1249.5L203.6,1249.5z M257.5,1215.3l0.2,87.6c0.3,39.9,61,40.6,60.9,0.4l-0.2-88.4
		C318.8,1172.1,257.3,1175,257.5,1215.3z M305,1302.5c-0.2,23.5-34,22.5-33.8,0v-89.1l0,0c0.2-22,33.8-21.3,33.8,1V1302.5z
		 M327,1215l0.2,87.6c-0.1,39.9,61,40.6,60.9,0.4l-0.2-88.4C388.3,1171.8,326.8,1174.7,327,1215z M374.5,1302.2
		c-0.2,23.5-34,22.5-33.8,0v-89.1c0.2-22,33.8-21.3,33.8,1V1302.2z M456.9,1326.6c0,0,0.1,1.4,0,2.6c0,1.2-1.3,1-1.3,1H444
		c-1.2,0-1.4-1.2-1.4-1.2l-24.7-68l-7.4,13.5v54.1c0.2,2-1.6,1.5-1.7,1.6c0,0-9.2,0-10.8,0c-1.3,0-1.2-1.5-1.2-1.5l-0.2-142.2
		c-0.3-2.1,1.4-1.6,1.6-1.7l10.7,0.1h0.6c1.2,0,1,1.5,1,1.5l0.1,60.8l31.4-61.6c0.1-0.4,0.5-0.5,0.9-0.6h12.7c1.8,0,1.1,2.2,1.1,2.2
		l-29.7,56.4L456.9,1326.6z M513.6,1319.4v9.1c0,1.5-1.2,1.8-1.2,1.8l-48-0.1c-0.8,0-1.6-1.4-1.6-1.4l-0.1-141.1
		c0-2.4,1.6-2.4,1.6-2.4l11.2,0.1l0,0c1.1-0.1,1.6,1.5,1.6,1.5l0.1,130.9h34.7C514,1317.9,513.6,1319.4,513.6,1319.4z M566.5,1187.7
		l-29.4,80.2v61.3c0,1.5-1.5,1.5-1.5,1.5s-10,0.1-10.9,0c-0.9-0.1-0.7-1.5-0.7-1.5l-0.3-61.4c0,0-27.7-78-28.1-79.6s1.5-2.6,1.5-2.6
		h10.5c1.8,0,2.6,1.5,2.6,1.5l20.8,61.7c0,0,20.2-59.2,20.8-61.3c0.5-2,2-2,2-2s8.4,0.1,11.1,0
		C567.6,1185.2,566.5,1187.7,566.5,1187.7z M631,1187v142.1c0,1.9-1.4,1.6-1.4,1.6h-15.3c-1.1-0.1-1.9-1.3-1.9-1.3l-28.8-116.8
		c0,0,0.6,114.2,0.5,116.2s-1.8,2-1.8,2s-8.8-0.1-10.4-0.1s-1.1-1.6-1.1-1.6s0-140,0.1-141.8s1.5-1.9,1.5-1.9h14.7l0,0
		c1.6,0,1.7,1.3,1.7,1.3l30.2,121.5l-1.8-121.3c0-1.5,1.5-1.4,1.5-1.4l10.4,0.1C630.9,1185.8,631,1187,631,1187z"/>
	<path class="st0" d="M421.8,1056.8c37-19.6,36.7-20.8,48.7-26.6c3.1-11.9,3.5-21.4,3.5-21.4c-20.5,10.2-49.4,15.8-49.4,15.8
		l-0.1-8.4c25.1-4.6,50-16.2,50-16.2c0.2-15.7-1.6-25.5-1.6-25.5c-17.9,10.7-49-0.5-53.7-1.6c-3.7-6.2-5.4-6-5.4-6
		c3.9-5,2.8-6.8,2.8-6.8c14.8,7.8,39.2,12.2,54.1,5.4c-16.9-69.7-78.5-111.7-127.7-104.9l0,0c-14.2,3.1-43.2,16.4-64,44.8
		c26.2-4.1,47.7,10.3,55.7,13.7l0.2,8.5c-27.4-14-43.8-15.5-59.8-15.3c-5.9,5.4-18.8,38-17.2,69.4c4.4,2.7,8,21,76.6,37l-0.2,10.3
		c0,0-50.1-5.3-75.6-38.9c3,28.9,25.7,76.5,68.8,91C365.4,1086.3,387.7,1073.9,421.8,1056.8z M343.2,893.8L343.2,893.8
		c-0.1-1.5,0.7-3.2,2.3-3.6c7-0.3,14.2-0.1,21.2-0.2c8.5,0.3,17.2-1,25.5,1.3c9.8,2.3,15.8,11.9,16.7,21.5c1,10.5,0.4,21.1,0.6,31.6
		c0.7,9-1.9,19.3-10.4,24c8.5,2.9,15,11.2,16.1,20.1c0.1,15.9,0.1,31.9,0,47.8c-0.6,13.4-12.5,23.7-25.2,25.7
		c-9.9,0.8-19.9,0.2-29.9,0.4c-5.4-1.1-14.4,3-16.8-3.3C343.4,1004,343.3,948.9,343.2,893.8z M468.5,1038.5
		c-19.6,63.9-114.3,60.1-131,48l0,0C386.2,1093.4,426.1,1064.8,468.5,1038.5z M375,978.5c20-0.2,21.5,14.3,21.5,14.3l0.1,34.4
		c0.1,18.7-13,17.2-13,17.2s-17.6,0.1-19.2,0.1s-1.5-1.1-1.5-1.1l0.1-64.9H375z M264.6,841.9c-2.2,0.4-23.6,5.5-23.5,5.5
		s-2.6,0.7-3.5-1.6s-47.4-120.9-47.4-120.9s0.7,134.6,0.7,134.7c-0.1,0.1,0.2,2.2-1.9,3c-2.1,0.8-15.7,5.5-15.7,5.5
		s-2.4-0.1-2.4-2.4l0,0l0.2-161.6c0,0-0.6-1.7,2.3-2.8c2.8-1.1,21.9-8.1,21.9-8.1s2.4-0.9,3,0.5s48.9,122.9,48.9,122.9l-1-135.2
		c0,0-0.1-2.4,2.3-3c2.4-0.5,16.8-3.7,16.8-3.7c-0.1,0,2.1-0.3,2.1,2s-0.3,162.1-0.3,162.1S266.8,841.5,264.6,841.9z M362.8,959.8
		c0,0-0.1-50.7-0.1-51.5c0-0.7,0.7-0.9,0.7-0.9l16.2,0.1c11.7,0.1,10.7,10,10.7,10l-0.1,28.4c-0.1,14.4-13.7,14.5-13.7,14.5
		s-12.1-0.1-12.9,0C362.7,960.5,362.8,959.8,362.8,959.8z M481,1031.3c-0.5,6.4-16.2,24.1-16.2,24.1c5.1-8.1,12-21.6,10.8-22.1
		C477.3,1032.1,479.7,1030.1,481,1031.3z M365.9,855.4c57.6-6,111.9,35.5,119.7,75.1l0,0c0,0,1.3,24.1-8.3,29
		C468.3,929.9,435.3,862.7,365.9,855.4z M495.5,989.4c-0.7,8.8-3.3,24.5-11.3,38.7c-2.4-2.5-2.8-2.3-6-1.4c4.8-18.5,4-20,4.2-22.9
		l0,0C482.4,1003.8,489.6,1000.8,495.5,989.4z M626.7,688.6c-89.5-41-176.1-54.2-251.3-53.6l0,0c-143.5,1-246.2,51.2-247.1,52.2
		c-3.2,43.5-0.5,166.7,56.3,275.6c38.5,73.9,120.1,160.8,192.8,182.8c64.8-21.7,145.9-93.9,192.4-184.3
		C607.5,888.1,627.7,796.8,626.7,688.6z M583.7,912.3c-28.2,80.9-112.3,192.5-205.9,224.9c-68.8-22.2-147-105.7-181.2-168
		c-30.3-55.3-63.2-148.6-61.2-275.9c129.5-65.6,334.8-69,483.3-0.5C618.5,786.1,611.1,833.5,583.7,912.3z M369.4,663.2
		c0,0,3.7-0.8,3.7,1.8s0,10.7,0,11.4s-0.2,2.6-2.4,2.6c-2.1,0-39.1-0.1-63.8,4.9l-0.2,56.2c0,0,17.2-3.7,52.4-4.1
		c0,0,1.9-1.2,1.9,1.8s0,10.9,0,10.9s0.2,3.1-2.3,2.8s-40.5,1.3-52.3,4l-0.1,63.4c0,0,20.6-3.7,63.8-4.6c0,0,2.8-0.8,2.8,2.4
		s0,10.1,0,10.1s0.7,3.2-2.8,3.2s-51.2,0.8-82,6.9c0,0-3.1,0.5-3.1-1.7L284.9,673c0,0-0.8-2.4,3.3-2.8
		C292.4,669.6,314.1,664.7,369.4,663.2z M492.4,944.8c5.6,12.2,4.3,31.3,4.3,31.3c-3.7,10.3-8.4,16.2-14.5,20.1
		c0.1-17.8-2.8-27.2-2.8-27.2C490.3,959.5,492.4,944.8,492.4,944.8L492.4,944.8z M383.8,664.9c0,0-0.6-1.9,2.1-1.8
		c2.9,0.1,53.9,0.5,100.2,9.2c0,0,2.4,0.5,2.4,2.4s0,11.3,0,11.3s-0.3,3-2.6,2.5c-2.3-0.5-19-3.7-39-5.9v147.8c0,0,0.6,2.9-2.1,2.6
		l-17.2-1.4c0,0-2.5,0.2-2.6-2.4l0,0l-0.1-148.4c0,0-22.8-2.5-38.7-1.8c0,0-2.2,0.2-2.2-2.1C383.9,674.5,383.8,664.9,383.8,664.9z
		 M489.6,784.9c0,0-0.1-2.5,2.4-2.4l17.4,3.3c0,0,1.9,0,2,2.5l0.1,24.6c0,0,0.8,22.6,40.6,28.6c0,0,16,3.6,15.8-11.6L568,817
		c0,0-0.3-12.1-18-29.4l-38.3-38.5c0,0-13.7-13.7-16.4-31.8c0,0-1.3-17.3,4.7-27.1c0,0,12.9-22.5,59.2-0.5c0,0,23.6,9,26.5,32.7
		l1.3,27.4c0,0-0.2,2.8-2.6,2.3c-2.4-0.5-17.3-6.4-17.3-6.4s-2-1-1.8-2.5c0.1-1.5,0.1-22,0.1-22s-0.3-11.2-14.5-18.9
		c0,0-9.2-5.9-24.3-5.4c-0.6,0.1-9,0.3-9.6,12.6c0,0-0.7,14.4,5.3,22.3c0,0,9.3,12.4,21.1,24.2l19.1,20c0,0,16.7,17.3,21.6,27.5
		c0,0,5,7.5,5.5,26.1c0,0,2.2,27.4-19.8,28.6c0,0-16.6,3.3-48.2-10c0,0-29.4-10.4-31.8-37.9L489.6,784.9z"/>
</g>
</svg>
