<?xml version="1.0" encoding="utf-8"?>
<!-- Generator: Adobe Illustrator 25.0.0, SVG Export Plug-In . SVG Version: 6.00 Build 0)  -->
<svg version="1.1" id="Layer_1" xmlns="http://www.w3.org/2000/svg" xmlns:xlink="http://www.w3.org/1999/xlink" x="0px" y="0px"
	 viewBox="0 0 947 757.5" style="enable-background:new 0 0 947 757.5;" xml:space="preserve">
<style type="text/css">
	.st0{fill:#FFFFFF;}
	.st1{fill:#006BB6;}
	.st2{fill:#F58426;}
	.st3{fill:#BBBEC2;}
</style>
<g>
	<path class="st0" d="M521.6,67.5L518.3,30l6.5,0.7l3.5,37.3L521.6,67.5z M567.7,52.4l-3-15.3l-6.3-1.1l2.2,15.7L567.7,52.4z
		 M925.7,172.3l-78.3,101.1l36.9,81.3l4.7,10.4l-8,8.2l-90.6,93.2l-9.5,9.9l-11.6-7.5c-16.4-10.4-33.8-20.7-50.7-29.7l-51.7,66.6
		c-4.7,34.1-18.3,66.6-39.7,93.8c-21.1,26.9-48.7,47.7-80,60.4l-62.3,80.2l-13.2,17.2l-13.2-17.2l-63-82.1
		c-61.4-26.9-105-83.4-115.1-149.4l-55-71.4c-2.8,1.3-4.5,2.1-5.2,2.2l-12.9,6.9c-8.2,4.7-14.4,8.4-20.5,11.9
		c-4.5,2.6-8.6,5-13.1,7.6l-11.2,6.3l-9.1-9.1l-89.5-89.7l-8.2-8.2l4.8-10.6l37.7-82.8l-77.2-99.8L0,145.3h34.1h122l19-41.6l3-6.5
		l6.9-2.4L268.5,66l50-39.7l2.8-2.2l3.4-0.9l42.1-11.2l0.6-0.2l0.6-0.2l32.4-6.2l0.6-0.2h0.7l35.8-3.9h0.7h0.7L487.5,0h0.9h0.9
		L546,5h0.9l0.9,0.2l43.3,8.6l0.7,0.2l0.7,0.2l28.7,8.2l3.4,0.9l2.6,2.2l47,38l86.5,30.8l6.7,2.4l3,6.5l19,41.8h123.1H947
		L925.7,172.3z M585,29.8c0,0,8.4,40.3,12.9,60.8l13.1,2.6l-4.3-19l8,1.9l5,19.2l12.9,2.8l-7.6-27.2l-5.2-5.8l2.8-4.1l-6-22.4
		c-6-1.9-11.6-3.4-11.6-3.4l5.6,23.1l-2.2,3l-4.5-0.9c0,0-4.7-18.6-6.9-27.6C591.7,31.1,585,29.8,585,29.8z M544.7,21.8l8.4,61.7
		l12.5,1.5L563,67l7.6,0.9l3.4,18.6l12.7,2.2L583,66.4l-4.5-5.2l2.4-3.4l-4.3-22.6l-7.8-9.1L544.7,21.8z M506.7,24.6
		c0.9,16,1.9,32.3,3,48.3l6.9,7.5l19,1.3l5.8-9c-1.7-14.7-4.1-29.8-5.6-45.5l-6.9-7.5l-15.7-1.5C511,20.5,508.4,22.4,506.7,24.6z
		 M470.3,55l6.9,7.1l2.2,0.2l0.2,16.6l11.6,0.4l-0.4-16.6l2.2-0.2l6.5-6.5l-1.3-38.8c-3.2-0.2-10.3-0.6-10.3-0.6l0.4,34.3h-6.7V16.2
		c0,0-7.1-0.2-10.8-0.2L470.3,55z M395.4,76.8l6.2,6l14-1.3l6.2-5.2l4.8,4.1l12.9-0.7l7.5-7.5l3.2-54.8c-3.9,0.2-6.2,0.2-10.6,0.7
		l-3.7,48.1l-7.5,0.7l4.5-48.3l-10.4,1.1l-6,48.7l-7.8,0.6l5.8-48.5L403.6,22L395.4,76.8z M358.6,88.4c9-1.5,18.3-2.8,27.4-4.1
		c0.7-3.9,2.1-12.3,2.1-12.3l-13.2,1.9l2.4-12.7l12.9-1.9c0.9-4.7,1.1-6.3,1.9-11.4c-5.6,0.7-8.6,1.1-13.2,2.1l2.4-13.2l12.9-2.4
		l1.9-11.4l-24.8,5.2C368.5,42.3,358.6,88.4,358.6,88.4z M312.4,98.1l13.1-3l10.6-36.2l4.1,9L334,93.1l13.4-2.6l13.8-60.2
		c-4.1,0.9-12.5,3.2-12.5,3.2l-3.2,12.3c0,0-3.5-6.7-5-9.9c-3.9,1.1-7.3,2.2-11.7,3.7C323.4,58.9,317.8,78.5,312.4,98.1z
		 M912.5,162.1H778.6l-23.5-51.7l-89.3-31.9l-21.4,16.4l-5.8,14.4l-42.7-9.9l-5,24.6l-5-25.9c0,0-38.4-4.7-48.7-5.6
		c-10.3-0.9-48.7-3.9-48.7-3.9l-23.9,23.9l-0.4,21.3l-5.6-44.9L410.8,91l-1.7,21.1l-4.5-20.3l-44.9,6.5l-5.4,31l-6-29.3l-41.2,10.4
		l-7.6-16.6l-37.3-17l-9.1,24.8l-5.8-13.8l-56.7,22.8l-23.7,51.5H34.1l83.3,108.3l-41.9,92l89.5,89.7c10.4-6,19.2-11.4,33.8-19.8
		l13.6-7.3c0,0,4.5-2.1,17.9-8l65.8,85.4c8.4,64.7,51.3,118.6,109.7,142.3l65.8,85.4l65.1-83.9c61.4-23.3,106.5-79.4,113.9-147
		l63-81.3c21.8,11,44,23.7,64.5,36.9l90.6-93.2l-41-90.5L912.5,162.1z M821.7,257.5l6.2,13.6l0-0.1l-21.7-47.9L821.7,257.5z
		 M120.5,263.7l-3,6.7l0,0.1L120.5,263.7z"/>
	<path class="st1" d="M912.5,162.1H778.6l-23.5-51.7l-89.3-31.9l-21.4,16.4l-5.8,14.4l-42.7-9.9l-5,24.6l-5-25.9
		c0,0-38.4-4.7-48.7-5.6c-10.3-0.9-48.7-3.9-48.7-3.9l-23.9,23.9l-0.4,21.3l-5.6-44.9L410.8,91l-1.7,21.1l-4.5-20.3l-44.9,6.5
		l-5.4,31l-6-29.3l-41.2,10.4l-7.6-16.6l-37.3-17l-9.1,24.8l-5.8-13.8l-56.7,22.8l-23.7,51.5H34.1l83.3,108.3l-41.9,92l89.5,89.7
		c10.4-6,19.2-11.4,33.8-19.8l13.6-7.3c0,0,4.5-2.2,17.9-8l65.8,85.4c8.4,64.7,51.3,118.6,109.7,142.3l65.8,85.4l65.1-83.9
		c61.4-23.3,106.5-79.4,113.9-147l63-81.3c21.9,11.1,44,23.8,64.5,36.9l90.6-93.2l-41-90.5L912.5,162.1z M788.1,182.6l-3.3-7.3
		h100.7l-63.7,82.2l-15.5-34.3l-29.1-19.6L788.1,182.6z M580.2,104.2l16,84.5l21.8-29.1l-13.8-51.3l35.1,7.8l13.6,51.1l-16.4,22
		l28.9,23.7l27.6,99c-16.4-5.6-30.8-9.3-46.8-13.4l-14.7-67.1L615,218l-11.2,15.1l10.8,58c-15.1-3.4-28.7-5.2-43.3-7.3
		c-7.6-60.4-23.9-183.5-23.9-183.5L580.2,104.2z M695.6,319.6l-34.9,68.8l-40.3-10.3c-1.1-1.5-2.2-3-3.4-4.7l25.9-69.2
		C656.4,307,695.6,319.6,695.6,319.6z M552.6,319.5c-18.6-9.3-39.2-15.3-60.8-17.5c0.2-5,0.4-12.5,0.6-18.1c22-0.4,45.1,2.1,66,4.5
		L552.6,319.5z M502,311.6c45.1,7.6,88.8,34.7,114.3,75.7c-43.5-43.6-108.4-40.5-163.6-55.9C452.8,331.4,485.2,315.9,502,311.6z
		 M599,352.7c-11-11-23.5-20.5-37.3-28.3l7.1-34.5c15.5,2.2,31.5,5,47.2,8.2L599,352.7z M604,357.9c-0.1-0.1-0.1-0.1-0.2-0.2
		c-0.1-0.1-0.2-0.2-0.2-0.2c0.1,0.1,0.1,0.1,0.2,0.2C603.9,357.7,604,357.8,604,357.9z M470.9,115.8l20.3-20.1l45.3,3.2l3.9,31
		l-33.8-1.7l6.3,112.6l39.7,2.4l4.3,38.4c-22-2.2-45.3-4.5-66.6-4.5l-19.8-20.3L470.9,115.8z M485.8,281.2l-0.4,20
		c-3.9-0.2-8-0.4-12.1-0.4c-1.1,0-2.4,0-3.5,0l-0.2-36.6L485.8,281.2z M484.7,309.2c-14.2,4.8-27.8,12.1-41.2,18.3
		c-9.3-5.4-14.5-6.9-20.7-10.8C442.2,309.6,462.9,308.5,484.7,309.2z M328.4,299.9c15.7-3.2,31.3-6.2,46.8-8.8
		c2.2,10.8,4.8,23.3,7.3,34.7c-13.6,8-25.9,17.7-36.7,28.9C340.2,337,333.6,316.8,328.4,299.9z M357.7,353.6
		c15.5,0.7,26.7,0.4,43.6,5.8c-9.1,8.8-15.9,17.3-22.9,27.4h-0.2c-25-5.6-44.6,7.3-60.4,23.5C325.1,391.1,340.9,368.5,357.7,353.6z
		 M366.8,346.1c11.7-10.8,29.1-19.4,45.1-25.9l24.2,11.9c-10.6,6.3-19.4,13.4-28.3,21.3C392.9,349.5,385.1,348.4,366.8,346.1z
		 M417,97.3l34.3-1.9L445,276.2l-44,3.9L417,97.3z M445.5,282.7l0.7,20.1c-15.1,2.2-29.7,6.5-43.3,12.3c-1.3-8.6-3-20.1-4.3-28
		C412.1,285.7,430.4,283.7,445.5,282.7z M305.5,117.5l37.3-9.3l11.7,56.9l10.4-60.4l31.9-4.7l-22,184.3l-42.3,8.2l9.5-54.3
		l-14.4-69.9l-29.1,132c0,0-12.3,2.8-22.6,5.4c-10.3,2.8-23.1,7.3-23.1,7.3L305.5,117.5z M326.7,374.3c-14,3.7-32.8,10.1-43.5,14
		c-12.1-22.8-23.7-44-33.6-67.9c16.2-5,32.6-9.7,51.7-14.4L326.7,374.3z M160.8,175.3L123.5,257l-62.8-81.7H160.8z M83.5,360.7
		l111.7-245l40.5-16.2l-37.7,95.1l41.4-35.6l25.7-73.5l28.7,12.9l-23.3,78l-39.9,38.2l19.4,31.9l-22.9,74.4c0,0-18.1,6-24.2,8.4
		c-6.2,2.4-27,11.2-27,11.2l31-89.1l-7.5-8.8l-31.3,28l-35.2,89.1l-31,19.6L83.5,360.7z M166.5,443.8l-60-60.1
		c8.4-5.4,29.3-18.5,29.3-18.5l54.6,64.5C181.8,434.7,174,439.4,166.5,443.8z M170.3,349.7c18.3-7.8,36.9-15.1,58.4-22.8
		c12.3,22.6,25.5,44.9,37.9,67.1c-16,6.7-39.3,16.8-48.3,21.3L170.3,349.7z M233.3,415.9c2.8-1.3,6-2.6,9.5-4.1
		C239.3,413.3,236.1,414.8,233.3,415.9z M294.8,479.3l-52-67.5c8.6-3.7,19.2-8.4,32.4-14l5.6-2.1c0,0,16.8-6.5,42.9-14
		C305.5,409.7,294.8,443.3,294.8,479.3z M309.4,432.1c15.9-22,36-41.4,63.2-38.2c-41.6,64-47.4,142.7-14.2,211.7
		C315.7,569.5,290.2,499.8,309.4,432.1z M376.9,620.5c-44.4-64.9-40.3-161.5,4.1-224.2c21.6,6.2,33.4,34.5,36.4,43.3
		c22.4,66.8,27.4,140.6,85.6,207.9C457.6,656.6,412.7,643.2,376.9,620.5z M471.6,708.9L428,652.2c14.5,3.7,29.7,5.8,45.3,5.8
		c14.4,0,28.2-1.7,41.6-4.8L471.6,708.9z M586.1,607.4c-23.5,21.1-49.2,31.9-74,37.9c-44-45.7-58.6-105-74-163.4
		c-11.9-44.9-20.1-78.7-51.8-92.5v-0.2c6.7-9.5,14.4-18.5,22.9-26.9c94.4,26.7,184.3,124.4,199.5,220.4
		C604,590.1,593.2,600.1,586.1,607.4z M642.8,500.9c-3.5,26.3-12.5,51.1-27.2,72.4C595.3,478,509.7,385.8,415.5,356.2
		c8.6-7.6,18.6-15.1,28.9-21.4c53.1,18.6,116.7,13.6,162.2,53.7C644.7,423.9,645.1,460.6,642.8,500.9z M651.8,479.3
		c0-33.9-9.5-65.8-26.1-92.9c22.9,5.6,37.9,9.7,37.9,9.7l5.2,1.7c10.6,4.1,21.8,9,33,14.4l-50,64.3
		C651.8,477.4,651.8,478.3,651.8,479.3z M711.1,416.6c0.7,0.3,1.4,0.7,2,1C712.4,417.3,711.7,417,711.1,416.6z M777.3,446.6
		c-18.3-12.3-65.6-39-98.5-51.7l37.7-67.9c42.1,14.5,94.2,42,119.9,58.2C836.4,385.5,786.2,438.1,777.3,446.6z M841.3,380.8
		c0,0-14.7-9.9-51.8-29.3c-32.4-17.2-69.4-30-69.4-30L696,242.4l45.5,13.4l12.7,35.4l37.1,16.8L768.3,251L679,188l-27.8-90.1
		L666.5,86l83.7,29.7l25.7,56.9l-44.2-14L720,129.8l-29.1-10.3l16.4,45.9l93.8,62.7l60.1,132.4L841.3,380.8z M597.9,90.6
		C593.4,70.1,585,29.8,585,29.8s6.7,1.5,11.9,3.2c2.4,9,7.1,27.6,6.9,27.4l4.5,0.9l2.2-3L605,35.2c0,0,5.6,1.5,11.6,3.4l6,22.4
		l-2.8,4.1l5.2,5.8l7.6,27.2l-12.9-2.8l-5-19.2l-8-1.9l4.3,19L597.9,90.6z M565.6,85L563,67l7.6,0.9l3.4,18.6l12.7,2.2L583,66.4
		l-4.5-5.2l2.4-3.4l-4.3-22.8l-7.8-9l-24.1-4.3l8.4,61.7L565.6,85z M564.7,37.1l3,15.3l-7.1-0.7L558.4,36L564.7,37.1z M477,62.1
		l-6.9-7.1l0.4-38.6c3.7,0,10.8,0.2,10.8,0.2l0.2,34.3h6.7l-0.4-34.3c0,0,7.1,0.4,10.3,0.6l1.3,38.8l-6.5,6.5l-2.2,0.2l0.4,16.6
		l-11.6-0.4l-0.2-16.6L477,62.1z M325.4,95.3l-13.1,3c5.4-19.6,11-39.2,16.4-58.7c4.5-1.5,7.8-2.6,11.7-3.7c1.5,3.2,5,9.9,5,9.9
		l3.2-12.3c0,0,8.4-2.2,12.5-3.2l-13.8,60.4L334,93.2l6.2-25.2l-4.1-9L325.4,95.3z M516.6,80.4l19,1.3l5.8-9
		c-1.7-14.5-4.3-29.7-5.6-45.5l-6.9-7.5l-15.7-1.5c-2.1,2.2-4.8,4.1-6.5,6.3c0.9,16,1.9,32.3,3,48.3L516.6,80.4z M524.6,30.8
		l3.5,37.3l-6.7-0.6L518.1,30L524.6,30.8z M358.6,88.6c0,0,10.1-46.2,12.5-60.4l24.8-5l-1.9,11.4l-12.9,2.4l-2.4,13.2
		c4.7-0.9,7.6-1.3,13.2-2.1c-0.7,5-0.9,6.7-1.9,11.4l-12.9,1.9L374.8,74l13.2-1.9c0,0-1.3,8.4-2.1,12.3
		C376.9,85.8,367.6,87.1,358.6,88.6z M395.5,76.8l8-55l10.6-1.5L408.4,69l7.6-0.9l6-48.7l10.4-1.1L428,66.6l7.5-0.7l3.7-48.1
		c4.5-0.6,6.7-0.4,10.6-0.7L447,72.2l-7.5,7.5l-12.9,0.7l-4.8-4.1l-6.2,5.2l-14,1.3L395.5,76.8z"/>
	<path class="st2" d="M616.4,387.3c-43.3-43.6-108.4-40.5-163.6-55.9c0,0,32.4-15.5,49.2-19.8C547.2,319.3,590.8,346.3,616.4,387.3z
		 M451.3,95.5L417,97.3l-16,182.8l44-3.9L451.3,95.5z M484.7,309.2c-21.8-0.7-42.5,0.4-61.9,7.5c6.2,3.9,11.4,5.4,20.7,10.8
		C456.9,321.3,470.5,314.1,484.7,309.2z M557.2,281.2l-4.3-38.4l-39.7-2.4l-6.3-112.6l33.8,1.7l-4.1-30.6l-45.3-3.4l-20.3,20.1
		v140.8l19.8,20.3C511.9,276.8,535.2,279,557.2,281.2z M270.6,176.4l23.3-78l-28.5-12.9l-25.7,73.5l-41.4,35.6l37.7-95.1l-40.7,16
		l-111.7,245l18.5,18.5l31-19.6l35.2-89.1l31.3-28l7.5,8.8l-31,89.1c0,0,20.9-8.8,27-11.2c6.2-2.4,24.2-8.4,24.2-8.4l22.8-74.4
		l-19.4-31.9L270.6,176.4z M436.2,332.3L412,320.4c-16,6.5-33.4,15.1-45.1,25.9c18.3,2.1,26.1,3.2,41,7.3
		C416.8,345.8,425.4,338.7,436.2,332.3z M317.4,409.9c16-15.9,35.6-28.7,60.6-23.3h0.2c7.1-10.1,14-18.6,22.9-27.4
		c-17-5.2-28.2-5-43.6-5.8C340.7,368.1,324.9,390.7,317.4,409.9z M606.5,388.6c-45.5-40.1-108.9-35.1-162.2-53.7
		c-10.3,6.3-20.3,13.8-28.9,21.4c94.4,29.7,179.8,121.8,200.1,217.1c14.9-21.4,23.7-46.2,27.4-72.5
		C645.1,460.4,644.7,423.7,606.5,388.6z M409,362.4c-8.6,8.4-16,17.3-22.9,26.9v0.2c31.7,13.8,39.9,47.6,51.8,92.5
		c15.5,58.4,30,117.7,74,163.4c24.8-6,50.5-16.8,74-37.9c7.3-7.3,18.1-17.3,22.6-24.6C593.2,486.7,503.3,389,409,362.4z
		 M801.2,228.1l-93.8-62.7l-16.4-45.9l29.1,10.3l11.7,28.7l44.2,14l-25.7-56.9L666.5,86l-15.3,11.9L679,188l89.3,63l22.9,57.1
		l-37.1-16.8l-12.7-35.4L696,242.4l24.1,79.3c0,0,36.9,12.9,69.4,30c37.1,19.4,51.8,29.3,51.8,29.3l20-20.5L801.2,228.1z
		 M636.7,189.1l16.4-22L639.5,116l-35.2-7.6l13.8,51.3l-21.8,29.1l-16-84.5l-32.4-4.1c0,0,16.2,123.1,23.9,183.5
		c14.5,2.1,28.2,3.9,43.3,7.3l-10.8-58l11.2-15.1l16.4,13.4l14.7,67.1c15.9,4.1,30.4,7.8,46.8,13.4l-27.6-99L636.7,189.1z
		 M342.2,238.1l-9.5,54.3l42.3-8.2l22.2-184.4l-32.1,4.7l-10.4,60.4L343,108l-37.3,9.3l-52.6,195.6c0,0,12.9-4.5,23.1-7.3
		c10.3-2.6,22.6-5.4,22.6-5.4l29.1-132L342.2,238.1z M380.8,396.3c-44.2,62.7-48.5,159.3-4.1,224c35.8,22.8,80.8,36.2,126.1,27
		c-58-67.3-63-141.2-85.6-207.8C414.2,430.8,402.4,402.4,380.8,396.3z M372.8,393.9c-27.2-3.4-47.6,16.2-63.2,38.2
		c-19.4,67.7,6.2,137.4,49,173.4C325.4,536.5,331,457.8,372.8,393.9z"/>
	<path class="st3" d="M266.5,394.1c-16,6.7-39.3,16.8-48.3,21.4l-47.9-65.8c18.3-7.8,36.9-15.1,58.4-22.8
		C240.9,349.5,254.2,371.9,266.5,394.1z M106.5,383.8l60,60.1c7.5-4.5,15.3-9.1,23.9-14l-54.6-64.5
		C135.8,365.3,114.9,378.4,106.5,383.8z M275.3,397.8c-13.2,5.8-24.1,10.3-32.4,14l52,67.5c0-36,10.8-69.6,29.1-97.5
		c-26.1,7.5-42.9,14-42.9,14L275.3,397.8z M806.2,223.2l15.5,34.3l63.8-82.2H784.8l3.4,7.3l-11,21.1L806.2,223.2z M249.5,320.6
		c10.1,23.9,21.4,45.1,33.4,67.9c10.8-3.9,29.7-10.3,43.6-14l-25.4-68.3C282.2,310.9,265.7,315.5,249.5,320.6z M160.8,175.3H60.6
		l63,81.7L160.8,175.3z M485.4,302.9l0.4-21.6l-16.2-17l0.2,38L485.4,302.9z M445.5,282.7c-15.1,0.7-33.2,2.8-46.6,4.5
		c1.3,8.4,3.2,20.9,4.5,29.7c0,0,16-8.6,43.1-11.6L445.5,282.7z M663.5,396.3c0,0-14.7-4.3-37.9-9.7c16,26.3,25.5,57.1,26.1,90.1
		l50-64.3c-11.2-5.4-22.4-10.3-33-14.4L663.5,396.3z M695.6,319.8c0,0-39.2-12.7-52.6-15.3l-27.2,72.7l45.1,11.4L695.6,319.8z
		 M328.4,299.7c5.4,17.7,12.3,38.8,17.7,56.7c12.5-9.3,23.7-19.6,36.9-27.6c-2.6-12.3-5.4-25.9-7.8-37.9
		C359.7,293.5,344.1,296.5,328.4,299.7z M678.8,395c32.8,12.7,80.2,39.3,98.5,51.7c9-8.6,59.1-61.2,59.1-61.2
		c-25.7-16.2-77.8-43.6-119.9-58.2L678.8,395z M428,652.2l43.6,56.7l43.3-55.8c-13.4,3.2-27.2,4.8-41.6,4.8
		C457.6,657.9,442.5,655.9,428,652.2z M492.3,283.8c-0.4,6.3-0.4,15.5-0.7,20.1c11,1.3,22.8,4.8,33,7.8c9.3,2.2,19.4,6.2,27.6,9.9
		l6.2-33.4C537.5,285.9,514.3,283.5,492.3,283.8z M568.8,289.8l-7.6,37.9c12.3,7.1,23.9,15.9,34.7,26.5l2.2,1.5L616,298
		C600.3,294.8,584.3,292,568.8,289.8z"/>
</g>
</svg>
