<?xml version="1.0" encoding="utf-8"?>
<!-- Generator: Adobe Illustrator 25.0.0, SVG Export Plug-In . SVG Version: 6.00 Build 0)  -->
<svg version="1.1" id="LA_LAKERS" xmlns="http://www.w3.org/2000/svg" xmlns:xlink="http://www.w3.org/1999/xlink" x="0px" y="0px"
	 viewBox="0 0 1094.3 692.8" style="enable-background:new 0 0 1094.3 692.8;" xml:space="preserve">
<style type="text/css">
	.st0{fill:#FFFFFF;}
	.st1{fill:#FFB900;}
	.st2{fill:#562385;}
</style>
<g>
	<path class="st0" d="M209.8,435.3c3,10.2,6.2,20.3,10.1,30.1c-15.4,10.8-33.5,16.2-63.2,16.3h-16.3c-4.9,0-10.3-1.9-7-6.6
		l21.4-39.8H209.8z M197.6,354.7L159,427.2c6.2,0,36.2-4,46-11.8C200.8,395.7,198.1,375.4,197.6,354.7z M1088.8,403.8
		c-0.5,1.1-1.1,2.2-1.5,3.1l-0.1,0.2l-0.1,0.2c-14.8,30.3-49.8,70-73.8,89.4c-8.4,6.8-22.1,16.6-39.5,24.9
		c-19.8,9.3-34.6,16.2-68.2,18c-47.4,2.5-90.3-35.1-90.3-35.1c-5.1,13.3-7.4,18.3-9.5,21.8c-32.6,55.5-92.2,114.2-165.3,142.5
		c-41.1,15.9-83.5,24-126,24c-45.7,0-89.8-9.4-131.3-27.8c-71.4-31.8-131-87.7-151.5-132.5c-2.9-6.3-9.6-26.2-9.6-26.2l-198-0.1
		C9.5,506.1,1.9,497,1.9,488c0-6.4,3.7-12.2,9.9-15.4c3.8-1.9,8.3-2.9,13.6-2.9H45c-2.6-2.8-4.2-6.6-4.2-10.7c0-7,4.6-12.9,11-15
		H15.7C7,444,0,437,0,428.3c0-8.7,7-15.9,15.7-15.9h68.8c1.5,0,2.8,0,3.8-0.1l6.3-11.9c-8.1-0.6-14.6-7.4-14.6-15.7
		c0-8.7,7-15.7,15.7-15.7h14.1c0.3,0,0.8,0,1.4,0l2-3.7H83.6c-8.7,0-15.7-7-15.7-15.7c0-8.7,7-15.9,15.7-15.9h44.5c0.8,0,1.4,0,2,0
		l12.3-23.1h-29c-8.7,0-15.7-7-15.7-15.7c0-8.7,7-15.7,15.7-15.7H158c0.6,0,1,0,1.5,0l3-5.5c-4.1-2.8-6.7-7.5-6.7-12.8
		c0-8.7,7.1-15.7,15.9-15.7h6.4l3.1-5.8h-0.5c-8.7,0-15.7-7-15.7-15.7c0-2.4,0.6-4.8,1.6-6.8h-0.7c-8.7,0-15.7-7-15.7-15.7
		c0-8.7,7-15.7,15.7-15.7h3.6c-1.3-2.4-1.9-5-1.9-7.7c0-9,7.7-18.1,22.3-18.1h48.3l12.6-25.6l0.7-1.4l0.9-1.2
		c0.5-0.6,1.2-1.6,2.1-2.8c9.7-13,39.4-52.5,101.5-86.8c52.8-29,101.4-42,157.7-42c38.3,0,77.4,6.4,113,18.5
		c38.9,13.3,73.5,32.9,102.6,58.4c34.4,29.9,44,42.1,48.6,47.9c0.6,0.8,1.2,1.5,1.6,1.9l0.3,0.3l0.3,0.4l24.7,32.1l208-2.7
		c3.3-0.6,6.9-1,11.2-1c1.9,0,4,0.3,6.3,0.7l11.8,0l0.2,4.4c0.7-0.1,1.3-0.1,2-0.1c5.5,0,10.8,2.9,13.8,7.5c2.6,4,3.2,9,1.6,13.4
		l-14.5,42.4c0,0,14.7,103.4,23.1,124.1c5.5,13.6,25.8,32.8,25.8,32.8l0.1,0.4l0.1,0.4C1095.5,390.2,1091.8,397.8,1088.8,403.8z
		 M991.1,203l-6.3,12.6c-0.9,1.7,1.7,3.6,2.7,2.4c2.1-2.3,6.7-2.9,9-1.3c3.1,2.1,11.1,5.7,16,5.7c10.6,0,17.5-2.7,23.3-11.8
		c5.3-8.3,2-16.4-7.6-21c-5.1-2.3-9.4-6.6-7.1-11.3c1.4-3,6-2.4,8.3-2c4.3,0.7,9.8,4.7,10.4,8.3c0.3,1.4,2.1,1.9,3,0.4l3.3-7.7
		c0.7-1.6-1.7-2.7-2.6-2.3c-1.3,0.7-4.4,1.1-5.7,0c-3.6-2.9-10.6-5.1-14.1-5.1c-10.4,0-18,2-22.5,11.8c-3.9,8.4,0.1,15.4,9.3,19.7
		c4,1.9,9.3,4.3,7.3,9c-1.6,3.6-5.6,3.9-9.3,3.9c-5,0-12.4-3.7-13.6-10.7C994.6,201.3,991.9,201.9,991.1,203z M914.8,221.2H967
		c2.1,0,3.1-0.7,3.9-1.9l7.1-9.4c1.7-2.3-2-2.3-3.1-1.1c-9,9-18.7,8.8-25.7,8.8h-6.1l7.1-16h1.6c4.6,0,9.8,0,11.3,3.4
		c0.4,0.9,2.7,1.6,3.6,0l6.1-12.3c1-1.9-1.7-2.1-2.4-0.9c-2.4,4.3-13,3.1-15.8,3.1h-1.6l9-17.5l10,0.3c6.1,0,11.6,4.4,13.3,9.1
		c0.4,1.1,3.7,2,4.4,0.6l3.9-7.1c1.7-3.1-1.1-6.7-5.6-6.7h-51.6c-3.7,0-2.6,3.9-1.1,3.9c3.3,0,4.3,4,2.3,7.4l-15.6,28.5
		c-2.3,2.7-3.9,3.9-7.1,3.9C912,217.3,911.1,221.2,914.8,221.2z M851,216.4c-2.3,0.6-4,4.7-1.3,4.7H894c3.4,0,4.3-1.3,5.1-2.4
		l8.8-13.8c1.3-1.4-1.4-1.6-2.7,0c-6.7,8.7-15.6,10.8-25.5,10.8h-2.9l17.5-34.8c0.9-1.6,2.7-2.9,5-2.9c2.1,0,2-4.4-1-4.4h-27.7
		c-2.3,0-3.1,4.4-1,4.4c2.4,0,2.9,2.6,1.7,4.9l-15.7,31C854.6,215.6,852.9,216,851,216.4z M1080.2,384.7c-0.9-4.1-2.3-1.6-5.1,3.6
		c-0.9,1.6-3.6,1.6-6.1,1.6h-8.1c-1,0-1.9,0.9-1.9,1.9c0,1,0.9,1.7,1.9,1.7h8c3,0,3.1,2,1.7,5.1c-5.6,11.8-11.4,19.8-19,29.4
		c-1.1,1.4-4.3,2.9-6.7,2.9h-8.1c-1,0-1.7,0.9-1.7,1.7c0,1,0.7,1.7,1.7,1.7h8c4,0,0,2.4-0.7,3.4c-14.1,18.8-24,27.4-34.4,35.8
		c-1.3,1-7.1,0.6-11.3,0.6h-8c-1,0-1.7,0.9-1.7,1.9s0.9,1.7,1.7,1.7h8c6,0,1.4,3.4,0.6,4.3c-22.1,18.4-54.9,24.3-70.1,22.4
		c-48.8-6.1-58.9-43.2-62.5-58.1c-0.7-3.1-3.1-9.4-3.9-13.4c-1.6-7.7,20.5-10,26.5-5.8c9.3,6.1,30.7,12.6,47.7,12.6
		c15.7,0,47.7-11.3,56.9-38.2c9.6-27.5-14.3-58.1-25-68.6c-13.4-13.4-26.1-34.8-20.8-50.5c4-11.8,10.8-17.3,25.3-17.3
		c18.7,0,32.2,12,32.2,29.1c0,1.6-0.9,3.3-2.1,3.3h-6.6c-1,0-1.9,0.9-1.9,1.9s0.9,1.7,1.9,1.7h6.1c1.7,0,2.9,1.3,2.4,3.4
		c-1.1,5.7-1.6,9.7-2.9,15.4c-0.7,3.3,4.1,5.6,5.8,3.1l29.4-52.4c2.1-4-2.6-5-6.1-3.9c-8,2.7-21.1,4.7-25.7,1.4
		c-11-7.8-21-13-36.2-13c-26.1,0-44.4,6.4-56.1,28c-0.9,1.7-3.4,1.7-5.7,1.7h-5c-1,0-1.7,0.7-1.7,1.7c0,1,0.9,1.7,1.7,1.7h4.3
		c1.9,0,3,0.6,2.1,2.7c-0.9,2-1.6,4-2.3,6.1c-3,9.3-2,22.4,2.7,34c0.3,0.7-0.7,1.1-2.6,1.1h-8c-1,0-1.7,0.9-1.7,1.9s0.9,1.7,1.7,1.7
		h8c3.6,0,4.4,0.4,6,2.6c4.1,5.8,8.3,10.1,13.7,16.8c1.7,2.1-5.4,2.7-9.3,2.7h-31.7c-1,0-1.7,0.9-1.7,1.7c0,1,0.7,1.7,1.7,1.7h32.1
		c5.1,0,14-0.1,15,1c7.7,9,17.1,22.7,18.7,34.4c0.4,3.4-0.9,4.7-5,4.7h-4.3c-1,0-1.7,0.7-1.7,1.7c0,1,0.9,1.7,1.7,1.7h3.9
		c3.3,0,5,0.6,4.3,3c-4.1,13.3-10.4,22.8-35.7,22.7c-26.5-0.1-32-26.3-24.3-53.4c1.6-5.4,0-7.7-2.6-3.4l-18.5,29.1
		c-0.4,0.7-2.3,2.3-5,2.3h-2.6c-1,0-1.7,0.9-1.7,1.9c0,1,0.9,1.7,1.7,1.7c2.3,0,3.3,1.3,2.3,2.6l-6.7,11
		c-8.4-19-20.8-41.3-30.8-56.1c2.8,4.2,5.9,9,9,14.2c1-10.4,1.6-21,1.7-31.7c-2.2,0.8-4.4,1.5-6.6,2.1c22.9-6.7,49-25.5,54-42.8
		c10.3-35.8-24.4-49.1-43.4-49.1l-15.9,0c-3.4-12.7-7.8-25.3-12.8-37.5l16,0c2.1,0,3.1-0.7,3.9-1.9l7.1-9.4c1.7-2.3-2-2.3-3.1-1.1
		c-8.8,8.8-18.4,8.8-25.3,8.8c-1-2.4-2.1-4.9-3.2-7.3l3.9-8.7h1.6c4.6,0,9.8,0,11.3,3.4c0.4,0.9,2.6,1.6,3.6,0l6.1-12.3
		c1-1.9-1.7-2.1-2.6-0.9c-2.4,4.3-13,3.1-15.7,3.1h-1.6l9-17.5h10c6.1,0,11.4,4.3,13.3,9.1c0.3,1.4,3.6,2.3,4.3,0.9l3.9-7.1
		c1.7-3.1-1-6.7-5.4-6.7h-51.6c-3.7,0-2.7,3.9-1.1,3.9c3.3,0,4.3,4,2.3,7.4l-2,3.6c-8.1-14.7-17.3-28.8-27.5-42.1l3.1-0.4
		c1.7-1.3-1.3-7.1-3.7-10c-4-4.6-9.4-14.3-48.8-48.5C662.1,37,585.4,14,513.5,14c-53.1,0-99.6,12-150.9,40.2
		c-65.5,36.1-92.7,77.6-99.4,86c-5,6.1-5.7,9.8-2.4,11.7l0.3,0.4c-5,6.8-9.9,14.1-14.5,21.3l-56.9-0.1c-11.1,0-11.6,8.4,1.3,8.4H216
		c7.1,0,9.4,4.3,7.6,7.8l-3.6,6.6c-1.1,2.1-2.9,3-9.8,3h-44.5c-1,0-1.7,0.7-1.7,1.7c0,1,0.9,1.7,1.7,1.7H210c2.4,0,6,0.6,3.7,5
		l-6.3,11.6c-1,1.7-3.7,2.6-6.8,2.6h-20.1c-1,0-1.7,0.9-1.7,1.7c0,1,0.7,1.7,1.7,1.7h20.1c2.9,0,3,1.9,1.3,4.6l-14.3,26.7
		c-1.3,2.3-3.6,2.6-8.1,2.6h-8c-1,0-1.9,0.9-1.9,1.7c0,1,0.9,1.7,1.9,1.7h7.8c3,0,3.9,1.7,2.4,4.6l-11.7,21.8
		c-1.7,3.1-4.3,4.3-12.1,4.3h-44.5c-1,0-1.7,0.9-1.7,1.7c0,1,0.9,1.7,1.7,1.7h44.4c5,0.1,6.8,2.3,4.9,5.8l-23,43.1
		c-1.4,1.9-5.1,2.1-11.6,2.1H83.6c-1,0-1.7,0.9-1.7,1.9c0,1,0.7,1.7,1.7,1.7H128c5.3,0,8.6,0.3,7,3l-13.3,24.8
		c-2.4,3.9-9.3,3.9-11.8,3.9H95.7c-1,0-1.7,0.9-1.7,1.7c0,1,0.9,1.7,1.7,1.7h14c5,0,7.6,0.9,6.3,3.6l-17.7,33.2
		c-1.6,3-8.6,3.1-13.8,3.1H15.7c-1,0-1.7,0.9-1.7,1.9c0,1,0.9,1.7,1.7,1.7h68.6c4.6,0,10.3,0.6,8.1,4.1l-11.3,21.3
		c-1,1.7-4.9,1.9-10.4,1.9H56.7c-1,0-1.9,0.9-1.9,1.7c0,1,0.9,1.7,1.9,1.7h14c3.4,0,7.6,0.4,6.1,3l-7,13.6c-2.3,3.4-4.6,6.4-10,6.4
		H25.4c-12.7,0-12.3,8.4-1.3,8.4l202.6,0.1l9.1-4.9c-1.7,2.6-2.4,4-4.1,4.6c0,0,8.4,12,12.3,22.4c1.5,4.1-9.3-2.3,0,11.3
		c25.7,37.4,75.9,95.7,145,126.5c80.5,35.8,168.1,34,246.5,3.6c68.5-26.5,133.1-88.7,157.6-135.4c3.5-6.7,5.6-10.1,5.4-12.4
		c-0.1-1-2.7-1.9-2.7-1.9c10.3-18.7,18.8-39.9,18.8-39.9c-2.4-4.7-4.3-9.6-5.6-14.4c11.1,40.7,58.6,72.8,105,71
		c39.8-1.6,73.3-23.1,90.5-37c22.8-18.4,56.5-56.8,70.1-84.6C1077,395.8,1081,389.2,1080.2,384.7z M827.1,266.2
		C827.4,266.3,826.8,266.1,827.1,266.2L827.1,266.2z M834.4,295.3c4-13.8,2-26.1-7.3-29c2.6,10.4,4.8,21.1,6.4,31.8L834.4,295.3z"/>
	<path class="st1" d="M352.4,71.1c18-13.4,59.8-32.5,75.6-35.8c2.9,4.6,10.1,24.1,12.6,32.2c-14.1,3-51.4,16.4-63.2,24.3
		C374.4,86.6,360.1,73.6,352.4,71.1z M268.8,414c5.8-6.8,11.1-4.1,8.7,0.4l-9.3,16.5l11.5-2.9c11-2.9,19.3-8.3,20.9-17.1l8-45.2
		l-51.9-0.1l-31.1,41.4c-3.1,4.4-1.1,10.3-0.1,11.7c3.3,5.3,8,7.7,12.3,7.8c6.6,0.1,9.4,8.6-1.7,8.6h-26.3
		c3,10.3,6.3,20.4,10.1,30.2C235.7,454.1,248.8,437.2,268.8,414z M500.1,55.5c2.4-5.7,13.7-26.1,20.4-31.2
		c-24.1-2-55.5,0.6-82.3,8.3c2.1,6.4,8.8,26.1,11.3,32.5C458.8,62.2,485.4,56.5,500.1,55.5z M811,217.6c-1-2.4-2.1-4.9-3.2-7.3
		l-3.3,7.4l6-0.1C810.7,217.6,810.9,217.6,811,217.6z M325.6,274.5l-63.8,84.2h50.5L325.6,274.5z M809.1,451.7
		c1.3,4.9,3.1,9.7,5.6,14.4c-5.4,13.8-11.7,27.1-18.8,39.9c-2.9,0.3-5.7,6.4-9.1,12.4c-13.1,22.8-27.4,41.5-59.8,71
		c-35.8,32.7-77,51.6-91.3,56.5c-12.1-34.2-58.6-180.3-59.9-184.6c-1.9-6.3-3.4-8-5.4-7.3c-2.4,0.9-0.9,4.3,0.3,9.7
		c1.3,5.4,56.6,178.3,58.4,184.5c-11,5.4-55.6,18-86.7,19c-27.8,0.9-60.3,0-76.9-3.9c-19.3-15.6-63.2-77.6-79.9-110.7
		c-19.7-38.9-32.7-74.6-36-89.9c-1.6-7.3-3.7-12.6-7.3-11.8c-4,0.7-1.7,6.4,0.6,14.3c5.8,20,15.6,48.4,36,88.7
		c21.7,42.8,60.3,93,71.6,106.7c-35.4-7.4-78.3-24-119.1-54.5c-35.2-26.3-65.3-59.6-80.6-83.9c-1.9-3-4-7-6.6-8
		c-4.4-7.3-8.4-14.7-12.3-22.4c1.7-0.6,2.4-2,4.1-4.6L266,435h153.5c11.1,0,8.3-8.3,1.7-8.6c-4.3-0.1-7.1-3.1-8-6
		c-1.4-4.1-1.3-11.3,0.4-14.6l74-131.3c1.1-2.4,4.1-7.4,7.8-7.4c6.6,0,9.4-8.6-1.7-8.6h-59.2c-11.1,0-11.1,8.4-0.6,8.4
		c4.3,0,6,4.3,4.9,6.8l-16.7,29.8c-2,3.3-6.6,3.6-11.4,3.6h-14.1c-1,0-1.7,0.9-1.7,1.7c0,1,0.9,1.9,1.7,1.9h14
		c3.9,0,6.8,1.1,4.6,5.6l-54.6,99.4c-4,5.4-11.7,6.7-11.3-3.9l19.4-145.7c0.7-4.6-0.4-7.7-5.3-7.7h-29.2c-3.6,0-5.7,1.7-7.3,4
		l-10.4,13.1c-1.4,1.4-4.3,1.3-7.6,1.3h-24.5c-1,0-1.7,0.9-1.7,1.7c0,1,0.9,1.9,1.7,1.9h20.1c3.6,0,7.7,0.9,6.3,2.6l-28.4,35.5
		c-0.9,1-3.6,1.3-5.3,1.3h-8c-1,0-1.7,0.9-1.7,1.7c0,1,0.9,1.7,1.7,1.7h6.7c2,0,2.1,1,1.3,2l-26.5,33.2c-1.4,1.3-4,1.6-6.6,1.6
		h-23.4c-1,0-1.7,0.9-1.7,1.7c0,1,0.9,1.7,1.7,1.7h20.1c3,0,5.4,0.6,3.9,2.6l-37.8,47.4c-0.5,0.6-0.9,1.1-1.8,1.8
		c-4.1-19.7-6.9-39.9-7.3-60.6l88.6-165.8c1.3-2.7,5.8-6.8,11-6.8l27,0c12.6-0.1,12-8.3,1.3-8.3l-78.9-0.1
		c4.6-7.3,9.5-14.5,14.5-21.3c2.4,0.4,6.4-4.1,10.3-9.1c19.5-25.8,45.1-51.4,72.2-66.3c8.4,1.3,20.1,13,24.7,19.1
		c-17.3,9.4-45.9,31.2-56.8,39.7c-9.4,7.3-12.6,11.3-10.1,14.3c2.1,2.4,9.3-2.4,15.3-7.3c10.4-8.6,41.2-30.4,56.4-38.5
		c10.4,12.1,7,34.5,3.4,39.5c-2,2.6-2.3,5.4,0,6.7c2.1,1.1,4.4-1.9,7.4-6.3c7-10.3,4.3-35-1.9-43.8c18.5-11.6,45.2-19.3,61.5-23
		c1.4,2.6,21,59.9,24.7,70.2c2,5.7,4,12.6,8.3,11.3c2.9-0.9,1-7.1-1.4-13.4c-2.9-7.7-17.7-55.9-22.3-70.1c5.3-2.9,37.5-9.4,45.7-9.1
		c-4,21,10.8,29.5,27.5,40.5c9,5.8,65.5,38.4,77.3,45.7c6.7,4.1,12,6.8,13.4,4.9c1.7-2.3-2.9-7-9.1-10.7c-5-2.9-57.6-33.4-79.6-47.4
		c-15.7-10-24.3-20.5-20.4-34.7c5.1-1.6,21.1-1.6,37.5-1.6c112.6,0.9,202.6,65.2,212.6,75.5c3.7,3.9,8.6,7.3,11.8,8
		c10.3,13.3,19.4,27.4,27.5,42.1l-13.7,25.1c-2.3,2.7-3.9,3.9-7.1,3.9c-2.7,0-3.6,3.9,0.1,3.9l36.3-0.1c5,12.1,9.3,24.8,12.8,37.5
		l-67.7-0.1c-11.1,0-11.8,8.4-1.3,8.4c5.7,0,10.7,5,8.3,10.1l-18.2,33.5c-1.6,2.7-7.5,2.3-14.9,2.3h-8.1c-1,0-1.7,0.9-1.7,1.9
		c0,1,0.9,1.7,1.7,1.7h8c5.3,0,11.5,0.3,9.5,4.2l-21.9,39.5c-1,1.9-3.9,2-11.3,2h-8c-1,0-1.9,0.9-1.9,1.9c0,1,0.9,1.7,1.9,1.7h7.8
		c5.8,0,8,0.7,6.4,3.9l-29.1,52.8c-3.4,3.7-7.6,4.6-14.7,4.6c-10.6,0-10.6,8.4,0.6,8.4H742c11.1,0,8.3-8.6,1.7-8.6
		c-3.9,0-7.8-7.1-5.3-11.3l36.4-69.1h3.7c16.3,0,20.1,26.5,23.1,55.6c0.3,2.1-3.7,2.1-11.8,2.1l-20.3,0.1c-1,0-1.7,0.9-1.7,1.7
		c0,1,0.9,1.7,1.7,1.7h20c5.3,0,12.7,0,13,1.7c1.4,12.7,2.4,24,4.9,34.2c0.7,3.1-5,2.7-11,2.7h-25.8c-1,0-1.9,0.9-1.9,1.7
		c0,1,0.9,1.9,1.9,1.9h25.8C804.5,450,808.7,450,809.1,451.7z M411.2,204.9c-6.7,8.7-15.6,10.8-25.5,10.8h-2.9l17.5-34.8
		c0.9-1.6,2.7-2.9,5-2.9c2.1,0,1.9-4.4-1-4.4h-27.7c-2.3,0-3.1,4.4-1,4.4c2.4,0,2.9,2.6,1.7,4.9l-15.7,31c-1.1,1.7-2.9,2.1-4.7,2.6
		c-2.3,0.6-4,4.7-1.3,4.7h44.2c3.4,0,4.3-1.3,5.1-2.4l8.8-13.8C415.2,203.5,412.5,203.3,411.2,204.9z M717.6,190.3
		c-9.1,15.8,4.1,32.5,16.4,32.5c6.8,0,14.7-5,19.3-7l5.1,3.4c0.7,0.9,2.3,2,3.9,2h1.9c1.7,0,2.4-2.4,3.1-3.9l7.8-18.8
		c1-1.9,0.4-3.3-4-3.3h-19.8c-3.7,0-2.6,3.9-1.1,3.9c1.6,0,3,0.9,3,3.3c0,8-3.4,11.1-10.3,11.1c-7.6,0-10.3-9.1-5.1-20.4
		c3.3-7.1,11.8-14,22.1-14c6.3,0,11.6,1.3,12.3,7.3c0.1,1.4,2.4,1.4,3.1,0.1l4.7-8.4c0.6-0.9-0.3-2-1.7-2c-1.1-0.1-4,1.4-5.7,0.1
		c-4-3-12.7-5.8-19.1-5.8C742.6,170.4,727.8,172.8,717.6,190.3z M556.9,218.4c0,2.1,1.1,3,3.7,3h22.5c4.3,0,3.4-5.6,1.3-5.6
		c-2.3,0-6.1-3-2.6-7.1l6.8-6.6h13.6c8,0,13.7,9.3,8.8,12.3l-3.7,2c-1.7,0.9-2.6,5,0,5h43.9c3.3,0,2.6-4.3,1.1-4.3
		c-4.4,0-2.4-6.6-1.4-8.3l11.6-22l16.3,31.5c1,2,2,3,3.9,3h6.3c2,0,2.7-1.1,3.6-2.7l18.5-33.4c3-6,5.3-7.7,9-7.7c1.6,0,2.6-4-1.1-4
		h-18.4c-3.7,0-2.6,3.9-1.1,3.9c4,0,7.6,4.6,5.4,8.8l-7.6,14l-16.8-24.5c-1.1-1.6-3.7-2.3-6-2.3h-18.1c-3.7,0-2.9,3.9-1.3,3.9
		c3.9,0,2.9,2.9,1.9,4.9l-14.4,27.7c-0.9,2.3-4.9,2.6-6-0.3l-11.1-36.2c-0.4-1.4-7-1.3-8.7,0l-28,23h-14.6c-2.9,0-4,1.1-4,2.7
		c0,1.6,1.1,2.9,4.1,2.9h7.6l-7.6,6.3c-4.1,3.1-8.4,7.4-11.4,7.4h-1.7C558.4,215.9,556.9,216.3,556.9,218.4z M458.3,171.6
		c-15.4,0-31.4,7.6-34.7,23.8c-2.7,14.1,7,28.8,24.3,28.8c16.4,0,31.7-10.7,34.7-26.4C485.7,182.3,474,171.6,458.3,171.6z
		 M513.2,222.3c10.6-0.1,17.5-2.7,23.3-11.8c5.3-8.3,2-16.4-7.6-21c-5.1-2.4-9.4-6.6-7.1-11.3c1.6-3,6-2.4,8.3-2
		c4.3,0.7,9.8,4.9,10.4,8.3c0.3,1.6,2.1,1.9,3,0.4l3.3-7.7c0.7-1.4-1.7-2.7-2.6-2.3c-1.3,0.7-4.6,1.1-5.8,0
		c-3.6-2.9-10.4-5.1-14.1-5.1c-10.4,0-18,2-22.5,11.8c-3.9,8.4,0.1,15.4,9.3,19.7c4,1.9,9.3,4.3,7.3,9c-1.4,3.6-5.6,3.9-9.3,3.9
		c-5,0-12.4-3.7-13.6-10.7c-0.4-2.3-3-1.7-3.9-0.6l-6.3,12.6c-1,1.7,1.6,3.6,2.7,2.4c2.1-2.3,6.7-2.9,9-1.3
		C500.4,218.7,508.3,222.4,513.2,222.3z M644.7,429.7l28.7-49.6c4-7.1-5.3-6.7-10.3-0.6c-29.8,36.2-46.8,48.7-77.2,48.7
		c-10.3,0-15.7-2.3-12.8-7.3l36-72.3h13.7c15.3,0,13.3,13,9,30.4c-0.7,2.4,1.1,2.6,3,0.4l34.2-60.1c1.7-3.9-2.7-4.6-4.7-1.7
		c-17.1,23.3-35.2,21.5-42.8,21.5h-6.1l38.5-73.3h15.6c19.5,1.1,28.7,17.8,23,57.8h8.1l28.2-55.6c2.3-4.7-2.6-9-7.8-9H529.2
		c-11.1,0-11.6,8.6-1,8.6c8.6,0,8.1,12.4,0.4,18.4l-81.5,64.6l16.4,76.3c1.1,5.7,4.9,8.6,11.3,8.6h158.5
		C639.9,435.2,642.6,432.4,644.7,429.7z M573,54.7c45.4,3.3,109.9,23.5,148.5,49.5c-29.1-38.9-96.6-65.5-140.1-74
		c-13.6-2.7-30.7-5.1-47.2-5.7c-7.8,5.1-17.8,17.1-23,29.8C528.7,52.2,548.6,52.9,573,54.7z M827.1,266.2c-1.3-0.4-2.7-0.6-4.3-0.6
		c-3.4,0-5,1.1-6.4,3.3l-33.1,60.5c4,1.9,11.3,6.8,13.7,9.3c1.7,1.7,10.4-3.6,16-8.1c9.6-7.8,16.3-20.5,20.5-32.5
		C831.9,287.4,829.7,276.6,827.1,266.2z M462,178.9c-5.3-2.6-13.4,3.1-18.4,13c-4.9,9.8-4.7,19.8,0.6,22.5c5.3,2.6,13.4-3.3,18.4-13
		C467.5,191.6,467.3,181.6,462,178.9z M817.7,353l-0.3,0.6c4.7,5.4,11.3,15.1,18.1,26.5c1-10.4,1.6-21,1.7-31.7
		C830.4,350.8,823.6,352.6,817.7,353z M589,282.9h-8c-1,0-1.7-0.7-1.7-1.7s0.9-1.7,1.7-1.7h8c4.3,0,9.3-0.3,10.8-3l2.4-4.7
		c2-5.1-1-9.1-9.4-9l-14,0.1c-6.3-0.1-18.4,8.8-24.8,14.3l-63.8,49.2l18.1,93.9c1.6,6.7,11.1,8.8,15.7,0.4l36.8-70.3
		c1.3-2.1-3.3-2.7-8.2-2.7l-14.1,0.4c-1,0-1.7-0.9-1.7-1.7c0-1,0.9-1.7,1.7-1.7l14,0.1c5.3,0,11.4-0.4,12.7-2.6l29.7-56.5
		C596.7,282.9,592.4,282.9,589,282.9z M612.9,182.5l-17.3,14h17.3V182.5z"/>
	<path d="M793.1,520.3c-27.1,48.7-89.2,108.9-157.6,135.4c-78.5,30.4-166.1,32.2-246.5-3.6c-69.1-30.8-122.8-86.9-145-126.5
		c-2.7-4.7-4.7-9.6-3-10.6c3.7-2.6,6.8,3.4,9.4,7.6c15.3,24.4,45.4,57.8,80.6,83.9c40.8,30.5,83.9,47.1,119.1,54.5
		c-11.3-13.7-49.9-63.9-71.6-106.7c-20.4-40.4-30.1-68.8-36-88.7c-2.3-7.8-4.6-13.6-0.6-14.3c3.7-0.7,5.7,4.6,7.3,11.8
		c3.3,15.3,16.4,50.9,36,89.9c16.7,33.1,60.6,95,79.9,110.7c16.4,3.9,49.1,4.7,76.9,3.9c31.2-1,75.8-13.6,86.7-19
		c-1.9-6-57.2-178.9-58.4-184.5c-1.3-5.4-2.7-8.8-0.3-9.7c2.1-0.7,3.7,1,5.4,7.3c1.3,4.1,47.8,150.2,59.9,184.6
		c14.4-4.9,55.5-23.8,91.3-56.5c32.4-29.5,46.7-48.2,59.8-71c4-6.8,7.1-14,10.4-12.1C800.1,507.7,797.4,512.7,793.1,520.3z
		 M263.1,140.3c6.7-8.4,34-49.9,99.4-86C413.9,26,460.4,14,513.5,14c71.9,0,148.7,23,206.4,73.5c39.4,34.2,44.8,43.9,48.8,48.5
		c2.4,2.9,5.4,8.7,3.7,10c-2.7,2.1-9.8-2.3-15-7.6c-10-10.3-100-74.6-212.3-75.8c-16.4,0-32.4,0-37.5,1.6
		c-3.9,14.1,4.7,24.7,20.4,34.7c22,14,74.6,44.5,79.6,47.4c6.3,3.7,10.8,8.4,9.1,10.7c-1.4,2-6.7-0.7-13.4-4.9
		c-11.8-7.3-68.3-39.8-77.3-45.7c-16.7-11-31.5-19.5-27.5-40.5c-8.1-0.3-40.4,6.3-45.7,9.1c4.6,14.1,19.4,62.3,22.3,70.1
		c2.4,6.3,4.3,12.6,1.4,13.4c-4.3,1.3-6.3-5.6-8.3-11.3c-3.7-10.3-23.3-67.6-24.7-70.2c-16.3,3.7-42.9,11.4-61.5,23
		c6.1,8.8,8.8,33.5,1.9,43.8c-3,4.4-5.3,7.4-7.4,6.3c-2.3-1.3-2-4.1,0-6.7c3.6-5,7-27.4-3.4-39.5c-15.1,8.1-45.9,30-56.4,38.5
		c-6,4.9-13.1,9.7-15.3,7.3c-2.4-3,0.7-7,10.1-14.3c10.8-8.4,39.5-30.2,56.8-39.7c-4.6-6.1-16.3-17.8-24.7-19.1
		c-27.1,15-52.6,40.5-72.2,66.3c-4.1,5.4-8.6,10.3-10.8,9C257.4,150.1,258.1,146.4,263.1,140.3z M511.3,54.1
		c17.4-1.9,37.2-1.1,61.6,0.6c45.4,3.3,109.7,23.5,148.7,49.4c-29.2-38.9-96.7-65.5-140.1-74c-13.6-2.6-30.7-5-47.2-5.7
		C526.5,29.6,516.3,41.4,511.3,54.1z M438.2,32.4c2.1,6.4,8.8,26.1,11.3,32.5c9.4-2.7,36.1-8.4,50.6-9.4
		c2.4-5.7,13.7-26.1,20.4-31.2C496.4,22.3,465,24.8,438.2,32.4z M352.4,71.1c7.7,2.6,22,15.7,25,20.7c12-8,49.1-21.3,63.2-24.3
		c-2.4-8.3-9.8-27.7-12.6-32.2C412.2,38.7,370.4,57.7,352.4,71.1z"/>
	<path class="st2" d="M717.8,190.5c10.1-17.5,25-20,35.7-20c6.4,0,15.1,2.9,19.1,5.8c1.7,1.3,4.6-0.3,5.7-0.1c1.4,0,2.3,1.1,1.7,2
		l-4.7,8.4c-0.7,1.3-3,1.3-3.1-0.1c-0.7-6-6-7.3-12.3-7.3c-10.3,0-18.8,6.8-22.1,14c-5.1,11.3-2.4,20.4,5.1,20.4
		c6.8,0,10.3-3.1,10.3-11.1c0-2.4-1.4-3.3-3-3.3c-1.4,0-2.6-3.9,1.1-3.9h19.8c4.4,0,5,1.4,4.1,3.4l-7.8,18.8
		c-0.7,1.4-1.4,3.9-3.1,3.9h-1.9c-1.6,0-3.1-1.1-3.9-2l-5.1-3.4c-4.6,2-12.4,7-19.3,7C721.9,223,708.7,206.3,717.8,190.5z
		 M776.1,221.3l52.4-0.1c2.1,0,3.1-0.7,3.9-1.9l7.1-9.4c1.7-2.3-2-2.3-3.1-1.1c-9,9-18.7,8.8-25.7,8.8l-6.1,0.1l7.1-16.1h1.6
		c4.6,0,9.8,0,11.3,3.4c0.4,0.9,2.6,1.6,3.6,0l6.1-12.3c1-1.9-1.7-2.1-2.6-0.9c-2.4,4.3-13,3.1-15.7,3.1h-1.6l9-17.5h10
		c6.1,0,11.4,4.3,13.3,9.1c0.3,1.4,3.6,2.3,4.3,0.9l3.9-7.1c1.7-3.1-1-6.7-5.4-6.7h-51.6c-3.7,0-2.7,3.9-1.1,3.9
		c3.3,0,4.3,4,2.3,7.4l-15.6,28.5c-2.3,2.7-4,4-7.3,4C773.3,217.4,772.4,221.3,776.1,221.3z M991.1,203l-6.3,12.6
		c-0.9,1.7,1.7,3.6,2.7,2.4c2.1-2.3,6.7-2.9,9-1.3c3.1,2.1,11.1,5.7,16,5.7c10.6,0,17.5-2.7,23.3-11.8c5.3-8.3,2-16.4-7.6-21
		c-5.1-2.3-9.4-6.6-7.1-11.3c1.4-3,6-2.4,8.3-2c4.3,0.7,9.8,4.7,10.4,8.3c0.3,1.4,2.1,1.9,3,0.4l3.3-7.7c0.7-1.6-1.7-2.7-2.6-2.3
		c-1.3,0.7-4.4,1.1-5.7,0c-3.6-2.9-10.6-5.1-14.1-5.1c-10.4,0-18,2-22.5,11.8c-3.9,8.4,0.1,15.4,9.3,19.7c4,1.9,9.3,4.3,7.3,9
		c-1.6,3.6-5.6,3.9-9.3,3.9c-5,0-12.4-3.7-13.6-10.7C994.6,201.3,991.9,201.9,991.1,203z M914.8,221.2H967c2.1,0,3.1-0.7,3.9-1.9
		l7.1-9.4c1.7-2.3-2-2.3-3.1-1.1c-9,9-18.7,8.8-25.7,8.8h-6.1l7.1-16h1.6c4.6,0,9.8,0,11.3,3.4c0.4,0.9,2.7,1.6,3.6,0l6.1-12.3
		c1-1.9-1.7-2.1-2.4-0.9c-2.4,4.3-13,3.1-15.8,3.1h-1.6l9-17.5l10,0.3c6.1,0,11.6,4.4,13.3,9.1c0.4,1.1,3.7,2,4.4,0.6l3.9-7.1
		c1.7-3.1-1.1-6.7-5.6-6.7h-51.6c-3.7,0-2.6,3.9-1.1,3.9c3.3,0,4.3,4,2.3,7.4l-15.6,28.5c-2.3,2.7-3.9,3.9-7.1,3.9
		C912,217.3,911.1,221.2,914.8,221.2z M849.8,221.2H894c3.4,0,4.3-1.3,5.1-2.4l8.8-13.8c1.3-1.4-1.4-1.6-2.7,0
		c-6.7,8.7-15.6,10.8-25.5,10.8h-2.9l17.5-34.8c0.9-1.6,2.7-2.9,5-2.9c2.1,0,2-4.4-1-4.4h-27.7c-2.3,0-3.1,4.4-1,4.4
		c2.4,0,2.9,2.6,1.7,4.9l-15.7,31c-1.1,1.7-2.9,2.1-4.7,2.6C848.8,217,847,221.2,849.8,221.2z M673.4,380.4L644.7,430
		c-2.1,2.7-4.9,5.4-11.4,5.4H474.8c-6.4,0-10.1-2.9-11.3-8.6l-16.4-76.3l81.5-64.6c7.7-6,8.1-18.4-0.4-18.4c-10.6,0-10.1-8.6,1-8.6
		h191.7c5.3,0,10.1,4.3,7.8,9l-28.2,55.6h-8.1c5.7-39.9-3.4-56.6-23-57.8h-15.6l-38.5,73.3h6.1c7.6,0,25.7,1.7,42.8-21.5
		c2-2.9,6.4-2.1,4.7,1.7l-34.2,60.1c-1.9,2.1-3.7,2-3-0.4c4.3-17.4,6.3-30.4-9-30.4h-13.7l-36,72.3c-2.9,5,2.6,7.3,12.8,7.3
		c30.4,0,47.4-12.4,77.2-48.7C668.1,373.4,677.4,373,673.4,380.4z M565.4,342.1l29.7-56.5c1.4-2.6-2.5-2.7-5.9-2.7h-8
		c-0.9,0-1.8-0.6-1.8-1.6c0-1.1,0.7-1.9,1.8-1.9l8,0c4.3,0,9.1-0.3,10.7-3l2.3-4.6c2.1-5.1-0.8-9.3-9.3-9.1l-14.1,0.1
		c-6.3,0-19.1,9.5-24.3,14l-64.1,49.5l18.1,93.7c1.6,6.8,10.9,8.9,15.6,0.8l37-70.6c1.1-2.1-3.1-2.7-8-2.7l-14.3,0.4
		c-0.9,0-1.7-0.6-1.7-1.6c0-1.1,0.7-1.8,1.7-1.8l14.1,0.1C557.2,344.8,564.1,344.5,565.4,342.1z M419.1,435H266l-30.4,52.1
		c-2.7,4.3-2.9,5.1-8.8,5.1l-202.6-0.1c-11,0-11.4-8.4,1.3-8.4h34.4c5.4,0,7.7-3,10-6.4l7-13.6c1.4-2.6-2.7-3-6.1-3h-14
		c-1,0-1.9-0.7-1.9-1.7c0-0.9,0.9-1.7,1.9-1.7h14.1c5.6,0,9.4-0.1,10.4-1.9l11.3-21.3c2.1-3.6-3.6-4.1-8.1-4.1H15.7
		c-0.9,0-1.7-0.7-1.7-1.7c0-1,0.7-1.9,1.7-1.9h68.8c5.3,0,12.3-0.1,13.8-3.1l17.7-33.2c1.3-2.7-1.3-3.6-6.3-3.6h-14
		c-0.9,0-1.7-0.7-1.7-1.7c0-0.9,0.7-1.7,1.7-1.7h14.1c2.6,0,9.4,0,11.8-3.9l13.3-24.8c1.6-2.7-1.7-3-7-3H83.6c-1,0-1.7-0.7-1.7-1.7
		c0-1,0.7-1.9,1.7-1.9h44.5c6.4,0,10.1-0.3,11.6-2.1l23-43.1c2-3.6,0.1-5.7-4.9-5.8h-44.4c-0.9,0-1.7-0.7-1.7-1.7
		c0-0.9,0.7-1.7,1.7-1.7H158c7.8,0,10.4-1.1,12.1-4.3l11.7-21.8c1.4-2.9,0.6-4.6-2.4-4.6h-7.8c-1,0-1.9-0.7-1.9-1.7
		c0-0.9,0.9-1.7,1.9-1.7h8c4.6,0,6.8-0.3,8.1-2.6l14.3-26.7c1.7-2.7,1.6-4.6-1.3-4.6h-20.1c-1,0-1.7-0.7-1.7-1.7
		c0-0.9,0.7-1.7,1.7-1.7h20.1c3.1,0,5.8-0.9,6.8-2.6l6.3-11.6c2.3-4.4-1.3-5-3.7-5h-44.4c-0.9,0-1.7-0.7-1.7-1.7
		c0-1,0.7-1.7,1.7-1.7h44.5c7,0,8.7-0.9,9.8-3l3.6-6.6c1.9-3.6-0.4-7.8-7.6-7.8h-25.1c-12.8,0-12.4-8.4-1.3-8.4l135.7,0.1
		c11.1,0,11.4,8.3-1.3,8.3h-27c-4.9,0-9.6,4.1-10.8,6.8L159,427.2c6.7,0,40.7-4.6,47.8-13.6l37.8-47.4c1.6-2-0.9-2.6-3.9-2.6h-20.1
		c-0.9,0-1.7-0.7-1.7-1.7c0-0.9,0.7-1.7,1.7-1.7H244c2.6,0,5.1-0.3,6.6-1.6l26.5-33.2c0.9-1,0.7-2-1.3-2h-6.7
		c-0.9,0-1.7-0.7-1.7-1.7c0-0.9,0.7-1.7,1.7-1.7h8c1.7,0,4.4-0.3,5.3-1.3l28.4-35.5c1.4-1.7-2.7-2.6-6.3-2.6h-20.1
		c-0.9,0-1.7-0.9-1.7-1.9c0-0.9,0.7-1.7,1.7-1.7h24.5c3.3,0,6.1,0.1,7.6-1.3l10.4-13.1c1.6-2.3,3.7-4,7.3-4h29.2
		c4.9,0,6,3.1,5.3,7.7L349.3,412c-0.4,10.6,7.3,9.3,11.3,3.9l54.6-99.4c2.3-4.4-0.7-5.6-4.6-5.6h-14c-0.9,0-1.7-0.9-1.7-1.9
		c0-0.9,0.7-1.7,1.7-1.7h14.1c4.9,0,9.4-0.3,11.4-3.6l16.5-29.7c1.1-2.6-0.6-6.8-4.9-6.8c-10.6,0-10.6-8.4,0.6-8.4l59.4-0.1
		c11.1,0,8.3,8.6,1.7,8.6c-3.7,0-6.9,5.3-8,7.7l-73.9,130.9c-1.7,3.3-1.9,10.4-0.4,14.6c1.1,3.5,4.2,5.9,8.2,6
		C427.9,426.6,430.4,435.4,419.1,435z M308.6,365.8l-51.9-0.1l-31,41.5c-3.1,4.4-1.1,10.3-0.1,11.7c3.3,5.3,8,7.7,12.3,7.8
		c6.6,0.1,9.4,8.6-1.7,8.6h-81.3l-21.4,39.8c-3.3,4.7,2.1,6.6,7,6.6h16.3c60.3-0.3,72.9-22.1,112.1-67.8c5.8-6.8,11.1-4.1,8.7,0.4
		l-9.3,16.7l11.3-2.9c11-2.9,19.5-8.6,21.1-17.3L308.6,365.8z M325.6,274.5l-63.8,84.2h50.5L325.6,274.5z M355.7,221.2h44.2
		c3.4,0,4.3-1.3,5.1-2.4l8.8-13.8c1.3-1.4-1.4-1.6-2.7,0c-6.7,8.7-15.6,10.8-25.5,10.8h-2.9l17.5-34.8c0.9-1.6,2.7-2.9,5-2.9
		c2.1,0,1.9-4.4-1-4.4h-27.7c-2.3,0-3.1,4.4-1,4.4c2.4,0,2.9,2.6,1.7,4.9l-15.7,31c-1.1,1.7-2.9,2.1-4.7,2.6
		C354.7,217,353,221.2,355.7,221.2z M1074.6,401.2c-13.6,27.8-47.2,66.2-70.1,84.6c-17.1,13.8-50.6,35.4-90.5,37
		c-46.4,1.7-93.9-30.4-105-71c-0.4-1.7-4.6-1.7-12.7-1.7h-25.8c-1,0-1.9-0.9-1.9-1.9c0-0.9,0.9-1.7,1.9-1.7h25.8
		c6,0,11.7,0.4,11-2.7c-2.4-10.3-3.4-21.5-4.9-34.2c-0.3-1.7-7.7-1.7-13-1.7h-20c-0.9,0-1.7-0.7-1.7-1.7c0-0.9,0.7-1.7,1.7-1.7
		l20.3-0.1c8.1,0,12.1,0,11.8-2.1c-3-29.1-6.8-55.6-23.1-55.6h-3.7l-36.4,69.1c-2.6,4.1,1.4,11.3,5.3,11.3c6.6,0,9.4,8.6-1.7,8.6
		h-71.3c-11.1,0-11.1-8.4-0.6-8.4c7.1,0,11.3-0.9,14.7-4.6l29.1-52.8c1.6-3.1-0.6-3.9-6.4-3.9h-7.8c-1,0-1.9-0.7-1.9-1.7
		c0-1,0.9-1.9,1.9-1.9h8c7.4,0,10.3-0.1,11.3-2l21.8-39.4c2-3.9-3.8-4.3-9.1-4.3l-8.5,0c-0.9,0-1.6-0.8-1.6-1.8s1-1.7,2-1.7l8,0
		c7.4,0,13.3,0.3,14.8-2.4l18-33.1c2.9-5.4-2.6-10.5-8.3-10.4c-10.4,0.1-9.4-8.6,1.6-8.4l83.5,0.1c19,0,53.6,13.3,43.4,49.1
		c-6,20.7-42.4,43.7-67.1,45.2l-0.1,0.6c10,11.4,28.7,42.9,39.9,68.5l6.7-11c1-1.3,0-2.6-2.3-2.6c-0.9,0-1.7-0.7-1.7-1.7
		c0-1,0.7-1.9,1.7-1.9h2.6c2.7,0,4.6-1.6,5-2.3l18.5-29.1c2.6-4.3,4.1-2,2.6,3.4c-7.7,27.1-2.3,53.2,24.3,53.4
		c25.3,0.1,31.5-9.4,35.7-22.7c0.7-2.4-1-3-4.3-3h-3.9c-0.9,0-1.7-0.7-1.7-1.7c0-1,0.7-1.7,1.7-1.7h4.3c4.1,0,5.4-1.3,5-4.7
		c-1.6-11.7-11-25.4-18.7-34.4c-1-1.1-9.8-1-15-1h-32.1c-1,0-1.7-0.7-1.7-1.7c0-0.9,0.7-1.7,1.7-1.7h31.7c3.9,0,11-0.6,9.3-2.7
		c-5.4-6.7-9.6-11-13.7-16.8c-1.6-2.1-2.4-2.6-6-2.6h-8c-0.9,0-1.7-0.7-1.7-1.7s0.7-1.9,1.7-1.9h8c1.9,0,2.9-0.4,2.6-1.1
		c-4.7-11.6-5.7-24.7-2.7-34c0.7-2.1,1.4-4.1,2.3-6.1c0.9-2.1-0.3-2.7-2.1-2.7h-4.3c-0.9,0-1.7-0.7-1.7-1.7c0-1,0.7-1.7,1.7-1.7h5
		c2.3,0,4.9,0,5.7-1.7c11.7-21.5,30-28,56.1-28c15.3,0,25.3,5.1,36.2,13c4.6,3.3,17.7,1.3,25.7-1.4c3.6-1.1,8.3-0.1,6.1,3.9
		l-29.4,52.4c-1.7,2.4-6.6,0.1-5.8-3.1c1.3-5.7,1.7-9.7,2.9-15.4c0.4-2.1-0.7-3.4-2.4-3.4h-6.1c-1,0-1.9-0.7-1.9-1.7
		s0.9-1.9,1.9-1.9h6.6c1.3,0,2.1-1.7,2.1-3.3c0-17.1-13.6-29.1-32.2-29.1c-14.4,0-21.3,5.4-25.3,17.3c-5.3,15.7,7.4,37.1,20.8,50.5
		c10.7,10.6,34.5,41.1,25,68.6c-9.3,27-41.2,38.2-56.9,38.2c-17,0-38.4-6.4-47.7-12.6c-6-4.1-28.1-1.9-26.5,5.8
		c0.7,4,3.1,10.3,3.9,13.4c3.6,14.8,13.7,51.9,62.5,58.1c15.1,1.9,47.9-4,70.1-22.4c0.9-0.9,5.4-4.3-0.6-4.3h-8
		c-0.9,0-1.7-0.7-1.7-1.7s0.7-1.9,1.7-1.9h8c4.1,0,10,0.4,11.3-0.6c10.4-8.4,20.3-17,34.4-35.8c0.7-1,4.7-3.4,0.7-3.4h-8
		c-1,0-1.7-0.7-1.7-1.7c0-0.9,0.7-1.7,1.7-1.7h8.1c2.4,0,5.6-1.4,6.7-2.9c7.6-9.6,13.4-17.5,19-29.4c1.4-3.1,1.3-5.1-1.7-5.1h-8
		c-1,0-1.9-0.7-1.9-1.7c0-1,0.9-1.9,1.9-1.9h8.1c2.6,0,5.3,0,6.1-1.6c2.9-5.1,4.3-7.7,5.1-3.6C1081,389.2,1077,395.8,1074.6,401.2z
		 M833.5,298.1c6.1-17.4,2.4-32.4-10.4-32.4c-3.6,0-5.3,1.1-6.7,3.3l-33.1,60.5c4,1.9,11.3,7,13.7,9.3c1.7,1.7,10.1-3.3,15.7-7.9
		C822.5,322.7,829.2,310.2,833.5,298.1z M423.7,195.5c3-16.1,19-23.8,34.5-23.8c15.8,0,27.4,10.6,24.4,26.3
		c-3,15.6-18.3,26.4-34.7,26.4C430.7,224.3,420.9,209.6,423.7,195.5z M444.1,214.4c5.3,2.6,13.6-3.3,18.4-13
		c4.9-9.8,4.6-19.8-0.6-22.5c-5.3-2.6-13.4,3.1-18.4,13C438.7,201.8,438.9,211.7,444.1,214.4z M556.9,218.4c0-2.1,1.6-2.7,4.3-2.7
		h1.7c2.9,0,7.1-4.3,11.4-7.4l7.6-6.3h-7.6c-3,0-4.1-1.4-4.1-2.9c0-1.6,1.1-2.7,4-2.7h14.6l28-23c1.7-1.3,8.1-1.4,8.7,0l11.1,36.2
		c1.3,2.9,5.1,2.6,6,0.3l14.4-27.7c1-2,2-4.9-1.9-4.9c-1.6,0-2.4-3.9,1.3-3.9h18.1c2.3,0,4.9,0.7,6,2.3l16.8,24.5l7.6-14
		c2.1-4.3-1.4-8.8-5.4-8.8c-1.6,0-2.6-3.9,1.1-3.9h18.4c3.7,0,2.6,3.9,1.1,3.9c-3.7,0-6,1.7-9,7.7l-18.5,33.4
		c-0.9,1.6-1.6,2.7-3.6,2.7h-6.3c-1.9,0-2.9-1-3.9-3l-16.3-31.5l-11.6,22c-0.9,1.7-3,8.3,1.4,8.3c1.6,0,2.1,4.3-1.1,4.3h-43.9
		c-2.6,0-1.7-4.1,0-5l3.7-2c4.9-2.9-0.9-12.3-8.8-12.3h-13.6l-6.8,6.6c-3.6,4.1,0.3,7.1,2.6,7.1c2.1,0,3,5.6-1.3,5.6h-22.5
		C558,221.4,556.9,220.7,556.9,218.4z M595.7,196.5h17.4l-0.1-14L595.7,196.5z M488.4,218c2.1-2.3,6.7-2.9,9-1.3
		c3.1,2.1,11.3,5.7,16,5.7c10.6,0,17.4-2.7,23.3-11.8c5.3-8.3,2.1-16.4-7.6-21c-5-2.3-9.4-6.6-7.1-11.3c1.6-3,6-2.4,8.3-2
		c4.3,0.7,9.8,4.7,10.4,8.3c0.1,1.4,2.1,1.9,3,0.4l3.3-7.7c0.7-1.6-1.7-2.7-2.6-2.3c-1.4,0.7-4.6,1.1-5.6,0
		c-3.6-2.9-10.6-5.1-14.1-5.1c-10.4,0-18,2-22.5,11.8c-3.9,8.4,0.1,15.4,9.3,19.7c4,1.9,9.3,4.3,7.3,9c-1.6,3.6-5.6,3.9-9.3,3.9
		c-5,0-12.4-3.7-13.6-10.7c-0.4-2.3-3.1-1.7-3.9-0.6l-6.3,12.6C484.8,217.3,487.4,219.2,488.4,218z"/>
</g>
</svg>
